<svg width="24" height="24" viewBox="0 0 24 24" fill="none" xmlns="http://www.w3.org/2000/svg">
<path d="M12 21C16.9706 21 21 16.9706 21 12C21 7.02944 16.9706 3 12 3C7.02944 3 3 7.02944 3 12C3 16.9706 7.02944 21 12 21Z" fill="#102043"/>
<path d="M9.48438 9.09973C9.67201 8.56635 10.0424 8.11658 10.5298 7.83009C11.0173 7.5436 11.5904 7.43888 12.1477 7.53447C12.705 7.63006 13.2105 7.91979 13.5746 8.35235C13.9387 8.78492 14.138 9.33239 14.1372 9.89781C14.1372 11.494 11.7429 12.2921 11.7429 12.2921V13.8529" stroke="white" stroke-width="1.5" stroke-linecap="round" stroke-linejoin="round"/>
<path d="M11.8125 16.5H11.8194" stroke="white" stroke-width="1.5" stroke-linecap="round" stroke-linejoin="round"/>
</svg>
