<svg width="152" height="33" viewBox="0 0 152 33" fill="none" xmlns="http://www.w3.org/2000/svg">
<path d="M52.369 2.2309C52.5364 2.32392 52.6631 2.41271 52.7264 2.5015C52.9391 2.76787 53.0477 3.13571 53.0477 3.60502V5.87549C53.0477 9.99363 50.5096 12.9025 44.4609 13.3719V16.2216C50.288 16.2216 53.3689 14.3316 55.4545 11.1859C58.7073 16.471 65.1903 16.2258 69.1308 16.2258V26.8552H55.4545C54.9794 26.8552 54.6628 26.7706 54.4999 26.6057C54.3461 26.4366 54.2692 26.1871 54.2692 25.8531V19.7224C54.2692 19.4095 54.2103 19.177 54.0882 19.0163C53.9706 18.8599 53.7353 18.788 53.3779 18.788H49.0755C49.2881 18.9656 49.4193 19.1897 49.4646 19.473C49.5143 19.7478 49.537 20.0226 49.537 20.289V27.4555C49.537 27.9249 49.7044 28.3181 50.0391 28.6267C50.5413 29.1214 51.3647 29.3666 52.5138 29.3666H71.7729C72.9627 29.3666 73.8766 28.7705 73.8766 27.0793V2.64948C73.8766 1.95608 73.3427 1.60938 72.3158 1.60938H68.692C68.7915 1.74467 68.8593 1.88843 68.9091 2.04487C69.0494 2.51418 69.1217 3.20336 69.1217 4.62399V13.3803C63.1861 13.2239 57.807 12.5093 58.4494 5.96851V3.13148C58.4494 2.53109 57.988 2.2309 57.1012 2.2309H52.3555H52.369Z" fill="#0B56A7"/>
<path d="M109.72 2.63385C109.72 1.94045 109.181 1.59375 108.154 1.59375H104.531C104.626 1.72482 104.698 1.8728 104.748 2.02924C104.888 2.49856 104.965 3.19196 104.965 4.61682V6.38415H100.482V8.89985H104.965V11.5043H100.482V14.0243H104.965V21.0217H90.0806V19.6645H90.0716C90.049 19.284 89.8816 19.0092 89.5423 18.8654L89.0039 18.7639H84.6562C84.8236 18.8527 84.9458 18.9415 85.0137 19.0303C85.1675 19.2206 85.2625 19.4658 85.3077 19.7575V27.1017C85.3077 29.1354 86.3935 29.3891 87.7326 29.3891H107.317C108.964 29.3891 109.72 28.6491 109.72 27.1017V2.63385ZM104.965 26.8818H90.0761V23.5374H104.965V26.8818Z" fill="#0B56A7"/>
<path d="M99.8938 10.7145C99.8938 8.56245 98.4145 6.73169 96.1389 5.60703H100.477V3.09133H93.1303V2.04277C93.1303 1.61573 92.9494 1.324 92.592 1.17179L92.0491 1.07031H87.6336C87.801 1.1591 87.9186 1.24789 87.9955 1.34091C88.2081 1.60728 88.3167 1.97512 88.3167 2.44866H88.3529V3.09556H80.9062V5.61548H85.2448C82.9692 6.74015 81.4944 8.5709 81.4944 10.723C81.4944 14.3126 85.6068 16.693 90.6873 16.693C95.7679 16.693 99.8803 14.3168 99.8803 10.723L99.8938 10.7145ZM85.9144 10.8075C85.9144 8.68929 88.0543 6.68518 90.7009 6.68518C93.3475 6.68518 95.4829 8.69352 95.4829 10.8075C95.4829 12.9216 93.3384 14.4141 90.7009 14.4141C88.0634 14.4141 85.9144 12.93 85.9144 10.8075Z" fill="#0B56A7"/>
<path d="M35.3959 18.9215C33.6949 22.879 30.8402 23.9952 30.8402 23.9952C39.2369 16.0422 34.1066 6.87998 34.1066 6.87998C32.867 4.82513 34.4459 3.93301 34.4459 3.93301C30.8402 4.7744 31.9667 7.56492 31.9667 7.56492C33.7808 11.5985 33.4144 14.8752 32.7991 16.9005L31.6093 16.279L31.6274 16.2536C31.6274 16.2536 34.4414 5.88638 22.9592 2.25024L22.9502 0.296875H20.5298V13.1502L31.7993 19.1541C31.5957 19.543 31.3786 19.9109 31.1478 20.2576L19.8286 14.1311L8.46403 20.2576C8.23783 19.9109 8.02067 19.543 7.81256 19.1541L19.0821 13.1502V0.301103H16.6572L16.6481 2.25447C5.1705 5.89061 7.98448 16.2578 7.98448 16.2578L8.00258 16.2832L6.81274 16.9047C6.19746 14.8795 5.83101 11.6027 7.64517 7.56915C7.64517 7.56915 8.77167 4.77863 5.16597 3.93724C5.16597 3.93724 6.74488 4.83359 5.50528 6.8842C5.50528 6.8842 0.379484 16.0464 8.77167 23.9994C8.77167 23.9994 5.91697 22.879 4.21591 18.9257C4.21591 18.9257 3.25228 16.9977 0.546875 17.4163C0.546875 17.4163 1.56932 17.8476 2.1665 19.598C2.1665 19.598 4.60499 26.8449 14.0151 27.9484V31.9524H18.6342V26.0543C18.6342 26.0543 13.7346 26.0162 9.98865 22.1687L11.1513 21.5345C11.3685 21.7247 14.9244 24.8027 19.7788 24.8831C19.7788 24.8831 19.7969 24.8831 19.8059 24.8831C19.815 24.8831 19.824 24.8831 19.8331 24.8831C24.6874 24.8027 28.2434 21.7247 28.4605 21.5345L29.6232 22.1687C25.8818 26.0162 20.9777 26.0543 20.9777 26.0543V31.9524H25.5968V27.9484C35.0069 26.8407 37.4454 19.598 37.4454 19.598C38.0425 17.8518 39.065 17.4163 39.065 17.4163C36.3596 16.9935 35.3959 18.9257 35.3959 18.9257V18.9215ZM29.3744 15.0951L29.3653 15.1036L23.009 11.7761L22.9728 4.6687H23.009C23.009 4.6687 30.6728 6.61784 29.3744 15.0951ZM16.6074 4.67292H16.6436L16.6074 11.7803L10.251 15.1078L10.242 15.0993C8.94811 6.62206 16.6074 4.67292 16.6074 4.67292ZM19.8286 16.8159L26.1668 20.2787V20.2872L26.1125 20.2576C23.8459 21.9319 21.6834 22.4858 19.8105 22.4858C17.9375 22.4858 15.775 21.9319 13.5084 20.2576L13.4541 20.2872V20.2787L19.8286 16.8159Z" fill="#0B56A7"/>
<path d="M133.856 15.528V29.288H131.568V16.024C131.568 15.688 131.568 15.256 131.36 15.016H133.136C133.584 15.016 133.856 15.176 133.856 15.528ZM129.088 19.16C129.088 24.728 125.984 27.528 121.344 27.528V26.168C125.584 25.848 126.784 22.696 126.784 19.304V18.056C126.784 17.704 126.64 17.512 126.176 17.512H121.024V16.104H127.376C128.56 16.104 129.088 16.6 129.088 17.608V19.16ZM148.08 16.024C148.08 15.688 148.08 15.256 147.872 15.016H149.616C150.064 15.016 150.336 15.24 150.336 15.592V28.104C150.336 28.952 149.92 29.272 149.344 29.272H139.888C139.184 29.272 138.752 29.032 138.752 28.104V24.232C138.752 23.912 138.656 23.752 138.432 23.624H140.624C140.912 23.624 141.008 23.736 141.008 24.072V25.16H148.08V19.576H145.92C145.52 21.544 143.504 22.568 141.36 22.568C138.976 22.568 136.736 21.288 136.736 18.872C136.736 16.456 138.976 15.176 141.36 15.176C143.504 15.176 145.52 16.216 145.92 18.168H148.08V16.024ZM138.928 18.872C138.928 20.216 139.92 21.256 141.36 21.256C142.8 21.256 143.792 20.216 143.792 18.872C143.792 17.528 142.8 16.488 141.36 16.488C139.92 16.488 138.928 17.528 138.928 18.872ZM148.08 27.96V26.472H141.008V27.96H148.08Z" fill="#0B56A7"/>
</svg>
