<svg width="28" height="28" viewBox="0 0 28 28" fill="none" xmlns="http://www.w3.org/2000/svg">
<circle cx="16" cy="12" r="11.5" fill="#2763F6"/>
<g filter="url(#filter0_bi_2154_43209)">
<circle cx="12" cy="16" r="11.5" fill="#96E6FF" fill-opacity="0.3"/>
<circle cx="12" cy="16" r="11.35" stroke="url(#paint0_linear_2154_43209)" stroke-width="0.3" stroke-linecap="round" stroke-linejoin="round"/>
</g>
<g filter="url(#filter1_d_2154_43209)">
<path d="M6.5 15.5938H7.78333" stroke="white" stroke-width="1.5" stroke-linecap="round"/>
<path d="M16.125 15.5938H17.5" stroke="white" stroke-width="1.5" stroke-linecap="round"/>
<path d="M14.4032 18.4563L12.7294 13.0296C12.6782 12.8507 12.5814 12.7082 12.439 12.6046C12.2972 12.5015 12.1358 12.45 11.9564 12.45C11.7759 12.45 11.6141 12.5082 11.4726 12.6236C11.3316 12.7265 11.2349 12.8621 11.1835 13.029C11.1835 13.0291 11.1835 13.0291 11.1835 13.0291L9.49189 18.4563L7.81699 12.885C7.77775 12.7416 7.69985 12.6311 7.58253 12.5574C7.46622 12.4843 7.31548 12.45 7.13446 12.45C6.95048 12.45 6.78709 12.5229 6.64592 12.664C6.51749 12.7925 6.45 12.9376 6.45 13.0982C6.45 13.2337 6.46226 13.3475 6.48818 13.4382L6.48812 13.4383L6.48892 13.4406L8.5917 19.6221L8.5917 19.6221L8.59195 19.6228C8.65593 19.8019 8.77095 19.9546 8.93485 20.0806C9.10046 20.208 9.28635 20.2723 9.49103 20.2723C9.70707 20.2723 9.89915 20.2085 10.0653 20.0806L10.0654 20.0807L10.0671 20.0792C10.2295 19.9418 10.3493 19.7847 10.4252 19.6075L10.4254 19.6076L10.4269 19.6031L11.9564 14.8389L13.4858 19.6031L13.486 19.6036C13.5497 19.7947 13.6646 19.954 13.8293 20.0806L13.8292 20.0807L13.8307 20.0817C14.0077 20.2081 14.199 20.2723 14.4036 20.2723C14.6196 20.2723 14.8117 20.2085 14.9779 20.0806C15.1418 19.9546 15.2568 19.8019 15.3208 19.6228L15.321 19.6221L17.4238 13.4406L17.4239 13.4406L17.4245 13.4382C17.4505 13.3475 17.4627 13.2337 17.4627 13.0982C17.4627 12.9365 17.3883 12.7915 17.2487 12.664C17.1193 12.5225 16.9617 12.45 16.7783 12.45C16.5972 12.45 16.4465 12.4843 16.3302 12.5574C16.2129 12.6311 16.135 12.7416 16.0958 12.8849L14.4032 18.4563Z" fill="white" stroke="white" stroke-width="0.1"/>
</g>
<defs>
<filter id="filter0_bi_2154_43209" x="-3.5" y="0.5" width="31" height="31" filterUnits="userSpaceOnUse" color-interpolation-filters="sRGB">
<feFlood flood-opacity="0" result="BackgroundImageFix"/>
<feGaussianBlur in="BackgroundImageFix" stdDeviation="2"/>
<feComposite in2="SourceAlpha" operator="in" result="effect1_backgroundBlur_2154_43209"/>
<feBlend mode="normal" in="SourceGraphic" in2="effect1_backgroundBlur_2154_43209" result="shape"/>
<feColorMatrix in="SourceAlpha" type="matrix" values="0 0 0 0 0 0 0 0 0 0 0 0 0 0 0 0 0 0 127 0" result="hardAlpha"/>
<feOffset/>
<feGaussianBlur stdDeviation="5.5"/>
<feComposite in2="hardAlpha" operator="arithmetic" k2="-1" k3="1"/>
<feColorMatrix type="matrix" values="0 0 0 0 0.170833 0 0 0 0 0.602 0 0 0 0 1 0 0 0 0.3 0"/>
<feBlend mode="normal" in2="shape" result="effect2_innerShadow_2154_43209"/>
</filter>
<filter id="filter1_d_2154_43209" x="4.75" y="11.4004" width="14.5" height="9.92188" filterUnits="userSpaceOnUse" color-interpolation-filters="sRGB">
<feFlood flood-opacity="0" result="BackgroundImageFix"/>
<feColorMatrix in="SourceAlpha" type="matrix" values="0 0 0 0 0 0 0 0 0 0 0 0 0 0 0 0 0 0 127 0" result="hardAlpha"/>
<feOffset/>
<feGaussianBlur stdDeviation="0.5"/>
<feComposite in2="hardAlpha" operator="out"/>
<feColorMatrix type="matrix" values="0 0 0 0 0.243137 0 0 0 0 0.407843 0 0 0 0 0.807843 0 0 0 1 0"/>
<feBlend mode="normal" in2="BackgroundImageFix" result="effect1_dropShadow_2154_43209"/>
<feBlend mode="normal" in="SourceGraphic" in2="effect1_dropShadow_2154_43209" result="shape"/>
</filter>
<linearGradient id="paint0_linear_2154_43209" x1="5.21782" y1="25.8496" x2="22.4731" y2="12.5109" gradientUnits="userSpaceOnUse">
<stop stop-color="white" stop-opacity="0.79"/>
<stop offset="1" stop-color="white" stop-opacity="0"/>
</linearGradient>
</defs>
</svg>
