<svg width="28" height="28" viewBox="0 0 28 28" fill="none" xmlns="http://www.w3.org/2000/svg">
<path d="M5 4C5 2.89543 5.89543 2 7 2H25C26.1046 2 27 2.89543 27 4V18C27 20.2091 25.2091 22 23 22H9C6.79086 22 5 20.2091 5 18V4Z" fill="#2763F6"/>
<g filter="url(#filter0_b_2154_43199)">
<path d="M1 8C1 6.89543 1.89543 6 3 6H21C22.1046 6 23 6.89543 23 8V22C23 24.2091 21.2091 26 19 26H5C2.79086 26 1 24.2091 1 22V8Z" fill="#96E6FF" fill-opacity="0.3"/>
<path d="M1.15 8C1.15 6.97827 1.97827 6.15 3 6.15H21C22.0217 6.15 22.85 6.97827 22.85 8V22C22.85 24.1263 21.1263 25.85 19 25.85H5C2.8737 25.85 1.15 24.1263 1.15 22V8Z" stroke="url(#paint0_linear_2154_43199)" stroke-width="0.3"/>
</g>
<path d="M7.5 13.5312H8.55" stroke="white" stroke-width="1.5" stroke-linecap="round"/>
<path d="M15.375 13.5312H16.5" stroke="white" stroke-width="1.5" stroke-linecap="round"/>
<path d="M13.9662 15.8422L12.6055 11.4307C12.5631 11.2826 12.4828 11.1643 12.3645 11.0782C12.2469 10.9927 12.113 10.95 11.9643 10.95C11.8146 10.95 11.6802 10.9983 11.5629 11.0939C11.4461 11.1792 11.3659 11.2918 11.3233 11.4301C11.3233 11.4302 11.3233 11.4302 11.3232 11.4302L9.94807 15.8423L8.58627 11.3125C8.55362 11.1933 8.48863 11.1009 8.39055 11.0392C8.29346 10.9782 8.16826 10.95 8.0191 10.95C7.86588 10.95 7.72996 11.0108 7.61296 11.1278C7.50651 11.2342 7.45 11.3552 7.45 11.4894C7.45 11.6007 7.46006 11.6948 7.48159 11.7701L7.48153 11.7702L7.48233 11.7725L9.20279 16.8301L9.20278 16.8301L9.20304 16.8308C9.25603 16.9792 9.35127 17.1054 9.4866 17.2096C9.62365 17.315 9.77768 17.3682 9.9472 17.3682C10.1259 17.3682 10.285 17.3154 10.4226 17.2096L10.4227 17.2096L10.4244 17.2081C10.5582 17.0949 10.6572 16.9652 10.7199 16.8188L10.7201 16.8189L10.7216 16.8144L11.9643 12.9434L13.207 16.8144L13.2072 16.8149C13.2599 16.9731 13.355 17.1048 13.4911 17.2096L13.4911 17.2096L13.4925 17.2106C13.6388 17.3151 13.7971 17.3682 13.9666 17.3682C14.1452 17.3682 14.3044 17.3154 14.442 17.2096C14.5773 17.1054 14.6726 16.9792 14.7256 16.8308L14.7258 16.8301L16.4463 11.7725L16.4463 11.7725L16.447 11.7701C16.4685 11.6948 16.4786 11.6007 16.4786 11.4894C16.4786 11.3541 16.4162 11.2333 16.3008 11.1278C16.1934 11.0104 16.0622 10.95 15.9095 10.95C15.7603 10.95 15.6351 10.9782 15.538 11.0392C15.44 11.1009 15.375 11.1933 15.3423 11.3124L13.9662 15.8422Z" fill="white" stroke="white" stroke-width="0.1"/>
<g filter="url(#filter1_d_2154_43199)">
<path d="M4.5 21.5C4.5 21.2239 4.72386 21 5 21H19C19.2761 21 19.5 21.2239 19.5 21.5C19.5 21.7761 19.2761 22 19 22H5C4.72386 22 4.5 21.7761 4.5 21.5Z" fill="white"/>
</g>
<defs>
<filter id="filter0_b_2154_43199" x="-3" y="2" width="30" height="28" filterUnits="userSpaceOnUse" color-interpolation-filters="sRGB">
<feFlood flood-opacity="0" result="BackgroundImageFix"/>
<feGaussianBlur in="BackgroundImageFix" stdDeviation="2"/>
<feComposite in2="SourceAlpha" operator="in" result="effect1_backgroundBlur_2154_43199"/>
<feBlend mode="normal" in="SourceGraphic" in2="effect1_backgroundBlur_2154_43199" result="shape"/>
</filter>
<filter id="filter1_d_2154_43199" x="3.5" y="20" width="17" height="3" filterUnits="userSpaceOnUse" color-interpolation-filters="sRGB">
<feFlood flood-opacity="0" result="BackgroundImageFix"/>
<feColorMatrix in="SourceAlpha" type="matrix" values="0 0 0 0 0 0 0 0 0 0 0 0 0 0 0 0 0 0 127 0" result="hardAlpha"/>
<feOffset/>
<feGaussianBlur stdDeviation="0.5"/>
<feComposite in2="hardAlpha" operator="out"/>
<feColorMatrix type="matrix" values="0 0 0 0 0.243137 0 0 0 0 0.407843 0 0 0 0 0.807843 0 0 0 0.25 0"/>
<feBlend mode="normal" in2="BackgroundImageFix" result="effect1_dropShadow_2154_43199"/>
<feBlend mode="normal" in="SourceGraphic" in2="effect1_dropShadow_2154_43199" result="shape"/>
</filter>
<linearGradient id="paint0_linear_2154_43199" x1="5.5" y1="23.5" x2="18" y2="11.5" gradientUnits="userSpaceOnUse">
<stop stop-color="white" stop-opacity="0.79"/>
<stop offset="1" stop-color="white" stop-opacity="0"/>
</linearGradient>
</defs>
</svg>
