<svg width="28" height="28" viewBox="0 0 28 28" fill="none" xmlns="http://www.w3.org/2000/svg">
<path d="M4 5.11111C4 4.49746 4.49746 4 5.11111 4H11.7778C12.3914 4 12.8889 4.49746 12.8889 5.11111V11.7778C12.8889 12.3914 12.3914 12.8889 11.7778 12.8889H5.11111C4.49746 12.8889 4 12.3914 4 11.7778V5.11111Z" fill="#D3D3D3"/>
<path d="M4 16.2222C4 15.6086 4.49746 15.1111 5.11111 15.1111H11.7778C12.3914 15.1111 12.8889 15.6086 12.8889 16.2222V22.8889C12.8889 23.5025 12.3914 24 11.7778 24H5.11111C4.49746 24 4 23.5025 4 22.8889V16.2222Z" fill="#D3D3D3"/>
<path d="M15.1111 5.11111C15.1111 4.49746 15.6086 4 16.2222 4H22.8889C23.5025 4 24 4.49746 24 5.11111V11.7778C24 12.3914 23.5025 12.8889 22.8889 12.8889H16.2222C15.6086 12.8889 15.1111 12.3914 15.1111 11.7778V5.11111Z" fill="#D3D3D3"/>
<path d="M15.1111 16.2222C15.1111 15.6086 15.6086 15.1111 16.2222 15.1111H22.8889C23.5025 15.1111 24 15.6086 24 16.2222V22.8889C24 23.5025 23.5025 24 22.8889 24H16.2222C15.6086 24 15.1111 23.5025 15.1111 22.8889V16.2222Z" fill="#D3D3D3"/>
</svg>
