<svg width="28" height="28" viewBox="0 0 28 28" fill="none" xmlns="http://www.w3.org/2000/svg">
<circle cx="14.5" cy="14.5" r="11.5" fill="#D9D9D9"/>
<path d="M9 14.0938H10.2833" stroke="white" stroke-width="1.5" stroke-linecap="round"/>
<path d="M18.625 14.0938H20" stroke="white" stroke-width="1.5" stroke-linecap="round"/>
<path d="M16.9032 16.9563L15.2294 11.5296C15.1782 11.3507 15.0814 11.2082 14.939 11.1046C14.7972 11.0015 14.6358 10.95 14.4564 10.95C14.2759 10.95 14.1141 11.0082 13.9726 11.1236C13.8316 11.2265 13.7349 11.3621 13.6835 11.529C13.6835 11.5291 13.6835 11.5291 13.6835 11.5291L11.9919 16.9563L10.317 11.385C10.2777 11.2416 10.1998 11.1311 10.0825 11.0574C9.96622 10.9843 9.81548 10.95 9.63446 10.95C9.45048 10.95 9.28709 11.0229 9.14592 11.164C9.01749 11.2925 8.95 11.4376 8.95 11.5982C8.95 11.7337 8.96226 11.8475 8.98818 11.9382L8.98812 11.9383L8.98892 11.9406L11.0917 18.1221L11.0917 18.1221L11.092 18.1228C11.1559 18.3019 11.2709 18.4546 11.4348 18.5806C11.6005 18.708 11.7863 18.7723 11.991 18.7723C12.2071 18.7723 12.3992 18.7085 12.5653 18.5806L12.5654 18.5807L12.5671 18.5792C12.7295 18.4418 12.8493 18.2847 12.9252 18.1075L12.9254 18.1076L12.9269 18.1031L14.4564 13.3389L15.9858 18.1031L15.986 18.1036C16.0497 18.2947 16.1646 18.454 16.3293 18.5806L16.3292 18.5807L16.3307 18.5817C16.5077 18.7081 16.699 18.7723 16.9036 18.7723C17.1196 18.7723 17.3117 18.7085 17.4779 18.5806C17.6418 18.4546 17.7568 18.3019 17.8208 18.1228L17.821 18.1221L19.9238 11.9406L19.9239 11.9406L19.9245 11.9382C19.9505 11.8475 19.9627 11.7337 19.9627 11.5982C19.9627 11.4365 19.8883 11.2915 19.7487 11.164C19.6193 11.0225 19.4617 10.95 19.2783 10.95C19.0972 10.95 18.9465 10.9843 18.8302 11.0574C18.7129 11.1311 18.635 11.2416 18.5958 11.3849L16.9032 16.9563Z" fill="white" stroke="white" stroke-width="0.1"/>
</svg>
