<svg width="28" height="29" viewBox="0 0 28 29" fill="none" xmlns="http://www.w3.org/2000/svg">
<path d="M25.7375 8.92365L16.8886 1.51397C16.0879 0.828678 14.9502 0.828678 14.1496 1.51397L5.30062 8.92365C4.79497 9.35196 4.5 9.95158 4.5 10.6369V21.8156C4.5 23.0149 5.46917 24 6.64904 24H24.347C25.5268 24 26.496 23.0149 26.496 21.8156V10.594C26.5382 9.95158 26.2432 9.30912 25.7375 8.92365Z" fill="#2763F6"/>
<g filter="url(#filter0_bi_2154_42650)">
<path d="M21.7375 11.9237L12.8886 4.51397C12.0879 3.82868 10.9502 3.82868 10.1496 4.51397L1.30062 11.9237C0.794966 12.352 0.5 12.9516 0.5 13.6369V24.8156C0.5 26.0149 1.46917 27 2.64904 27H20.347C21.5268 27 22.496 26.0149 22.496 24.8156V13.594C22.5382 12.9516 22.2432 12.3091 21.7375 11.9237Z" fill="#96E6FF" fill-opacity="0.3"/>
<path d="M21.6412 12.0387L21.6411 12.0388L21.6466 12.0429C22.1124 12.398 22.3852 12.992 22.3463 13.5842L22.346 13.5842V13.594V24.8156C22.346 25.9344 21.4417 26.85 20.347 26.85H2.64904C1.55431 26.85 0.65 25.9344 0.65 24.8156V13.6369C0.65 12.9977 0.924015 12.4394 1.39724 12.0384C1.39735 12.0383 1.39746 12.0382 1.39757 12.0381L10.2459 4.62897L10.2459 4.62898L10.2471 4.62792C10.9916 3.99069 12.0465 3.99069 12.791 4.62792L12.791 4.62793L12.7923 4.62897L21.6412 12.0387Z" stroke="url(#paint0_linear_2154_42650)" stroke-width="0.3" stroke-linecap="round" stroke-linejoin="round"/>
</g>
<g filter="url(#filter1_d_2154_42650)">
<path d="M7.5 22.5H15.5" stroke="white" stroke-width="1.5" stroke-linecap="round"/>
</g>
<defs>
<filter id="filter0_bi_2154_42650" x="-3.5" y="0" width="30" height="31" filterUnits="userSpaceOnUse" color-interpolation-filters="sRGB">
<feFlood flood-opacity="0" result="BackgroundImageFix"/>
<feGaussianBlur in="BackgroundImageFix" stdDeviation="2"/>
<feComposite in2="SourceAlpha" operator="in" result="effect1_backgroundBlur_2154_42650"/>
<feBlend mode="normal" in="SourceGraphic" in2="effect1_backgroundBlur_2154_42650" result="shape"/>
<feColorMatrix in="SourceAlpha" type="matrix" values="0 0 0 0 0 0 0 0 0 0 0 0 0 0 0 0 0 0 127 0" result="hardAlpha"/>
<feOffset/>
<feGaussianBlur stdDeviation="5.5"/>
<feComposite in2="hardAlpha" operator="arithmetic" k2="-1" k3="1"/>
<feColorMatrix type="matrix" values="0 0 0 0 0.170833 0 0 0 0 0.602 0 0 0 0 1 0 0 0 0.3 0"/>
<feBlend mode="normal" in2="shape" result="effect2_innerShadow_2154_42650"/>
</filter>
<filter id="filter1_d_2154_42650" x="5.75" y="20.75" width="11.5" height="3.5" filterUnits="userSpaceOnUse" color-interpolation-filters="sRGB">
<feFlood flood-opacity="0" result="BackgroundImageFix"/>
<feColorMatrix in="SourceAlpha" type="matrix" values="0 0 0 0 0 0 0 0 0 0 0 0 0 0 0 0 0 0 127 0" result="hardAlpha"/>
<feOffset/>
<feGaussianBlur stdDeviation="0.5"/>
<feComposite in2="hardAlpha" operator="out"/>
<feColorMatrix type="matrix" values="0 0 0 0 0.2425 0 0 0 0 0.40651 0 0 0 0 0.808333 0 0 0 1 0"/>
<feBlend mode="normal" in2="BackgroundImageFix" result="effect1_dropShadow_2154_42650"/>
<feBlend mode="normal" in="SourceGraphic" in2="effect1_dropShadow_2154_42650" result="shape"/>
</filter>
<linearGradient id="paint0_linear_2154_42650" x1="5.0127" y1="25.3496" x2="22.0602" y2="12.7445" gradientUnits="userSpaceOnUse">
<stop stop-color="white" stop-opacity="0.79"/>
<stop offset="1" stop-color="white" stop-opacity="0"/>
</linearGradient>
</defs>
</svg>
