<svg width="28" height="28" viewBox="0 0 28 28" fill="none" xmlns="http://www.w3.org/2000/svg">
<path d="M3 6C3 4.89543 3.89543 4 5 4H23C24.1046 4 25 4.89543 25 6V20C25 22.2091 23.2091 24 21 24H7C4.79086 24 3 22.2091 3 20V6Z" fill="#D3D3D3"/>
<path d="M9.5 11.5312H10.55" stroke="white" stroke-width="1.5" stroke-linecap="round"/>
<path d="M17.375 11.5312H18.5" stroke="white" stroke-width="1.5" stroke-linecap="round"/>
<path d="M15.9662 13.8422L14.6055 9.43069C14.5631 9.28258 14.4828 9.16426 14.3645 9.07822C14.2469 8.99271 14.113 8.95 13.9643 8.95C13.8146 8.95 13.6802 8.99831 13.5629 9.09389C13.4461 9.17923 13.3659 9.29176 13.3233 9.43014C13.3233 9.43017 13.3233 9.43021 13.3232 9.43024L11.9481 13.8423L10.5863 9.3125C10.5536 9.19331 10.4886 9.1009 10.3905 9.03924C10.2935 8.97822 10.1683 8.95 10.0191 8.95C9.86588 8.95 9.72996 9.01079 9.61296 9.12779C9.50651 9.23424 9.45 9.35518 9.45 9.48944C9.45 9.60074 9.46006 9.69481 9.48159 9.77014L9.48153 9.77016L9.48233 9.77251L11.2028 14.8301L11.2028 14.8301L11.203 14.8308C11.256 14.9792 11.3513 15.1054 11.4866 15.2096C11.6236 15.315 11.7777 15.3682 11.9472 15.3682C12.1259 15.3682 12.285 15.3154 12.4226 15.2096L12.4227 15.2096L12.4244 15.2081C12.5582 15.0949 12.6572 14.9652 12.7199 14.8188L12.7201 14.8189L12.7216 14.8144L13.9643 10.9434L15.207 14.8144L15.2072 14.8149C15.2599 14.9731 15.355 15.1048 15.4911 15.2096L15.4911 15.2096L15.4925 15.2106C15.6388 15.3151 15.7971 15.3682 15.9666 15.3682C16.1452 15.3682 16.3044 15.3154 16.442 15.2096C16.5773 15.1054 16.6726 14.9792 16.7256 14.8308L16.7258 14.8301L18.4463 9.77251L18.4463 9.77253L18.447 9.77014C18.4685 9.69481 18.4786 9.60074 18.4786 9.48944C18.4786 9.35413 18.4162 9.23329 18.3008 9.12775C18.1934 9.01045 18.0622 8.95 17.9095 8.95C17.7603 8.95 17.6351 8.97822 17.538 9.03924C17.44 9.10088 17.375 9.19327 17.3423 9.31243L15.9662 13.8422Z" fill="white" stroke="white" stroke-width="0.1"/>
<path d="M6.5 19.5C6.5 19.2239 6.72386 19 7 19H21C21.2761 19 21.5 19.2239 21.5 19.5C21.5 19.7761 21.2761 20 21 20H7C6.72386 20 6.5 19.7761 6.5 19.5Z" fill="white"/>
</svg>
