<svg width="173" height="70" viewBox="0 0 173 70" fill="none" xmlns="http://www.w3.org/2000/svg">
<path d="M0 35C0 15.67 15.67 0 35 0H138C157.33 0 173 15.67 173 35C173 54.33 157.33 70 138 70H35C15.67 70 0 54.33 0 35Z" fill="#D6DDE6"/>
<ellipse cx="34.9572" cy="35.0023" rx="34.9568" ry="34.9977" transform="rotate(180 34.9572 35.0023)" fill="#5D6F80"/>
<path fill-rule="evenodd" clip-rule="evenodd" d="M18.7298 18.3306C14.4084 22.572 11.7382 28.4651 11.7382 34.9931C11.7382 47.879 22.172 58.325 35.0428 58.325C47.9135 58.325 58.3473 47.879 58.3473 34.9931C58.3473 28.4651 55.6771 22.572 51.3557 18.3306L59.5128 10C65.9777 16.345 69.9996 25.2041 69.9996 34.9931C69.9996 54.3219 54.3489 69.9909 35.0428 69.9909C15.7366 69.9909 0.0859375 54.3219 0.0859375 34.9931C0.0859375 25.2041 4.10787 16.345 10.5727 10L18.7298 18.3306Z" fill="#96A4B1"/>
<ellipse cx="35.0408" cy="35.9635" rx="12.6233" ry="12.6381" transform="rotate(180 35.0408 35.9635)" fill="#2763F6"/>
<path fill-rule="evenodd" clip-rule="evenodd" d="M35.1562 38.2343C33.4994 38.2343 32.1563 36.6164 32.1563 34.6206L32.1562 9.12063C32.1562 7.12485 33.4994 6.00695 35.1562 6.00695C36.8131 6.00695 38.1562 7.12485 38.1562 9.12063L38.1562 34.6206C38.1562 36.6164 36.8131 38.2343 35.1562 38.2343Z" fill="#C4D3E1"/>
<rect x="78" y="19" width="80" height="30" rx="2" fill="#EAEFF3"/>
<rect x="78.25" y="19.25" width="79.5" height="29.5" rx="1.75" stroke="white" stroke-opacity="0.2" stroke-width="0.5"/>
<rect x="78" y="19" width="80" height="30" rx="2" fill="white"/>
<rect x="78.25" y="19.25" width="79.5" height="29.5" rx="1.75" stroke="#929292" stroke-opacity="0.1" stroke-width="0.5"/>
<path d="M110.143 25.6788L110.716 25.0455C110.743 25.0165 110.78 25 110.819 25H115.199C115.236 25 115.272 25.0151 115.298 25.0418L115.915 25.6751C115.966 25.7274 115.968 25.8102 115.919 25.8644L115.298 26.5525C115.272 26.5816 115.234 26.5982 115.195 26.5982H110.821C110.78 26.5982 110.741 26.58 110.715 26.5486L110.14 25.8604C110.095 25.8075 110.097 25.73 110.143 25.6788Z" fill="#161616" stroke="#161616" stroke-width="0.327644"/>
<path d="M110.143 33.671L110.716 33.0377C110.743 33.0087 110.78 32.9922 110.819 32.9922H115.199C115.236 32.9922 115.272 33.0073 115.298 33.034L115.915 33.6673C115.966 33.7196 115.968 33.8024 115.919 33.8566L115.298 34.5447C115.272 34.5738 115.234 34.5904 115.195 34.5904H110.821C110.78 34.5904 110.741 34.5722 110.715 34.5408L110.14 33.8526C110.095 33.7997 110.097 33.7222 110.143 33.671Z" fill="#161616" stroke="#161616" stroke-width="0.327644"/>
<path d="M110.143 41.21L110.716 40.5768C110.743 40.5478 110.78 40.5312 110.819 40.5312H115.198C115.236 40.5312 115.271 40.5463 115.297 40.5731L115.914 41.2064C115.965 41.2586 115.967 41.3415 115.918 41.3956L115.297 42.0837C115.271 42.1128 115.233 42.1294 115.194 42.1294H110.821C110.78 42.1294 110.741 42.1113 110.715 42.0798L110.14 41.3917C110.095 41.3387 110.097 41.2612 110.143 41.21Z" fill="#161616" stroke="#161616" stroke-width="0.327644"/>
<path d="M109.14 32.8567L108.506 32.2836C108.477 32.2573 108.461 32.22 108.461 32.1809L108.461 27.8508C108.461 27.8135 108.476 27.7777 108.503 27.7517L109.136 27.1349C109.188 27.084 109.271 27.0824 109.325 27.1313L110.013 27.7522C110.043 27.7784 110.059 27.8157 110.059 27.8549L110.059 32.1786C110.059 32.2196 110.041 32.2585 110.01 32.2848L109.321 32.8603C109.268 32.9045 109.191 32.903 109.14 32.8567Z" fill="#C3D0D7" stroke="#C3D0D7" stroke-width="0.327644"/>
<path d="M109.14 40.4036L108.506 39.8304C108.477 39.8042 108.461 39.7669 108.461 39.7278L108.461 35.3977C108.461 35.3603 108.476 35.3246 108.503 35.2985L109.136 34.6818C109.188 34.6309 109.271 34.6293 109.325 34.6782L110.013 35.299C110.043 35.3253 110.059 35.3626 110.059 35.4018L110.059 39.7255C110.059 39.7665 110.041 39.8054 110.01 39.8317L109.321 40.4071C109.268 40.4514 109.191 40.4499 109.14 40.4036Z" fill="#C3D0D7" stroke="#C3D0D7" stroke-width="0.327644"/>
<path d="M116.342 32.8537L115.708 32.2671C115.68 32.2409 115.664 32.2041 115.664 32.1655L115.664 27.8668C115.664 27.83 115.679 27.7948 115.705 27.7688L116.338 27.1375C116.391 27.0851 116.475 27.0835 116.53 27.1338L117.218 27.7692C117.246 27.7954 117.262 27.8323 117.262 27.8709L117.262 32.1633C117.262 32.2037 117.245 32.2421 117.214 32.2684L116.526 32.8574C116.472 32.903 116.393 32.9015 116.342 32.8537Z" fill="#161616" stroke="#161616" stroke-width="0.327644"/>
<path d="M116.341 40.3984L115.708 39.8014C115.68 39.7752 115.664 39.7388 115.664 39.7007L115.664 35.4264C115.664 35.39 115.678 35.3551 115.704 35.3292L116.337 34.6868C116.39 34.6333 116.476 34.6317 116.531 34.6831L117.219 35.3296C117.246 35.3558 117.262 35.3923 117.262 35.4305L117.262 39.6984C117.262 39.7384 117.245 39.7765 117.215 39.8028L116.527 40.402C116.473 40.4488 116.393 40.4472 116.341 40.3984Z" fill="#161616" stroke="#161616" stroke-width="0.327644"/>
<path d="M98.1511 25.6788L98.7243 25.0455C98.7505 25.0165 98.7878 25 98.8269 25H103.207C103.244 25 103.28 25.0151 103.306 25.0418L103.923 25.6751C103.974 25.7274 103.975 25.8102 103.926 25.8644L103.306 26.5525C103.279 26.5816 103.242 26.5982 103.203 26.5982H98.8292C98.7882 26.5982 98.7493 26.58 98.723 26.5486L98.1476 25.8604C98.1033 25.8075 98.1048 25.73 98.1511 25.6788Z" fill="#161616" stroke="#161616" stroke-width="0.327644"/>
<path d="M98.1511 33.671L98.7243 33.0377C98.7505 33.0087 98.7878 32.9922 98.8269 32.9922H103.207C103.244 32.9922 103.28 33.0073 103.306 33.034L103.923 33.6673C103.974 33.7196 103.975 33.8024 103.926 33.8566L103.306 34.5447C103.279 34.5738 103.242 34.5904 103.203 34.5904H98.8292C98.7882 34.5904 98.7493 34.5722 98.723 34.5408L98.1476 33.8526C98.1033 33.7997 98.1048 33.7222 98.1511 33.671Z" fill="#161616" stroke="#161616" stroke-width="0.327644"/>
<path d="M98.1511 41.21L98.7243 40.5768C98.7505 40.5478 98.7878 40.5312 98.8269 40.5312H103.206C103.243 40.5312 103.279 40.5463 103.305 40.5731L103.922 41.2064C103.973 41.2586 103.974 41.3415 103.925 41.3956L103.305 42.0837C103.278 42.1128 103.241 42.1294 103.202 42.1294H98.8292C98.7882 42.1294 98.7493 42.1113 98.723 42.0798L98.1476 41.3917C98.1033 41.3387 98.1048 41.2612 98.1511 41.21Z" fill="#161616" stroke="#161616" stroke-width="0.327644"/>
<path d="M97.1554 32.8567L96.5221 32.2836C96.4931 32.2573 96.4766 32.22 96.4766 32.1809L96.4766 27.8508C96.4766 27.8135 96.4917 27.7777 96.5184 27.7517L97.1517 27.1349C97.204 27.084 97.2868 27.0824 97.341 27.1313L98.0291 27.7522C98.0581 27.7784 98.0747 27.8157 98.0747 27.8549L98.0747 32.1786C98.0747 32.2196 98.0566 32.2585 98.0251 32.2848L97.337 32.8603C97.284 32.9045 97.2065 32.903 97.1554 32.8567Z" fill="#C3D0D7" stroke="#C3D0D7" stroke-width="0.327644"/>
<path d="M97.1554 40.4036L96.5221 39.8304C96.4931 39.8042 96.4766 39.7669 96.4766 39.7278L96.4766 35.3977C96.4766 35.3603 96.4917 35.3246 96.5184 35.2985L97.1517 34.6818C97.204 34.6309 97.2868 34.6293 97.341 34.6782L98.0291 35.299C98.0581 35.3253 98.0747 35.3626 98.0747 35.4018L98.0747 39.7255C98.0747 39.7665 98.0566 39.8054 98.0251 39.8317L97.337 40.4071C97.284 40.4514 97.2065 40.4499 97.1554 40.4036Z" fill="#161616" stroke="#161616" stroke-width="0.327644"/>
<path d="M104.342 32.8537L103.708 32.2671C103.68 32.2409 103.664 32.2041 103.664 32.1655L103.664 27.8668C103.664 27.83 103.679 27.7948 103.705 27.7688L104.338 27.1375C104.391 27.0851 104.475 27.0835 104.53 27.1338L105.218 27.7692C105.246 27.7954 105.262 27.8323 105.262 27.8709L105.262 32.1633C105.262 32.2037 105.245 32.2421 105.214 32.2684L104.526 32.8574C104.472 32.903 104.393 32.9015 104.342 32.8537Z" fill="#161616" stroke="#161616" stroke-width="0.327644"/>
<path d="M104.34 40.3956L103.706 39.7862C103.679 39.7601 103.664 39.7241 103.664 39.6864L103.664 35.4418C103.664 35.4059 103.678 35.3714 103.703 35.3456L104.336 34.6898C104.389 34.635 104.477 34.6333 104.532 34.6861L105.22 35.346C105.247 35.3721 105.262 35.4082 105.262 35.4459L105.262 39.6842C105.262 39.7237 105.245 39.7614 105.216 39.7876L104.528 40.3993C104.474 40.4473 104.392 40.4457 104.34 40.3956Z" fill="#C3D0D7" stroke="#C3D0D7" stroke-width="0.327644"/>
<path d="M85.6746 25.6788L86.2477 25.0455C86.2739 25.0165 86.3112 25 86.3503 25H90.7304C90.7677 25 90.8035 25.0151 90.8295 25.0418L91.4463 25.6751C91.4972 25.7274 91.4988 25.8102 91.4499 25.8644L90.829 26.5525C90.8028 26.5816 90.7655 26.5982 90.7263 26.5982H86.3526C86.3116 26.5982 86.2727 26.58 86.2465 26.5486L85.671 25.8604C85.6267 25.8075 85.6282 25.73 85.6746 25.6788Z" fill="#C3D0D7" stroke="#C3D0D7" stroke-width="0.327644"/>
<path d="M85.6746 33.671L86.2477 33.0377C86.2739 33.0087 86.3112 32.9922 86.3503 32.9922H90.7304C90.7677 32.9922 90.8035 33.0073 90.8295 33.034L91.4463 33.6673C91.4972 33.7196 91.4988 33.8024 91.4499 33.8566L90.829 34.5447C90.8028 34.5738 90.7655 34.5904 90.7263 34.5904H86.3526C86.3116 34.5904 86.2727 34.5722 86.2465 34.5408L85.671 33.8526C85.6267 33.7997 85.6282 33.7222 85.6746 33.671Z" fill="#C3D0D7" stroke="#C3D0D7" stroke-width="0.327644"/>
<path d="M85.6746 41.21L86.2477 40.5768C86.2739 40.5478 86.3112 40.5312 86.3503 40.5312H90.7294C90.7668 40.5312 90.8025 40.5463 90.8286 40.5731L91.4453 41.2064C91.4962 41.2586 91.4978 41.3415 91.4489 41.3956L90.8281 42.0837C90.8018 42.1128 90.7645 42.1294 90.7253 42.1294H86.3526C86.3116 42.1294 86.2727 42.1113 86.2465 42.0798L85.671 41.3917C85.6267 41.3387 85.6282 41.2612 85.6746 41.21Z" fill="#C3D0D7" stroke="#C3D0D7" stroke-width="0.327644"/>
<path d="M84.6788 32.8567L84.0455 32.2836C84.0165 32.2573 84 32.22 84 32.1809L84 27.8508C84 27.8135 84.0151 27.7777 84.0418 27.7517L84.6751 27.1349C84.7274 27.084 84.8102 27.0824 84.8644 27.1313L85.5525 27.7522C85.5816 27.7784 85.5982 27.8157 85.5982 27.8549L85.5982 32.1786C85.5982 32.2196 85.58 32.2585 85.5486 32.2848L84.8604 32.8603C84.8075 32.9045 84.73 32.903 84.6788 32.8567Z" fill="#C3D0D7" stroke="#C3D0D7" stroke-width="0.327644"/>
<path d="M84.6788 40.4036L84.0455 39.8304C84.0165 39.8042 84 39.7669 84 39.7278L84 35.3977C84 35.3603 84.0151 35.3246 84.0418 35.2985L84.6751 34.6818C84.7274 34.6309 84.8102 34.6293 84.8644 34.6782L85.5525 35.299C85.5816 35.3253 85.5982 35.3626 85.5982 35.4018L85.5982 39.7255C85.5982 39.7665 85.58 39.8054 85.5486 39.8317L84.8604 40.4071C84.8075 40.4514 84.73 40.4499 84.6788 40.4036Z" fill="#C3D0D7" stroke="#C3D0D7" stroke-width="0.327644"/>
<path d="M91.8652 32.8537L91.2318 32.2671C91.2036 32.2409 91.1875 32.2041 91.1875 32.1655L91.1875 27.8668C91.1875 27.83 91.2021 27.7948 91.2282 27.7688L91.8615 27.1375C91.9141 27.0851 91.9986 27.0835 92.0531 27.1338L92.7412 27.7692C92.7695 27.7954 92.7857 27.8323 92.7857 27.8709L92.7857 32.1633C92.7857 32.2037 92.768 32.2421 92.7373 32.2684L92.0492 32.8574C91.9958 32.903 91.9167 32.9015 91.8652 32.8537Z" fill="#161616" stroke="#161616" stroke-width="0.327644"/>
<path d="M91.8633 40.3956L91.2299 39.7862C91.2028 39.7601 91.1875 39.7241 91.1875 39.6864L91.1875 35.4418C91.1875 35.4059 91.2014 35.3714 91.2263 35.3456L91.8598 34.6898C91.9127 34.635 92.0001 34.6333 92.0551 34.6861L92.7431 35.346C92.7703 35.3721 92.7857 35.4082 92.7857 35.4459L92.7857 39.6842C92.7857 39.7237 92.7688 39.7614 92.7392 39.7876L92.0512 40.3993C91.9972 40.4473 91.9154 40.4457 91.8633 40.3956Z" fill="#161616" stroke="#161616" stroke-width="0.327644"/>
<path d="M122.128 25.6788L122.701 25.0455C122.727 25.0165 122.764 25 122.803 25H127.184C127.221 25 127.257 25.0151 127.283 25.0418L127.899 25.6751C127.95 25.7274 127.952 25.8102 127.903 25.8644L127.282 26.5525C127.256 26.5816 127.219 26.5982 127.179 26.5982H122.806C122.765 26.5982 122.726 26.58 122.7 26.5486L122.124 25.8604C122.08 25.8075 122.081 25.73 122.128 25.6788Z" fill="#C3D0D7" stroke="#C3D0D7" stroke-width="0.327644"/>
<path d="M122.128 33.671L122.701 33.0377C122.727 33.0087 122.764 32.9922 122.803 32.9922H127.184C127.221 32.9922 127.257 33.0073 127.283 33.034L127.899 33.6673C127.95 33.7196 127.952 33.8024 127.903 33.8566L127.282 34.5447C127.256 34.5738 127.219 34.5904 127.179 34.5904H122.806C122.765 34.5904 122.726 34.5722 122.7 34.5408L122.124 33.8526C122.08 33.7997 122.081 33.7222 122.128 33.671Z" fill="#161616" stroke="#161616" stroke-width="0.327644"/>
<path d="M122.128 41.21L122.701 40.5768C122.727 40.5478 122.764 40.5312 122.803 40.5312H127.183C127.22 40.5312 127.256 40.5463 127.282 40.5731L127.898 41.2064C127.949 41.2586 127.951 41.3415 127.902 41.3956L127.281 42.0837C127.255 42.1128 127.218 42.1294 127.178 42.1294H122.806C122.765 42.1294 122.726 42.1113 122.7 42.0798L122.124 41.3917C122.08 41.3387 122.081 41.2612 122.128 41.21Z" fill="#C3D0D7" stroke="#C3D0D7" stroke-width="0.327644"/>
<path d="M121.124 32.8567L120.491 32.2836C120.462 32.2573 120.445 32.22 120.445 32.1809L120.445 27.8508C120.445 27.8135 120.46 27.7777 120.487 27.7517L121.12 27.1349C121.173 27.084 121.256 27.0824 121.31 27.1313L121.998 27.7522C122.027 27.7784 122.043 27.8157 122.043 27.8549L122.043 32.1786C122.043 32.2196 122.025 32.2585 121.994 32.2848L121.306 32.8603C121.253 32.9045 121.175 32.903 121.124 32.8567Z" fill="#161616" stroke="#161616" stroke-width="0.327644"/>
<path d="M121.124 40.4036L120.491 39.8304C120.462 39.8042 120.445 39.7669 120.445 39.7278L120.445 35.3977C120.445 35.3603 120.46 35.3246 120.487 35.2985L121.12 34.6818C121.173 34.6309 121.256 34.6293 121.31 34.6782L121.998 35.299C122.027 35.3253 122.043 35.3626 122.043 35.4018L122.043 39.7255C122.043 39.7665 122.025 39.8054 121.994 39.8317L121.306 40.4071C121.253 40.4514 121.175 40.4499 121.124 40.4036Z" fill="#C3D0D7" stroke="#C3D0D7" stroke-width="0.327644"/>
<path d="M128.326 32.8537L127.693 32.2671C127.665 32.2409 127.648 32.2041 127.648 32.1655L127.648 27.8668C127.648 27.83 127.663 27.7948 127.689 27.7688L128.322 27.1375C128.375 27.0851 128.46 27.0835 128.514 27.1338L129.202 27.7692C129.23 27.7954 129.247 27.8323 129.247 27.8709L129.247 32.1633C129.247 32.2037 129.229 32.2421 129.198 32.2684L128.51 32.8574C128.457 32.903 128.378 32.9015 128.326 32.8537Z" fill="#161616" stroke="#161616" stroke-width="0.327644"/>
<path d="M128.325 40.3984L127.692 39.8014C127.664 39.7752 127.648 39.7388 127.648 39.7007L127.648 35.4264C127.648 35.39 127.663 35.3551 127.688 35.3292L128.322 34.6868C128.374 34.6333 128.46 34.6317 128.515 34.6831L129.203 35.3296C129.231 35.3558 129.247 35.3923 129.247 35.4305L129.247 39.6984C129.247 39.7384 129.229 39.7765 129.199 39.8028L128.511 40.402C128.457 40.4488 128.377 40.4472 128.325 40.3984Z" fill="#161616" stroke="#161616" stroke-width="0.327644"/>
<path d="M134.003 25.6788L134.576 25.0455C134.602 25.0165 134.639 25 134.678 25H139.059C139.096 25 139.132 25.0151 139.158 25.0418L139.774 25.6751C139.825 25.7274 139.827 25.8102 139.778 25.8644L139.157 26.5525C139.131 26.5816 139.094 26.5982 139.054 26.5982H134.681C134.64 26.5982 134.601 26.58 134.575 26.5486L133.999 25.8604C133.955 25.8075 133.956 25.73 134.003 25.6788Z" fill="#161616" stroke="#161616" stroke-width="0.327644"/>
<path d="M134.003 33.671L134.576 33.0377C134.602 33.0087 134.639 32.9922 134.678 32.9922H139.059C139.096 32.9922 139.132 33.0073 139.158 33.034L139.774 33.6673C139.825 33.7196 139.827 33.8024 139.778 33.8566L139.157 34.5447C139.131 34.5738 139.094 34.5904 139.054 34.5904H134.681C134.64 34.5904 134.601 34.5722 134.575 34.5408L133.999 33.8526C133.955 33.7997 133.956 33.7222 134.003 33.671Z" fill="#161616" stroke="#161616" stroke-width="0.327644"/>
<path d="M134.003 41.21L134.576 40.5768C134.602 40.5478 134.639 40.5312 134.678 40.5312H139.058C139.095 40.5312 139.131 40.5463 139.157 40.5731L139.773 41.2064C139.824 41.2586 139.826 41.3415 139.777 41.3956L139.156 42.0837C139.13 42.1128 139.093 42.1294 139.053 42.1294H134.681C134.64 42.1294 134.601 42.1113 134.575 42.0798L133.999 41.3917C133.955 41.3387 133.956 41.2612 134.003 41.21Z" fill="#161616" stroke="#161616" stroke-width="0.327644"/>
<path d="M132.999 32.8567L132.366 32.2836C132.337 32.2573 132.32 32.22 132.32 32.1809L132.32 27.8508C132.32 27.8135 132.335 27.7777 132.362 27.7517L132.995 27.1349C133.048 27.084 133.131 27.0824 133.185 27.1313L133.873 27.7522C133.902 27.7784 133.918 27.8157 133.918 27.8549L133.918 32.1786C133.918 32.2196 133.9 32.2585 133.869 32.2848L133.181 32.8603C133.128 32.9045 133.05 32.903 132.999 32.8567Z" fill="#161616" stroke="#161616" stroke-width="0.327644"/>
<path d="M132.999 40.4036L132.366 39.8304C132.337 39.8042 132.32 39.7669 132.32 39.7278L132.32 35.3977C132.32 35.3603 132.335 35.3246 132.362 35.2985L132.995 34.6818C133.048 34.6309 133.131 34.6293 133.185 34.6782L133.873 35.299C133.902 35.3253 133.918 35.3626 133.918 35.4018L133.918 39.7255C133.918 39.7665 133.9 39.8054 133.869 39.8317L133.181 40.4071C133.128 40.4514 133.05 40.4499 132.999 40.4036Z" fill="#C3D0D7" stroke="#C3D0D7" stroke-width="0.327644"/>
<path d="M140.201 32.8537L139.568 32.2671C139.54 32.2409 139.523 32.2041 139.523 32.1655L139.523 27.8668C139.523 27.83 139.538 27.7948 139.564 27.7688L140.197 27.1375C140.25 27.0851 140.335 27.0835 140.389 27.1338L141.077 27.7692C141.105 27.7954 141.122 27.8323 141.122 27.8709L141.122 32.1633C141.122 32.2037 141.104 32.2421 141.073 32.2684L140.385 32.8574C140.332 32.903 140.253 32.9015 140.201 32.8537Z" fill="#C3D0D7" stroke="#C3D0D7" stroke-width="0.327644"/>
<path d="M140.2 40.3984L139.567 39.8014C139.539 39.7752 139.523 39.7388 139.523 39.7007L139.523 35.4264C139.523 35.39 139.538 35.3551 139.563 35.3292L140.197 34.6868C140.249 34.6333 140.335 34.6317 140.39 34.6831L141.078 35.3296C141.106 35.3558 141.122 35.3923 141.122 35.4305L141.122 39.6984C141.122 39.7384 141.104 39.7765 141.074 39.8028L140.386 40.402C140.332 40.4488 140.252 40.4472 140.2 40.3984Z" fill="#161616" stroke="#161616" stroke-width="0.327644"/>
<path d="M145.878 25.6788L146.451 25.0455C146.477 25.0165 146.514 25 146.553 25H150.934C150.971 25 151.007 25.0151 151.033 25.0418L151.649 25.6751C151.7 25.7274 151.702 25.8102 151.653 25.8644L151.032 26.5525C151.006 26.5816 150.969 26.5982 150.929 26.5982H146.556C146.515 26.5982 146.476 26.58 146.45 26.5486L145.874 25.8604C145.83 25.8075 145.831 25.73 145.878 25.6788Z" fill="#161616" stroke="#161616" stroke-width="0.327644"/>
<path d="M145.878 33.671L146.451 33.0377C146.477 33.0087 146.514 32.9922 146.553 32.9922H150.934C150.971 32.9922 151.007 33.0073 151.033 33.034L151.649 33.6673C151.7 33.7196 151.702 33.8024 151.653 33.8566L151.032 34.5447C151.006 34.5738 150.969 34.5904 150.929 34.5904H146.556C146.515 34.5904 146.476 34.5722 146.45 34.5408L145.874 33.8526C145.83 33.7997 145.831 33.7222 145.878 33.671Z" fill="#161616" stroke="#161616" stroke-width="0.327644"/>
<path d="M145.878 41.21L146.451 40.5768C146.477 40.5478 146.514 40.5312 146.553 40.5312H150.933C150.97 40.5312 151.006 40.5463 151.032 40.5731L151.648 41.2064C151.699 41.2586 151.701 41.3415 151.652 41.3956L151.031 42.0837C151.005 42.1128 150.968 42.1294 150.928 42.1294H146.556C146.515 42.1294 146.476 42.1113 146.45 42.0798L145.874 41.3917C145.83 41.3387 145.831 41.2612 145.878 41.21Z" fill="#161616" stroke="#161616" stroke-width="0.327644"/>
<path d="M144.874 32.8567L144.241 32.2836C144.212 32.2573 144.195 32.22 144.195 32.1809L144.195 27.8508C144.195 27.8135 144.21 27.7777 144.237 27.7517L144.87 27.1349C144.923 27.084 145.006 27.0824 145.06 27.1313L145.748 27.7522C145.777 27.7784 145.793 27.8157 145.793 27.8549L145.793 32.1786C145.793 32.2196 145.775 32.2585 145.744 32.2848L145.056 32.8603C145.003 32.9045 144.925 32.903 144.874 32.8567Z" fill="#161616" stroke="#161616" stroke-width="0.327644"/>
<path d="M144.874 40.4036L144.241 39.8304C144.212 39.8042 144.195 39.7669 144.195 39.7278L144.195 35.3977C144.195 35.3603 144.21 35.3246 144.237 35.2985L144.87 34.6818C144.923 34.6309 145.006 34.6293 145.06 34.6782L145.748 35.299C145.777 35.3253 145.793 35.3626 145.793 35.4018L145.793 39.7255C145.793 39.7665 145.775 39.8054 145.744 39.8317L145.056 40.4071C145.003 40.4514 144.925 40.4499 144.874 40.4036Z" fill="#161616" stroke="#161616" stroke-width="0.327644"/>
<path d="M152.076 32.8537L151.443 32.2671C151.415 32.2409 151.398 32.2041 151.398 32.1655L151.398 27.8668C151.398 27.83 151.413 27.7948 151.439 27.7688L152.072 27.1375C152.125 27.0851 152.21 27.0835 152.264 27.1338L152.952 27.7692C152.98 27.7954 152.997 27.8323 152.997 27.8709L152.997 32.1633C152.997 32.2037 152.979 32.2421 152.948 32.2684L152.26 32.8574C152.207 32.903 152.128 32.9015 152.076 32.8537Z" fill="#C3D0D7" stroke="#C3D0D7" stroke-width="0.327644"/>
<path d="M152.075 40.3984L151.442 39.8014C151.414 39.7752 151.398 39.7388 151.398 39.7007L151.398 35.4264C151.398 35.39 151.413 35.3551 151.438 35.3292L152.072 34.6868C152.124 34.6333 152.21 34.6317 152.265 34.6831L152.953 35.3296C152.981 35.3558 152.997 35.3923 152.997 35.4305L152.997 39.6984C152.997 39.7384 152.979 39.7765 152.949 39.8028L152.261 40.402C152.207 40.4488 152.127 40.4472 152.075 40.3984Z" fill="#161616" stroke="#161616" stroke-width="0.327644"/>
</svg>
