<svg width="133" height="100" viewBox="0 0 133 100" fill="none" xmlns="http://www.w3.org/2000/svg">
<mask id="path-1-inside-1_1297_39900" fill="white">
<path d="M0 15C0 6.71573 6.71573 0 15 0H101C109.284 0 116 6.71573 116 15V88H0V15Z"/>
</mask>
<path d="M0 15C0 6.71573 6.71573 0 15 0H101C109.284 0 116 6.71573 116 15V88H0V15Z" fill="#D6DDE5"/>
<path d="M-2 15C-2 5.61116 5.61116 -2 15 -2H101C110.389 -2 118 5.61116 118 15H114C114 7.8203 108.18 2 101 2H15C7.8203 2 2 7.8203 2 15H-2ZM116 88H0H116ZM-2 88V15C-2 5.61116 5.61116 -2 15 -2V2C7.8203 2 2 7.8203 2 15V88H-2ZM101 -2C110.389 -2 118 5.61116 118 15V88H114V15C114 7.8203 108.18 2 101 2V-2Z" fill="#5D6F80" mask="url(#path-1-inside-1_1297_39900)"/>
<path d="M31 0H85L78.0117 6.41885C76.9046 7.43573 75.4562 8 73.9529 8H42.047C40.5438 8 39.0954 7.43573 37.9883 6.41885L31 0Z" fill="#5D6F80"/>
<rect x="18" y="31" width="80" height="30" rx="2" fill="#96A4B1"/>
<rect x="18.5" y="31.5" width="79" height="29" rx="1.5" stroke="white" stroke-opacity="0.2"/>
<rect x="18.5" y="31.5" width="79" height="29" rx="1.5" fill="white" stroke="#96A4B1"/>
<path d="M50.1433 37.6788L50.7165 37.0455C50.7427 37.0165 50.78 37 50.8191 37H55.1991C55.2365 37 55.2722 37.0151 55.2983 37.0418L55.915 37.6751C55.9659 37.7274 55.9675 37.8102 55.9186 37.8644L55.2978 38.5525C55.2715 38.5816 55.2342 38.5982 55.195 38.5982H50.8214C50.7804 38.5982 50.7415 38.58 50.7152 38.5486L50.1397 37.8604C50.0955 37.8075 50.097 37.73 50.1433 37.6788Z" fill="#161616" stroke="#161616" stroke-width="0.327644"/>
<path d="M50.1433 45.671L50.7165 45.0377C50.7427 45.0087 50.78 44.9922 50.8191 44.9922H55.1991C55.2365 44.9922 55.2722 45.0073 55.2983 45.034L55.915 45.6673C55.9659 45.7196 55.9675 45.8024 55.9186 45.8566L55.2978 46.5447C55.2715 46.5738 55.2342 46.5904 55.195 46.5904H50.8214C50.7804 46.5904 50.7415 46.5722 50.7152 46.5408L50.1397 45.8526C50.0955 45.7997 50.097 45.7222 50.1433 45.671Z" fill="#161616" stroke="#161616" stroke-width="0.327644"/>
<path d="M50.1433 53.21L50.7165 52.5768C50.7427 52.5478 50.78 52.5312 50.8191 52.5312H55.1982C55.2355 52.5312 55.2713 52.5463 55.2973 52.5731L55.9141 53.2064C55.965 53.2586 55.9666 53.3415 55.9177 53.3956L55.2968 54.0837C55.2706 54.1128 55.2333 54.1294 55.1941 54.1294H50.8214C50.7804 54.1294 50.7415 54.1113 50.7152 54.0798L50.1397 53.3917C50.0955 53.3387 50.097 53.2612 50.1433 53.21Z" fill="#161616" stroke="#161616" stroke-width="0.327644"/>
<path d="M49.1397 44.8567L48.5065 44.2836C48.4775 44.2573 48.4609 44.22 48.4609 44.1809L48.4609 39.8508C48.4609 39.8135 48.476 39.7777 48.5028 39.7517L49.1361 39.1349C49.1883 39.084 49.2712 39.0824 49.3253 39.1313L50.0134 39.7522C50.0425 39.7784 50.0591 39.8157 50.0591 39.8549L50.0591 44.1786C50.0591 44.2196 50.0409 44.2585 50.0095 44.2848L49.3214 44.8603C49.2684 44.9045 49.1909 44.903 49.1397 44.8567Z" fill="#C3D0D7" stroke="#C3D0D7" stroke-width="0.327644"/>
<path d="M49.1397 52.4036L48.5065 51.8304C48.4775 51.8042 48.4609 51.7669 48.4609 51.7278L48.4609 47.3977C48.4609 47.3603 48.476 47.3246 48.5028 47.2985L49.1361 46.6818C49.1883 46.6309 49.2712 46.6293 49.3253 46.6782L50.0134 47.299C50.0425 47.3253 50.0591 47.3626 50.0591 47.4018L50.0591 51.7255C50.0591 51.7665 50.0409 51.8054 50.0095 51.8317L49.3214 52.4071C49.2684 52.4514 49.1909 52.4499 49.1397 52.4036Z" fill="#C3D0D7" stroke="#C3D0D7" stroke-width="0.327644"/>
<path d="M56.3417 44.8537L55.7084 44.2671C55.6801 44.2409 55.6641 44.2041 55.6641 44.1655L55.6641 39.8668C55.6641 39.83 55.6787 39.7948 55.7048 39.7688L56.3381 39.1375C56.3906 39.0851 56.4752 39.0835 56.5297 39.1338L57.2177 39.7692C57.2461 39.7954 57.2622 39.8323 57.2622 39.8709L57.2622 44.1633C57.2622 44.2037 57.2446 44.2421 57.2138 44.2684L56.5258 44.8574C56.4724 44.903 56.3933 44.9015 56.3417 44.8537Z" fill="#161616" stroke="#161616" stroke-width="0.327644"/>
<path d="M56.3409 52.3984L55.7075 51.8014C55.6798 51.7752 55.6641 51.7388 55.6641 51.7007L55.6641 47.4264C55.6641 47.39 55.6784 47.3551 55.7039 47.3292L56.3373 46.6868C56.39 46.6333 56.4758 46.6317 56.5306 46.6831L57.2186 47.3296C57.2465 47.3558 57.2622 47.3923 57.2622 47.4305L57.2622 51.6984C57.2622 51.7384 57.2449 51.7765 57.2147 51.8028L56.5267 52.402C56.473 52.4488 56.3927 52.4472 56.3409 52.3984Z" fill="#161616" stroke="#161616" stroke-width="0.327644"/>
<path d="M38.1511 37.6788L38.7243 37.0455C38.7505 37.0165 38.7878 37 38.8269 37H43.2069C43.2443 37 43.28 37.0151 43.3061 37.0418L43.9228 37.6751C43.9738 37.7274 43.9753 37.8102 43.9265 37.8644L43.3056 38.5525C43.2794 38.5816 43.242 38.5982 43.2029 38.5982H38.8292C38.7882 38.5982 38.7493 38.58 38.723 38.5486L38.1476 37.8604C38.1033 37.8075 38.1048 37.73 38.1511 37.6788Z" fill="#161616" stroke="#161616" stroke-width="0.327644"/>
<path d="M38.1511 45.671L38.7243 45.0377C38.7505 45.0087 38.7878 44.9922 38.8269 44.9922H43.2069C43.2443 44.9922 43.28 45.0073 43.3061 45.034L43.9228 45.6673C43.9738 45.7196 43.9753 45.8024 43.9265 45.8566L43.3056 46.5447C43.2794 46.5738 43.242 46.5904 43.2029 46.5904H38.8292C38.7882 46.5904 38.7493 46.5722 38.723 46.5408L38.1476 45.8526C38.1033 45.7997 38.1048 45.7222 38.1511 45.671Z" fill="#161616" stroke="#161616" stroke-width="0.327644"/>
<path d="M38.1511 53.21L38.7243 52.5768C38.7505 52.5478 38.7878 52.5312 38.8269 52.5312H43.206C43.2433 52.5312 43.2791 52.5463 43.3051 52.5731L43.9219 53.2064C43.9728 53.2586 43.9744 53.3415 43.9255 53.3956L43.3046 54.0837C43.2784 54.1128 43.2411 54.1294 43.2019 54.1294H38.8292C38.7882 54.1294 38.7493 54.1113 38.723 54.0798L38.1476 53.3917C38.1033 53.3387 38.1048 53.2612 38.1511 53.21Z" fill="#161616" stroke="#161616" stroke-width="0.327644"/>
<path d="M37.1554 44.8567L36.5221 44.2836C36.4931 44.2573 36.4766 44.22 36.4766 44.1809L36.4766 39.8508C36.4766 39.8135 36.4917 39.7777 36.5184 39.7517L37.1517 39.1349C37.204 39.084 37.2868 39.0824 37.341 39.1313L38.0291 39.7522C38.0581 39.7784 38.0747 39.8157 38.0747 39.8549L38.0747 44.1786C38.0747 44.2196 38.0566 44.2585 38.0251 44.2848L37.337 44.8603C37.284 44.9045 37.2065 44.903 37.1554 44.8567Z" fill="#C3D0D7" stroke="#C3D0D7" stroke-width="0.327644"/>
<path d="M37.1554 52.4036L36.5221 51.8304C36.4931 51.8042 36.4766 51.7669 36.4766 51.7278L36.4766 47.3977C36.4766 47.3603 36.4917 47.3246 36.5184 47.2985L37.1517 46.6818C37.204 46.6309 37.2868 46.6293 37.341 46.6782L38.0291 47.299C38.0581 47.3253 38.0747 47.3626 38.0747 47.4018L38.0747 51.7255C38.0747 51.7665 38.0566 51.8054 38.0251 51.8317L37.337 52.4071C37.284 52.4514 37.2065 52.4499 37.1554 52.4036Z" fill="#161616" stroke="#161616" stroke-width="0.327644"/>
<path d="M44.3417 44.8537L43.7084 44.2671C43.6801 44.2409 43.6641 44.2041 43.6641 44.1655L43.6641 39.8668C43.6641 39.83 43.6787 39.7948 43.7048 39.7688L44.3381 39.1375C44.3906 39.0851 44.4752 39.0835 44.5297 39.1338L45.2177 39.7692C45.2461 39.7954 45.2622 39.8323 45.2622 39.8709L45.2622 44.1633C45.2622 44.2037 45.2446 44.2421 45.2138 44.2684L44.5258 44.8574C44.4724 44.903 44.3933 44.9015 44.3417 44.8537Z" fill="#161616" stroke="#161616" stroke-width="0.327644"/>
<path d="M44.3399 52.3956L43.7065 51.7862C43.6794 51.7601 43.6641 51.7241 43.6641 51.6864L43.6641 47.4418C43.6641 47.4059 43.678 47.3714 43.7029 47.3456L44.3363 46.6898C44.3893 46.635 44.4766 46.6333 44.5317 46.6861L45.2196 47.346C45.2469 47.3721 45.2622 47.4082 45.2622 47.4459L45.2622 51.6842C45.2622 51.7237 45.2453 51.7614 45.2158 51.7876L44.5278 52.3993C44.4738 52.4473 44.392 52.4457 44.3399 52.3956Z" fill="#C3D0D7" stroke="#C3D0D7" stroke-width="0.327644"/>
<path d="M25.6746 37.6788L26.2477 37.0455C26.2739 37.0165 26.3112 37 26.3503 37H30.7304C30.7677 37 30.8035 37.0151 30.8295 37.0418L31.4463 37.6751C31.4972 37.7274 31.4988 37.8102 31.4499 37.8644L30.829 38.5525C30.8028 38.5816 30.7655 38.5982 30.7263 38.5982H26.3526C26.3116 38.5982 26.2727 38.58 26.2465 38.5486L25.671 37.8604C25.6267 37.8075 25.6282 37.73 25.6746 37.6788Z" fill="#C3D0D7" stroke="#C3D0D7" stroke-width="0.327644"/>
<path d="M25.6746 45.671L26.2477 45.0377C26.2739 45.0087 26.3112 44.9922 26.3503 44.9922H30.7304C30.7677 44.9922 30.8035 45.0073 30.8295 45.034L31.4463 45.6673C31.4972 45.7196 31.4988 45.8024 31.4499 45.8566L30.829 46.5447C30.8028 46.5738 30.7655 46.5904 30.7263 46.5904H26.3526C26.3116 46.5904 26.2727 46.5722 26.2465 46.5408L25.671 45.8526C25.6267 45.7997 25.6282 45.7222 25.6746 45.671Z" fill="#C3D0D7" stroke="#C3D0D7" stroke-width="0.327644"/>
<path d="M25.6746 53.21L26.2477 52.5768C26.2739 52.5478 26.3112 52.5312 26.3503 52.5312H30.7294C30.7668 52.5312 30.8025 52.5463 30.8286 52.5731L31.4453 53.2064C31.4962 53.2586 31.4978 53.3415 31.4489 53.3956L30.8281 54.0837C30.8018 54.1128 30.7645 54.1294 30.7253 54.1294H26.3526C26.3116 54.1294 26.2727 54.1113 26.2465 54.0798L25.671 53.3917C25.6267 53.3387 25.6282 53.2612 25.6746 53.21Z" fill="#C3D0D7" stroke="#C3D0D7" stroke-width="0.327644"/>
<path d="M24.6788 44.8567L24.0455 44.2836C24.0165 44.2573 24 44.22 24 44.1809L24 39.8508C24 39.8135 24.0151 39.7777 24.0418 39.7517L24.6751 39.1349C24.7274 39.084 24.8102 39.0824 24.8644 39.1313L25.5525 39.7522C25.5816 39.7784 25.5982 39.8157 25.5982 39.8549L25.5982 44.1786C25.5982 44.2196 25.58 44.2585 25.5486 44.2848L24.8604 44.8603C24.8075 44.9045 24.73 44.903 24.6788 44.8567Z" fill="#C3D0D7" stroke="#C3D0D7" stroke-width="0.327644"/>
<path d="M24.6788 52.4036L24.0455 51.8304C24.0165 51.8042 24 51.7669 24 51.7278L24 47.3977C24 47.3603 24.0151 47.3246 24.0418 47.2985L24.6751 46.6818C24.7274 46.6309 24.8102 46.6293 24.8644 46.6782L25.5525 47.299C25.5816 47.3253 25.5982 47.3626 25.5982 47.4018L25.5982 51.7255C25.5982 51.7665 25.58 51.8054 25.5486 51.8317L24.8604 52.4071C24.8075 52.4514 24.73 52.4499 24.6788 52.4036Z" fill="#C3D0D7" stroke="#C3D0D7" stroke-width="0.327644"/>
<path d="M31.8652 44.8537L31.2318 44.2671C31.2036 44.2409 31.1875 44.2041 31.1875 44.1655L31.1875 39.8668C31.1875 39.83 31.2021 39.7948 31.2282 39.7688L31.8615 39.1375C31.9141 39.0851 31.9986 39.0835 32.0531 39.1338L32.7412 39.7692C32.7695 39.7954 32.7857 39.8323 32.7857 39.8709L32.7857 44.1633C32.7857 44.2037 32.768 44.2421 32.7373 44.2684L32.0492 44.8574C31.9958 44.903 31.9167 44.9015 31.8652 44.8537Z" fill="#161616" stroke="#161616" stroke-width="0.327644"/>
<path d="M31.8633 52.3956L31.2299 51.7862C31.2028 51.7601 31.1875 51.7241 31.1875 51.6864L31.1875 47.4418C31.1875 47.4059 31.2014 47.3714 31.2263 47.3456L31.8598 46.6898C31.9127 46.635 32.0001 46.6333 32.0551 46.6861L32.7431 47.346C32.7703 47.3721 32.7857 47.4082 32.7857 47.4459L32.7857 51.6842C32.7857 51.7237 32.7688 51.7614 32.7392 51.7876L32.0512 52.3993C31.9972 52.4473 31.9154 52.4457 31.8633 52.3956Z" fill="#161616" stroke="#161616" stroke-width="0.327644"/>
<path d="M62.1277 37.6788L62.7008 37.0455C62.7271 37.0165 62.7643 37 62.8034 37H67.1835C67.2208 37 67.2566 37.0151 67.2827 37.0418L67.8994 37.6751C67.9503 37.7274 67.9519 37.8102 67.903 37.8644L67.2822 38.5525C67.2559 38.5816 67.2186 38.5982 67.1794 38.5982H62.8057C62.7648 38.5982 62.7259 38.58 62.6996 38.5486L62.1241 37.8604C62.0798 37.8075 62.0813 37.73 62.1277 37.6788Z" fill="#C3D0D7" stroke="#C3D0D7" stroke-width="0.327644"/>
<path d="M62.1277 45.671L62.7008 45.0377C62.7271 45.0087 62.7643 44.9922 62.8034 44.9922H67.1835C67.2208 44.9922 67.2566 45.0073 67.2827 45.034L67.8994 45.6673C67.9503 45.7196 67.9519 45.8024 67.903 45.8566L67.2822 46.5447C67.2559 46.5738 67.2186 46.5904 67.1794 46.5904H62.8057C62.7648 46.5904 62.7259 46.5722 62.6996 46.5408L62.1241 45.8526C62.0798 45.7997 62.0813 45.7222 62.1277 45.671Z" fill="#161616" stroke="#161616" stroke-width="0.327644"/>
<path d="M62.1277 53.21L62.7008 52.5768C62.7271 52.5478 62.7643 52.5312 62.8034 52.5312H67.1825C67.2199 52.5312 67.2556 52.5463 67.2817 52.5731L67.8984 53.2064C67.9494 53.2586 67.9509 53.3415 67.9021 53.3956L67.2812 54.0837C67.255 54.1128 67.2176 54.1294 67.1785 54.1294H62.8057C62.7648 54.1294 62.7259 54.1113 62.6996 54.0798L62.1241 53.3917C62.0798 53.3387 62.0813 53.2612 62.1277 53.21Z" fill="#C3D0D7" stroke="#C3D0D7" stroke-width="0.327644"/>
<path d="M61.1241 44.8567L60.4908 44.2836C60.4619 44.2573 60.4453 44.22 60.4453 44.1809L60.4453 39.8508C60.4453 39.8135 60.4604 39.7777 60.4871 39.7517L61.1204 39.1349C61.1727 39.084 61.2555 39.0824 61.3097 39.1313L61.9978 39.7522C62.0269 39.7784 62.0435 39.8157 62.0435 39.8549L62.0435 44.1786C62.0435 44.2196 62.0253 44.2585 61.9939 44.2848L61.3058 44.8603C61.2528 44.9045 61.1753 44.903 61.1241 44.8567Z" fill="#161616" stroke="#161616" stroke-width="0.327644"/>
<path d="M61.1241 52.4036L60.4908 51.8304C60.4619 51.8042 60.4453 51.7669 60.4453 51.7278L60.4453 47.3977C60.4453 47.3603 60.4604 47.3246 60.4871 47.2985L61.1204 46.6818C61.1727 46.6309 61.2555 46.6293 61.3097 46.6782L61.9978 47.299C62.0269 47.3253 62.0435 47.3626 62.0435 47.4018L62.0435 51.7255C62.0435 51.7665 62.0253 51.8054 61.9939 51.8317L61.3058 52.4071C61.2528 52.4514 61.1753 52.4499 61.1241 52.4036Z" fill="#C3D0D7" stroke="#C3D0D7" stroke-width="0.327644"/>
<path d="M68.3261 44.8537L67.6928 44.2671C67.6645 44.2409 67.6484 44.2041 67.6484 44.1655L67.6484 39.8668C67.6484 39.83 67.6631 39.7948 67.6891 39.7688L68.3225 39.1375C68.375 39.0851 68.4595 39.0835 68.5141 39.1338L69.2021 39.7692C69.2305 39.7954 69.2466 39.8323 69.2466 39.8709L69.2466 44.1633C69.2466 44.2037 69.2289 44.2421 69.1982 44.2684L68.5101 44.8574C68.4568 44.903 68.3776 44.9015 68.3261 44.8537Z" fill="#161616" stroke="#161616" stroke-width="0.327644"/>
<path d="M68.3253 52.3984L67.6919 51.8014C67.6642 51.7752 67.6484 51.7388 67.6484 51.7007L67.6484 47.4264C67.6484 47.39 67.6628 47.3551 67.6883 47.3292L68.3216 46.6868C68.3744 46.6333 68.4602 46.6317 68.515 46.6831L69.203 47.3296C69.2308 47.3558 69.2466 47.3923 69.2466 47.4305L69.2466 51.6984C69.2466 51.7384 69.2293 51.7765 69.1991 51.8028L68.5111 52.402C68.4574 52.4488 68.377 52.4472 68.3253 52.3984Z" fill="#161616" stroke="#161616" stroke-width="0.327644"/>
<path d="M74.0027 37.6788L74.5758 37.0455C74.6021 37.0165 74.6393 37 74.6784 37H79.0585C79.0958 37 79.1316 37.0151 79.1577 37.0418L79.7744 37.6751C79.8253 37.7274 79.8269 37.8102 79.778 37.8644L79.1572 38.5525C79.1309 38.5816 79.0936 38.5982 79.0544 38.5982H74.6807C74.6398 38.5982 74.6009 38.58 74.5746 38.5486L73.9991 37.8604C73.9548 37.8075 73.9563 37.73 74.0027 37.6788Z" fill="#161616" stroke="#161616" stroke-width="0.327644"/>
<path d="M74.0027 45.671L74.5758 45.0377C74.6021 45.0087 74.6393 44.9922 74.6784 44.9922H79.0585C79.0958 44.9922 79.1316 45.0073 79.1577 45.034L79.7744 45.6673C79.8253 45.7196 79.8269 45.8024 79.778 45.8566L79.1572 46.5447C79.1309 46.5738 79.0936 46.5904 79.0544 46.5904H74.6807C74.6398 46.5904 74.6009 46.5722 74.5746 46.5408L73.9991 45.8526C73.9548 45.7997 73.9563 45.7222 74.0027 45.671Z" fill="#161616" stroke="#161616" stroke-width="0.327644"/>
<path d="M74.0027 53.21L74.5758 52.5768C74.6021 52.5478 74.6393 52.5312 74.6784 52.5312H79.0575C79.0949 52.5312 79.1306 52.5463 79.1567 52.5731L79.7734 53.2064C79.8244 53.2586 79.8259 53.3415 79.7771 53.3956L79.1562 54.0837C79.13 54.1128 79.0926 54.1294 79.0535 54.1294H74.6807C74.6398 54.1294 74.6009 54.1113 74.5746 54.0798L73.9991 53.3917C73.9548 53.3387 73.9563 53.2612 74.0027 53.21Z" fill="#161616" stroke="#161616" stroke-width="0.327644"/>
<path d="M72.9991 44.8567L72.3658 44.2836C72.3369 44.2573 72.3203 44.22 72.3203 44.1809L72.3203 39.8508C72.3203 39.8135 72.3354 39.7777 72.3621 39.7517L72.9954 39.1349C73.0477 39.084 73.1305 39.0824 73.1847 39.1313L73.8728 39.7522C73.9019 39.7784 73.9185 39.8157 73.9185 39.8549L73.9185 44.1786C73.9185 44.2196 73.9003 44.2585 73.8689 44.2848L73.1808 44.8603C73.1278 44.9045 73.0503 44.903 72.9991 44.8567Z" fill="#161616" stroke="#161616" stroke-width="0.327644"/>
<path d="M72.9991 52.4036L72.3658 51.8304C72.3369 51.8042 72.3203 51.7669 72.3203 51.7278L72.3203 47.3977C72.3203 47.3603 72.3354 47.3246 72.3621 47.2985L72.9954 46.6818C73.0477 46.6309 73.1305 46.6293 73.1847 46.6782L73.8728 47.299C73.9019 47.3253 73.9185 47.3626 73.9185 47.4018L73.9185 51.7255C73.9185 51.7665 73.9003 51.8054 73.8689 51.8317L73.1808 52.4071C73.1278 52.4514 73.0503 52.4499 72.9991 52.4036Z" fill="#C3D0D7" stroke="#C3D0D7" stroke-width="0.327644"/>
<path d="M80.2011 44.8537L79.5678 44.2671C79.5395 44.2409 79.5234 44.2041 79.5234 44.1655L79.5234 39.8668C79.5234 39.83 79.5381 39.7948 79.5641 39.7688L80.1975 39.1375C80.25 39.0851 80.3345 39.0835 80.3891 39.1338L81.0771 39.7692C81.1055 39.7954 81.1216 39.8323 81.1216 39.8709L81.1216 44.1633C81.1216 44.2037 81.1039 44.2421 81.0732 44.2684L80.3851 44.8574C80.3318 44.903 80.2526 44.9015 80.2011 44.8537Z" fill="#C3D0D7" stroke="#C3D0D7" stroke-width="0.327644"/>
<path d="M80.2003 52.3984L79.5669 51.8014C79.5392 51.7752 79.5234 51.7388 79.5234 51.7007L79.5234 47.4264C79.5234 47.39 79.5378 47.3551 79.5633 47.3292L80.1966 46.6868C80.2494 46.6333 80.3352 46.6317 80.39 46.6831L81.078 47.3296C81.1058 47.3558 81.1216 47.3923 81.1216 47.4305L81.1216 51.6984C81.1216 51.7384 81.1043 51.7765 81.0741 51.8028L80.3861 52.402C80.3324 52.4488 80.252 52.4472 80.2003 52.3984Z" fill="#161616" stroke="#161616" stroke-width="0.327644"/>
<path d="M85.8777 37.6788L86.4508 37.0455C86.4771 37.0165 86.5143 37 86.5534 37H90.9335C90.9708 37 91.0066 37.0151 91.0327 37.0418L91.6494 37.6751C91.7003 37.7274 91.7019 37.8102 91.653 37.8644L91.0322 38.5525C91.0059 38.5816 90.9686 38.5982 90.9294 38.5982H86.5557C86.5148 38.5982 86.4759 38.58 86.4496 38.5486L85.8741 37.8604C85.8298 37.8075 85.8313 37.73 85.8777 37.6788Z" fill="#161616" stroke="#161616" stroke-width="0.327644"/>
<path d="M85.8777 45.671L86.4508 45.0377C86.4771 45.0087 86.5143 44.9922 86.5534 44.9922H90.9335C90.9708 44.9922 91.0066 45.0073 91.0327 45.034L91.6494 45.6673C91.7003 45.7196 91.7019 45.8024 91.653 45.8566L91.0322 46.5447C91.0059 46.5738 90.9686 46.5904 90.9294 46.5904H86.5557C86.5148 46.5904 86.4759 46.5722 86.4496 46.5408L85.8741 45.8526C85.8298 45.7997 85.8313 45.7222 85.8777 45.671Z" fill="#161616" stroke="#161616" stroke-width="0.327644"/>
<path d="M85.8777 53.21L86.4508 52.5768C86.4771 52.5478 86.5143 52.5312 86.5534 52.5312H90.9325C90.9699 52.5312 91.0056 52.5463 91.0317 52.5731L91.6484 53.2064C91.6994 53.2586 91.7009 53.3415 91.6521 53.3956L91.0312 54.0837C91.005 54.1128 90.9676 54.1294 90.9285 54.1294H86.5557C86.5148 54.1294 86.4759 54.1113 86.4496 54.0798L85.8741 53.3917C85.8298 53.3387 85.8313 53.2612 85.8777 53.21Z" fill="#161616" stroke="#161616" stroke-width="0.327644"/>
<path d="M84.8741 44.8567L84.2408 44.2836C84.2119 44.2573 84.1953 44.22 84.1953 44.1809L84.1953 39.8508C84.1953 39.8135 84.2104 39.7777 84.2371 39.7517L84.8704 39.1349C84.9227 39.084 85.0055 39.0824 85.0597 39.1313L85.7478 39.7522C85.7769 39.7784 85.7935 39.8157 85.7935 39.8549L85.7935 44.1786C85.7935 44.2196 85.7753 44.2585 85.7439 44.2848L85.0558 44.8603C85.0028 44.9045 84.9253 44.903 84.8741 44.8567Z" fill="#161616" stroke="#161616" stroke-width="0.327644"/>
<path d="M84.8741 52.4036L84.2408 51.8304C84.2119 51.8042 84.1953 51.7669 84.1953 51.7278L84.1953 47.3977C84.1953 47.3603 84.2104 47.3246 84.2371 47.2985L84.8704 46.6818C84.9227 46.6309 85.0055 46.6293 85.0597 46.6782L85.7478 47.299C85.7769 47.3253 85.7935 47.3626 85.7935 47.4018L85.7935 51.7255C85.7935 51.7665 85.7753 51.8054 85.7439 51.8317L85.0558 52.4071C85.0028 52.4514 84.9253 52.4499 84.8741 52.4036Z" fill="#161616" stroke="#161616" stroke-width="0.327644"/>
<path d="M92.0761 44.8537L91.4428 44.2671C91.4145 44.2409 91.3984 44.2041 91.3984 44.1655L91.3984 39.8668C91.3984 39.83 91.4131 39.7948 91.4391 39.7688L92.0725 39.1375C92.125 39.0851 92.2095 39.0835 92.2641 39.1338L92.9521 39.7692C92.9805 39.7954 92.9966 39.8323 92.9966 39.8709L92.9966 44.1633C92.9966 44.2037 92.9789 44.2421 92.9482 44.2684L92.2601 44.8574C92.2068 44.903 92.1276 44.9015 92.0761 44.8537Z" fill="#C3D0D7" stroke="#C3D0D7" stroke-width="0.327644"/>
<path d="M92.0753 52.3984L91.4419 51.8014C91.4142 51.7752 91.3984 51.7388 91.3984 51.7007L91.3984 47.4264C91.3984 47.39 91.4128 47.3551 91.4383 47.3292L92.0716 46.6868C92.1244 46.6333 92.2102 46.6317 92.265 46.6831L92.953 47.3296C92.9808 47.3558 92.9966 47.3923 92.9966 47.4305L92.9966 51.6984C92.9966 51.7384 92.9793 51.7765 92.9491 51.8028L92.2611 52.402C92.2074 52.4488 92.127 52.4472 92.0753 52.3984Z" fill="#161616" stroke="#161616" stroke-width="0.327644"/>
<path d="M131.184 63.5676C128.442 63.1457 125.753 62.4274 123.161 61.4248C120.347 60.3891 117.661 59.0229 115.161 57.3534C114.456 56.8822 113.543 56.8822 112.838 57.3534C110.337 59.0229 107.652 60.3891 104.837 61.4248C102.247 62.4284 99.5571 63.1467 96.815 63.5676C95.766 63.7183 94.9902 64.6354 95.0001 65.7113V73.2124C95.0001 81.3061 98.7546 88.9287 105.133 93.7848L112.733 99.571C113.098 99.8493 113.543 100 114 100C114.395 100.001 114.783 99.8895 115.119 99.6785L121.093 95.8853C128.521 91.202 133.028 82.9456 133 74.0693V65.7113C133.011 64.6354 132.234 63.7193 131.184 63.5686V63.5676Z" fill="#2763F6"/>
<g clip-path="url(#clip0_1297_39900)">
<path d="M109.922 79L112.922 82L119.422 75" stroke="white" stroke-width="4" stroke-linecap="square" stroke-linejoin="round"/>
</g>
<defs>
<clipPath id="clip0_1297_39900">
<rect width="16" height="16" fill="white" transform="translate(106.922 70)"/>
</clipPath>
</defs>
</svg>
