<svg width="296" height="134" viewBox="0 0 296 134" fill="none" xmlns="http://www.w3.org/2000/svg">
<rect width="296" height="134" rx="67" fill="#D6DDE5"/>
<rect x="48" y="13" width="200" height="108" rx="8" fill="white"/>
<path d="M95.3589 104.637H94.313L96.5981 111H97.7144L100.008 104.637H98.9624L97.1958 109.813H97.1255L95.3589 104.637ZM102.311 111.097C103.361 111.097 104.095 110.578 104.306 109.805H103.357C103.199 110.095 102.852 110.323 102.32 110.323C101.538 110.323 101.001 109.809 100.975 108.899H104.368V108.565C104.368 106.838 103.335 106.166 102.25 106.166C100.918 106.166 100.039 107.177 100.043 108.645C100.039 110.125 100.905 111.097 102.311 111.097ZM100.979 108.196C101.019 107.524 101.507 106.935 102.258 106.939C102.975 106.935 103.445 107.471 103.445 108.196H100.979ZM106.24 108.17C106.24 107.41 106.701 106.975 107.347 106.975C107.98 106.975 108.354 107.388 108.358 108.082V111H109.29V107.968C109.294 106.786 108.644 106.166 107.664 106.166C106.952 106.166 106.481 106.496 106.257 107.01H106.205V106.228H105.299V111H106.24V108.17ZM112.216 111.097C113.086 111.092 113.429 110.565 113.605 110.253H113.675V111H114.589V104.637H113.649V107.001H113.605C113.434 106.702 113.113 106.166 112.225 106.166C111.078 106.166 110.221 107.071 110.221 108.627C110.221 110.165 111.065 111.092 112.216 111.097ZM111.179 108.609C111.175 107.669 111.597 106.961 112.427 106.966C113.236 106.961 113.675 107.616 113.675 108.609C113.675 109.611 113.227 110.292 112.427 110.297C111.605 110.292 111.175 109.567 111.179 108.609ZM117.868 111.097C118.918 111.097 119.652 110.578 119.863 109.805H118.914C118.755 110.095 118.408 110.323 117.876 110.323C117.094 110.323 116.558 109.809 116.532 108.899H119.924V108.565C119.924 106.838 118.892 106.166 117.806 106.166C116.475 106.166 115.596 107.177 115.6 108.645C115.596 110.125 116.461 111.097 117.868 111.097ZM116.536 108.196C116.576 107.524 117.063 106.935 117.815 106.939C118.531 106.935 119.001 107.471 119.001 108.196H116.536ZM120.856 111H121.796V108.091C121.796 107.467 122.28 107.014 122.93 107.019C123.124 107.014 123.343 107.054 123.422 107.071V106.175C123.326 106.166 123.141 106.153 123.027 106.157C122.469 106.153 121.99 106.474 121.814 106.983H121.761V106.228H120.856V111ZM129.865 106.315H130.805C130.774 105.287 129.874 104.549 128.582 104.549C127.294 104.549 126.318 105.278 126.314 106.377C126.318 107.265 126.951 107.783 127.975 108.064L128.731 108.267C129.403 108.447 129.931 108.671 129.935 109.225C129.931 109.849 129.342 110.257 128.529 110.262C127.786 110.257 127.171 109.928 127.114 109.233H126.147C126.208 110.394 127.105 111.105 128.529 111.105C130.032 111.105 130.889 110.319 130.893 109.242C130.889 108.091 129.869 107.647 129.056 107.449L128.441 107.282C127.936 107.164 127.281 106.926 127.281 106.324C127.285 105.784 127.777 105.384 128.555 105.384C129.285 105.384 129.803 105.722 129.865 106.315ZM134.277 104.338H133.442L131.394 111.958H132.229L134.277 104.338ZM140.183 104.637H139.234V109.295H139.172L135.947 104.637H135.05V111H136.017V106.351H136.07L139.295 111H140.183V104.637ZM144.217 110.183C144.556 110.178 144.837 109.901 144.841 109.559C144.837 109.216 144.556 108.935 144.217 108.935C143.875 108.935 143.589 109.216 143.593 109.559C143.589 109.901 143.875 110.178 144.217 110.183ZM143.593 106.087C143.589 106.43 143.875 106.707 144.217 106.711C144.556 106.707 144.837 106.43 144.841 106.087C144.837 105.744 144.556 105.463 144.217 105.463C143.875 105.463 143.589 105.744 143.593 106.087ZM150.422 111.088C151.741 111.088 152.721 110.31 152.716 109.251C152.721 108.447 152.215 107.862 151.345 107.739V107.695C152.031 107.524 152.479 107.005 152.47 106.28C152.479 105.34 151.692 104.549 150.44 104.549C149.253 104.549 148.295 105.252 148.269 106.289H149.201C149.223 105.713 149.794 105.357 150.431 105.357C151.104 105.357 151.539 105.753 151.539 106.333C151.539 106.944 151.033 107.348 150.308 107.344H149.763V108.135H150.308C151.218 108.139 151.741 108.587 151.741 109.216C151.741 109.835 151.183 110.253 150.414 110.253C149.702 110.253 149.148 109.897 149.113 109.339H148.128C148.168 110.38 149.104 111.088 150.422 111.088ZM153.78 111H158.06V110.174H155.125V110.121L156.417 108.812C157.612 107.638 157.946 107.071 157.955 106.359C157.946 105.327 157.098 104.549 155.872 104.549C154.659 104.549 153.771 105.318 153.78 106.482H154.694C154.698 105.806 155.146 105.357 155.854 105.357C156.522 105.357 157.032 105.757 157.032 106.386C157.032 106.944 156.685 107.348 155.986 108.073L153.78 110.297V111ZM161.954 107.414H159.132V108.223H161.954V107.414ZM162.824 111H167.104V110.174H164.168V110.121L165.46 108.812C166.656 107.638 166.99 107.071 166.999 106.359C166.99 105.327 166.142 104.549 164.916 104.549C163.703 104.549 162.815 105.318 162.824 106.482H163.738C163.742 105.806 164.19 105.357 164.898 105.357C165.566 105.357 166.076 105.757 166.076 106.386C166.076 106.944 165.729 107.348 165.03 108.073L162.824 110.297V111ZM168.176 111H172.457V110.174H169.521V110.121L170.813 108.812C172.008 107.638 172.342 107.071 172.351 106.359C172.342 105.327 171.494 104.549 170.268 104.549C169.055 104.549 168.167 105.318 168.176 106.482H169.09C169.095 105.806 169.543 105.357 170.25 105.357C170.918 105.357 171.428 105.757 171.428 106.386C171.428 106.944 171.081 107.348 170.382 108.073L168.176 110.297V111ZM175.744 111.088C177.216 111.088 178.077 109.901 178.082 107.818C178.077 105.749 177.203 104.549 175.744 104.549C174.28 104.549 173.406 105.749 173.406 107.818C173.406 109.901 174.271 111.088 175.744 111.088ZM174.373 107.818C174.373 106.236 174.887 105.371 175.744 105.366C176.596 105.371 177.115 106.236 177.115 107.818C177.115 109.405 176.601 110.253 175.744 110.253C174.882 110.253 174.368 109.405 174.373 107.818ZM178.943 109.761H182.037V111H182.951V109.761H183.821V108.943H182.951V104.637H181.755L178.943 108.979V109.761ZM179.962 108.943V108.891L181.966 105.788H182.037V108.943H179.962ZM184.656 109.761H187.75V111H188.664V109.761H189.534V108.943H188.664V104.637H187.468L184.656 108.979V109.761ZM185.675 108.943V108.891L187.679 105.788H187.75V108.943H185.675ZM192.724 111.088C194.196 111.088 195.058 109.901 195.062 107.818C195.058 105.749 194.183 104.549 192.724 104.549C191.261 104.549 190.386 105.749 190.386 107.818C190.386 109.901 191.252 111.088 192.724 111.088ZM191.353 107.818C191.353 106.236 191.867 105.371 192.724 105.366C193.577 105.371 194.095 106.236 194.095 107.818C194.095 109.405 193.581 110.253 192.724 110.253C191.863 110.253 191.349 109.405 191.353 107.818ZM196.064 111H200.344V110.174H197.409V110.121L198.701 108.812C199.896 107.638 200.23 107.071 200.239 106.359C200.23 105.327 199.382 104.549 198.156 104.549C196.943 104.549 196.055 105.318 196.064 106.482H196.978C196.982 105.806 197.431 105.357 198.138 105.357C198.806 105.357 199.316 105.757 199.316 106.386C199.316 106.944 198.969 107.348 198.27 108.073L196.064 110.297V111Z" fill="#96979B"/>
<path d="M179.577 26.3193H172.37V27.0049H174.163V29.7471H175.024V27.0049H176.905V29.7471H177.749V27.0049H179.577V26.3193ZM173.152 23.9111C173.157 24.9614 174.291 25.625 175.956 25.6162C177.622 25.625 178.764 24.9614 178.76 23.9111C178.764 22.8477 177.622 22.1709 175.956 22.1709C174.291 22.1709 173.157 22.8477 173.152 23.9111ZM174.014 23.9111C174.009 23.2476 174.787 22.8433 175.956 22.8389C177.129 22.8433 177.903 23.2476 177.907 23.9111C177.903 24.5571 177.129 24.957 175.956 24.957C174.787 24.957 174.009 24.5571 174.014 23.9111ZM186.978 22.9883H184.156V21.9863H183.33V22.9883H180.5V23.665H186.978V22.9883ZM180.157 28.877H187.364V28.2002H185.475V26.7939C186.046 26.5435 186.367 26.1392 186.362 25.6074C186.367 24.667 185.356 24.1133 183.743 24.1221C182.117 24.1133 181.111 24.667 181.115 25.6074C181.111 26.1392 181.432 26.5435 182.003 26.7939V28.2002H180.157V28.877ZM181.968 25.6074C181.959 25.0713 182.618 24.7681 183.743 24.7637C184.851 24.7681 185.514 25.0713 185.51 25.6074C185.514 26.1392 184.851 26.4424 183.743 26.4424C182.618 26.4424 181.959 26.1392 181.968 25.6074ZM182.838 28.2002V27.0269C183.11 27.0708 183.414 27.0928 183.743 27.0928C184.073 27.0928 184.38 27.0708 184.657 27.0269V28.2002H182.838ZM194.483 21.8721H193.64V29.7471H194.483V21.8721ZM188.015 27.6377L188.454 28.3145C191.157 27.0181 192.137 25.0229 192.137 22.7158H188.393V23.3838H191.293C191.13 25.2207 190.106 26.6401 188.015 27.6377ZM201.901 21.8721H201.058V27.5938H201.901V24.8955H203.044V24.2012H201.901V21.8721ZM195.705 26.0645L196.057 26.7324C198.359 26.0337 199.766 24.5352 199.766 22.4697H196.039V23.1641H198.856C198.693 24.4604 197.551 25.5107 195.705 26.0645ZM196.9 29.5801H202.227V28.9033H197.744V27.0049H196.9V29.5801ZM205.962 29H210.242V28.1738H207.307V28.1211L208.599 26.8115C209.794 25.6382 210.128 25.0713 210.137 24.3594C210.128 23.3267 209.28 22.5488 208.054 22.5488C206.841 22.5488 205.953 23.3179 205.962 24.4824H206.876C206.88 23.8057 207.329 23.3574 208.036 23.3574C208.704 23.3574 209.214 23.7573 209.214 24.3857C209.214 24.9438 208.867 25.3481 208.168 26.0732L205.962 28.2969V29ZM213.529 29.0879C215.001 29.0879 215.863 27.9014 215.867 25.8184C215.863 23.7485 214.988 22.5488 213.529 22.5488C212.066 22.5488 211.191 23.7485 211.191 25.8184C211.191 27.9014 212.057 29.0879 213.529 29.0879ZM212.158 25.8184C212.158 24.2363 212.672 23.3706 213.529 23.3662C214.382 23.3706 214.9 24.2363 214.9 25.8184C214.9 27.4048 214.386 28.2529 213.529 28.2529C212.668 28.2529 212.154 27.4048 212.158 25.8184ZM216.869 29H221.149V28.1738H218.214V28.1211L219.506 26.8115C220.701 25.6382 221.035 25.0713 221.044 24.3594C221.035 23.3267 220.187 22.5488 218.961 22.5488C217.748 22.5488 216.86 23.3179 216.869 24.4824H217.783C217.788 23.8057 218.236 23.3574 218.943 23.3574C219.611 23.3574 220.121 23.7573 220.121 24.3857C220.121 24.9438 219.774 25.3481 219.075 26.0732L216.869 28.2969V29ZM222.441 29H223.452L226.282 23.498V22.6367H222.002V23.4629H225.28V23.5156L222.441 29ZM226.783 29.0615C227.122 29.0571 227.403 28.7803 227.407 28.4375C227.403 28.0947 227.122 27.8135 226.783 27.8135C226.44 27.8135 226.155 28.0947 226.159 28.4375C226.155 28.7803 226.44 29.0571 226.783 29.0615ZM230.51 29.0879C231.982 29.0879 232.843 27.9014 232.848 25.8184C232.843 23.7485 231.969 22.5488 230.51 22.5488C229.046 22.5488 228.172 23.7485 228.172 25.8184C228.172 27.9014 229.038 29.0879 230.51 29.0879ZM229.139 25.8184C229.139 24.2363 229.653 23.3706 230.51 23.3662C231.362 23.3706 231.881 24.2363 231.881 25.8184C231.881 27.4048 231.367 28.2529 230.51 28.2529C229.648 28.2529 229.134 27.4048 229.139 25.8184ZM233.709 27.7607H236.803V29H237.717V27.7607H238.587V26.9434H237.717V22.6367H236.521L233.709 26.9785V27.7607ZM234.729 26.9434V26.8906L236.732 23.7881H236.803V26.9434H234.729Z" fill="#96979B"/>
<path d="M63.6621 22.6279H58.0459V23.3047H62.8271V23.4014C62.8228 24.3462 62.8228 25.4624 62.5195 26.9873L63.3633 27.0752C63.6577 25.4624 63.6577 24.3726 63.6621 23.4014V22.6279ZM57.29 28.6836H64.4707V27.9893H60.8496V25.2119H60.0234V27.9893H57.29V28.6836ZM71.7832 21.8809H70.9922V23.7969H70.043V22.0215H69.252V26.4688H70.043V24.4912H70.9922V26.5127H71.7832V21.8809ZM65.0684 25.959L65.4727 26.583C67.4897 25.748 68.5137 24.355 68.5137 22.4434H65.4111V23.1201H67.6655C67.5205 24.355 66.6592 25.335 65.0684 25.959ZM66.4043 27.5322H70.957V29.7471H71.7832V26.8555H66.4043V27.5322ZM79.5615 21.8721H78.7705V27.7783H79.5615V21.8721ZM72.8291 26.0381L73.2949 26.6797C74.0332 26.3281 74.5518 25.6689 74.8374 24.9131C75.1011 25.5942 75.5845 26.1567 76.2832 26.4775L76.749 25.8359C75.7427 25.3965 75.2285 24.4648 75.2285 23.542V22.417H74.4199V23.542C74.4243 24.4736 73.8662 25.5459 72.8291 26.0381ZM74.3408 29.5801H79.79V28.9033H75.167V27.0576H74.3408V29.5801ZM76.0459 24.4912H77.1973V27.5498H77.9971V22.0127H77.1973V23.8057H76.0459V24.4912ZM87.1904 21.8721H86.3643V24.7812H84.7998V25.4668H86.3643V29.7646H87.1904V21.8721ZM80.9854 27.9014H81.6006C83.0596 27.897 84.0483 27.8486 85.1953 27.6641L85.1074 26.9873C84.0615 27.1675 83.1475 27.207 81.8291 27.207V25.4492H84.334V24.7812H81.8291V23.252H84.668V22.5752H80.9854V27.9014ZM93.29 22.6367H92.3408L90.7588 23.6738V24.5967L92.2793 23.6035H92.3145V29H93.29V22.6367ZM97.0693 29.0879C98.3965 29.0879 99.3369 28.187 99.3369 26.9346C99.3369 25.7085 98.4536 24.8208 97.2539 24.8164C96.7705 24.8208 96.3223 24.9922 96.0586 25.2471H95.9971L96.208 23.4629H99.0117V22.6367H95.4082L94.9951 26.1787H95.9092C96.1245 25.7876 96.5156 25.6162 97.0254 25.6162C97.8252 25.625 98.3965 26.1875 98.3965 26.9609C98.3965 27.7168 97.8428 28.2749 97.0693 28.2793C96.4277 28.2749 95.9092 27.8794 95.8564 27.3389H94.916C94.96 28.354 95.8652 29.0879 97.0693 29.0879ZM102.554 22.5488C101.169 22.54 100.269 23.4893 100.269 24.7021C100.269 25.9194 101.183 26.7939 102.325 26.7939C103.011 26.7939 103.608 26.4688 103.951 25.9326H104.03C104.021 27.3872 103.446 28.2397 102.466 28.2441C101.824 28.2397 101.411 27.8662 101.279 27.3301H100.321C100.475 28.3628 101.292 29.0879 102.466 29.0879C103.991 29.0879 104.953 27.8223 104.953 25.5898C104.949 23.2607 103.723 22.5576 102.554 22.5488ZM101.209 24.6846C101.205 23.9551 101.785 23.3574 102.554 23.3574C103.332 23.3574 103.898 23.9858 103.898 24.6758C103.898 25.3789 103.305 26.0073 102.536 26.0029C101.763 26.0073 101.213 25.4229 101.209 24.6846ZM108.161 22.5488C106.777 22.54 105.876 23.4893 105.876 24.7021C105.876 25.9194 106.79 26.7939 107.933 26.7939C108.618 26.7939 109.216 26.4688 109.559 25.9326H109.638C109.629 27.3872 109.053 28.2397 108.073 28.2441C107.432 28.2397 107.019 27.8662 106.887 27.3301H105.929C106.083 28.3628 106.9 29.0879 108.073 29.0879C109.598 29.0879 110.561 27.8223 110.561 25.5898C110.556 23.2607 109.33 22.5576 108.161 22.5488ZM106.816 24.6846C106.812 23.9551 107.392 23.3574 108.161 23.3574C108.939 23.3574 109.506 23.9858 109.506 24.6758C109.506 25.3789 108.913 26.0073 108.144 26.0029C107.37 26.0073 106.821 25.4229 106.816 24.6846ZM114.401 25.9062H111.58V26.7148H114.401V25.9062ZM117.943 22.6367H116.994L115.412 23.6738V24.5967L116.933 23.6035H116.968V29H117.943V22.6367ZM121.978 22.6367H121.028L119.446 23.6738V24.5967L120.967 23.6035H121.002V29H121.978V22.6367ZM126.012 22.6367H125.062L123.48 23.6738V24.5967L125.001 23.6035H125.036V29H126.012V22.6367ZM130.046 22.6367H129.097L127.515 23.6738V24.5967L129.035 23.6035H129.07V29H130.046V22.6367Z" fill="#96979B"/>
<rect x="67.5" y="43.5" width="161" height="23" rx="3.5" fill="white"/>
<path d="M83.188 52.944H85.176C85.148 51.18 83.706 49.962 81.508 49.976C79.352 49.962 77.756 51.166 77.756 52.944C77.77 54.414 78.792 55.24 80.472 55.66L81.536 55.912C82.628 56.178 83.23 56.5 83.244 57.172C83.23 57.914 82.53 58.404 81.452 58.404C80.36 58.404 79.576 57.914 79.492 56.92H77.504C77.56 59.034 79.086 60.14 81.48 60.14C83.888 60.14 85.302 58.978 85.316 57.172C85.302 55.52 84.042 54.652 82.348 54.288L81.452 54.064C80.598 53.868 79.856 53.546 79.884 52.804C79.884 52.16 80.458 51.684 81.508 51.684C82.502 51.684 83.132 52.146 83.188 52.944ZM90.8864 49.64H89.1504L85.9584 61.484H87.6944L90.8864 49.64ZM100.127 50.088H98.0833V56.388H97.9993L93.6593 50.088H91.8673V60H93.9113V53.7H93.9953L98.3353 60H100.127V50.088Z" fill="#161616"/>
<path d="M109.508 60.14C111.748 60.14 113.372 58.95 113.372 57.34C113.372 56.094 112.406 55.072 111.216 54.876V54.82C112.252 54.61 113.008 53.714 113.008 52.636C113.008 51.096 111.524 49.962 109.508 49.976C107.478 49.962 105.994 51.096 105.98 52.636C105.994 53.714 106.736 54.61 107.8 54.82V54.876C106.568 55.072 105.616 56.094 105.616 57.34C105.616 58.95 107.24 60.14 109.508 60.14ZM107.772 57.144C107.758 56.276 108.5 55.646 109.508 55.632C110.502 55.646 111.244 56.276 111.244 57.144C111.244 57.984 110.544 58.572 109.508 58.572C108.458 58.572 107.758 57.97 107.772 57.144ZM107.996 52.832C107.996 52.062 108.612 51.516 109.508 51.516C110.376 51.516 110.992 52.062 110.992 52.832C110.992 53.63 110.362 54.176 109.508 54.176C108.626 54.176 107.996 53.63 107.996 52.832ZM115.634 60H122.718V58.32H118.49V58.236L119.974 56.78C122.032 54.946 122.578 54.022 122.578 52.888C122.578 51.166 121.164 49.962 119.05 49.976C116.964 49.962 115.522 51.208 115.522 53.14H117.482C117.482 52.188 118.098 51.6 119.022 51.6C119.932 51.6 120.59 52.146 120.59 53.028C120.59 53.812 120.1 54.358 119.162 55.24L115.634 58.516V60ZM125.019 60H132.103V58.32H127.875V58.236L129.359 56.78C131.417 54.946 131.963 54.022 131.963 52.888C131.963 51.166 130.549 49.962 128.435 49.976C126.349 49.962 124.907 51.208 124.907 53.14H126.867C126.867 52.188 127.483 51.6 128.407 51.6C129.317 51.6 129.975 52.146 129.975 53.028C129.975 53.812 129.485 54.358 128.547 55.24L125.019 58.516V60ZM138.24 60.14C140.718 60.14 142.216 58.306 142.216 55.044C142.216 51.824 140.704 49.962 138.24 49.976C135.776 49.962 134.264 51.81 134.264 55.044C134.264 58.292 135.762 60.14 138.24 60.14ZM136.364 55.044C136.364 52.79 137.106 51.656 138.24 51.656C139.388 51.656 140.116 52.79 140.116 55.044C140.13 57.34 139.388 58.432 138.24 58.432C137.092 58.432 136.35 57.34 136.364 55.044ZM148.154 60.14C150.38 60.14 151.99 58.922 151.99 57.228C151.99 55.982 151.192 55.1 149.722 54.932V54.848C150.842 54.652 151.612 53.868 151.598 52.748C151.612 51.194 150.24 49.962 148.182 49.976C146.152 49.962 144.612 51.152 144.57 52.86H146.558C146.572 52.09 147.3 51.6 148.182 51.6C149.05 51.6 149.624 52.118 149.61 52.86C149.624 53.658 148.952 54.19 147.958 54.204H147.062V55.716H147.958C149.134 55.716 149.848 56.29 149.834 57.088C149.848 57.886 149.148 58.432 148.154 58.432C147.202 58.432 146.488 57.942 146.446 57.228H144.374C144.416 58.936 145.97 60.14 148.154 60.14ZM158.09 60.14C160.316 60.14 161.828 58.698 161.814 56.696C161.828 54.834 160.498 53.49 158.734 53.476C157.628 53.49 156.648 54.008 156.186 54.876H156.102C156.102 52.944 156.816 51.726 158.146 51.74C158.958 51.726 159.532 52.16 159.686 52.86H161.73C161.52 51.222 160.148 49.962 158.146 49.976C155.682 49.962 154.086 51.95 154.086 55.268C154.086 58.908 156.032 60.126 158.09 60.14ZM156.298 56.752C156.312 55.786 157.082 54.988 158.09 54.988C159.098 54.988 159.826 55.758 159.826 56.752C159.826 57.746 159.084 58.516 158.062 58.516C157.054 58.516 156.312 57.718 156.298 56.752ZM168.332 50.088H166.4L163.936 51.656V53.476L166.204 52.048H166.288V60H168.332V50.088ZM171.465 60H178.549V58.32H174.321V58.236L175.805 56.78C177.863 54.946 178.409 54.022 178.409 52.888C178.409 51.166 176.995 49.962 174.881 49.976C172.795 49.962 171.353 51.208 171.353 53.14H173.313C173.313 52.188 173.929 51.6 174.853 51.6C175.763 51.6 176.421 52.146 176.421 53.028C176.421 53.812 175.931 54.358 174.993 55.24L171.465 58.516V60ZM184.462 49.976C182.222 49.962 180.71 51.404 180.71 53.392C180.724 55.24 182.04 56.584 183.818 56.584C184.91 56.584 185.89 56.066 186.338 55.184H186.45C186.436 57.158 185.722 58.376 184.378 58.376C183.58 58.376 183.006 57.942 182.838 57.228H180.822C181.018 58.88 182.376 60.14 184.378 60.14C186.856 60.14 188.452 58.152 188.438 54.792C188.452 51.194 186.506 49.976 184.462 49.976ZM182.726 53.336C182.698 52.356 183.454 51.586 184.462 51.572C185.484 51.586 186.226 52.384 186.226 53.336C186.226 54.274 185.456 55.086 184.462 55.072C183.44 55.086 182.712 54.316 182.726 53.336ZM190.504 58.236H195.32V60H197.28V58.236H198.512V56.584H197.28V50.088H194.704L190.504 56.612V58.236ZM192.576 56.584V56.528L195.236 52.356H195.348V56.584H192.576ZM200.532 58.236H205.348V60H207.308V58.236H208.54V56.584H207.308V50.088H204.732L200.532 56.612V58.236ZM202.604 56.584V56.528L205.264 52.356H205.376V56.584H202.604ZM210.559 58.236H215.375V60H217.335V58.236H218.567V56.584H217.335V50.088H214.759L210.559 56.612V58.236ZM212.631 56.584V56.528L215.291 52.356H215.403V56.584H212.631Z" fill="#161616"/>
<rect x="67.5" y="43.5" width="161" height="23" rx="3.5" stroke="#2763F6"/>
<circle cx="67" cy="44" r="8" fill="#2763F6"/>
<path d="M68.1035 47.8047H66.6289V42.1309H66.5898L64.9688 43.1465V41.8477L66.7168 40.7344H68.1035V47.8047Z" fill="white"/>
<rect x="67.5" y="70.5" width="161" height="23" rx="3.5" fill="white"/>
<path d="M101.738 78.212H100.22L102.948 86H104.686L107.414 78.212H105.874L103.85 84.35H103.784L101.738 78.212ZM110.249 86.11C111.613 86.121 112.548 85.45 112.801 84.438H111.459C111.272 84.79 110.876 85.054 110.271 85.054C109.38 85.054 108.808 84.471 108.775 83.47H112.845V83.03C112.845 80.984 111.613 80.093 110.183 80.082C108.522 80.093 107.422 81.314 107.433 83.118C107.422 84.944 108.5 86.121 110.249 86.11ZM108.775 82.524C108.83 81.776 109.38 81.16 110.205 81.16C110.997 81.16 111.525 81.743 111.525 82.524H108.775ZM115.291 82.59C115.291 81.732 115.808 81.248 116.523 81.248C117.249 81.248 117.678 81.71 117.667 82.502V86H119.031V82.282C119.042 80.885 118.25 80.093 117.051 80.082C116.171 80.093 115.577 80.5 115.313 81.16H115.225V80.17H113.927V86H115.291V82.59ZM122.528 86.11C123.518 86.099 123.969 85.505 124.2 85.076H124.266V86H125.608V78.212H124.244V81.116H124.2C123.98 80.709 123.551 80.093 122.528 80.082C121.175 80.093 120.108 81.149 120.108 83.096C120.108 85.01 121.142 86.099 122.528 86.11ZM121.516 83.074C121.505 81.996 121.978 81.215 122.902 81.204C123.782 81.215 124.277 81.952 124.266 83.074C124.277 84.218 123.771 84.977 122.902 84.988C121.989 84.977 121.505 84.185 121.516 83.074ZM129.563 86.11C130.927 86.121 131.862 85.45 132.115 84.438H130.773C130.586 84.79 130.19 85.054 129.585 85.054C128.694 85.054 128.122 84.471 128.089 83.47H132.159V83.03C132.159 80.984 130.927 80.093 129.497 80.082C127.836 80.093 126.736 81.314 126.747 83.118C126.736 84.944 127.814 86.121 129.563 86.11ZM128.089 82.524C128.144 81.776 128.694 81.16 129.519 81.16C130.311 81.16 130.839 81.743 130.839 82.524H128.089ZM133.241 86H134.605V82.568C134.605 81.82 135.166 81.303 135.925 81.292C136.156 81.303 136.442 81.336 136.563 81.38V80.126C136.442 80.093 136.222 80.082 136.057 80.082C135.397 80.082 134.836 80.467 134.627 81.138H134.561V80.17H133.241V86ZM145.3 80.852H146.708C146.466 79.114 145.135 78.113 143.43 78.124C141.384 78.113 139.866 79.598 139.866 82.106C139.866 84.614 141.362 86.11 143.43 86.11C145.267 86.11 146.499 84.911 146.708 83.426H145.3C145.113 84.339 144.365 84.845 143.43 84.856C142.176 84.845 141.263 83.899 141.274 82.106C141.263 80.357 142.165 79.367 143.452 79.378C144.387 79.367 145.135 79.906 145.3 80.852ZM150.402 86.11C152.096 86.121 153.185 84.911 153.196 83.118C153.185 81.292 152.096 80.093 150.402 80.082C148.686 80.093 147.597 81.292 147.608 83.118C147.597 84.911 148.686 86.121 150.402 86.11ZM148.994 83.096C148.983 82.029 149.456 81.171 150.402 81.182C151.337 81.171 151.799 82.029 151.81 83.096C151.799 84.174 151.337 85.021 150.402 85.01C149.456 85.021 148.983 84.174 148.994 83.096ZM156.431 86.11C157.421 86.099 157.872 85.505 158.103 85.076H158.169V86H159.511V78.212H158.147V81.116H158.103C157.883 80.709 157.454 80.093 156.431 80.082C155.078 80.093 154.011 81.149 154.011 83.096C154.011 85.01 155.045 86.099 156.431 86.11ZM155.419 83.074C155.408 81.996 155.881 81.215 156.805 81.204C157.685 81.215 158.18 81.952 158.169 83.074C158.18 84.218 157.674 84.977 156.805 84.988C155.892 84.977 155.408 84.185 155.419 83.074ZM163.465 86.11C164.829 86.121 165.764 85.45 166.017 84.438H164.675C164.488 84.79 164.092 85.054 163.487 85.054C162.596 85.054 162.024 84.471 161.991 83.47H166.061V83.03C166.061 80.984 164.829 80.093 163.399 80.082C161.738 80.093 160.638 81.314 160.649 83.118C160.638 84.944 161.716 86.121 163.465 86.11ZM161.991 82.524C162.046 81.776 162.596 81.16 163.421 81.16C164.213 81.16 164.741 81.743 164.741 82.524H161.991ZM170.6 85.076C171.051 85.076 171.436 84.702 171.436 84.24C171.436 83.789 171.051 83.415 170.6 83.404C170.149 83.415 169.764 83.789 169.764 84.24C169.764 84.702 170.149 85.076 170.6 85.076ZM169.764 80.368C169.764 80.83 170.149 81.204 170.6 81.204C171.051 81.204 171.436 80.83 171.436 80.368C171.436 79.917 171.051 79.543 170.6 79.532C170.149 79.543 169.764 79.917 169.764 80.368ZM178.243 86.11C180.102 86.11 181.224 84.658 181.235 82.106C181.224 79.576 180.102 78.113 178.243 78.124C176.373 78.113 175.251 79.576 175.251 82.106C175.251 84.658 176.362 86.11 178.243 86.11ZM176.659 82.106C176.659 80.258 177.264 79.279 178.243 79.268C179.211 79.279 179.816 80.258 179.805 82.106C179.816 83.976 179.211 84.933 178.243 84.922C177.264 84.933 176.659 83.976 176.659 82.106ZM185.257 86.11C187.116 86.11 188.238 84.658 188.249 82.106C188.238 79.576 187.116 78.113 185.257 78.124C183.387 78.113 182.265 79.576 182.265 82.106C182.265 84.658 183.376 86.11 185.257 86.11ZM183.673 82.106C183.673 80.258 184.278 79.279 185.257 79.268C186.225 79.279 186.83 80.258 186.819 82.106C186.83 83.976 186.225 84.933 185.257 84.922C184.278 84.933 183.673 83.976 183.673 82.106ZM189.258 84.548H193.02V86H194.362V84.548H195.374V83.404H194.362V78.212H192.624L189.258 83.426V84.548ZM190.688 83.404V83.338L192.976 79.818H193.042V83.404H190.688Z" fill="#161616"/>
<rect x="67.5" y="70.5" width="161" height="23" rx="3.5" stroke="#2763F6"/>
<rect x="59" y="63" width="16" height="16" rx="8" fill="#2763F6"/>
<path d="M64.5059 74.9961H69.5645V73.7852H66.5469V73.7461L67.6211 72.7012C69.0762 71.3828 69.4668 70.7236 69.4668 69.918C69.4668 68.6924 68.461 67.8281 66.9473 67.8281C65.458 67.8281 64.4326 68.7119 64.4375 70.0938H65.834C65.8291 69.415 66.2637 68.9951 66.9278 69C67.5772 68.9951 68.0508 69.3857 68.0508 70.0156C68.0508 70.5771 67.6944 70.9678 67.0352 71.5977L64.4961 73.9316L64.5059 74.9961Z" fill="white"/>
<rect x="48" y="13" width="200" height="108" rx="8" stroke="#96A4B1"/>
<path d="M39 102.47L39 101.3L35.76 100.4L35.76 100.346L39 99.446L39 98.276L34.23 96.926L34.23 98.078L37.578 98.906L37.578 98.942L34.23 99.806L34.23 100.94L37.596 101.804L37.596 101.84L34.23 102.686L34.23 103.82L39 102.47ZM39 95.219L39 94.049L35.76 93.149L35.76 93.095L39 92.195L39 91.025L34.23 89.675L34.23 90.827L37.578 91.655L37.578 91.691L34.23 92.555L34.23 93.689L37.596 94.553L37.596 94.589L34.23 95.435L34.23 96.569L39 95.219ZM39 87.968L39 86.798L35.76 85.898L35.76 85.844L39 84.944L39 83.774L34.23 82.424L34.23 83.576L37.578 84.404L37.578 84.44L34.23 85.304L34.23 86.438L37.596 87.302L37.596 87.338L34.23 88.184L34.23 89.318L39 87.968ZM39.072 81.6735C39.072 81.3045 38.766 80.9895 38.388 80.9895C38.019 80.9895 37.713 81.3045 37.704 81.6735C37.713 82.0425 38.019 82.3575 38.388 82.3575C38.766 82.3575 39.072 82.0425 39.072 81.6735ZM32.628 79.0233L32.628 80.2653L39 78.0333L39 76.6113L32.628 74.3793L32.628 75.6393L37.65 77.2953L37.65 77.3493L32.628 79.0233ZM39 73.5574L37.434 73.0264L37.434 70.6234L39 70.1014L39 68.8774L32.628 71.1094L32.628 72.5314L39 74.7634L39 73.5574ZM36.498 72.7114L33.942 71.8474L33.942 71.7934L36.498 70.9384L36.498 72.7114ZM34.392 64.741L34.392 63.643C33.312 63.661 32.547 64.579 32.556 65.929C32.547 67.261 33.294 68.26 34.428 68.269C35.337 68.26 35.859 67.612 36.138 66.559L36.318 65.839C36.498 65.155 36.705 64.696 37.2 64.705C37.749 64.696 38.118 65.218 38.118 65.965C38.118 66.694 37.794 67.252 37.128 67.297L37.128 68.431C38.388 68.377 39.099 67.441 39.09 65.965C39.099 64.435 38.334 63.553 37.218 63.553C36.111 63.553 35.607 64.471 35.382 65.425L35.238 66.019C35.112 66.541 34.887 67.108 34.356 67.099C33.87 67.099 33.519 66.667 33.528 65.947C33.519 65.254 33.834 64.795 34.392 64.741ZM34.788 58.3144L34.788 57.1624C33.366 57.3604 32.547 58.4494 32.556 59.8444C32.547 61.5184 33.762 62.7604 35.814 62.7604C37.866 62.7604 39.09 61.5364 39.09 59.8444C39.09 58.3414 38.109 57.3334 36.894 57.1624L36.894 58.3144C37.641 58.4674 38.055 59.0794 38.064 59.8444C38.055 60.8704 37.281 61.6174 35.814 61.6084C34.383 61.6174 33.573 60.8794 33.582 59.8264C33.573 59.0614 34.014 58.4494 34.788 58.3144ZM35.814 50.5036C33.762 50.4946 32.547 51.7546 32.556 53.4196C32.547 55.0936 33.762 56.3356 35.814 56.3356C37.866 56.3356 39.09 55.0936 39.09 53.4196C39.09 51.7546 37.875 50.4946 35.814 50.5036ZM35.814 55.1836C34.365 55.1926 33.573 54.4546 33.582 53.4196C33.573 52.3756 34.365 51.6466 35.814 51.6556C37.272 51.6466 38.055 52.3756 38.064 53.4196C38.055 54.4546 37.272 55.1926 35.814 55.1836ZM39.072 49.2418C39.072 48.8728 38.766 48.5578 38.388 48.5578C38.019 48.5578 37.713 48.8728 37.704 49.2418C37.713 49.6108 38.019 49.9258 38.388 49.9258C38.766 49.9258 39.072 49.6108 39.072 49.2418ZM39.09 45.3857C39.099 44.1977 38.379 43.4327 37.38 43.3517L37.38 44.4137C37.893 44.5217 38.181 44.8907 38.172 45.3857C38.181 46.0877 37.596 46.5467 36.606 46.5377C35.652 46.5467 35.067 46.0787 35.058 45.3857C35.067 44.8367 35.418 44.5037 35.868 44.4137L35.868 43.3517C34.842 43.4237 34.167 44.2337 34.158 45.4037C34.167 46.7897 35.175 47.6807 36.642 47.6717C38.073 47.6807 39.099 46.8167 39.09 45.3857ZM39.09 40.4199C39.099 39.0339 38.109 38.1429 36.642 38.1339C35.148 38.1429 34.167 39.0339 34.158 40.4199C34.167 41.8239 35.148 42.7149 36.642 42.7059C38.109 42.7149 39.099 41.8239 39.09 40.4199ZM36.624 41.5719C35.751 41.5809 35.049 41.1939 35.058 40.4199C35.049 39.6549 35.751 39.2769 36.624 39.2679C37.506 39.2769 38.199 39.6549 38.19 40.4199C38.199 41.1939 37.506 41.5809 36.624 41.5719ZM39 37.2696L39 36.1536L36.102 36.1536C35.508 36.1536 35.103 35.7576 35.112 35.2716C35.103 34.7946 35.427 34.4616 35.922 34.4616L39 34.4616L39 33.3636L36.012 33.3636C35.481 33.3726 35.103 33.0486 35.112 32.4996C35.103 32.0406 35.373 31.6806 35.976 31.6896L39 31.6896L39 30.5556L35.796 30.5556C34.734 30.5646 34.167 31.1766 34.158 32.0496C34.167 32.7516 34.509 33.2736 35.04 33.4896L35.04 33.5436C34.5 33.7236 34.167 34.1826 34.158 34.8216C34.167 35.4606 34.491 35.9466 35.04 36.1356L35.04 36.2076L34.23 36.2076L34.23 37.2696L39 37.2696Z" fill="#96A4B1"/>
</svg>
