<svg width="56" height="56" viewBox="0 0 56 56" fill="none" xmlns="http://www.w3.org/2000/svg">
<path d="M8 16.6172C8 13.3035 10.6863 10.6172 14 10.6172H42C45.3137 10.6172 48 13.3035 48 16.6172V39.9113C48 43.225 45.3137 45.9113 42 45.9113H14C10.6863 45.9113 8 43.225 8 39.9113V16.6172Z" fill="url(#paint0_linear_2960_260887)"/>
<path fill-rule="evenodd" clip-rule="evenodd" d="M30.1876 24.5625C30.1876 24.0102 29.7399 23.5625 29.1876 23.5625L27.2233 23.5625C26.671 23.5625 26.2233 24.0102 26.2233 24.5625V28.8516H21.9375C21.3852 28.8516 20.9375 29.2993 20.9375 29.8516V31.8158C20.9375 32.3681 21.3852 32.8158 21.9375 32.8158H26.2233V37.0981C26.2233 37.6504 26.671 38.0981 27.2233 38.0981H29.1876C29.7399 38.0981 30.1876 37.6504 30.1876 37.0981V32.8158H34.4731C35.0254 32.8158 35.4731 32.3681 35.4731 31.8158V29.8516C35.4731 29.2993 35.0254 28.8516 34.4731 28.8516H30.1876V24.5625Z" fill="white"/>
<g filter="url(#filter0_b_2960_260887)">
<path d="M16 9C16 7.89543 16.8954 7 18 7H38C39.1046 7 40 7.89543 40 9V16C40 17.1046 39.1046 18 38 18H18C16.8954 18 16 17.1046 16 16V9Z" fill="#BCE4F1" fill-opacity="0.5"/>
</g>
<defs>
<filter id="filter0_b_2960_260887" x="8" y="-1" width="40" height="27" filterUnits="userSpaceOnUse" color-interpolation-filters="sRGB">
<feFlood flood-opacity="0" result="BackgroundImageFix"/>
<feGaussianBlur in="BackgroundImageFix" stdDeviation="4"/>
<feComposite in2="SourceAlpha" operator="in" result="effect1_backgroundBlur_2960_260887"/>
<feBlend mode="normal" in="SourceGraphic" in2="effect1_backgroundBlur_2960_260887" result="shape"/>
</filter>
<linearGradient id="paint0_linear_2960_260887" x1="8" y1="29.6951" x2="48" y2="29.6951" gradientUnits="userSpaceOnUse">
<stop stop-color="#2763F6"/>
<stop offset="1" stop-color="#279FF6"/>
</linearGradient>
</defs>
</svg>
