<svg width="56" height="56" viewBox="0 0 56 56" fill="none" xmlns="http://www.w3.org/2000/svg">
<path d="M9 12C9 9.79086 10.7909 8 13 8H41C43.2091 8 45 9.79086 45 12V32H9V12Z" fill="url(#paint0_linear_756_12080)"/>
<path d="M9 32H45L48.6104 40.4243C49.7416 43.0638 47.8055 46 44.9338 46H9.06616C6.19449 46 4.25837 43.0638 5.38958 40.4243L9 32Z" fill="#0B5CD6"/>
<path d="M16 22H32" stroke="white" stroke-width="2" stroke-linecap="round"/>
<path d="M16 16H24" stroke="white" stroke-width="2" stroke-linecap="round"/>
<g filter="url(#filter0_b_756_12080)">
<circle cx="38" cy="38" r="12" fill="#BCE4F1" fill-opacity="0.5"/>
</g>
<path d="M32.2734 34.1797L35.1404 42.3615L38.0007 34.9979L40.861 42.3615L43.728 34.1797" stroke="white" stroke-width="2" stroke-linecap="round" stroke-linejoin="round"/>
<path fill-rule="evenodd" clip-rule="evenodd" d="M39 36.3594H37V38.3594H39V36.3594ZM43 38.3594H44.544C45.0963 38.3594 45.544 37.9117 45.544 37.3594C45.544 36.8071 45.0963 36.3594 44.544 36.3594H43V38.3594ZM31.4531 36.3594H33V38.3594H31.4531C30.9008 38.3594 30.4531 37.9117 30.4531 37.3594C30.4531 36.8071 30.9008 36.3594 31.4531 36.3594Z" fill="white"/>
<defs>
<filter id="filter0_b_756_12080" x="18" y="18" width="40" height="40" filterUnits="userSpaceOnUse" color-interpolation-filters="sRGB">
<feFlood flood-opacity="0" result="BackgroundImageFix"/>
<feGaussianBlur in="BackgroundImageFix" stdDeviation="4"/>
<feComposite in2="SourceAlpha" operator="in" result="effect1_backgroundBlur_756_12080"/>
<feBlend mode="normal" in="SourceGraphic" in2="effect1_backgroundBlur_756_12080" result="shape"/>
</filter>
<linearGradient id="paint0_linear_756_12080" x1="9" y1="20.973" x2="45" y2="20.973" gradientUnits="userSpaceOnUse">
<stop stop-color="#2763F6"/>
<stop offset="1" stop-color="#279FF6"/>
</linearGradient>
</defs>
</svg>
