<svg width="56" height="56" viewBox="0 0 56 56" fill="none" xmlns="http://www.w3.org/2000/svg">
<path d="M4.66406 38.9507C4.66406 31.4935 4.66406 32.9027 4.66406 32.9027C12.5202 32.9027 39.5653 28.0196 41.9974 30.8027C41.9974 30.8027 41.9974 36.4777 41.9974 38.2522C41.9974 45.7094 33.6401 51.336 23.3307 51.336C13.0214 51.336 4.66406 46.4078 4.66406 38.9507Z" fill="#0B5CD6"/>
<path d="M4.66406 31.7365C4.66406 24.2622 13.0214 18.2031 23.3307 18.2031C33.6401 18.2031 41.9974 24.2622 41.9974 31.7365C41.9974 39.2107 33.6401 45.2698 23.3307 45.2698C13.0214 45.2698 4.66406 39.2107 4.66406 31.7365Z" fill="url(#paint0_linear_756_12443)"/>
<path d="M14 34.2788C14 26.8217 14 26.1309 14 26.1309C21.8561 26.1309 48.9011 24.5144 51.3333 27.2975V33.5804C51.3333 41.0375 42.976 46.6642 32.6667 46.6642C22.3573 46.6642 14 41.7359 14 34.2788Z" fill="#0B5CD6"/>
<path d="M14 27.0646C14 19.5903 22.3573 13.5312 32.6667 13.5312C42.976 13.5312 51.3333 19.5903 51.3333 27.0646C51.3333 34.5389 42.976 40.5979 32.6667 40.5979C22.3573 40.5979 14 34.5389 14 27.0646Z" fill="#027EF1"/>
<g filter="url(#filter0_b_756_12443)">
<path d="M8.39844 25.4159C8.39844 17.9587 8.39844 18.4346 8.39844 18.4346C16.2545 18.4346 43.2996 14.9515 45.7318 17.7346V24.7174C45.7318 32.1746 37.3744 37.8012 27.0651 37.8012C16.7558 37.8012 8.39844 32.873 8.39844 25.4159Z" fill="#BCE4F1" fill-opacity="0.5"/>
</g>
<g filter="url(#filter1_b_756_12443)">
<path d="M8.39844 18.1974C8.39844 10.7231 16.7558 4.66406 27.0651 4.66406C37.3744 4.66406 45.7318 10.7231 45.7318 18.1974C45.7318 25.6717 37.3744 31.7307 27.0651 31.7307C16.7558 31.7307 8.39844 25.6717 8.39844 18.1974Z" fill="#BCE4F1" fill-opacity="0.5"/>
</g>
<path d="M19.3828 14L23.1564 22.6154L26.9213 14.8615L30.6861 22.6154L34.4597 14" stroke="white" stroke-width="2" stroke-linecap="round" stroke-linejoin="round"/>
<path fill-rule="evenodd" clip-rule="evenodd" d="M28 16.0156H26V18.0156H28V16.0156ZM33 18.0156H35.5355C36.0877 18.0156 36.5355 17.5679 36.5355 17.0156C36.5355 16.4633 36.0877 16.0156 35.5355 16.0156H33V18.0156ZM18.3047 16.0156H21V18.0156H18.3047C17.7524 18.0156 17.3047 17.5679 17.3047 17.0156C17.3047 16.4633 17.7524 16.0156 18.3047 16.0156Z" fill="white"/>
<defs>
<filter id="filter0_b_756_12443" x="4.39844" y="12.6562" width="45.3359" height="29.1484" filterUnits="userSpaceOnUse" color-interpolation-filters="sRGB">
<feFlood flood-opacity="0" result="BackgroundImageFix"/>
<feGaussianBlur in="BackgroundImageFix" stdDeviation="2"/>
<feComposite in2="SourceAlpha" operator="in" result="effect1_backgroundBlur_756_12443"/>
<feBlend mode="normal" in="SourceGraphic" in2="effect1_backgroundBlur_756_12443" result="shape"/>
</filter>
<filter id="filter1_b_756_12443" x="2.39844" y="-1.33594" width="49.3359" height="39.0703" filterUnits="userSpaceOnUse" color-interpolation-filters="sRGB">
<feFlood flood-opacity="0" result="BackgroundImageFix"/>
<feGaussianBlur in="BackgroundImageFix" stdDeviation="3"/>
<feComposite in2="SourceAlpha" operator="in" result="effect1_backgroundBlur_756_12443"/>
<feBlend mode="normal" in="SourceGraphic" in2="effect1_backgroundBlur_756_12443" result="shape"/>
</filter>
<linearGradient id="paint0_linear_756_12443" x1="4.66406" y1="32.8338" x2="41.9974" y2="32.8338" gradientUnits="userSpaceOnUse">
<stop stop-color="#2763F6"/>
<stop offset="1" stop-color="#279FF6"/>
</linearGradient>
</defs>
</svg>
