<svg width="56" height="56" viewBox="0 0 56 56" fill="none" xmlns="http://www.w3.org/2000/svg">
<mask id="mask0_1871_87479" style="mask-type:alpha" maskUnits="userSpaceOnUse" x="16" y="9" width="30" height="37">
<path d="M20 45.9193H41.9969C44.2061 45.9193 45.9969 44.1284 45.9969 41.9193V19.7427C45.9969 18.6218 45.5266 17.5523 44.7004 16.7947L37.3476 10.0519C36.6098 9.37535 35.6452 9 34.6441 9H20C17.7909 9 16 10.7909 16 13V41.9193C16 44.1284 17.7909 45.9193 20 45.9193Z" fill="url(#paint0_linear_1871_87479)"/>
</mask>
<g mask="url(#mask0_1871_87479)">
<path d="M22 45.9193H39.9969C43.3106 45.9193 45.9969 43.233 45.9969 39.9193V20.6223C45.9969 18.9409 45.2914 17.3366 44.0522 16.2002L37.9212 10.5779C36.8145 9.56302 35.3675 9 33.8659 9H22C18.6863 9 16 11.6863 16 15V39.9193C16 43.233 18.6863 45.9193 22 45.9193Z" fill="url(#paint1_linear_1871_87479)"/>
<path opacity="0.5" d="M24 24H38" stroke="white" stroke-width="2" stroke-linecap="round"/>
<path opacity="0.5" d="M24 19H30" stroke="white" stroke-width="2" stroke-linecap="round"/>
<rect x="35.9141" y="7.32812" width="12.8768" height="11.5892" rx="2" fill="#20C812"/>
</g>
<g filter="url(#filter0_b_1871_87479)">
<rect x="6" y="28" width="24" height="24" rx="12" fill="#BFFF8C" fill-opacity="0.6"/>
</g>
<line x1="13" y1="40" x2="23" y2="40" stroke="white" stroke-width="2" stroke-linecap="round"/>
<line x1="18" y1="35" x2="18" y2="45" stroke="white" stroke-width="2" stroke-linecap="round"/>
<defs>
<filter id="filter0_b_1871_87479" x="2" y="24" width="32" height="32" filterUnits="userSpaceOnUse" color-interpolation-filters="sRGB">
<feFlood flood-opacity="0" result="BackgroundImageFix"/>
<feGaussianBlur in="BackgroundImageFix" stdDeviation="2"/>
<feComposite in2="SourceAlpha" operator="in" result="effect1_backgroundBlur_1871_87479"/>
<feBlend mode="normal" in="SourceGraphic" in2="effect1_backgroundBlur_1871_87479" result="shape"/>
</filter>
<linearGradient id="paint0_linear_1871_87479" x1="16" y1="28.9564" x2="45.9969" y2="28.9564" gradientUnits="userSpaceOnUse">
<stop stop-color="#2763F6"/>
<stop offset="1" stop-color="#279FF6"/>
</linearGradient>
<linearGradient id="paint1_linear_1871_87479" x1="16" y1="27.4597" x2="45.9969" y2="27.4538" gradientUnits="userSpaceOnUse">
<stop stop-color="#34D22C"/>
<stop offset="1" stop-color="#8EEF43"/>
</linearGradient>
</defs>
</svg>
