<svg width="56" height="56" viewBox="0 0 56 56" fill="none" xmlns="http://www.w3.org/2000/svg">
<path d="M27.507 49C-6.77408 49 11.295 12 27.507 12C43.3865 12 61.9927 49 27.507 49Z" fill="url(#paint0_linear_739_12957)"/>
<g filter="url(#filter0_b_739_12957)">
<path d="M28.0028 6C13.9388 6 21.3518 19 28.0028 19C34.5175 19 42.1509 6 28.0028 6Z" fill="#BCE4F1" fill-opacity="0.5"/>
</g>
<path d="M26 29C26 30.1046 25.1046 31 24 31C22.8954 31 22 30.1046 22 29C22 27.8954 22.8954 27 24 27C25.1046 27 26 27.8954 26 29Z" stroke="white" stroke-width="2" stroke-linecap="round" stroke-linejoin="round"/>
<path d="M34 37C34 38.1046 33.1046 39 32 39C30.8954 39 30 38.1046 30 37C30 35.8954 30.8954 35 32 35C33.1046 35 34 35.8954 34 37Z" stroke="white" stroke-width="2" stroke-linecap="round" stroke-linejoin="round"/>
<path d="M22.6641 38.3307L33.3307 27.6641" stroke="white" stroke-width="2" stroke-linecap="round" stroke-linejoin="round"/>
<defs>
<filter id="filter0_b_739_12957" x="16" y="2" width="24" height="21" filterUnits="userSpaceOnUse" color-interpolation-filters="sRGB">
<feFlood flood-opacity="0" result="BackgroundImageFix"/>
<feGaussianBlur in="BackgroundImageFix" stdDeviation="2"/>
<feComposite in2="SourceAlpha" operator="in" result="effect1_backgroundBlur_739_12957"/>
<feBlend mode="normal" in="SourceGraphic" in2="effect1_backgroundBlur_739_12957" result="shape"/>
</filter>
<linearGradient id="paint0_linear_739_12957" x1="8" y1="32" x2="47" y2="32" gradientUnits="userSpaceOnUse">
<stop stop-color="#2763F6"/>
<stop offset="1" stop-color="#279FF6"/>
</linearGradient>
</defs>
</svg>
