<svg width="56" height="56" viewBox="0 0 56 56" fill="none" xmlns="http://www.w3.org/2000/svg">
<rect width="28" height="36" rx="5" transform="matrix(-1 -5.18986e-09 -5.18986e-09 1 38 7.00781)" fill="url(#paint0_linear_1871_87481)"/>
<path opacity="0.5" d="M16.7031 15L30.7031 15" stroke="white" stroke-width="2" stroke-linecap="round"/>
<path opacity="0.5" d="M16.7031 20L22.7031 20" stroke="white" stroke-width="2" stroke-linecap="round"/>
<g filter="url(#filter0_b_1871_87481)">
<circle cx="34" cy="40" r="12" fill="#BCE4F1" fill-opacity="0.5"/>
</g>
<path d="M24.4059 42.8022L27.4961 43.6915L29.6051 41.6008" stroke="white" stroke-width="2" stroke-linecap="round" stroke-linejoin="round"/>
<path d="M34 36.7969V39.9969L36.1333 42.1302" stroke="white" stroke-width="2" stroke-linecap="round" stroke-linejoin="round"/>
<path d="M27.2696 42.5746C26.9642 41.776 26.7969 40.9091 26.7969 40.0031C26.7969 36.0267 30.0204 32.8031 33.9969 32.8031C37.9733 32.8031 41.1969 36.0267 41.1969 40.0031C41.1969 43.9796 37.9733 47.2031 33.9969 47.2031C32.8474 47.2031 31.7608 46.9338 30.7969 46.4547" stroke="white" stroke-width="2" stroke-linecap="round" stroke-linejoin="round"/>
<defs>
<filter id="filter0_b_1871_87481" x="14" y="20" width="40" height="40" filterUnits="userSpaceOnUse" color-interpolation-filters="sRGB">
<feFlood flood-opacity="0" result="BackgroundImageFix"/>
<feGaussianBlur in="BackgroundImageFix" stdDeviation="4"/>
<feComposite in2="SourceAlpha" operator="in" result="effect1_backgroundBlur_1871_87481"/>
<feBlend mode="normal" in="SourceGraphic" in2="effect1_backgroundBlur_1871_87481" result="shape"/>
</filter>
<linearGradient id="paint0_linear_1871_87481" x1="-3.86686e-08" y1="19.4595" x2="28" y2="19.4595" gradientUnits="userSpaceOnUse">
<stop stop-color="#2763F6"/>
<stop offset="1" stop-color="#279FF6"/>
</linearGradient>
</defs>
</svg>
