<svg width="56" height="56" viewBox="0 0 56 56" fill="none" xmlns="http://www.w3.org/2000/svg">
<mask id="mask0_2960_260889" style="mask-type:alpha" maskUnits="userSpaceOnUse" x="17" y="7" width="31" height="38">
<path d="M21.8828 44.0657H43.9987C46.2078 44.0657 47.9987 42.2749 47.9987 40.0657V17.7784C47.9987 16.6574 47.5283 15.5879 46.7022 14.8303L39.3106 8.05192C38.5728 7.37535 37.6081 7 36.6071 7H21.8828C19.6737 7 17.8828 8.79087 17.8828 11V40.0657C17.8828 42.2749 19.6737 44.0657 21.8828 44.0657Z" fill="url(#paint0_linear_2960_260889)"/>
</mask>
<g mask="url(#mask0_2960_260889)">
<path d="M25 42H42C45.3137 42 48 39.3137 48 36V18.1903C48 16.4885 47.2773 14.8667 46.0119 13.7288L40.2401 8.53856C39.1386 7.54802 37.7096 7 36.2282 7H25C21.6863 7 19 9.68629 19 13V36C19 39.3137 21.6863 42 25 42Z" fill="url(#paint1_linear_2960_260889)"/>
<path opacity="0.5" d="M25.9141 22.0625H39.9696" stroke="white" stroke-width="2" stroke-linecap="round"/>
<path opacity="0.5" d="M25.9141 17.0391H31.9379" stroke="white" stroke-width="2" stroke-linecap="round"/>
<rect x="37.875" y="5.32031" width="12.9279" height="11.6351" rx="2" fill="#20C812"/>
</g>
<g filter="url(#filter0_b_2960_260889)">
<path d="M8 25.0625C8 23.9579 8.89543 23.0625 10 23.0625H22.7343C23.403 23.0625 24.0275 23.3967 24.3985 23.9531L26.759 27.4941C27.1299 28.0505 27.7544 28.3848 28.4231 28.3848H41.8302C42.9348 28.3848 43.8302 29.2802 43.8302 30.3848V47.0085C43.8302 48.1131 42.9348 49.0085 41.8302 49.0085H10C8.89543 49.0085 8 48.1131 8 47.0085V25.0625Z" fill="#BFFF8C" fill-opacity="0.6"/>
</g>
<path d="M20 37.8998L24.239 42.0159L32.3973 33" stroke="white" stroke-width="3.38108" stroke-linecap="round" stroke-linejoin="round"/>
<defs>
<filter id="filter0_b_2960_260889" x="4" y="19.0625" width="43.8281" height="33.9453" filterUnits="userSpaceOnUse" color-interpolation-filters="sRGB">
<feFlood flood-opacity="0" result="BackgroundImageFix"/>
<feGaussianBlur in="BackgroundImageFix" stdDeviation="2"/>
<feComposite in2="SourceAlpha" operator="in" result="effect1_backgroundBlur_2960_260889"/>
<feBlend mode="normal" in="SourceGraphic" in2="effect1_backgroundBlur_2960_260889" result="shape"/>
</filter>
<linearGradient id="paint0_linear_2960_260889" x1="17.8828" y1="27.0355" x2="47.9987" y2="27.0355" gradientUnits="userSpaceOnUse">
<stop stop-color="#2763F6"/>
<stop offset="1" stop-color="#279FF6"/>
</linearGradient>
<linearGradient id="paint1_linear_2960_260889" x1="19" y1="24.5" x2="48" y2="24.4943" gradientUnits="userSpaceOnUse">
<stop stop-color="#34D22C"/>
<stop offset="1" stop-color="#8EEF43"/>
</linearGradient>
</defs>
</svg>
