<svg width="56" height="56" viewBox="0 0 56 56" fill="none" xmlns="http://www.w3.org/2000/svg">
<path d="M13 13H43V46.4339C43 47.9958 41.2898 48.9549 39.9571 48.1405L36.1317 45.8028C35.5442 45.4438 34.8133 45.4122 34.197 45.7192L28.9577 48.3294C28.3593 48.6274 27.6517 48.6069 27.0716 48.2746L22.7204 45.7818C22.1174 45.4363 21.3783 45.4286 20.7683 45.7615L15.9579 48.3861C14.6252 49.1133 13 48.1487 13 46.6304V13Z" fill="url(#paint0_linear_2960_260883)"/>
<path opacity="0.5" d="M21 25H35" stroke="white" stroke-width="2" stroke-linecap="round"/>
<path opacity="0.5" d="M21 20H29" stroke="white" stroke-width="2" stroke-linecap="round"/>
<path d="M24 34.8043L27.4193 38L34 31" stroke="white" stroke-width="2" stroke-linecap="round" stroke-linejoin="round"/>
<g filter="url(#filter0_b_2960_260883)">
<rect x="8" y="8" width="40" height="8" rx="4" fill="#BCE4F1" fill-opacity="0.5"/>
</g>
<defs>
<filter id="filter0_b_2960_260883" x="5.40741" y="5.40741" width="45.1852" height="13.1852" filterUnits="userSpaceOnUse" color-interpolation-filters="sRGB">
<feFlood flood-opacity="0" result="BackgroundImageFix"/>
<feGaussianBlur in="BackgroundImageFix" stdDeviation="1.2963"/>
<feComposite in2="SourceAlpha" operator="in" result="effect1_backgroundBlur_2960_260883"/>
<feBlend mode="normal" in="SourceGraphic" in2="effect1_backgroundBlur_2960_260883" result="shape"/>
</filter>
<linearGradient id="paint0_linear_2960_260883" x1="8" y1="52.9839" x2="33.3129" y2="17.8425" gradientUnits="userSpaceOnUse">
<stop stop-color="#2763F6"/>
<stop offset="1" stop-color="#279FF6"/>
</linearGradient>
</defs>
</svg>
