<svg width="56" height="56" viewBox="0 0 56 56" fill="none" xmlns="http://www.w3.org/2000/svg">
<g clip-path="url(#clip0_2960_260884)">
<path d="M16.8203 39.1806C16.8203 37.9461 17.8211 36.9453 19.0556 36.9453H36.938C38.1725 36.9453 39.1733 37.9461 39.1733 39.1806V43.6512C39.1733 44.8857 38.1725 45.8865 36.938 45.8865H19.0556C17.8211 45.8865 16.8203 44.8857 16.8203 43.6512V39.1806Z" fill="#0B5CD6"/>
<path d="M9 19.0565C9 16.5875 11.0016 14.5859 13.4706 14.5859H42.5294C44.9985 14.5859 47 16.5875 47 19.0565V29.1153C47 35.2879 41.9961 40.2918 35.8235 40.2918H20.1765C14.0039 40.2918 9 35.2879 9 29.1153V19.0565Z" fill="url(#paint0_linear_2960_260884)"/>
<path d="M30.3661 23.5312H26.0596C25.8916 23.5312 25.7495 23.6557 25.7273 23.8222L24.6991 31.534C24.6723 31.735 24.8286 31.9136 25.0314 31.9136H27.5924C27.804 31.9136 27.9627 32.1072 27.9212 32.3147L27.2285 35.7779C27.156 36.1406 27.6379 36.3363 27.8388 36.0258L32.696 28.5193C32.8403 28.2962 32.6802 28.0018 32.4145 28.0018H30.1073C29.8892 28.0018 29.7291 27.7968 29.782 27.5852L30.6913 23.9479C30.7442 23.7362 30.5842 23.5312 30.3661 23.5312Z" fill="white"/>
<g filter="url(#filter0_b_2960_260884)">
<rect x="18.2422" y="5.64844" width="4.87701" height="14.631" rx="2.4385" fill="#BCE4F1" fill-opacity="0.5"/>
</g>
<g filter="url(#filter1_b_2960_260884)">
<rect x="32.875" y="5.64844" width="4.87701" height="14.631" rx="2.4385" fill="#BCE4F1" fill-opacity="0.5"/>
</g>
<rect x="27" y="43" width="2" height="10" fill="#0B5CD6"/>
</g>
<defs>
<filter id="filter0_b_2960_260884" x="13.7716" y="1.17785" width="13.8162" height="23.574" filterUnits="userSpaceOnUse" color-interpolation-filters="sRGB">
<feFlood flood-opacity="0" result="BackgroundImageFix"/>
<feGaussianBlur in="BackgroundImageFix" stdDeviation="2.23529"/>
<feComposite in2="SourceAlpha" operator="in" result="effect1_backgroundBlur_2960_260884"/>
<feBlend mode="normal" in="SourceGraphic" in2="effect1_backgroundBlur_2960_260884" result="shape"/>
</filter>
<filter id="filter1_b_2960_260884" x="28.4044" y="1.17785" width="13.8162" height="23.574" filterUnits="userSpaceOnUse" color-interpolation-filters="sRGB">
<feFlood flood-opacity="0" result="BackgroundImageFix"/>
<feGaussianBlur in="BackgroundImageFix" stdDeviation="2.23529"/>
<feComposite in2="SourceAlpha" operator="in" result="effect1_backgroundBlur_2960_260884"/>
<feBlend mode="normal" in="SourceGraphic" in2="effect1_backgroundBlur_2960_260884" result="shape"/>
</filter>
<linearGradient id="paint0_linear_2960_260884" x1="9" y1="28.481" x2="47" y2="28.481" gradientUnits="userSpaceOnUse">
<stop stop-color="#2763F6"/>
<stop offset="1" stop-color="#279FF6"/>
</linearGradient>
<clipPath id="clip0_2960_260884">
<rect width="48" height="48" fill="white" transform="translate(4 4)"/>
</clipPath>
</defs>
</svg>
