<svg width="56" height="56" viewBox="0 0 56 56" fill="none" xmlns="http://www.w3.org/2000/svg">
<mask id="mask0_2960_260886" style="mask-type:alpha" maskUnits="userSpaceOnUse" x="18" y="7" width="30" height="37">
<path d="M22 43.9193H43.9969C46.2061 43.9193 47.9969 42.1284 47.9969 39.9193V17.7427C47.9969 16.6218 47.5266 15.5523 46.7004 14.7947L39.3476 8.05192C38.6098 7.37535 37.6452 7 36.6441 7H22C19.7909 7 18 8.79086 18 11V39.9193C18 42.1284 19.7909 43.9193 22 43.9193Z" fill="url(#paint0_linear_2960_260886)"/>
</mask>
<g mask="url(#mask0_2960_260886)">
<path d="M24 43.9193H41.9969C45.3106 43.9193 47.9969 41.233 47.9969 37.9193V18.6223C47.9969 16.9409 47.2914 15.3366 46.0522 14.2002L39.9212 8.57788C38.8145 7.56302 37.3675 7 35.8659 7H24C20.6863 7 18 9.68629 18 13V37.9193C18 41.233 20.6863 43.9193 24 43.9193Z" fill="url(#paint1_linear_2960_260886)"/>
<path opacity="0.5" d="M26 22H40" stroke="white" stroke-width="2" stroke-linecap="round"/>
<path opacity="0.5" d="M26 17H32" stroke="white" stroke-width="2" stroke-linecap="round"/>
<rect x="37.9141" y="5.32812" width="12.8768" height="11.5892" rx="2" fill="#0B5CD6"/>
</g>
<g filter="url(#filter0_b_2960_260886)">
<circle cx="20" cy="38" r="12" fill="#BCE4F1" fill-opacity="0.5"/>
</g>
<path d="M15 38.3476L18.7612 41.9998L26 34" stroke="white" stroke-width="2" stroke-linecap="round" stroke-linejoin="round"/>
<defs>
<filter id="filter0_b_2960_260886" x="0" y="18" width="40" height="40" filterUnits="userSpaceOnUse" color-interpolation-filters="sRGB">
<feFlood flood-opacity="0" result="BackgroundImageFix"/>
<feGaussianBlur in="BackgroundImageFix" stdDeviation="4"/>
<feComposite in2="SourceAlpha" operator="in" result="effect1_backgroundBlur_2960_260886"/>
<feBlend mode="normal" in="SourceGraphic" in2="effect1_backgroundBlur_2960_260886" result="shape"/>
</filter>
<linearGradient id="paint0_linear_2960_260886" x1="18" y1="26.9564" x2="47.9969" y2="26.9564" gradientUnits="userSpaceOnUse">
<stop stop-color="#2763F6"/>
<stop offset="1" stop-color="#279FF6"/>
</linearGradient>
<linearGradient id="paint1_linear_2960_260886" x1="18" y1="26.9564" x2="47.9969" y2="26.9564" gradientUnits="userSpaceOnUse">
<stop stop-color="#2763F6"/>
<stop offset="1" stop-color="#279FF6"/>
</linearGradient>
</defs>
</svg>
