<svg width="18" height="18" viewBox="0 0 18 18" fill="none" xmlns="http://www.w3.org/2000/svg">
<path d="M8.31177 3.39137C8.67401 2.63225 9.75457 2.63224 10.1168 3.39137L11.2024 5.66637C11.3482 5.97187 11.6386 6.18289 11.9742 6.22713L14.4733 6.55656C15.3072 6.66649 15.6411 7.69416 15.0311 8.27325L13.2029 10.0087C12.9574 10.2418 12.8465 10.5832 12.9081 10.916L13.3671 13.3946C13.5202 14.2217 12.646 14.8568 11.9068 14.4556L9.6913 13.2532C9.39379 13.0917 9.03478 13.0917 8.73727 13.2532L6.52181 14.4556C5.78256 14.8568 4.90836 14.2217 5.06151 13.3946L5.52047 10.916C5.58211 10.5832 5.47117 10.2418 5.22566 10.0087L3.39747 8.27325C2.78744 7.69416 3.12135 6.66649 3.95525 6.55656L6.45437 6.22713C6.78997 6.18289 7.08041 5.97187 7.22619 5.66637L8.31177 3.39137Z" fill="#FFB800"/>
</svg>
