<svg width="18" height="18" viewBox="0 0 18 18" fill="none" xmlns="http://www.w3.org/2000/svg">
<circle cx="9" cy="9" r="8" fill="url(#paint0_linear_225_37916)"/>
<path d="M8.56632 4.48972C8.66011 4.29316 8.93989 4.29316 9.03368 4.48971L10.122 6.77036C10.1597 6.84947 10.2349 6.9041 10.3218 6.91556L12.8271 7.24581C13.043 7.27427 13.1295 7.54035 12.9715 7.69029L11.1388 9.43006C11.0752 9.4904 11.0465 9.57881 11.0625 9.66499L11.5226 12.1497C11.5622 12.3639 11.3359 12.5283 11.1445 12.4244L8.92351 11.219C8.84648 11.1772 8.75352 11.1772 8.67649 11.219L6.45553 12.4244C6.26412 12.5283 6.03777 12.3639 6.07743 12.1497L6.53753 9.66499C6.55349 9.57881 6.52476 9.4904 6.4612 9.43006L4.62846 7.69029C4.47051 7.54035 4.55697 7.27427 4.77289 7.24581L7.27821 6.91556C7.3651 6.9041 7.4403 6.84947 7.47805 6.77036L8.56632 4.48972Z" fill="white"/>
<defs>
<linearGradient id="paint0_linear_225_37916" x1="4" y1="2.5" x2="13.5" y2="17" gradientUnits="userSpaceOnUse">
<stop stop-color="#00EB42"/>
<stop offset="1" stop-color="#C4FF17"/>
</linearGradient>
</defs>
</svg>
