<svg width="18" height="18" viewBox="0 0 18 18" fill="none" xmlns="http://www.w3.org/2000/svg">
<path d="M8.76303 3.6067C8.94415 3.22713 9.48443 3.22714 9.66554 3.60669L10.7511 5.8817C10.9698 6.33996 11.4055 6.65649 11.9089 6.72284L14.408 7.05227C14.8249 7.10724 14.9919 7.62107 14.6869 7.91062L12.8587 9.64607C12.4904 9.99565 12.324 10.5078 12.4165 11.0071L12.8754 13.4857C12.952 13.8992 12.5149 14.2168 12.1453 14.0162L9.92981 12.8137C9.48354 12.5715 8.94503 12.5715 8.49876 12.8137L6.2833 14.0162C5.91368 14.2168 5.47658 13.8992 5.55315 13.4857L6.01211 11.0071C6.10456 10.5078 5.93816 9.99565 5.5699 9.64607L3.74171 7.91062C3.43669 7.62107 3.60365 7.10724 4.0206 7.05227L6.51971 6.72284C7.02312 6.65649 7.45878 6.33996 7.67745 5.8817L8.76303 3.6067Z" fill="white" stroke="#96979B"/>
</svg>
