<svg width="24" height="24" viewBox="0 0 24 24" fill="none" xmlns="http://www.w3.org/2000/svg">
<path d="M19.4985 10.425C19.4985 16.0102 12.3176 20.7974 12.3176 20.7974C12.3176 20.7974 5.13672 16.0102 5.13672 10.425C5.13672 8.52054 5.89327 6.69405 7.23995 5.34738C8.58663 4.0007 10.4131 3.24414 12.3176 3.24414C14.2221 3.24414 16.0486 4.0007 17.3953 5.34738C18.7419 6.69405 19.4985 8.52054 19.4985 10.425Z" stroke="#333333" stroke-width="1.5" stroke-linecap="round" stroke-linejoin="round"/>
<path d="M12.3194 12.8205C13.6414 12.8205 14.713 11.7488 14.713 10.4268C14.713 9.10487 13.6414 8.0332 12.3194 8.0332C10.9974 8.0332 9.92578 9.10487 9.92578 10.4268C9.92578 11.7488 10.9974 12.8205 12.3194 12.8205Z" stroke="#333333" stroke-width="1.5" stroke-linecap="round" stroke-linejoin="round"/>
</svg>
