<svg width="24" height="24" viewBox="0 0 24 24" fill="none" xmlns="http://www.w3.org/2000/svg">
<mask id="path-1-inside-1_2168_70154" fill="white">
<path fill-rule="evenodd" clip-rule="evenodd" d="M7.78078 4C7.32191 4 6.92193 4.3123 6.81063 4.75746L6 8H3C2.44772 8 2 8.44772 2 9V20C2 20.5523 2.44772 21 3 21H21C21.5523 21 22 20.5523 22 20V9C22 8.44772 21.5523 8 21 8H18L17.1894 4.75746C17.0781 4.3123 16.6781 4 16.2192 4H7.78078Z"/>
</mask>
<path fill-rule="evenodd" clip-rule="evenodd" d="M7.78078 4C7.32191 4 6.92193 4.3123 6.81063 4.75746L6 8H3C2.44772 8 2 8.44772 2 9V20C2 20.5523 2.44772 21 3 21H21C21.5523 21 22 20.5523 22 20V9C22 8.44772 21.5523 8 21 8H18L17.1894 4.75746C17.0781 4.3123 16.6781 4 16.2192 4H7.78078Z" fill="white"/>
<path d="M6.81063 4.75746L8.26585 5.12127L8.26585 5.12127L6.81063 4.75746ZM6 8V9.5C6.6883 9.5 7.28828 9.03155 7.45521 8.3638L6 8ZM18 8L16.5448 8.3638C16.7117 9.03155 17.3117 9.5 18 9.5V8ZM17.1894 4.75746L18.6446 4.39366V4.39366L17.1894 4.75746ZM8.26585 5.12127C8.2102 5.34385 8.01021 5.5 7.78078 5.5V2.5C6.63361 2.5 5.63365 3.28074 5.35542 4.39366L8.26585 5.12127ZM7.45521 8.3638L8.26585 5.12127L5.35542 4.39366L4.54479 7.6362L7.45521 8.3638ZM3 9.5H6V6.5H3V9.5ZM3.5 9C3.5 9.27614 3.27614 9.5 3 9.5V6.5C1.61929 6.5 0.5 7.61929 0.5 9H3.5ZM3.5 20V9H0.5V20H3.5ZM3 19.5C3.27614 19.5 3.5 19.7239 3.5 20H0.5C0.5 21.3807 1.61929 22.5 3 22.5V19.5ZM21 19.5H3V22.5H21V19.5ZM20.5 20C20.5 19.7239 20.7239 19.5 21 19.5V22.5C22.3807 22.5 23.5 21.3807 23.5 20H20.5ZM20.5 9V20H23.5V9H20.5ZM21 9.5C20.7239 9.5 20.5 9.27614 20.5 9H23.5C23.5 7.61929 22.3807 6.5 21 6.5V9.5ZM18 9.5H21V6.5H18V9.5ZM15.7342 5.12127L16.5448 8.3638L19.4552 7.6362L18.6446 4.39366L15.7342 5.12127ZM16.2192 5.5C15.9898 5.5 15.7898 5.34385 15.7342 5.12127L18.6446 4.39366C18.3664 3.28074 17.3664 2.5 16.2192 2.5V5.5ZM7.78078 5.5H16.2192V2.5H7.78078V5.5Z" fill="#333333" mask="url(#path-1-inside-1_2168_70154)"/>
<circle cx="12" cy="14" r="3.25" fill="white" stroke="#333333" stroke-width="1.5"/>
</svg>
