<svg width="24" height="24" viewBox="0 0 24 24" fill="none" xmlns="http://www.w3.org/2000/svg">
<path d="M3.35903 8.76833C3.50466 8.76833 3.63793 8.72518 3.734 8.62526C3.82919 8.52626 3.86806 8.3921 3.86806 8.2496V5.63935C3.86806 5.03346 4.02626 4.59719 4.31173 4.31173C4.59719 4.02626 5.03346 3.86806 5.63935 3.86806H8.2593C8.4018 3.86806 8.53597 3.82919 8.63496 3.734C8.73488 3.63792 8.77803 3.50466 8.77803 3.35903C8.77803 3.2134 8.73488 3.08013 8.63496 2.98406C8.53597 2.88887 8.4018 2.85 8.2593 2.85H5.61995C4.7366 2.85 4.03776 3.07979 3.56028 3.55333C3.08258 4.02708 2.85 4.7214 2.85 5.60054V8.2496C2.85 8.3921 2.88887 8.52626 2.98406 8.62526C3.08013 8.72518 3.2134 8.76833 3.35903 8.76833ZM20.641 8.76833C20.7866 8.76833 20.9199 8.72518 21.0159 8.62526C21.1111 8.52626 21.15 8.3921 21.15 8.2496V5.60054C21.15 4.7311 20.9199 4.03721 20.4452 3.5612C19.9704 3.0851 19.2739 2.85 18.3898 2.85H15.7407C15.5982 2.85 15.464 2.88887 15.365 2.98406C15.2651 3.08013 15.222 3.2134 15.222 3.35903C15.222 3.50466 15.2651 3.63793 15.365 3.734C15.464 3.82919 15.5982 3.86806 15.7407 3.86806H18.3606C18.946 3.86806 19.3834 4.0257 19.6745 4.31251C19.9653 4.59895 20.1319 5.03572 20.1319 5.63935V8.2496C20.1319 8.3921 20.1708 8.52626 20.266 8.62526C20.3621 8.72518 20.4953 8.76833 20.641 8.76833ZM11.2092 13.4551H11.2965C11.7121 13.4551 12.053 13.3524 12.2889 13.118C12.525 12.8834 12.6303 12.5423 12.6303 12.1213V9.14232C12.6303 9.00929 12.5986 8.88106 12.5051 8.7876C12.4117 8.69414 12.2834 8.6624 12.1504 8.6624C12.0206 8.6624 11.894 8.69493 11.8005 8.78644C11.7064 8.87854 11.6705 9.00595 11.6705 9.14232V12.2086C11.6705 12.3769 11.5355 12.4856 11.3935 12.4856H11.0636C10.7964 12.4856 10.5934 12.6886 10.5934 12.9558C10.5934 13.1058 10.6422 13.2433 10.7653 13.3371C10.88 13.4245 11.0357 13.4551 11.2092 13.4551ZM8.51159 11.2233C8.68928 11.2233 8.84897 11.1664 8.96456 11.0508C9.08015 10.9352 9.13706 10.7755 9.13706 10.5978V9.30728C9.13706 9.12602 9.08094 8.96391 8.96533 8.8466C8.84951 8.72908 8.68933 8.6721 8.51159 8.6721C8.33514 8.6721 8.17777 8.7338 8.06482 8.85181C7.95248 8.96917 7.89582 9.12986 7.89582 9.30728V10.5978C7.89582 10.7755 7.95268 10.9347 8.06633 11.05C8.18016 11.1655 8.3374 11.2233 8.51159 11.2233ZM15.4011 11.2233C15.5753 11.2233 15.7325 11.1655 15.8463 11.05C15.96 10.9347 16.0168 10.7755 16.0168 10.5978V9.30728C16.0168 9.12986 15.9602 8.96917 15.8478 8.85181C15.7349 8.7338 15.5775 8.6721 15.4011 8.6721C15.2236 8.6721 15.0619 8.72888 14.944 8.84506C14.8258 8.96158 14.7659 9.12384 14.7659 9.30728V10.5978C14.7659 10.7778 14.8267 10.9376 14.9448 11.0523C15.0624 11.1666 15.2236 11.2233 15.4011 11.2233ZM11.9175 16.4244C13.0239 16.4244 14.1272 15.963 14.94 15.1525C15.0258 15.0784 15.1047 14.9524 15.1047 14.7801C15.1047 14.4972 14.8859 14.3098 14.6345 14.3098C14.5658 14.3098 14.4937 14.3195 14.4172 14.3559C14.3438 14.3909 14.2762 14.4458 14.2063 14.5206C13.6502 15.0757 12.7861 15.4743 11.9175 15.4743C11.0498 15.4743 10.1951 15.0764 9.6284 14.5203C9.56427 14.4512 9.4999 14.3969 9.42773 14.3608C9.35205 14.323 9.27725 14.3098 9.20054 14.3098C8.94911 14.3098 8.73032 14.4972 8.73032 14.7801C8.73032 14.9495 8.81534 15.0724 8.88967 15.1471C9.68557 15.9727 10.8114 16.4244 11.9175 16.4244ZM5.61995 21.15H8.2593C8.4018 21.15 8.53597 21.1111 8.63496 21.0159C8.73488 20.9199 8.77803 20.7866 8.77803 20.641C8.77803 20.4953 8.73488 20.3621 8.63496 20.266C8.53597 20.1708 8.4018 20.1319 8.2593 20.1319H5.63935C5.03346 20.1319 4.59733 19.9737 4.31193 19.6873C4.02642 19.4007 3.86806 18.962 3.86806 18.3509V15.7504C3.86806 15.608 3.82931 15.4728 3.73594 15.3719C3.64098 15.2694 3.50765 15.222 3.35903 15.222C3.21041 15.222 3.07708 15.2694 2.98212 15.3719C2.88875 15.4728 2.85 15.608 2.85 15.7504V18.3898C2.85 19.2735 3.08246 19.9703 3.56013 20.4453C4.03765 20.9202 4.7366 21.15 5.61995 21.15ZM15.7407 21.15H18.3898C19.2744 21.15 19.9708 20.9122 20.4455 20.4337C20.9199 19.9553 21.15 19.2592 21.15 18.3898V15.7504C21.15 15.608 21.1112 15.4728 21.0179 15.3719C20.9229 15.2694 20.7896 15.222 20.641 15.222C20.4924 15.222 20.359 15.2694 20.2641 15.3719C20.1707 15.4728 20.1319 15.608 20.1319 15.7504V18.3509C20.1319 18.9597 19.9651 19.3989 19.6743 19.6865C19.3832 19.9743 18.946 20.1319 18.3606 20.1319H15.7407C15.5982 20.1319 15.464 20.1708 15.365 20.266C15.2651 20.3621 15.222 20.4953 15.222 20.641C15.222 20.7866 15.2651 20.9199 15.365 21.0159C15.464 21.1111 15.5982 21.15 15.7407 21.15Z" fill="#333333" stroke="#333333" stroke-width="0.3"/>
</svg>
