<svg width="24" height="24" viewBox="0 0 24 24" fill="none" xmlns="http://www.w3.org/2000/svg">
<path d="M5.33464 12.666C6.82797 15.6527 9.38797 18.106 12.3746 19.706L15.8946 15.6793C16.2146 15.3593 16.6413 15.2527 16.9613 15.466C18.1346 15.8927 19.4146 16.106 20.8013 16.106C21.4413 16.106 21.868 16.5327 21.868 17.1727V20.7993C21.868 21.4393 21.4413 21.866 20.8013 21.866C10.7746 21.866 2.66797 13.7593 2.66797 3.73268C2.66797 3.09268 3.09464 2.66602 3.73464 2.66602H7.46797C8.10797 2.66602 8.53464 3.09268 8.53464 3.73268C8.53464 5.01268 8.74797 6.29268 9.17464 7.57268C9.2813 7.89268 9.17463 8.31935 8.9613 8.63935L5.33464 12.666Z" stroke="#333333" stroke-width="1.5"/>
</svg>
