<svg width="18" height="18" viewBox="0 0 18 18" fill="none" xmlns="http://www.w3.org/2000/svg">
<path d="M16 4.8V13.2C16 13.6774 15.8177 14.1352 15.4931 14.4728C15.1685 14.8104 14.7283 15 14.2692 15H2.73077C2.27174 15 1.83151 14.8104 1.50693 14.4728C1.18235 14.1352 1 13.6774 1 13.2V4.8M16 4.8C16 4.32261 15.8177 3.86477 15.4931 3.52721C15.1685 3.18964 14.7283 3 14.2692 3H2.73077C2.27174 3 1.83151 3.18964 1.50693 3.52721C1.18235 3.86477 1 4.32261 1 4.8M16 4.8V4.9944C16 5.30172 15.9244 5.60392 15.7803 5.87224C15.6363 6.14055 15.4285 6.36603 15.1769 6.5272L9.40769 10.2192C9.13477 10.394 8.82054 10.4866 8.5 10.4866C8.17946 10.4866 7.86523 10.394 7.59231 10.2192L1.82308 6.528C1.57148 6.36683 1.36375 6.14135 1.21967 5.87304C1.07559 5.60472 0.999967 5.30252 1 4.9952V4.8" stroke="#161616" stroke-width="1.5" stroke-linecap="round" stroke-linejoin="round"/>
<path d="M15.1742 6.53125L9.40493 10.2232C9.13201 10.3981 8.81777 10.4906 8.49724 10.4906C8.1767 10.4906 7.86246 10.3981 7.58954 10.2232L1.82031 6.53205" stroke="#161616" stroke-width="1.5" stroke-linecap="round" stroke-linejoin="round"/>
</svg>
