<svg width="29" height="28" viewBox="0 0 29 28" fill="none" xmlns="http://www.w3.org/2000/svg">
<circle cx="15.4747" cy="13.9921" r="5.72029" fill="#D4EFFF"/>
<circle cx="14.9547" cy="13.4721" r="6.24032" stroke="#333333" stroke-width="1.5"/>
<path d="M12.9786 13.8843L14.5694 15.5715L17.4855 12.5084" stroke="#333333" stroke-width="1.5" stroke-linecap="round" stroke-linejoin="round"/>
<path fill-rule="evenodd" clip-rule="evenodd" d="M6.73683 5.97437L13.5527 2.99263C14.4471 2.60136 15.4643 2.60142 16.3587 2.99279L23.1716 5.97412C24.5163 6.56256 25.351 7.92756 25.262 9.39268L25.0142 13.474C24.8862 15.5813 24.4427 17.478 23.3703 18.9564C21.8689 21.0261 19.2239 23.7978 15.0491 25.4827C14.9776 25.5116 14.8916 25.5136 14.8142 25.485C9.80043 23.6284 7.19497 20.4411 5.96473 18.3914C5.30289 17.2887 5.04315 15.933 4.94843 14.373L4.7609 11.2846H3.25813L3.45119 14.4639C3.55098 16.1074 3.83124 17.7516 4.67861 19.1634C6.03931 21.4303 8.8863 24.8894 14.2934 26.8916C14.7183 27.049 15.1903 27.0433 15.6105 26.8737C20.1182 25.0545 22.9699 22.063 24.5845 19.8371C25.8982 18.026 26.3758 15.7982 26.5114 13.565L26.7592 9.4836C26.8863 7.39056 25.6939 5.44057 23.7729 4.59993L16.96 1.6186C15.6824 1.0595 14.2293 1.05942 12.9515 1.61838L6.13564 4.60012C4.4951 5.3178 3.38582 6.84451 3.17578 8.57854H4.69164C4.89044 7.44011 5.64581 6.45166 6.73683 5.97437Z" fill="#333333"/>
</svg>
