<svg width="29" height="28" viewBox="0 0 29 28" fill="none" xmlns="http://www.w3.org/2000/svg">
<path d="M24.302 16.571C24.302 15.5079 23.3787 14.6461 22.2396 14.6461C21.1006 14.6461 20.1772 15.5079 20.1772 16.571V18.4959C20.1772 19.559 21.1006 20.4208 22.2396 20.4208C23.3787 20.4208 24.302 19.559 24.302 18.4959V16.571Z" fill="#D4EFFF"/>
<path d="M9.44755 16.571C9.44755 15.5079 8.52418 14.6461 7.38515 14.6461C6.24612 14.6461 5.32275 15.5079 5.32275 16.571V18.4959C5.32275 19.559 6.24612 20.4208 7.38515 20.4208C8.52418 20.4208 9.44755 19.559 9.44755 18.4959V16.571Z" fill="#D4EFFF"/>
<path d="M9.44976 15.4425C9.44976 14.0926 8.34172 12.9982 6.97488 12.9982C5.60804 12.9982 4.5 14.0926 4.5 15.4425V17.8869C4.5 19.2368 5.60804 20.3312 6.97488 20.3312C8.34172 20.3312 9.44976 19.2368 9.44976 17.8869V15.4425Z" stroke="#333333" stroke-width="1.5" stroke-linecap="round" stroke-linejoin="round"/>
<path d="M24.2964 15.4425C24.2964 14.0926 23.1884 12.9982 21.8216 12.9982C20.4547 12.9982 19.3467 14.0926 19.3467 15.4425V17.8869C19.3467 19.2368 20.4547 20.3312 21.8216 20.3312C23.1884 20.3312 24.2964 19.2368 24.2964 17.8869V15.4425Z" stroke="#333333" stroke-width="1.5" stroke-linecap="round" stroke-linejoin="round"/>
<path d="M4.5 15.4438V11.7773C4.5 9.1842 5.54298 6.6973 7.3995 4.8637C9.25602 3.03011 11.774 2 14.3995 2C17.025 2 19.543 3.03011 21.3995 4.8637C23.256 6.6973 24.299 9.1842 24.299 11.7773V15.4438" stroke="#333333" stroke-width="1.5" stroke-linecap="round" stroke-linejoin="round"/>
<path d="M21.828 20.3336C21.828 21.306 21.0457 22.2386 19.6533 22.9262C18.2609 23.6138 16.3725 24.0001 14.4033 24.0001" stroke="#333333" stroke-width="1.5" stroke-linecap="round" stroke-linejoin="round"/>
</svg>
