<svg width="29" height="28" viewBox="0 0 29 28" fill="none" xmlns="http://www.w3.org/2000/svg">
<path d="M15.8201 2.5L15.2017 4.97368" stroke="#333333" stroke-width="1.5" stroke-linecap="round" stroke-linejoin="round"/>
<path d="M22.6245 5.59343H26.335" stroke="#333333" stroke-width="1.5" stroke-linecap="round" stroke-linejoin="round"/>
<path d="M24.48 3.73816V7.44869" stroke="#333333" stroke-width="1.5" stroke-linecap="round" stroke-linejoin="round"/>
<path d="M20.1494 8.68283L18.9126 9.91967" stroke="#333333" stroke-width="1.5" stroke-linecap="round" stroke-linejoin="round"/>
<path d="M23.8613 13.633L26.335 13.0145" stroke="#333333" stroke-width="1.5" stroke-linecap="round" stroke-linejoin="round"/>
<ellipse cx="9.63754" cy="16.7223" rx="4.32895" ry="4.32895" fill="#D4EFFF"/>
<path d="M22.6215 17.9371L10.8939 6.21053L2.99508 23.446C2.84227 23.7806 2.79538 24.1539 2.86071 24.5159C2.92604 24.8779 3.10046 25.2114 3.36061 25.4715C3.62075 25.7316 3.95419 25.906 4.31624 25.9713C4.67829 26.0366 5.05165 25.9898 5.38631 25.837L22.6215 17.9389V17.9371Z" stroke="#333333" stroke-width="1.5" stroke-linecap="round" stroke-linejoin="round"/>
<path d="M8.84082 9.92105L16.2619 16.812" stroke="#333333" stroke-width="1.5"/>
</svg>
