<svg width="32" height="32" viewBox="0 0 32 32" fill="none" xmlns="http://www.w3.org/2000/svg">
<rect width="21" height="12" rx="2" transform="matrix(1 0 0 -1 8 28)" fill="#D4EFFF"/>
<path d="M3 5.84615C3 4.82655 3.6467 4 4.44444 4H27.5556C28.3533 4 29 4.82655 29 5.84615V26.1538C29 27.1734 28.3533 28 27.5556 28H4.44444C3.6467 28 3 27.1734 3 26.1538V11" stroke="#333333" stroke-width="1.5" stroke-linecap="round" stroke-linejoin="round"/>
<path d="M29 11H3" stroke="#333333" stroke-width="1.5" stroke-linejoin="round"/>
<path d="M7.25 7.5C7.25 7.63807 7.13807 7.75 7 7.75C6.86193 7.75 6.75 7.63807 6.75 7.5C6.75 7.36193 6.86193 7.25 7 7.25C7.13807 7.25 7.25 7.36193 7.25 7.5Z" fill="#333333" stroke="#333333" stroke-width="1.5"/>
<path d="M11.25 7.5C11.25 7.63807 11.1381 7.75 11 7.75C10.8619 7.75 10.75 7.63807 10.75 7.5C10.75 7.36193 10.8619 7.25 11 7.25C11.1381 7.25 11.25 7.36193 11.25 7.5Z" fill="#333333" stroke="#333333" stroke-width="1.5"/>
<path d="M12.75 22.6L19.25 16" stroke="#333333" stroke-width="1.5" stroke-linecap="round" stroke-linejoin="round"/>
<path d="M12.75 16L19.25 22.6" stroke="#333333" stroke-width="1.5" stroke-linecap="round" stroke-linejoin="round"/>
</svg>
