<svg width="32" height="32" viewBox="0 0 32 32" fill="none" xmlns="http://www.w3.org/2000/svg">
<path fill-rule="evenodd" clip-rule="evenodd" d="M12 10C10.8954 10 10 10.8954 10 12V19C10 20.1046 10.8954 21 12 21H22C23.1046 21 24 20.1046 24 19V15C24 14.1716 24.6716 13.5 25.5 13.5C26.3284 13.5 27 12.8284 27 12C27 10.8954 26.1046 10 25 10H12Z" fill="#D4EFFF"/>
<path d="M9 25.5H5V28H9V25.5Z" stroke="#333333" stroke-width="1.5" stroke-linejoin="round"/>
<path d="M27 25.5H23V28H27V25.5Z" stroke="#333333" stroke-width="1.5" stroke-linejoin="round"/>
<path d="M4.97656 10C4.97656 9.10179 4.97656 8.42857 4.97656 8.42857C4.97656 6.53714 6.49703 5 8.36795 5H23.6292C25.5001 5 27.0206 6.53714 27.0206 8.42857V13.0286C26.9245 13.0171 26.834 13 26.738 13H26.1727C24.9236 13 23.9118 14.0229 23.9118 15.2857V21H8.08533V15.2857C8.08533 14.0229 7.07357 13 5.82441 13H5.25918C5.16309 13 5.07265 13.0171 4.97656 13.0286C4.97656 13.0286 4.97656 13.3277 4.97656 12.8786" stroke="#333333" stroke-width="1.5" stroke-linejoin="round"/>
<path d="M27.0223 13.0284C26.9262 13.017 26.8358 13 26.7397 13H26.1745C24.9253 13 23.9136 14.017 23.9136 15.2727V20.9545H8.08708V15.2727C8.08708 14.017 7.07532 13 5.82616 13H5.26092C5.16484 13 5.0744 13.017 4.97831 13.0284C3.8648 13.1705 3 14.1136 3 15.2727V23.2273C3 24.483 4.01176 25.5 5.26092 25.5H26.7397C27.9889 25.5 29.0006 24.483 29.0006 23.2273V15.2727C29.0006 14.1136 28.1358 13.1705 27.0223 13.0284Z" stroke="#333333" stroke-width="1.5" stroke-linejoin="round"/>
<path d="M11.25 12.5C11.25 12.6381 11.1381 12.75 11 12.75C10.8619 12.75 10.75 12.6381 10.75 12.5C10.75 12.3619 10.8619 12.25 11 12.25C11.1381 12.25 11.25 12.3619 11.25 12.5Z" fill="#333333" stroke="#333333" stroke-width="1.5"/>
<path d="M16.25 12.5C16.25 12.6381 16.1381 12.75 16 12.75C15.8619 12.75 15.75 12.6381 15.75 12.5C15.75 12.3619 15.8619 12.25 16 12.25C16.1381 12.25 16.25 12.3619 16.25 12.5Z" fill="#333333" stroke="#333333" stroke-width="1.5"/>
<path d="M21.25 12.5C21.25 12.6381 21.1381 12.75 21 12.75C20.8619 12.75 20.75 12.6381 20.75 12.5C20.75 12.3619 20.8619 12.25 21 12.25C21.1381 12.25 21.25 12.3619 21.25 12.5Z" fill="#333333" stroke="#333333" stroke-width="1.5"/>
</svg>
