<svg width="60" height="60" viewBox="0 0 60 60" fill="none" xmlns="http://www.w3.org/2000/svg">
<path d="M47 34L47 46C47 47.1046 46.1046 48 45 48L15 48C13.8954 48 13 47.1046 13 46L13 34L47 34Z" fill="#D4EFFF"/>
<path d="M37.2857 12H43C45.2091 12 47 13.7909 47 16V22.2857M22.7143 12H17C14.7909 12 13 13.7909 13 16V22.2857M13 37.7143V44C13 46.2091 14.7909 48 17 48H22.7143M37.2857 48H43C45.2091 48 47 46.2091 47 44V37.7143" stroke="#161616" stroke-width="2"/>
<path d="M10 29H50" stroke="black" stroke-width="2"/>
</svg>
