<svg width="60" height="60" viewBox="0 0 60 60" fill="none" xmlns="http://www.w3.org/2000/svg">
<path fill-rule="evenodd" clip-rule="evenodd" d="M46.3925 30.6483V26.9208L30.0084 14.0352L13.6222 26.9724V50.9216H30.0076V52.9219H7.0625C6.51022 52.9219 6.0625 52.4742 6.0625 51.9219C6.0625 51.3696 6.51022 50.9219 7.0625 50.9219H11.6222V28.5514L9.34089 30.3525C8.02808 31.389 6.09866 30.452 6.10156 28.7793L6.1116 22.9911C6.11265 22.3883 6.38555 21.8181 6.85439 21.4391L26.5147 5.54856C26.8724 5.25947 27.3187 5.10248 27.7786 5.10403L32.2349 5.11906C32.6879 5.12058 33.127 5.27587 33.4803 5.55949L53.1579 21.3582C53.6307 21.7378 53.9058 22.3114 53.9058 22.9177V28.7124C53.9058 30.3817 51.9815 31.3164 50.6694 30.2844L48.3925 28.4937V30.6483H46.3925ZM49.4866 50.9219H52.9509C53.5031 50.9219 53.9509 51.3696 53.9509 51.9219C53.9509 52.4742 53.5031 52.9219 52.9509 52.9219H49.4866V50.9219ZM8.10156 28.7828L11.992 25.7112L12.0025 25.7028L29.3876 11.9769C29.7503 11.6906 30.2619 11.69 30.6252 11.9756L48.0104 25.6396C48.0423 25.6646 48.0723 25.6914 48.1006 25.7197L51.9058 28.7124V22.9177L32.2282 7.11904L27.7719 7.10402L8.1116 22.9946L8.10156 28.7828Z" fill="#161616"/>
<ellipse cx="41.4212" cy="45.2734" rx="8.6087" ry="8.625" fill="#D4EFFF"/>
<ellipse cx="10.2143" cy="10.6786" rx="10.2143" ry="10.6786" transform="matrix(1 0 0 -1 32.7891 54.1797)" stroke="#161616" stroke-width="2" stroke-miterlimit="10" stroke-linecap="round" stroke-linejoin="round"/>
<path d="M47.501 40.2557C47.5732 39.9808 47.7837 39.8433 48.1325 39.8433C48.3009 39.8433 48.4453 39.9121 48.5656 40.0495C48.6979 40.1745 48.7641 40.312 48.7641 40.4619C48.7641 40.5994 48.752 40.7118 48.728 40.7993L46.6349 47.1912C46.5747 47.3662 46.4665 47.5161 46.3101 47.6411C46.1537 47.766 45.9733 47.8285 45.7688 47.8285C45.5763 47.8285 45.3959 47.766 45.2275 47.6411C45.0711 47.5161 44.9628 47.3599 44.9027 47.1725L43.3329 42.0927L41.7631 47.1725C41.6909 47.3474 41.5766 47.5036 41.4202 47.6411C41.2639 47.766 41.0834 47.8285 40.8789 47.8285C40.6865 47.8285 40.512 47.766 40.3557 47.6411C40.1993 47.5161 40.091 47.3662 40.0309 47.1912L37.9378 40.7993C37.9137 40.7118 37.9017 40.5994 37.9017 40.4619C37.9017 40.312 37.9618 40.1745 38.0821 40.0495C38.2145 39.9121 38.3648 39.8433 38.5332 39.8433C38.8821 39.8433 39.0926 39.9808 39.1648 40.2557L40.8789 46.179L42.6111 40.4057C42.6592 40.2432 42.7495 40.112 42.8818 40.012C43.0141 39.8996 43.1645 39.8433 43.3329 39.8433C43.5013 39.8433 43.6517 39.8933 43.784 39.9933C43.9163 40.0933 44.0065 40.2307 44.0546 40.4057L45.7688 46.179L47.501 40.2557Z" fill="#161616"/>
<path fill-rule="evenodd" clip-rule="evenodd" d="M38.5332 40.1633C38.4559 40.1633 38.3815 40.191 38.2999 40.2757C38.2262 40.3522 38.2096 40.4118 38.2096 40.4619C38.2096 40.5779 38.2197 40.6562 38.2322 40.705L40.3216 47.0857C40.36 47.1961 40.4296 47.2966 40.5434 47.3875C40.6474 47.4706 40.7562 47.5086 40.8789 47.5086C41.0157 47.5086 41.1279 47.4693 41.227 47.3918C41.3439 47.2878 41.4239 47.1767 41.4747 47.0591L43.3329 41.0461L45.1953 47.0728C45.2349 47.1952 45.3042 47.2975 45.4109 47.3841C45.5297 47.471 45.647 47.5086 45.7688 47.5086C45.908 47.5086 46.0219 47.4678 46.1223 47.3875C46.2362 47.2966 46.3058 47.1961 46.3442 47.0857L48.4336 40.705C48.4461 40.6562 48.4561 40.5779 48.4561 40.4619C48.4561 40.4229 48.4431 40.3662 48.3584 40.2862L48.3476 40.276L48.3377 40.2647C48.2717 40.1893 48.2083 40.1633 48.1325 40.1633C47.9937 40.1633 47.9171 40.1911 47.8769 40.2173C47.844 40.2388 47.8161 40.2712 47.7981 40.3399L47.7958 40.3488L45.771 47.2719L43.7585 40.4936C43.7278 40.3821 43.6755 40.3069 43.6028 40.252C43.5248 40.193 43.4382 40.1633 43.3329 40.1633C43.2367 40.1633 43.155 40.1932 43.0768 40.2596L43.07 40.2654L43.0629 40.2708C42.9845 40.33 42.934 40.4035 42.9055 40.4998L42.9051 40.5009L40.8736 47.2718L38.8676 40.3399C38.8495 40.2712 38.8218 40.2388 38.7889 40.2173C38.7487 40.1911 38.672 40.1633 38.5332 40.1633ZM37.8644 39.8233C38.0474 39.6332 38.2737 39.5234 38.5332 39.5234C38.7433 39.5234 38.9463 39.5644 39.1166 39.6756C39.293 39.7907 39.4061 39.9629 39.4607 40.1672L40.8842 45.0862L42.3168 40.3116C42.3837 40.0862 42.5114 39.8987 42.6936 39.7587C42.8785 39.604 43.0951 39.5234 43.3329 39.5234C43.5643 39.5234 43.7785 39.5936 43.9651 39.7346C44.1562 39.8789 44.2839 40.0774 44.3498 40.3144L45.7666 45.0861L47.2052 40.1667C47.2598 39.9626 47.373 39.7906 47.5491 39.6756C47.7195 39.5644 47.9225 39.5234 48.1325 39.5234C48.3886 39.5234 48.6103 39.6306 48.7834 39.823C48.9575 39.9915 49.072 40.2062 49.072 40.4619C49.072 40.6156 49.0589 40.7605 49.0241 40.8872L49.022 40.8948L46.9249 47.2988C46.8429 47.5375 46.6961 47.7362 46.4979 47.8947C46.2856 48.0643 46.0385 48.1484 45.7688 48.1484C45.5072 48.1484 45.265 48.062 45.0485 47.9014L45.0396 47.8948C44.8365 47.7325 44.6908 47.5239 44.6105 47.2736L44.6095 47.2703L43.3329 43.1393L42.0518 47.2846L42.0461 47.2985C41.953 47.5242 41.8077 47.7196 41.6192 47.8853L41.6082 47.8949C41.3959 48.0646 41.1487 48.1484 40.8789 48.1484C40.6167 48.1484 40.3766 48.0615 40.1679 47.8947C39.9697 47.7362 39.8229 47.5375 39.7409 47.2988L39.7393 47.2943L37.6438 40.8948L37.6417 40.8872C37.6069 40.7605 37.5938 40.6156 37.5938 40.4619C37.5938 40.2121 37.6974 39.9968 37.8644 39.8233Z" fill="#161616"/>
<path d="M36.6406 43.3594L38.5537 43.3594" stroke="#161616" stroke-width="2" stroke-linecap="round"/>
<path d="M48.1172 43.3594H50.0302" stroke="#161616" stroke-width="2" stroke-linecap="round"/>
</svg>
