<svg width="60" height="60" viewBox="0 0 60 60" fill="none" xmlns="http://www.w3.org/2000/svg">
<path fill-rule="evenodd" clip-rule="evenodd" d="M13.7143 7C12.1836 7 11 8.27372 11 9.7732V50.6H9C8.44772 50.6 8 51.0477 8 51.6C8 52.1523 8.44772 52.6 9 52.6H29V50.5567H26.7143V42.6907C26.7143 41.1912 25.5306 39.9175 24 39.9175H19.7143C18.1837 39.9175 17 41.1912 17 42.6907V50.5567H13V9.7732C13 9.31406 13.3514 9 13.7143 9H30C30.3629 9 30.7143 9.31406 30.7143 9.7732V20.5258V30H32.7143V20.5258C32.7143 20.0666 33.0657 19.7526 33.4286 19.7526H46.2857C46.6486 19.7526 47 20.0666 47 20.5258V30H49V20.5258C49 19.0263 47.8163 17.7526 46.2857 17.7526H33.4286C33.1801 17.7526 32.9409 17.7861 32.7143 17.8488V9.7732C32.7143 8.27372 31.5306 7 30 7H13.7143ZM24.7143 42.6907V50.5567H19V42.6907C19 42.2316 19.3514 41.9175 19.7143 41.9175H24C24.3629 41.9175 24.7143 42.2316 24.7143 42.6907ZM18.4286 14.2062C17.8763 14.2062 17.4286 14.6539 17.4286 15.2062C17.4286 15.7585 17.8763 16.2062 18.4286 16.2062H25.7143C26.2666 16.2062 26.7143 15.7585 26.7143 15.2062C26.7143 14.6539 26.2666 14.2062 25.7143 14.2062H18.4286ZM18.4286 20.4124C17.8763 20.4124 17.4286 20.8601 17.4286 21.4124C17.4286 21.9647 17.8763 22.4124 18.4286 22.4124H25.7143C26.2666 22.4124 26.7143 21.9647 26.7143 21.4124C26.7143 20.8601 26.2666 20.4124 25.7143 20.4124H18.4286ZM18.4286 26.6186C17.8763 26.6186 17.4286 27.0663 17.4286 27.6186C17.4286 28.1708 17.8763 28.6186 18.4286 28.6186H25.7143C26.2666 28.6186 26.7143 28.1708 26.7143 27.6186C26.7143 27.0663 26.2666 26.6186 25.7143 26.6186H18.4286ZM18.4286 32.8247C17.8763 32.8247 17.4286 33.2725 17.4286 33.8247C17.4286 34.377 17.8763 34.8247 18.4286 34.8247H25.7143C26.2666 34.8247 26.7143 34.377 26.7143 33.8247C26.7143 33.2725 26.2666 32.8247 25.7143 32.8247H18.4286Z" fill="#161616"/>
<ellipse cx="39.4212" cy="44.2734" rx="8.6087" ry="8.625" fill="#D4EFFF"/>
<ellipse cx="10.2143" cy="10.6786" rx="10.2143" ry="10.6786" transform="matrix(1 0 0 -1 30.7891 53.1797)" stroke="#161616" stroke-width="2" stroke-miterlimit="10" stroke-linecap="round" stroke-linejoin="round"/>
<path d="M45.501 39.2557C45.5732 38.9808 45.7837 38.8433 46.1325 38.8433C46.3009 38.8433 46.4453 38.9121 46.5656 39.0495C46.6979 39.1745 46.7641 39.312 46.7641 39.4619C46.7641 39.5994 46.752 39.7118 46.728 39.7993L44.6349 46.1912C44.5747 46.3662 44.4665 46.5161 44.3101 46.6411C44.1537 46.766 43.9733 46.8285 43.7688 46.8285C43.5763 46.8285 43.3959 46.766 43.2275 46.6411C43.0711 46.5161 42.9628 46.3599 42.9027 46.1725L41.3329 41.0927L39.7631 46.1725C39.6909 46.3474 39.5766 46.5036 39.4202 46.6411C39.2639 46.766 39.0834 46.8285 38.8789 46.8285C38.6865 46.8285 38.512 46.766 38.3557 46.6411C38.1993 46.5161 38.091 46.3662 38.0309 46.1912L35.9378 39.7993C35.9137 39.7118 35.9017 39.5994 35.9017 39.4619C35.9017 39.312 35.9618 39.1745 36.0821 39.0495C36.2145 38.9121 36.3648 38.8433 36.5332 38.8433C36.8821 38.8433 37.0926 38.9808 37.1648 39.2557L38.8789 45.179L40.6111 39.4057C40.6592 39.2432 40.7495 39.112 40.8818 39.012C41.0141 38.8996 41.1645 38.8433 41.3329 38.8433C41.5013 38.8433 41.6517 38.8933 41.784 38.9933C41.9163 39.0933 42.0065 39.2307 42.0546 39.4057L43.7688 45.179L45.501 39.2557Z" fill="#161616"/>
<path fill-rule="evenodd" clip-rule="evenodd" d="M36.5332 39.1633C36.4559 39.1633 36.3815 39.191 36.2999 39.2757C36.2262 39.3522 36.2096 39.4118 36.2096 39.4619C36.2096 39.5779 36.2197 39.6562 36.2322 39.705L38.3216 46.0857C38.36 46.1961 38.4296 46.2966 38.5434 46.3875C38.6474 46.4706 38.7562 46.5086 38.8789 46.5086C39.0157 46.5086 39.1279 46.4693 39.227 46.3918C39.3439 46.2878 39.4239 46.1767 39.4747 46.0591L41.3329 40.0461L43.1953 46.0728C43.2349 46.1952 43.3042 46.2975 43.4109 46.3841C43.5297 46.471 43.647 46.5086 43.7688 46.5086C43.908 46.5086 44.0219 46.4678 44.1223 46.3875C44.2362 46.2966 44.3058 46.1961 44.3442 46.0857L46.4336 39.705C46.4461 39.6562 46.4561 39.5779 46.4561 39.4619C46.4561 39.4229 46.4431 39.3662 46.3584 39.2862L46.3476 39.276L46.3377 39.2647C46.2717 39.1893 46.2083 39.1633 46.1325 39.1633C45.9937 39.1633 45.9171 39.1911 45.8769 39.2173C45.844 39.2388 45.8161 39.2712 45.7981 39.3399L45.7958 39.3488L43.771 46.2719L41.7585 39.4936C41.7278 39.3821 41.6755 39.3069 41.6028 39.252C41.5248 39.193 41.4382 39.1633 41.3329 39.1633C41.2367 39.1633 41.155 39.1932 41.0768 39.2596L41.07 39.2654L41.0629 39.2708C40.9845 39.33 40.934 39.4035 40.9055 39.4998L40.9051 39.5009L38.8736 46.2718L36.8676 39.3399C36.8495 39.2712 36.8218 39.2388 36.7889 39.2173C36.7487 39.1911 36.672 39.1633 36.5332 39.1633ZM35.8644 38.8233C36.0474 38.6332 36.2737 38.5234 36.5332 38.5234C36.7433 38.5234 36.9463 38.5644 37.1166 38.6756C37.293 38.7907 37.4061 38.9629 37.4607 39.1672L38.8842 44.0862L40.3168 39.3116C40.3837 39.0862 40.5114 38.8987 40.6936 38.7587C40.8785 38.604 41.0951 38.5234 41.3329 38.5234C41.5643 38.5234 41.7785 38.5936 41.9651 38.7346C42.1562 38.8789 42.2839 39.0774 42.3498 39.3144L43.7666 44.0861L45.2052 39.1667C45.2598 38.9626 45.373 38.7906 45.5491 38.6756C45.7195 38.5644 45.9225 38.5234 46.1325 38.5234C46.3886 38.5234 46.6103 38.6306 46.7834 38.823C46.9575 38.9915 47.072 39.2062 47.072 39.4619C47.072 39.6156 47.0589 39.7605 47.0241 39.8872L47.022 39.8948L44.9249 46.2988C44.8429 46.5375 44.6961 46.7362 44.4979 46.8947C44.2856 47.0643 44.0385 47.1484 43.7688 47.1484C43.5072 47.1484 43.265 47.062 43.0485 46.9014L43.0396 46.8948C42.8365 46.7325 42.6908 46.5239 42.6105 46.2736L42.6095 46.2703L41.3329 42.1393L40.0518 46.2846L40.0461 46.2985C39.953 46.5242 39.8077 46.7196 39.6192 46.8853L39.6082 46.8949C39.3959 47.0646 39.1487 47.1484 38.8789 47.1484C38.6167 47.1484 38.3766 47.0615 38.1679 46.8947C37.9697 46.7362 37.8229 46.5375 37.7409 46.2988L37.7393 46.2943L35.6438 39.8948L35.6417 39.8872C35.6069 39.7605 35.5938 39.6156 35.5938 39.4619C35.5938 39.2121 35.6974 38.9968 35.8644 38.8233Z" fill="#161616"/>
<path d="M34.6406 42.3594L36.5537 42.3594" stroke="#161616" stroke-width="2" stroke-linecap="round"/>
<path d="M46.1172 42.3594H48.0302" stroke="#161616" stroke-width="2" stroke-linecap="round"/>
</svg>
