<svg width="60" height="60" viewBox="0 0 60 60" fill="none" xmlns="http://www.w3.org/2000/svg">
<path d="M42.5108 40.5H8.54717L6 47.6267L8.54717 51.5H47L42.5108 40.5Z" fill="#D4EFFF"/>
<path d="M52.1585 45.3025C53.3348 48.5614 50.9202 52 47.4554 52L11.8929 52C8.58652 52 6.19058 48.8482 7.07513 45.6623L9.82879 35.7447C10.0682 34.8824 10.8532 34.2857 11.748 34.2857L48.182 34.2857L52.1585 45.3025Z" stroke="#161616" stroke-width="2"/>
<path fill-rule="evenodd" clip-rule="evenodd" d="M14.5391 8.34375H44.3601C46.017 8.34375 47.3601 9.6869 47.3601 11.3438V33.258H47V35.258H47.3601H49.3601V33.258V11.3438C49.3601 8.58233 47.1215 6.34375 44.3601 6.34375H14.5391C11.7776 6.34375 9.53906 8.58232 9.53906 11.3437V30H11.5391V11.3437C11.5391 9.68689 12.8822 8.34375 14.5391 8.34375Z" fill="#161616"/>
<path d="M35.875 26.875L32.4105 23.4105M32.4105 23.4105C33.3482 22.4728 33.8749 21.201 33.8749 19.875C33.8749 18.5489 33.3482 17.2771 32.4105 16.3395C31.4728 15.4018 30.201 14.875 28.875 14.875C27.5489 14.875 26.2771 15.4018 25.3395 16.3395C24.4018 17.2771 23.875 18.5489 23.875 19.875C23.875 21.201 24.4018 22.4728 25.3395 23.4105C26.2771 24.3482 27.5489 24.8749 28.875 24.8749C30.201 24.8749 31.4728 24.3482 32.4105 23.4105V23.4105Z" stroke="#161616" stroke-width="2" stroke-linecap="round" stroke-linejoin="round"/>
</svg>
