<svg width="60" height="60" viewBox="0 0 60 60" fill="none" xmlns="http://www.w3.org/2000/svg">
<path d="M13 44H34.4818C35.1885 44 35.8427 43.627 36.2028 43.0189L39.2207 37.9216L43.3427 30.2936C43.4477 30.0992 43.5198 29.8887 43.5561 29.6708L44 27L13 27L13 44Z" fill="#D4EFFF"/>
<path d="M7 13.6228C7 12.1743 7.9203 11 9.05556 11H41.9444C43.0797 11 44 12.1743 44 13.6228V31M7 20.9447V42.4734C7 43.9219 7.9203 45.0962 9.05556 45.0962H34.5465" stroke="#161616" stroke-width="2" stroke-linecap="round" stroke-linejoin="round"/>
<path fill-rule="evenodd" clip-rule="evenodd" d="M52.7774 45.7723L45.7446 33.2105C44.981 31.8465 43.018 31.8465 42.2544 33.2105L35.2216 45.7723C34.4752 47.1054 35.4389 48.7493 36.9667 48.7493H51.0323C52.5602 48.7493 53.5238 47.1054 52.7774 45.7723ZM47.4897 32.2335C45.9625 29.5055 42.0365 29.5055 40.5093 32.2335L33.4765 44.7953C31.9837 47.4616 33.911 50.7493 36.9667 50.7493H51.0323C54.088 50.7493 56.0153 47.4616 54.5225 44.7953L47.4897 32.2335Z" fill="#161616"/>
<path d="M44.9662 37.7045L44.9676 37.6531H44.9162H43.0721H43.0207L43.0221 37.7045L43.1778 43.238L43.1791 43.2865H43.2277H44.7605H44.8091L44.8105 43.238L44.9662 37.7045ZM44.0061 43.8305C43.4215 43.825 42.9382 44.2512 42.9502 44.7864L43.0002 44.7863C42.9883 45.2938 43.4433 45.7031 44.0061 45.7031C44.539 45.7031 45 45.2938 45 44.7863C45 44.2843 44.539 43.875 44.0061 43.8805L44.0066 43.8305C44.0064 43.8305 44.0063 43.8305 44.0061 43.8305Z" fill="#161616" stroke="#161616" stroke-width="0.1"/>
<path d="M44 20.9453H7" stroke="#161616" stroke-width="2" stroke-linejoin="round"/>
<path d="M13.1581 16C13.1581 16.3635 12.8635 16.6581 12.5 16.6581C12.1365 16.6581 11.8419 16.3635 11.8419 16C11.8419 15.6365 12.1365 15.3419 12.5 15.3419C12.8635 15.3419 13.1581 15.6365 13.1581 16Z" fill="#161616" stroke="#161616" stroke-width="1.68376"/>
<path d="M19.1581 16C19.1581 16.3635 18.8635 16.6581 18.5 16.6581C18.1365 16.6581 17.8419 16.3635 17.8419 16C17.8419 15.6365 18.1365 15.3419 18.5 15.3419C18.8635 15.3419 19.1581 15.6365 19.1581 16Z" fill="#161616" stroke="#161616" stroke-width="1.68376"/>
</svg>
