<svg width="60" height="60" viewBox="0 0 60 60" fill="none" xmlns="http://www.w3.org/2000/svg">
<rect x="36" y="26" width="6" height="20" fill="#D4EFFF"/>
<rect x="21" y="26" width="6" height="20" fill="#D4EFFF"/>
<path d="M29.4893 8.10009L8.86433 16.6798C8.34238 16.8923 8 17.4066 8 17.9786V21.6011C8 22.3738 8.61563 23 9.375 23H50.625C51.3844 23 52 22.3738 52 21.6011V17.9786C52 17.4066 51.6577 16.8923 51.1358 16.6798L30.5108 8.10009C30.1829 7.96664 29.8171 7.96664 29.4893 8.10009Z" stroke="#161616" stroke-width="2" stroke-miterlimit="10" stroke-linecap="round" stroke-linejoin="round"/>
<path d="M30 15V18" stroke="#161616" stroke-width="2" stroke-miterlimit="10" stroke-linecap="round" stroke-linejoin="round"/>
<path d="M33 46H27V23H33V46Z" stroke="#161616" stroke-width="2" stroke-miterlimit="10" stroke-linecap="round" stroke-linejoin="round"/>
<path d="M48 46H42V23H48V46Z" stroke="#161616" stroke-width="2" stroke-miterlimit="10" stroke-linecap="round" stroke-linejoin="round"/>
<rect x="8" y="46" width="44" height="6" rx="1" stroke="#161616" stroke-width="2" stroke-miterlimit="10" stroke-linecap="round" stroke-linejoin="round"/>
<path fill-rule="evenodd" clip-rule="evenodd" d="M12 47C11.4477 47 11 46.5523 11 46V29H13V45H17V24H16H13H11V23C11 22.4477 11.4477 22 12 22H18C18.5523 22 19 22.4477 19 23V46C19 46.5523 18.5523 47 18 47H12Z" fill="#161616"/>
</svg>
