<svg width="60" height="60" viewBox="0 0 60 60" fill="none" xmlns="http://www.w3.org/2000/svg">
<circle cx="31" cy="31" r="10" fill="#D4EFFF"/>
<circle cx="30" cy="30" r="11" stroke="#161616" stroke-width="2"/>
<path d="M26.3515 29.8395L29.2908 32.957L34.679 27.2971" stroke="#161616" stroke-width="2" stroke-linecap="round" stroke-linejoin="round"/>
<path fill-rule="evenodd" clip-rule="evenodd" d="M11.7977 15.7061L28.8022 8.26712C29.5688 7.93175 30.4407 7.9318 31.2073 8.26725L48.2058 15.7058C49.3584 16.2102 50.0738 17.3802 49.9976 18.636L49.1866 31.991C49.063 34.0274 48.622 35.8779 47.6821 37.4145C45.2876 41.3294 39.838 48.3671 29.9758 52.1824C18.6294 48.1555 13.6153 40.5036 11.7902 36.8609C11.2213 35.7255 10.9625 34.3956 10.8711 32.89L10.3941 25.0345H8.39039L8.87474 33.0112C8.97454 34.6547 9.26451 36.2847 10.0021 37.7568C11.9817 41.7079 17.3394 49.8302 29.3367 54.0778C29.7639 54.229 30.242 54.2234 30.6648 54.0603C41.1005 50.034 46.8579 42.5952 49.3883 38.458C50.5557 36.5493 51.0474 34.3455 51.183 32.1122L51.9939 18.7572C52.121 16.6642 50.9286 14.7142 49.0076 13.8735L32.0091 6.43501C30.7314 5.87591 29.2783 5.87583 28.0006 6.43478L10.9961 13.8737C9.07479 14.7142 7.88214 16.6644 8.00925 18.7576L8.08678 20.0345H10.0905L10.0056 18.6364C9.92931 17.3805 10.6449 16.2104 11.7977 15.7061Z" fill="#161616"/>
</svg>
