<svg width="60" height="60" viewBox="0 0 60 60" fill="none" xmlns="http://www.w3.org/2000/svg">
<path d="M9 11H45V20H33.5H9V11Z" fill="#D4EFFF"/>
<path d="M51 40V15C51 12.2386 48.7614 10 46 10H14C11.2386 10 9 12.2386 9 15V42C9 45.3137 11.6863 48 15 48H55" stroke="#161616" stroke-width="2"/>
<path d="M52.125 51.3516L55.5 47.9766L52.125 44.6016" stroke="#161616" stroke-width="2" stroke-linecap="square" stroke-linejoin="round"/>
<path d="M21 11V5" stroke="#161616" stroke-width="2"/>
<path d="M39 11V5" stroke="#161616" stroke-width="2"/>
<path d="M22 32.5H24" stroke="#161616" stroke-width="2" stroke-linecap="round"/>
<path d="M36 32.5H38" stroke="#161616" stroke-width="2" stroke-linecap="round"/>
<path d="M33.4954 36.5705L31.0871 28.7625C31.011 28.497 30.867 28.2846 30.6545 28.1301C30.4435 27.9766 30.2031 27.9 29.9365 27.9C29.6679 27.9 29.4266 27.9867 29.2162 28.1581C29.0067 28.3112 28.8627 28.5132 28.7863 28.7614C28.7863 28.7615 28.7863 28.7615 28.7863 28.7616L26.3523 36.5705L23.9418 28.5525C23.8831 28.3383 23.766 28.1716 23.5891 28.0604C23.4142 27.9504 23.1893 27.9 22.9229 27.9C22.6472 27.9 22.4028 28.0095 22.193 28.2193C22.002 28.4103 21.9 28.628 21.9 28.8701C21.9 29.0685 21.9179 29.2369 21.9566 29.3722L21.9565 29.3722L21.9581 29.3769L25.0167 38.3681L25.0166 38.3681L25.0172 38.3696C25.1122 38.6356 25.2829 38.8618 25.525 39.048C25.7705 39.2369 26.0467 39.3324 26.3506 39.3324C26.6706 39.3324 26.9559 39.2378 27.2026 39.048L27.2026 39.0481L27.2062 39.0451C27.4451 38.8429 27.6222 38.6109 27.7345 38.349L27.7349 38.3491L27.7378 38.3401L29.9365 31.4912L32.1352 38.3401L32.1356 38.3412C32.23 38.6245 32.4004 38.8606 32.6441 39.048L32.6441 39.0481L32.647 39.0501C32.9087 39.2371 33.1924 39.3324 33.4961 39.3324C33.8161 39.3324 34.1014 39.2378 34.3481 39.048C34.5902 38.8618 34.7609 38.6356 34.8559 38.3696L34.8564 38.3681L37.915 29.3769L37.9151 29.377L37.9165 29.3722C37.9551 29.2369 37.973 29.0685 37.973 28.8701C37.973 28.6259 37.8604 28.4084 37.6538 28.2192C37.461 28.0088 37.2248 27.9 36.9502 27.9C36.6837 27.9 36.4589 27.9504 36.2839 28.0604C36.107 28.1716 35.99 28.3382 35.9313 28.5524L33.4954 36.5705Z" fill="#161616" stroke="#161616" stroke-width="0.2"/>
<path d="M8 21H51.5" stroke="#161616" stroke-width="2"/>
</svg>
