<svg width="60" height="60" viewBox="0 0 60 60" fill="none" xmlns="http://www.w3.org/2000/svg">
<path d="M24 51C30.0751 51 35 46.0751 35 40C35 33.9249 30.0751 29 24 29C17.9249 29 13 33.9249 13 40C13 46.0751 17.9249 51 24 51Z" fill="#D4EFFF"/>
<path d="M21 40L39 40" stroke="#161616" stroke-width="2"/>
<path d="M21 40L39 40" stroke="#161616" stroke-width="2"/>
<path d="M46 44.5C46 37.1941 46 20.2669 46 15.9937C46 15.4414 45.5523 15 45 15H15C14.4477 15 14 15.4477 14 16L14 45C14 47.7614 16.2386 50 19 50H43" stroke="#161616" stroke-width="2"/>
<path d="M13.1333 21H12C9.23858 21 7 18.7614 7 16V15C7 12.2386 9.23858 10 12 10H48C50.7614 10 53 12.2386 53 15V16C53 18.7614 50.7614 21 48 21H45.8444" stroke="#161616" stroke-width="2"/>
<path d="M11 15H16" stroke="black" stroke-width="2"/>
<path d="M44 15H49" stroke="black" stroke-width="2"/>
<path d="M24 28.7812H25.4" stroke="#161616" stroke-width="2" stroke-linecap="round"/>
<path d="M34.5 28.7812H36" stroke="#161616" stroke-width="2" stroke-linecap="round"/>
<path d="M32.6213 31.7487L30.8393 25.971C30.7808 25.7671 30.6697 25.6029 30.5056 25.4836C30.343 25.3653 30.1574 25.3062 29.9524 25.3062C29.7453 25.3062 29.559 25.3732 29.3969 25.505C29.2357 25.623 29.1247 25.7788 29.0659 25.9699C29.0658 25.97 29.0658 25.97 29.0658 25.9701L27.2647 31.7487L25.4804 25.8137C25.4349 25.6478 25.3436 25.5174 25.2051 25.4304C25.0686 25.3446 24.8949 25.3062 24.6921 25.3062C24.478 25.3062 24.2885 25.3916 24.127 25.5531C23.9801 25.7001 23.9 25.8694 23.9 26.0588C23.9 26.2089 23.9135 26.3377 23.9434 26.4423L23.9433 26.4423L23.9449 26.447L26.2388 33.1904L26.2388 33.1904L26.2393 33.1918C26.3124 33.3963 26.4435 33.5698 26.6285 33.7121C26.8169 33.857 27.0294 33.9306 27.2629 33.9306C27.5082 33.9306 27.7276 33.8579 27.9172 33.7121L27.9172 33.7122L27.9208 33.7092C28.1026 33.5553 28.2379 33.3783 28.3238 33.1778L28.3243 33.178L28.3271 33.169L29.9524 28.1064L31.5776 33.169L31.5776 33.169L31.578 33.1701C31.6504 33.3874 31.7813 33.5686 31.9678 33.7121L31.9678 33.7121L31.9707 33.7142C32.1709 33.8572 32.3887 33.9306 32.6221 33.9306C32.8674 33.9306 33.0868 33.8579 33.2763 33.7121C33.4613 33.5698 33.5924 33.3963 33.6655 33.1918L33.666 33.1904L35.9599 26.447L35.96 26.447L35.9614 26.4423C35.9913 26.3377 36.0048 26.2089 36.0048 26.0588C36.0048 25.8674 35.9163 25.6982 35.758 25.553C35.6091 25.3909 35.4258 25.3062 35.2126 25.3062C35.0099 25.3062 34.8361 25.3446 34.6997 25.4304C34.5612 25.5174 34.47 25.6478 34.4244 25.8136L32.6213 31.7487Z" fill="#161616" stroke="#161616" stroke-width="0.2"/>
</svg>
