<svg width="44" height="44" viewBox="0 0 44 44" fill="none" xmlns="http://www.w3.org/2000/svg">
<path fill-rule="evenodd" clip-rule="evenodd" d="M21.9998 14.1094C18.1943 14.1094 15.1094 17.1943 15.1094 20.9998C15.1094 24.8052 18.1943 27.8902 21.9998 27.8902C25.8052 27.8902 28.8902 24.8052 28.8902 20.9998C28.8902 17.1943 25.8052 14.1094 21.9998 14.1094ZM13.1094 20.9998C13.1094 16.0897 17.0897 12.1094 21.9998 12.1094C26.9098 12.1094 30.8902 16.0897 30.8902 20.9998C30.8902 25.9098 26.9098 29.8902 21.9998 29.8902C17.0897 29.8902 13.1094 25.9098 13.1094 20.9998Z" fill="white"/>
<path d="M19.3135 20.9406L21.469 23.2268L25.4203 19.0762" stroke="white" stroke-width="2" stroke-linecap="round" stroke-linejoin="round"/>
<path fill-rule="evenodd" clip-rule="evenodd" d="M9.25354 11.2401L20.6313 6.35291C21.3874 6.02815 22.2436 6.0282 22.9997 6.35304L34.3731 11.2399C35.5369 11.7399 36.2612 12.9171 36.183 14.1814L35.6957 22.062C35.567 24.1431 35.1146 25.9947 34.1189 27.4703C32.1808 30.3423 28.3214 34.7631 21.7867 37.294C14.1302 34.5741 10.4731 29.6552 8.95276 26.9239C8.34799 25.8375 8.08238 24.5163 7.98701 22.9741L7.70001 18.3332H5.69619L5.99082 23.0976C6.09419 24.769 6.39077 26.4335 7.20525 27.8967C8.89802 30.9377 12.9014 36.2737 21.1604 39.1939C21.5803 39.3424 22.0476 39.3369 22.4632 39.1767C29.5224 36.4565 33.6869 31.6858 35.7767 28.5891C37.0486 26.7042 37.5515 24.455 37.6919 22.1855L38.1792 14.3048C38.3095 12.1977 37.1023 10.2357 35.1626 9.40231L23.7892 4.51548C22.5292 3.97408 21.1021 3.974 19.842 4.51527L8.4642 9.4025C6.52422 10.2358 5.31677 12.1979 5.44709 14.3052L5.46944 14.6665H7.47326L7.44328 14.1818C7.36509 12.9174 8.08956 11.7401 9.25354 11.2401Z" fill="white"/>
</svg>
