<svg width="44" height="44" viewBox="0 0 44 44" fill="none" xmlns="http://www.w3.org/2000/svg">
<path fill-rule="evenodd" clip-rule="evenodd" d="M21.5 6C19.2552 6 17.0966 6.86489 15.5004 8.41358C13.9031 9.96327 13 12.0717 13 14.2767V16.7645H12.75C11.4998 16.7645 10.295 17.246 9.40201 18.1124C8.50802 18.9798 8 20.1627 8 21.4028V22H10V21.4028C10 20.713 10.2822 20.0451 10.7947 19.5478C11.3083 19.0496 12.0111 18.7645 12.75 18.7645H14H29H30.25C30.9889 18.7645 31.6917 19.0496 32.2053 19.5478C32.7178 20.0451 33 20.713 33 21.4028V32.3617C33 33.0515 32.7178 33.7194 32.2053 34.2166C31.6917 34.7149 30.9889 35 30.25 35H12.75C12.0111 35 11.3083 34.7149 10.7947 34.2166C10.2822 33.7194 10 33.0515 10 32.3617V26H8V32.3617C8 33.6017 8.50802 34.7847 9.40201 35.6521C10.295 36.5184 11.4998 37 12.75 37H30.25C31.5002 37 32.705 36.5184 33.598 35.6521C34.492 34.7847 35 33.6017 35 32.3617V21.4028C35 20.1627 34.492 18.9798 33.598 18.1124C32.705 17.246 31.5002 16.7645 30.25 16.7645H30V14.2767C30 12.0717 29.0969 9.96327 27.4996 8.41358C25.9034 6.86489 23.7448 6 21.5 6ZM15 16.7645H28V14.2767C28 12.6219 27.3228 11.0286 26.107 9.849C24.8901 8.66841 23.2335 8 21.5 8C19.7665 8 18.1099 8.66841 16.893 9.849C15.6772 11.0286 15 12.6219 15 14.2767V16.7645Z" fill="white"/>
<circle cx="15.5" cy="27.5" r="1.5" fill="white"/>
<circle cx="21.5" cy="27.5" r="1.5" fill="white"/>
<circle cx="27.5" cy="27.5" r="1.5" fill="white"/>
</svg>
