<svg width="44" height="44" viewBox="0 0 44 44" fill="none" xmlns="http://www.w3.org/2000/svg">
<path d="M5 9.11111C5 8.49746 6.19391 8 7.66667 8H30C31.4728 8 32.6667 8.49746 32.6667 9.11111V16.8889C32.6667 17.5026 31.4728 18 30 18H7.66667C6.19391 18 5 17.5026 5 16.8889V9.11111Z" fill="#D4EFFF"/>
<path d="M5 11.3333C5 9.49238 6.69137 8 8.77778 8H35.2222C37.3087 8 39 9.49238 39 11.3333V34.6667C39 36.5077 37.3087 38 35.2222 38H8.77778C6.69137 38 5 36.5077 5 34.6667V11.3333Z" stroke="#161616" stroke-width="2" stroke-linecap="round" stroke-linejoin="round"/>
<path d="M5 18.2188H38.5" stroke="#161616" stroke-width="2" stroke-linecap="round" stroke-linejoin="round"/>
<path d="M30 4V7.55556" stroke="#161616" stroke-width="2" stroke-linecap="round" stroke-linejoin="round"/>
<path d="M14 4V8" stroke="#161616" stroke-width="2" stroke-linecap="round" stroke-linejoin="round"/>
<path d="M17 28H18" stroke="#161616" stroke-width="2" stroke-linecap="round"/>
<path d="M26.0156 27.8984H27.3034" stroke="#161616" stroke-width="2" stroke-linecap="round"/>
<path d="M24.4011 30.2259L22.9331 25.4665C22.8792 25.279 22.776 25.1259 22.6229 25.0145C22.472 24.9047 22.2994 24.85 22.1102 24.85C21.918 24.85 21.7442 24.9124 21.5941 25.034C21.4453 25.1433 21.3423 25.2883 21.2879 25.4649C21.2878 25.465 21.2878 25.4651 21.2878 25.4652L19.8039 30.226L18.3326 25.3321C18.2897 25.1763 18.2025 25.0504 18.0688 24.9664C17.938 24.8842 17.7757 24.85 17.5942 24.85C17.3914 24.85 17.2129 24.9315 17.0637 25.0807C16.9278 25.2166 16.85 25.3776 16.85 25.5603C16.85 25.6924 16.8618 25.8095 16.8897 25.9071L16.8895 25.9071L16.8919 25.9142L18.8613 31.7035L18.8613 31.7035L18.8621 31.7056C18.9294 31.894 19.05 32.0527 19.2175 32.1815C19.3901 32.3143 19.5862 32.3824 19.8013 32.3824C20.0255 32.3824 20.2277 32.3157 20.4021 32.1815L20.4022 32.1817L20.4075 32.1772C20.5703 32.0394 20.6929 31.8796 20.7711 31.6973L20.7717 31.6976L20.776 31.6841L22.1102 27.528L23.4445 31.6841L23.4444 31.6841L23.445 31.6856C23.5114 31.8849 23.6315 32.0509 23.8014 32.1815L23.8014 32.1816L23.8057 32.1847C23.9876 32.3146 24.1874 32.3824 24.4022 32.3824C24.6264 32.3824 24.8286 32.3157 25.003 32.1815C25.1705 32.0527 25.2911 31.894 25.3584 31.7056L25.3584 31.7056L25.3591 31.7035L27.3285 25.9142L27.3287 25.9142L27.3307 25.9071C27.3586 25.8095 27.3705 25.6924 27.3705 25.5603C27.3705 25.3746 27.2844 25.2139 27.1399 25.0806C27.001 24.9304 26.8275 24.85 26.6263 24.85C26.4448 24.85 26.2824 24.8842 26.1517 24.9664C26.0181 25.0504 25.9309 25.1761 25.8879 25.3318L24.4011 30.2259Z" fill="#161616" stroke="#161616" stroke-width="0.3"/>
</svg>
