<svg width="44" height="44" viewBox="0 0 44 44" fill="none" xmlns="http://www.w3.org/2000/svg">
<path d="M20 27C22.7614 27 25 24.7614 25 22C25 19.2386 22.7614 17 20 17C17.2386 17 15 19.2386 15 22C15 24.7614 17.2386 27 20 27Z" fill="#D6FF5D"/>
<path d="M21 26C24.3137 26 27 23.3137 27 20C27 16.6863 24.3137 14 21 14C17.6863 14 15 16.6863 15 20C15 23.3137 17.6863 26 21 26Z" fill="#D4EFFF" stroke="#161616" stroke-width="2" stroke-linecap="round" stroke-linejoin="round"/>
<path d="M11 34C11.7665 29.466 15.9518 26 21 26C26.0482 26 30.2335 29.466 31 34" stroke="#161616" stroke-width="2" stroke-linecap="round" stroke-linejoin="round"/>
<path d="M20 29C15.9615 29 12.6132 31.5995 12 35C20.8 40.6 26.3333 37.8333 28 35.5C27.3868 32.0995 24.0385 29 20 29Z" fill="#D4EFFF"/>
<circle cx="21.5" cy="21.5" r="16.5" stroke="#161616" stroke-width="2"/>
<path d="M33.5 33.5L39.5 39.5" stroke="black" stroke-width="2" stroke-linecap="round"/>
</svg>
