<svg width="44" height="44" viewBox="0 0 44 44" fill="none" xmlns="http://www.w3.org/2000/svg">
<path d="M30 16V11.3333C30 9.49238 28.7564 8 27.2222 8H7.77778C6.24365 8 5 9.49238 5 11.3333V34.6667C5 36.5077 6.24365 38 7.77778 38H19" stroke="#161616" stroke-width="2" stroke-linecap="round" stroke-linejoin="round"/>
<circle cx="30" cy="30" r="10" stroke="#161616" stroke-width="2"/>
<path d="M37 30C37 33.866 33.866 37 30 37C26.134 37 23 33.866 23 30C23 26.134 26.134 23 30 23C33.866 23 37 26.134 37 30Z" fill="#D4EFFF"/>
<path d="M9 14H15" stroke="#161616" stroke-width="2" stroke-linecap="round"/>
<path d="M26.3047 30.1562H27.0519" stroke="#161616" stroke-width="2" stroke-linecap="round"/>
<path d="M33.2969 30.0781H34.0969" stroke="#161616" stroke-width="2" stroke-linecap="round"/>
<path d="M34.058 28.6093L34.0582 28.6094L34.0603 28.6022C34.0824 28.5247 34.0914 28.4333 34.0914 28.3327C34.0914 28.1815 34.0212 28.0523 33.908 27.9474C33.7977 27.8287 33.6585 27.7641 33.4974 27.7641C33.3574 27.7641 33.2283 27.7904 33.1226 27.8568C33.0141 27.9251 32.9437 28.0272 32.9093 28.1515L31.8345 31.6893L30.7742 28.2518C30.7318 28.1044 30.6501 27.9827 30.5284 27.8942C30.409 27.8074 30.2721 27.7641 30.123 27.7641C29.9709 27.7641 29.8329 27.8135 29.7142 27.9094C29.5969 27.9958 29.5153 28.1107 29.4723 28.2502C29.4723 28.2503 29.4723 28.2504 29.4723 28.2505L28.4004 31.6894L27.3368 28.1517C27.3025 28.0273 27.2321 27.9251 27.1234 27.8568C27.0177 27.7904 26.8887 27.7641 26.7487 27.7641C26.5859 27.7641 26.4432 27.8298 26.3255 27.9475C26.2182 28.0548 26.1547 28.1844 26.1547 28.3327C26.1547 28.4333 26.1637 28.5247 26.1858 28.6022L26.1857 28.6023L26.1881 28.6093L27.6596 32.9351L27.6596 32.9351L27.6603 32.9373C27.7133 33.0855 27.8081 33.2099 27.9385 33.3102L28.0299 33.1913L27.9385 33.3102C28.0739 33.4143 28.2285 33.4681 28.3978 33.4681C28.5734 33.4681 28.7327 33.4157 28.8698 33.3102L28.8699 33.3103L28.8753 33.3058C29.0009 33.1995 29.0963 33.0754 29.1573 32.9332L29.1579 32.9335L29.1622 32.92L30.123 29.9271L31.0839 32.92L31.0839 32.92L31.0844 32.9216C31.1365 33.0779 31.2309 33.2081 31.3636 33.3102L31.3635 33.3102L31.3678 33.3133C31.5097 33.4146 31.6666 33.4681 31.8356 33.4681C32.0111 33.4681 32.1704 33.4157 32.3076 33.3102C32.4379 33.2099 32.5328 33.0855 32.5858 32.9373L32.5858 32.9373L32.5865 32.9351L34.058 28.6093Z" fill="#161616" stroke="#161616" stroke-width="0.3"/>
<path d="M9 20H19" stroke="#161616" stroke-width="2" stroke-linecap="round"/>
</svg>
