<svg width="46" height="45" viewBox="0 0 46 45" fill="none" xmlns="http://www.w3.org/2000/svg">
<path d="M10 12H32V21H19.9474L17.1842 17H10V12Z" fill="#D4EFFF"/>
<mask id="path-2-inside-1_2762_214097" fill="white">
<path fill-rule="evenodd" clip-rule="evenodd" d="M10 16H15.8593C17.1967 16 18.4456 16.6684 19.1875 17.7812L21.3333 21H36C38.2091 21 40 22.7909 40 25V36C40 38.2091 38.2091 40 36 40H10C7.79086 40 6 38.2091 6 36V25V21V20C6 17.7909 7.79086 16 10 16Z"/>
</mask>
<path d="M19.1875 17.7812L17.5234 18.8906L17.5234 18.8906L19.1875 17.7812ZM21.3333 21L19.6692 22.1094L20.263 23H21.3333V21ZM15.8593 14H10V18H15.8593V14ZM20.8516 16.6718C19.7388 15.0026 17.8654 14 15.8593 14V18C16.528 18 17.1524 18.3342 17.5234 18.8906L20.8516 16.6718ZM22.9974 19.8906L20.8516 16.6718L17.5234 18.8906L19.6692 22.1094L22.9974 19.8906ZM21.3333 23H36V19H21.3333V23ZM36 23C37.1046 23 38 23.8954 38 25H42C42 21.6863 39.3137 19 36 19V23ZM38 25V36H42V25H38ZM38 36C38 37.1046 37.1046 38 36 38V42C39.3137 42 42 39.3137 42 36H38ZM36 38H10V42H36V38ZM10 38C8.89543 38 8 37.1046 8 36H4C4 39.3137 6.68629 42 10 42V38ZM8 36V25H4V36H8ZM8 25V21H4V25H8ZM4 20V21H8V20H4ZM10 14C6.68629 14 4 16.6863 4 20H8C8 18.8954 8.89543 18 10 18V14Z" fill="black" mask="url(#path-2-inside-1_2762_214097)"/>
<path d="M36 21.5V9.5C36 8.39543 35.1046 7.5 34 7.5H12C10.8954 7.5 10 8.39543 10 9.5V17.5" stroke="#161616" stroke-width="2"/>
<path d="M26 33C28.6667 33 34 33 34 33" stroke="#161616" stroke-width="2" stroke-linecap="round"/>
</svg>
