<svg width="24" height="24" viewBox="0 0 24 24" fill="none" xmlns="http://www.w3.org/2000/svg">
<path d="M12.5689 6.25537C12.2693 6.34495 11.8459 6.41413 11.3044 6.46317C11.3288 5.24589 11.6437 4.19591 12.2539 3.31471C12.8529 2.43918 13.8647 1.83423 15.2911 1.5C15.3 1.5234 15.3114 1.57025 15.3224 1.63531C15.3335 1.70037 15.3446 1.74499 15.3535 1.76956C15.3535 1.80189 15.3556 1.84321 15.3601 1.89225C15.3624 1.94172 15.3645 1.98187 15.3645 2.01566C15.3645 2.5139 15.2468 3.06865 15.0119 3.68137C14.77 4.29409 14.3926 4.85772 13.8824 5.37232C13.4453 5.81253 13.006 6.10772 12.5689 6.25537ZM18.0155 14.8451C17.4567 14.0376 17.1771 13.1251 17.1771 12.1124C17.1771 11.1888 17.439 10.3433 17.9669 9.57632C18.2509 9.15806 18.7124 8.67727 19.3534 8.12965C18.9318 7.6062 18.5105 7.1994 18.089 6.90416C17.3257 6.37398 16.4627 6.10777 15.4977 6.10777C14.923 6.10777 14.2217 6.24643 13.3966 6.52381C12.6024 6.80341 12.021 6.94062 11.6571 6.94062C11.3819 6.94062 10.823 6.81905 9.97975 6.57328C9.12805 6.3279 8.41135 6.20628 7.82779 6.20628C6.43231 6.20628 5.28298 6.79409 4.37332 7.97052C3.45707 9.16256 3 10.6922 3 12.5526C3 14.5321 3.59685 16.5849 4.78829 18.7182C5.99528 20.8338 7.21548 21.8916 8.44676 21.8916C8.85948 21.8916 9.39625 21.7529 10.051 21.4755C10.7076 21.2053 11.2844 21.0706 11.7791 21.0706C12.3051 21.0706 12.9174 21.2015 13.6139 21.4621C14.3505 21.7239 14.9186 21.8544 15.3159 21.8544C16.3542 21.8544 17.3944 21.0543 18.4416 19.4529C19.1207 18.4319 19.6198 17.4113 19.937 16.3903C19.2136 16.1688 18.5748 15.6545 18.0155 14.8451Z" fill="#AAAAAA"/>
</svg>
