<svg width="24" height="24" viewBox="0 0 24 24" fill="none" xmlns="http://www.w3.org/2000/svg">
<path d="M11.8345 4.10669C12.0156 3.72713 12.5559 3.72713 12.737 4.1067L14.5632 7.93376C14.7818 8.39203 15.2175 8.70855 15.7209 8.77491L19.925 9.32909C20.3419 9.38405 20.5089 9.89789 20.2039 10.1874L17.1284 13.1069C16.7602 13.4564 16.5938 13.9686 16.6862 14.4679L17.4583 18.6374C17.5349 19.051 17.0978 19.3685 16.7281 19.1679L13.0012 17.1452C12.555 16.903 12.0165 16.903 11.5702 17.1452L7.84328 19.1679C7.47365 19.3685 7.03656 19.051 7.11313 18.6374L7.88521 14.4679C7.97766 13.9686 7.81125 13.4564 7.443 13.1069L4.36756 10.1874C4.06254 9.89789 4.2295 9.38405 4.64645 9.32909L8.85053 8.77491C9.35394 8.70855 9.7896 8.39202 10.0083 7.93376L11.8345 4.10669Z" fill="white" stroke="#96979B"/>
</svg>
