<svg width="24" height="24" viewBox="0 0 24 24" fill="none" xmlns="http://www.w3.org/2000/svg">
<path d="M11.3832 3.89136C11.7454 3.13224 12.826 3.13224 13.1882 3.89137L15.0144 7.71843C15.1602 8.02394 15.4506 8.23496 15.7862 8.2792L19.9903 8.83338C20.8242 8.9433 21.1581 9.97097 20.5481 10.5501L17.4727 13.4695C17.2272 13.7025 17.1162 14.044 17.1779 14.3768L17.9499 18.5464C18.1031 19.3735 17.2289 20.0086 16.4896 19.6074L12.7627 17.5846C12.4652 17.4231 12.1062 17.4231 11.8087 17.5846L8.08179 19.6074C7.34253 20.0086 6.46834 19.3735 6.62149 18.5464L7.39357 14.3768C7.4552 14.044 7.34426 13.7025 7.09876 13.4695L4.02332 10.5501C3.41329 9.97097 3.7472 8.9433 4.58111 8.83338L8.78519 8.2792C9.12079 8.23496 9.41123 8.02394 9.55701 7.71843L11.3832 3.89136Z" fill="#FFB800"/>
</svg>
