<svg width="25" height="24" viewBox="0 0 25 24" fill="none" xmlns="http://www.w3.org/2000/svg">
<path d="M11.6668 9.75L13.9168 12L11.6668 9.75ZM13.9168 12L16.1668 14.25L13.9168 12ZM13.9168 12L16.1668 9.75L13.9168 12ZM13.9168 12L11.6668 14.25L13.9168 12ZM9.08682 19.17L2.71182 12.795C2.50115 12.5841 2.38281 12.2981 2.38281 12C2.38281 11.7019 2.50115 11.4159 2.71182 11.205L9.08682 4.83C9.29782 4.619 9.58482 4.5 9.88282 4.5H19.1668C19.7636 4.5 20.3359 4.73705 20.7578 5.15901C21.1798 5.58097 21.4168 6.15326 21.4168 6.75V17.25C21.4168 17.8467 21.1798 18.419 20.7578 18.841C20.3359 19.2629 19.7636 19.5 19.1668 19.5H9.88282C9.58482 19.5 9.29782 19.381 9.08682 19.17Z" fill="white"/>
<path d="M12 10L16 14" stroke="#2763F6" stroke-width="1.5" stroke-linecap="round"/>
<path d="M12 14L16 10" stroke="#2763F6" stroke-width="1.5" stroke-linecap="round"/>
</svg>
