<svg width="24" height="24" viewBox="0 0 24 24" fill="none" xmlns="http://www.w3.org/2000/svg">
<g clip-path="url(#clip0_1631_26991)">
<path d="M19.9999 3.5C20.5319 3.14536 21.222 3.62982 21.0693 4.25067L17.0718 20.4991C16.6534 22.1995 14.4067 22.5793 13.4526 21.111L9.36101 14.8142C9.30956 14.7351 9.24715 14.6636 9.17565 14.6019L5 11.0001L19.9999 3.5Z" fill="#D4EFFF"/>
<path d="M19.2884 3.15497C20.2253 2.8947 21.0876 3.75696 20.8273 4.69392L16.4344 20.5083C16.1462 21.5458 14.7686 21.7578 14.1819 20.8549L10.0293 14.4642C9.8958 14.2588 9.72069 14.0837 9.51528 13.9503L9.10667 14.5792L9.51528 13.9503L4.55061 10.7247L3.12786 9.80035C2.22489 9.21369 2.43679 7.83596 3.47432 7.54776L19.2884 3.15497Z" stroke="black" stroke-width="1.5"/>
<line x1="10.0938" y1="14.1307" x2="13.6021" y2="10.6224" stroke="black" stroke-width="1.5" stroke-linecap="round"/>
</g>
<defs>
<clipPath id="clip0_1631_26991">
<rect width="24" height="24" fill="white"/>
</clipPath>
</defs>
</svg>
