<svg width="24" height="24" viewBox="0 0 24 24" fill="none" xmlns="http://www.w3.org/2000/svg">
<path d="M9 11.9998L12.2475 14.9999L20.7475 6.5" stroke="#2763F6" stroke-width="1.5" stroke-linecap="round" stroke-linejoin="round"/>
<path fill-rule="evenodd" clip-rule="evenodd" d="M5.84615 4.25C5.14934 4.25 4.48637 4.53648 4.00158 5.03779C3.51762 5.53825 3.25 6.21182 3.25 6.90909V17.0909C3.25 17.7882 3.51762 18.4618 4.00158 18.9622C4.48637 19.4635 5.14934 19.75 5.84615 19.75H18.1538C18.8507 19.75 19.5136 19.4635 19.9984 18.9622C20.4824 18.4618 20.75 17.7882 20.75 17.0909V11H19.25V17.0909C19.25 17.4063 19.1286 17.7039 18.9201 17.9195C18.7125 18.1342 18.4363 18.25 18.1538 18.25H5.84615C5.5637 18.25 5.28752 18.1342 5.07987 17.9195C4.87139 17.7039 4.75 17.4063 4.75 17.0909V6.90909C4.75 6.59372 4.87139 6.29612 5.07987 6.08053C5.28752 5.86579 5.5637 5.75 5.84615 5.75H10.2595H10.2597C10.3192 5.75004 10.3788 5.76216 10.4353 5.78638C10.4919 5.81064 10.5449 5.8469 10.5908 5.89437L10.5911 5.8947L12.3303 7.69315L12.3306 7.69349C12.7 8.07575 13.2069 8.29497 13.7396 8.29545L13.7403 8.29545H16V6.79545H13.7407C13.6211 6.79527 13.5009 6.74605 13.4092 6.65109L13.4089 6.65075L11.6697 4.8523L11.6695 4.85209L11.6694 4.85196C11.4868 4.66295 11.2685 4.51159 11.0265 4.40779C10.7843 4.30391 10.5237 4.25006 10.2599 4.25H10.2597H5.84615Z" fill="#333333"/>
</svg>
