<svg width="24" height="24" viewBox="0 0 24 24" fill="none" xmlns="http://www.w3.org/2000/svg">
<path d="M5.2824 16.7558L10.6976 7.27914C11.2735 6.27142 12.7265 6.27142 13.3024 7.27914L18.7176 16.7558C19.289 17.7558 18.567 19 17.4152 19H6.58477C5.43304 19 4.71098 17.7558 5.2824 16.7558Z" fill="#D4EFFF"/>
<path fill-rule="evenodd" clip-rule="evenodd" d="M13.9554 3.98662C13.0941 2.46279 10.8991 2.46279 10.0378 3.98662L2.17953 17.8898C1.33176 19.3897 2.41538 21.2469 4.1383 21.2469H19.8549C21.5778 21.2469 22.6614 19.3897 21.8137 17.8898L13.9554 3.98662ZM8.73199 3.24853C10.1675 0.70882 13.8257 0.708824 15.2612 3.24854L23.1195 17.1517C24.5325 19.6515 22.7264 22.7469 19.8549 22.7469H4.1383C1.26677 22.7469 -0.539268 19.6515 0.873686 17.1517L8.73199 3.24853Z" fill="#161616"/>
<path d="M12.9662 9.70453L12.9676 9.65312H12.9162H11.0721H11.0207L11.0221 9.70453L11.1778 15.238L11.1791 15.2865H11.2277H12.7605H12.8091L12.8105 15.238L12.9662 9.70453ZM12.0061 15.8305C11.4215 15.825 10.9382 16.2512 10.9502 16.7864L11.0002 16.7863C10.9883 17.2938 11.4433 17.7031 12.0061 17.7031C12.539 17.7031 13 17.2938 13 16.7863C13 16.2843 12.539 15.875 12.0061 15.8805L12.0066 15.8305C12.0064 15.8305 12.0063 15.8305 12.0061 15.8305Z" fill="#161616" stroke="#161616" stroke-width="0.1"/>
</svg>
