<svg width="24" height="24" viewBox="0 0 24 24" fill="none" xmlns="http://www.w3.org/2000/svg">
<path d="M4.45649 8.39157C4.45649 7.91914 4.65258 7.46606 5.00162 7.13199C5.35067 6.79793 5.82408 6.61026 6.3177 6.61026H7.16371C7.65515 6.60999 8.12654 6.42371 8.47502 6.09206L9.06722 5.52528C9.24019 5.35881 9.44583 5.2267 9.67232 5.13655C9.89882 5.04641 10.1417 5 10.387 5C10.6323 5 10.8752 5.04641 11.1017 5.13655C11.3282 5.2267 11.5338 5.35881 11.7068 5.52528L12.299 6.09206C12.6475 6.42371 13.1188 6.60999 13.6103 6.61026H14.4563C14.9499 6.61026 15.4233 6.79793 15.7724 7.13199C16.1214 7.46606 16.3175 7.91914 16.3175 8.39157V9.20126C16.3178 9.67161 16.5124 10.1228 16.859 10.4563L17.4512 11.0231C17.6251 11.1886 17.7631 11.3854 17.8573 11.6022C17.9515 11.8189 18 12.0514 18 12.2862C18 12.5209 17.9515 12.7534 17.8573 12.9702C17.7631 13.1869 17.6251 13.3837 17.4512 13.5493L16.859 14.1161C16.5124 14.4496 16.3178 14.9007 16.3175 15.3711V16.1808C16.3175 16.6532 16.1214 17.1063 15.7724 17.4403C15.4233 17.7744 14.6863 18.358 14.1927 18.358H13.3467C12.8552 18.3582 12.6475 19.5763 12.299 19.9079L11.7068 20.4747C11.5338 20.6412 11.3282 20.7733 11.1017 20.8634C10.8752 20.9536 10.6323 21 10.387 21C10.1417 21 9.89882 20.9536 9.67232 20.8634C9.44583 20.7733 9.24019 20.6412 9.06722 20.4747L8.47502 19.9079C8.12654 19.5763 7.65515 19.39 7.16371 19.3897H6.3177C5.82408 19.3897 5.35067 19.2021 5.00162 18.868C4.65258 18.5339 4.45649 18.7225 4.45649 18.25V17.4403C3.68221 16.97 3.48757 14.4496 3.14105 14.1161L2.54884 13.5493C2.3749 13.3837 2.23687 13.1869 2.14268 12.9702C2.04849 12.7534 2 12.5209 2 12.2862C2 12.0514 2.04849 11.8189 2.14268 11.6022C2.23687 11.3854 2.3749 11.1886 2.54884 11.0231L3.14105 10.4563C3.48757 10.1228 4.4562 9.67161 4.45649 9.20126V8.39157Z" fill="#D4EFFF"/>
<path d="M9 15L15 9" stroke="#161616" stroke-width="1.5" stroke-linecap="round" stroke-linejoin="round"/>
<path d="M9.5 10C9.77614 10 10 9.77614 10 9.5C10 9.22386 9.77614 9 9.5 9C9.22386 9 9 9.22386 9 9.5C9 9.77614 9.22386 10 9.5 10Z" fill="#161616" stroke="#161616" stroke-width="1.5" stroke-linecap="round" stroke-linejoin="round"/>
<path d="M14.5 15C14.7761 15 15 14.7761 15 14.5C15 14.2239 14.7761 14 14.5 14C14.2239 14 14 14.2239 14 14.5C14 14.7761 14.2239 15 14.5 15Z" fill="#161616" stroke="#161616" stroke-width="1.5" stroke-linecap="round" stroke-linejoin="round"/>
<path d="M4.21002 6.65481C4.21002 6.00641 4.4676 5.38457 4.92608 4.92608C5.38457 4.4676 6.00641 4.21002 6.65481 4.21002H7.76607C8.41161 4.20965 9.0308 3.95399 9.48854 3.49881L10.2664 2.72093C10.4936 2.49245 10.7637 2.31114 11.0612 2.18741C11.3588 2.06369 11.6778 2 12 2C12.3222 2 12.6412 2.06369 12.9387 2.18741C13.2363 2.31114 13.5064 2.49245 13.7336 2.72093L14.5115 3.49881C14.9692 3.95399 15.5884 4.20965 16.2339 4.21002H17.3452C17.9936 4.21002 18.6154 4.4676 19.0739 4.92608C19.5324 5.38457 19.79 6.00641 19.79 6.65481V7.76607C19.7903 8.41161 20.046 9.0308 20.5012 9.48854L21.2791 10.2664C21.5075 10.4936 21.6889 10.7637 21.8126 11.0612C21.9363 11.3588 22 11.6778 22 12C22 12.3222 21.9363 12.6412 21.8126 12.9387C21.6889 13.2363 21.5075 13.5064 21.2791 13.7336L20.5012 14.5115C20.046 14.9692 19.7903 15.5884 19.79 16.2339V17.3452C19.79 17.9936 19.5324 18.6154 19.0739 19.0739C18.6154 19.5324 17.9936 19.79 17.3452 19.79H16.2339C15.5884 19.7903 14.9692 20.046 14.5115 20.5012L13.7336 21.2791C13.5064 21.5075 13.2363 21.6889 12.9387 21.8126C12.6412 21.9363 12.3222 22 12 22C11.6778 22 11.3588 21.9363 11.0612 21.8126C10.7637 21.6889 10.4936 21.5075 10.2664 21.2791L9.48854 20.5012C9.0308 20.046 8.41161 19.7903 7.76607 19.79H6.65481C6.00641 19.79 5.38457 19.5324 4.92608 19.0739C4.4676 18.6154 4.21002 17.9936 4.21002 17.3452V16.2339C4.20965 15.5884 3.95399 14.9692 3.49881 14.5115L2.72093 13.7336C2.49245 13.5064 2.31114 13.2363 2.18741 12.9387C2.06369 12.6412 2 12.3222 2 12C2 11.6778 2.06369 11.3588 2.18741 11.0612C2.31114 10.7637 2.49245 10.4936 2.72093 10.2664L3.49881 9.48854C3.95399 9.0308 4.20965 8.41161 4.21002 7.76607V6.65481" stroke="#151515" stroke-width="1.5" stroke-linecap="round" stroke-linejoin="round"/>
<path d="M4.21002 6.65481C4.21002 6.00641 4.4676 5.38457 4.92608 4.92608C5.38457 4.4676 6.00641 4.21002 6.65481 4.21002H7.76607C8.41161 4.20965 9.0308 3.95399 9.48854 3.49881L10.2664 2.72093C10.4936 2.49245 10.7637 2.31114 11.0612 2.18741C11.3588 2.06369 11.6778 2 12 2C12.3222 2 12.6412 2.06369 12.9387 2.18741C13.2363 2.31114 13.5064 2.49245 13.7336 2.72093L14.5115 3.49881C14.9692 3.95399 15.5884 4.20965 16.2339 4.21002H17.3452C17.9936 4.21002 18.6154 4.4676 19.0739 4.92608C19.5324 5.38457 19.79 6.00641 19.79 6.65481V7.76607C19.7903 8.41161 20.046 9.0308 20.5012 9.48854L21.2791 10.2664C21.5075 10.4936 21.6889 10.7637 21.8126 11.0612C21.9363 11.3588 22 11.6778 22 12C22 12.3222 21.9363 12.6412 21.8126 12.9387C21.6889 13.2363 21.5075 13.5064 21.2791 13.7336L20.5012 14.5115C20.046 14.9692 19.7903 15.5884 19.79 16.2339V17.3452C19.79 17.9936 19.5324 18.6154 19.0739 19.0739C18.6154 19.5324 17.9936 19.79 17.3452 19.79H16.2339C15.5884 19.7903 14.9692 20.046 14.5115 20.5012L13.7336 21.2791C13.5064 21.5075 13.2363 21.6889 12.9387 21.8126C12.6412 21.9363 12.3222 22 12 22C11.6778 22 11.3588 21.9363 11.0612 21.8126C10.7637 21.6889 10.4936 21.5075 10.2664 21.2791L9.48854 20.5012C9.0308 20.046 8.41161 19.7903 7.76607 19.79H6.65481C6.00641 19.79 5.38457 19.5324 4.92608 19.0739C4.4676 18.6154 4.21002 17.9936 4.21002 17.3452V16.2339C4.20965 15.5884 3.95399 14.9692 3.49881 14.5115L2.72093 13.7336C2.49245 13.5064 2.31114 13.2363 2.18741 12.9387C2.06369 12.6412 2 12.3222 2 12C2 11.6778 2.06369 11.3588 2.18741 11.0612C2.31114 10.7637 2.49245 10.4936 2.72093 10.2664L3.49881 9.48854C3.95399 9.0308 4.20965 8.41161 4.21002 7.76607V6.65481" stroke="#161616" stroke-width="1.5" stroke-linecap="round" stroke-linejoin="round"/>
</svg>
