<svg width="24" height="24" viewBox="0 0 24 24" fill="none" xmlns="http://www.w3.org/2000/svg">
<path d="M12.4453 3V4.77777" stroke="#161616" stroke-width="1.5" stroke-linecap="round" stroke-linejoin="round"/>
<path d="M14.8878 20.0664C14.6198 20.4256 14.2688 20.7178 13.8635 20.9193C13.4581 21.1207 13.0099 21.2257 12.5552 21.2257C12.1005 21.2257 11.6523 21.1207 11.247 20.9193C10.8416 20.7178 10.4907 20.4256 10.2227 20.0664" stroke="#161616" stroke-width="1.5" stroke-linecap="round" stroke-linejoin="round"/>
<path d="M17.7791 18.1115L18.7658 17.9142C19.3682 17.7937 19.6848 17.1038 19.4431 16.5391C19.077 15.6839 18.6661 14.4499 18.668 13.2226V11.8893V11.4449C18.668 9.86297 18.0334 7.67456 16.8902 6.55599C15.747 5.43742 16.2847 5.22266 14.668 5.22266C13.0512 5.22266 11.9456 5.40662 10.8024 6.52519C9.6592 7.64376 9.01695 10.0497 9.01695 11.6316V12.3772C9.01877 13.688 8.19318 15.4595 7.52039 16.6851C7.17862 17.3077 7.62002 18.1115 8.33024 18.1115H12.4457M17.7791 18.1115H12.4457H17.7791Z" fill="#D4EFFF"/>
<path d="M15.1111 18.1107H19.2269C19.9371 18.1107 20.3785 17.3069 20.0369 16.6844C19.3643 15.4588 18.5389 13.6871 18.5409 12.3763V11.6805V11.6308C18.5409 10.0489 17.8987 7.64289 16.7555 6.52432C15.6122 5.40575 14.0617 4.77734 12.445 4.77734C10.8282 4.77734 9.27767 5.40575 8.13445 6.52432C6.99123 7.64289 6.34898 10.0489 6.34898 11.6308V12.3763C6.3508 13.6871 5.52521 15.4587 4.85242 16.6842C4.51065 17.3068 4.95205 18.1107 5.66227 18.1107H9.77778M15.1111 18.1107H9.77778Z" stroke="#161616" stroke-width="1.5" stroke-linecap="round" stroke-linejoin="round"/>
</svg>
