<svg width="24" height="24" viewBox="0 0 24 24" fill="none" xmlns="http://www.w3.org/2000/svg">
<circle cx="12" cy="12" r="7" fill="#D4EFFF"/>
<path d="M8.5 11.8125H9.41463" stroke="#161616" stroke-width="1.5" stroke-linecap="round"/>
<path d="M14.5547 11.8125H15.5346" stroke="#161616" stroke-width="1.5" stroke-linecap="round"/>
<path d="M15.5054 10.6126L15.5052 10.6125L14.2463 14.2732L14.2453 14.2761L14.2453 14.2761C14.1946 14.4164 14.1042 14.5327 13.9829 14.6249C13.8526 14.7241 13.7011 14.7731 13.5363 14.7731C13.3762 14.7731 13.2278 14.7227 13.0953 14.6291L13.0895 14.625L13.0896 14.6249C12.9652 14.5303 12.8753 14.4082 12.8258 14.2613L12.8251 14.2591L12.8251 14.2591L12.0712 11.9361L11.3173 14.2591C11.3153 14.2652 11.3131 14.2711 11.3106 14.2769C11.2533 14.409 11.1642 14.5229 11.0492 14.6191L11.0421 14.6251L11.042 14.6249C10.9116 14.7241 10.7601 14.7731 10.5953 14.7731C10.4348 14.7731 10.2876 14.7224 10.1595 14.6249C10.0382 14.5327 9.9478 14.4164 9.89714 14.2761L9.8961 14.2732L9.89612 14.2732L8.63726 10.6125L8.63401 10.6031L8.63425 10.603C8.61264 10.5282 8.60469 10.4432 8.60469 10.3543C8.60469 10.2052 8.66979 10.0776 8.77256 9.9759C8.88527 9.8644 9.02479 9.8 9.18452 9.8C9.31223 9.8 9.43703 9.82366 9.54244 9.8892C9.65184 9.95722 9.7224 10.0593 9.75638 10.1802L10.5988 12.952L11.4461 10.2626C11.4462 10.2625 11.4462 10.2624 11.4463 10.2623C11.4877 10.1295 11.5665 10.0196 11.6785 9.9376C11.7923 9.84704 11.9255 9.8 12.0712 9.8C12.2129 9.8 12.3445 9.84094 12.4593 9.92353M15.5054 10.6126L12.4593 9.92353M15.5054 10.6126L15.5082 10.603M15.5054 10.6126L15.5082 10.603M12.4593 9.92353C12.5771 10.0082 12.6561 10.125 12.6968 10.2644L13.5348 12.9519L14.3861 10.1799M12.4593 9.92353L14.3861 10.1799M15.5082 10.603C15.5298 10.5282 15.5377 10.4432 15.5377 10.3543C15.5377 10.2015 15.4658 10.0743 15.3591 9.97572C15.2521 9.86279 15.1153 9.8 14.9579 9.8C14.8302 9.8 14.7054 9.82366 14.6 9.8892M15.5082 10.603L14.6 9.8892M14.6 9.8892C14.4907 9.95717 14.4201 10.0591 14.3861 10.1799M14.6 9.8892L14.3861 10.1799" fill="#161616" stroke="#161616" stroke-width="0.4" stroke-linejoin="round"/>
<path d="M3.99927 18C2.74389 16.3287 2 14.2512 2 12C2 6.47715 6.47715 2 12 2C17.5228 2 22 6.47715 22 12C22 14.2512 21.2561 16.3287 20.0007 18" stroke="#161616" stroke-width="1.5" stroke-linecap="round"/>
<path d="M1 20H23" stroke="#161616" stroke-width="1.5" stroke-linecap="square"/>
</svg>
