<svg width="24" height="24" viewBox="0 0 24 24" fill="none" xmlns="http://www.w3.org/2000/svg">
<g clip-path="url(#clip0_316_1777)">
<circle cx="12" cy="12" r="7" fill="#D4EFFF"/>
<path d="M8 12.0527H9.03563" stroke="#161616" stroke-width="1.5" stroke-linecap="round"/>
<path d="M14.8555 12.0527H15.9651" stroke="#161616" stroke-width="1.5" stroke-linecap="round"/>
<path d="M15.9057 10.685L15.9059 10.685L15.9087 10.6754C15.9322 10.594 15.9411 10.5005 15.9411 10.4011C15.9411 10.2369 15.8639 10.0993 15.7467 9.99134C15.6302 9.86802 15.4819 9.8 15.3111 9.8C15.1695 9.8 15.0335 9.82626 14.9198 9.89701C14.8021 9.97019 14.7259 10.08 14.689 10.2112L13.6999 13.432L12.7255 10.307C12.6809 10.1544 12.5947 10.0272 12.4664 9.93489C12.3411 9.84473 12.1976 9.8 12.0424 9.8C11.8833 9.8 11.7382 9.8513 11.6138 9.95038C11.4913 10.04 11.4053 10.1598 11.3601 10.3049C11.36 10.305 11.36 10.3051 11.3599 10.3053L10.3747 13.4321L9.39596 10.2115C9.35911 10.0801 9.28293 9.97025 9.16513 9.89701C9.05135 9.82626 8.91543 9.8 8.77383 9.8C8.6007 9.8 8.44922 9.86961 8.32598 9.99152C8.21364 10.1026 8.14375 10.2407 8.14375 10.4011C8.14375 10.5005 8.15266 10.594 8.17618 10.6754L8.17594 10.6755L8.1792 10.685L9.60461 14.8299L9.60459 14.8299L9.60562 14.8328C9.66107 14.9864 9.76013 15.1141 9.89381 15.2158C10.0343 15.3227 10.1955 15.3782 10.3713 15.3782C10.5524 15.3782 10.7182 15.3244 10.861 15.2158L10.8612 15.216L10.8683 15.21C10.9957 15.1033 11.0939 14.9776 11.1569 14.8322C11.1594 14.8264 11.1617 14.8205 11.1636 14.8145L12.0424 12.1065L12.9213 14.8145L12.9213 14.8145L12.922 14.8166C12.9763 14.9777 13.0747 15.1116 13.2116 15.2158L13.2115 15.2159L13.2173 15.22C13.3632 15.3231 13.5259 15.3782 13.7013 15.3782C13.8824 15.3782 14.0483 15.3244 14.1911 15.2158C14.3248 15.1141 14.4238 14.9864 14.4793 14.8328L14.4793 14.8328L14.4803 14.8299L15.9057 10.685Z" fill="#161616" stroke="#161616" stroke-width="0.4" stroke-linejoin="round"/>
<path d="M20.6328 6.63381C23.0746 10.5542 22.5925 15.7769 19.1864 19.183C15.7804 22.5891 10.5576 23.0712 6.63723 20.6294M17.3673 3.36829C13.4469 0.926494 8.22418 1.40863 4.81812 4.81469C1.41205 8.22076 0.929918 13.4435 3.37171 17.3639" stroke="#161616" stroke-width="1.5" stroke-linecap="round"/>
<path d="M4.57004 16.0006L4.02287 18.431L1.19666 17.715" stroke="#161616" stroke-width="1.5" stroke-linecap="round" stroke-linejoin="round"/>
<path d="M19.5 8.5L20.2617 6.12813L23.0128 7.09327" stroke="#161616" stroke-width="1.5" stroke-linecap="round" stroke-linejoin="round"/>
</g>
<defs>
<clipPath id="clip0_316_1777">
<rect width="24" height="24" fill="white"/>
</clipPath>
</defs>
</svg>
