<svg width="24" height="24" viewBox="0 0 24 24" fill="none" xmlns="http://www.w3.org/2000/svg">
<path d="M8.5 8.8125H9.41463" stroke="#161616" stroke-width="1.5" stroke-linecap="round"/>
<path d="M14.5547 8.8125H15.5346" stroke="#161616" stroke-width="1.5" stroke-linecap="round"/>
<path d="M15.5054 7.61261L15.5052 7.61253L14.2463 11.2732L14.2453 11.2761L14.2453 11.2761C14.1946 11.4164 14.1042 11.5327 13.9829 11.6249C13.8526 11.7241 13.7011 11.7731 13.5363 11.7731C13.3762 11.7731 13.2278 11.7227 13.0953 11.6291L13.0895 11.625L13.0896 11.6249C12.9652 11.5303 12.8753 11.4082 12.8258 11.2613L12.8251 11.2591L12.8251 11.2591L12.0712 8.93611L11.3173 11.2591C11.3153 11.2652 11.3131 11.2711 11.3106 11.2769C11.2533 11.409 11.1642 11.5229 11.0492 11.6191L11.0421 11.6251L11.042 11.6249C10.9116 11.7241 10.7601 11.7731 10.5953 11.7731C10.4348 11.7731 10.2876 11.7224 10.1595 11.6249C10.0382 11.5327 9.9478 11.4164 9.89714 11.2761L9.8961 11.2732L9.89612 11.2732L8.63726 7.61253L8.63401 7.60306L8.63425 7.60299C8.61264 7.52817 8.60469 7.44323 8.60469 7.35426C8.60469 7.20518 8.66979 7.07755 8.77256 6.9759C8.88527 6.8644 9.02479 6.8 9.18452 6.8C9.31223 6.8 9.43703 6.82366 9.54244 6.8892C9.65184 6.95722 9.7224 7.05929 9.75638 7.18025L10.5988 9.952L11.4461 7.26265C11.4462 7.26252 11.4462 7.26239 11.4463 7.26226C11.4877 7.12947 11.5665 7.01961 11.6785 6.9376C11.7923 6.84704 11.9255 6.8 12.0712 6.8C12.2129 6.8 12.3445 6.84094 12.4593 6.92353M15.5054 7.61261L12.4593 6.92353M15.5054 7.61261L15.5082 7.60299M15.5054 7.61261L15.5082 7.60299M12.4593 6.92353C12.5771 7.00825 12.6561 7.12503 12.6968 7.26438L13.5348 9.95192L14.3861 7.17994M12.4593 6.92353L14.3861 7.17994M15.5082 7.60299C15.5298 7.52817 15.5377 7.44323 15.5377 7.35426C15.5377 7.20149 15.4658 7.07431 15.3591 6.97572C15.2521 6.86279 15.1153 6.8 14.9579 6.8C14.8302 6.8 14.7054 6.82366 14.6 6.8892M15.5082 7.60299L14.6 6.8892M14.6 6.8892C14.4907 6.95717 14.4201 7.05911 14.3861 7.17994M14.6 6.8892L14.3861 7.17994" fill="#161616" stroke="#161616" stroke-width="0.4" stroke-linejoin="round"/>
<path d="M2 6C2 4.89543 2.89543 4 4 4H18.4706V14.5882H2V6Z" fill="#D4EFFF"/>
<rect x="2.75" y="3.75" width="18.5" height="13.5" rx="1.25" stroke="#161616" stroke-width="1.5"/>
<path d="M7.88281 21.0625H16.1181" stroke="#161616" stroke-width="1.5" stroke-linecap="square"/>
<path d="M12 21.0625L12 17.5331" stroke="#161616" stroke-width="1.5" stroke-linecap="square"/>
<path d="M8.5 10.8125H9.41463" stroke="#161616" stroke-width="1.5" stroke-linecap="round"/>
<path d="M14.5547 10.8125H15.5346" stroke="#161616" stroke-width="1.5" stroke-linecap="round"/>
<path d="M15.5054 9.61261L15.5052 9.61253L14.2463 13.2732L14.2453 13.2761L14.2453 13.2761C14.1946 13.4164 14.1042 13.5327 13.9829 13.6249C13.8526 13.7241 13.7011 13.7731 13.5363 13.7731C13.3762 13.7731 13.2278 13.7227 13.0953 13.6291L13.0895 13.625L13.0896 13.6249C12.9652 13.5303 12.8753 13.4082 12.8258 13.2613L12.8251 13.2591L12.8251 13.2591L12.0712 10.9361L11.3173 13.2591C11.3153 13.2652 11.3131 13.2711 11.3106 13.2769C11.2533 13.409 11.1642 13.5229 11.0492 13.6191L11.0421 13.6251L11.042 13.6249C10.9116 13.7241 10.7601 13.7731 10.5953 13.7731C10.4348 13.7731 10.2876 13.7224 10.1595 13.6249C10.0382 13.5327 9.9478 13.4164 9.89714 13.2761L9.8961 13.2732L9.89612 13.2732L8.63726 9.61253L8.63401 9.60306L8.63425 9.60299C8.61264 9.52817 8.60469 9.44323 8.60469 9.35426C8.60469 9.20518 8.66979 9.07755 8.77256 8.9759C8.88527 8.8644 9.02479 8.8 9.18452 8.8C9.31223 8.8 9.43703 8.82366 9.54244 8.8892C9.65184 8.95722 9.7224 9.05929 9.75638 9.18025L10.5988 11.952L11.4461 9.26265C11.4462 9.26252 11.4462 9.26239 11.4463 9.26226C11.4877 9.12947 11.5665 9.01961 11.6785 8.9376C11.7923 8.84704 11.9255 8.8 12.0712 8.8C12.2129 8.8 12.3445 8.84094 12.4593 8.92353M15.5054 9.61261L12.4593 8.92353M15.5054 9.61261L15.5082 9.60299M15.5054 9.61261L15.5082 9.60299M12.4593 8.92353C12.5771 9.00825 12.6561 9.12503 12.6968 9.26438L13.5348 11.9519L14.3861 9.17994M12.4593 8.92353L14.3861 9.17994M15.5082 9.60299C15.5298 9.52817 15.5377 9.44323 15.5377 9.35426C15.5377 9.20149 15.4658 9.07431 15.3591 8.97572C15.2521 8.86279 15.1153 8.8 14.9579 8.8C14.8302 8.8 14.7054 8.82366 14.6 8.8892M15.5082 9.60299L14.6 8.8892M14.6 8.8892C14.4907 8.95717 14.4201 9.05911 14.3861 9.17994M14.6 8.8892L14.3861 9.17994" fill="#161616" stroke="#161616" stroke-width="0.4" stroke-linejoin="round"/>
</svg>
