<svg width="24" height="24" viewBox="0 0 24 24" fill="none" xmlns="http://www.w3.org/2000/svg">
<path d="M13.5234 16C13.1234 15.2 13.8568 14.1667 14.0234 13.5L10.7656 11C9.59896 11.3333 7.16563 12 6.76562 12C6.36563 12 6.59896 12.6667 6.76562 13L7.76562 15L6.76562 16.5L5.02344 18.5V21H16.2612C16.2612 20 14.0234 17 13.5234 16Z" fill="#D4EFFF"/>
<circle cx="11.0234" cy="9.5" r="5" fill="#D4EFFF"/>
<path fill-rule="evenodd" clip-rule="evenodd" d="M6.24991 9.46176C6.24991 6.16917 8.91908 3.5 12.2117 3.5C15.5043 3.5 18.1734 6.16917 18.1734 9.46176C18.1734 11.5347 17.1161 13.361 15.5078 14.4303C15.4454 14.4718 15.3912 14.5211 15.3457 14.5759C15.2622 14.6308 15.1883 14.7033 15.1302 14.7923C14.9036 15.139 15.0009 15.6038 15.3476 15.8304C16.757 16.7516 18.678 18.6187 18.927 21.0841C18.9686 21.4963 19.3364 21.7966 19.7485 21.755C20.1606 21.7134 20.461 21.3455 20.4194 20.9334C20.1557 18.3226 18.4614 16.3549 17.0028 15.1823C18.6343 13.8144 19.6734 11.7596 19.6734 9.46176C19.6734 5.34074 16.3327 2 12.2117 2C8.09065 2 4.74991 5.34074 4.74991 9.46176C4.74991 11.6758 5.71467 13.6643 7.24457 15.0301C7.2018 15.0649 7.1593 15.1002 7.1171 15.1361C4.44099 17.4132 3.88423 19.8023 4.0184 21.0867C4.06143 21.4987 4.43029 21.7978 4.84226 21.7547C5.25423 21.7117 5.55332 21.3428 5.51028 20.9309C5.43478 20.2081 5.73315 18.2833 8.08917 16.2785C8.28771 16.1096 8.49513 15.9557 8.70962 15.8161C8.74575 15.7925 8.77918 15.7664 8.80983 15.7382C8.93377 15.6821 9.04399 15.5918 9.12485 15.4701C9.35419 15.1252 9.26048 14.6597 8.91555 14.4303C7.30726 13.361 6.24991 11.5347 6.24991 9.46176Z" fill="black"/>
<circle cx="10.0234" cy="8.75" r="0.75" fill="#161616"/>
<circle cx="14.0234" cy="8.75" r="0.75" fill="#161616"/>
<path d="M10.5234 11C11.0234 12 13.0234 12 13.5234 11" stroke="#161616" stroke-width="1.5" stroke-linecap="round" stroke-linejoin="round"/>
</svg>
