<svg width="120" height="120" viewBox="0 0 120 120" fill="none" xmlns="http://www.w3.org/2000/svg">
<rect width="120" height="120" fill="#00925C"/>
<g clip-path="url(#clip0_1214_48938)">
<path d="M67.2555 24C70.0142 25.1503 81.1242 31.2032 82.5224 33.0889C76.6273 33.862 65.4039 37.1996 59.7166 40.179C66.2352 38.7459 75.3236 37.9916 81.5588 37.671C79.1214 41.2538 77.7988 43.0829 73.8498 47.3633C80.6141 43.3092 82.4846 43.0263 88.7388 39.387C91.0817 42.8566 91.6863 50.9084 91.7808 57.2819C93.8214 53.2277 96.2966 38.0105 95.2574 35.2574C99.0175 32.806 99.0175 31.8255 100 30.1473C96.2022 30.4867 94.0671 30.5432 92.0076 31.1844C86.7926 27.9787 76.0227 24.6788 67.2555 24ZM52.4421 43.2903C50.7605 43.5354 45.9802 45.6662 42.8059 48.1742C42.8059 48.1742 40.7085 47.9102 37.1752 48.0233C33.6419 48.1742 29.0316 49.0604 27.2555 49.7958C30.6944 49.9467 35.3803 50.8141 37.1752 52.6055C37.1752 52.6055 31.9225 57.3196 26.8021 67.6153C26.8021 67.6153 36.2305 58.8658 40.274 56.6785C40.274 56.6785 42.3524 63.8063 43.8262 67.3325C43.8262 67.3325 45.1488 59.1298 47.3028 54.3968C47.3028 54.3968 47.9074 54.0197 50.9306 53.7369C53.9159 53.4729 58.1483 53.2843 66.273 54.6985C66.273 54.6985 58.8285 49.9844 49.6079 48.7021C49.9858 47.4388 51.2896 44.7234 52.4421 43.2903ZM25.9329 71.2358C25.3472 76.2893 25.1393 79.9852 25.8573 84.0206C23.5522 84.6428 21.9084 85.1708 20 86.0194C22.6641 87.6599 24.8559 88.9421 27.8602 90.2998C29.4284 93.7128 31.0534 95.9756 33.7175 98.5779C33.094 96.3528 32.9617 94.5614 33.2074 92.2232C36.5517 93.2037 39.3481 93.7317 43.1271 93.8448C39.5182 92.506 36.9296 90.9598 34.0954 88.301C34.9457 85.9816 35.9282 84.1148 37.4965 81.7955C34.5867 82.2103 32.4516 82.5686 29.9386 83.0589C27.8791 79.495 26.9721 76.0254 25.9329 71.2358ZM70.222 86.981C67.6712 88.7724 65.4605 90.1678 62.513 91.5632C62.3618 90.1867 62.2674 89.0364 62.2107 87.4902C60.5479 89.6964 59.1497 91.3746 57.317 93.4111C54.1993 94.2597 51.743 94.5802 48.7199 94.5991C50.5527 95.5608 52.4232 96.1265 54.3505 96.5225C52.4232 98.2761 50.7416 99.5395 48.871 100.728C52.0453 99.9732 56.1644 98.6156 59.2442 96.8053C60.8503 96.8619 62.4374 96.7865 63.5333 96.579C63.2688 95.6362 63.0609 94.9197 62.7964 93.694C65.744 91.4501 67.8224 89.4324 70.222 86.981Z" fill="white"/>
</g>
<defs>
<clipPath id="clip0_1214_48938">
<rect width="80" height="80" fill="white" transform="translate(20 20)"/>
</clipPath>
</defs>
</svg>
