<svg width="120" height="120" viewBox="0 0 120 120" fill="none" xmlns="http://www.w3.org/2000/svg">
<rect width="120" height="120" fill="#7C7266"/>
<path d="M96.7668 60.9617L96.1056 60.5386C93.8627 58.2879 90.744 57.3066 86.571 57.5587C83.0949 57.7747 80.3426 59.1612 78.2337 60.4486C78.2337 60.4125 78.2337 60.3855 78.2337 60.3495C78.2337 59.2512 78.3588 58.0628 78.475 56.9105C78.5912 55.7401 78.7252 54.5428 78.7252 53.4174C78.7252 52.2921 78.6001 51.1667 78.198 50.2305C78.0997 49.9874 77.8763 49.8523 77.5993 49.8523C76.4734 49.8793 74.2841 50.6536 73.7479 51.1217L73.462 51.7609C73.4441 53.0123 73.1671 56.5144 72.8901 56.9375C72.899 56.9195 72.7471 57.3606 72.7471 57.3606C72.2735 62.3571 72.2645 66.7415 72.7024 70.5136C72.756 70.8917 73.4709 71.4589 74.0339 71.666C74.6415 71.891 76.5538 71.3779 77.6529 70.9638C77.635 70.9638 78.064 70.9007 78.064 70.9007C78.4125 70.8647 78.618 70.5676 78.6001 70.1715L78.6269 69.0912C79.4222 65.8412 82.6392 61.952 86.4369 61.3668C88.5905 61.0247 90.2883 61.5829 91.6287 63.0504C91.8074 63.3114 92.2006 65.6611 90.7887 68.344C89.7343 70.3336 87.6254 72.0171 84.8463 73.0614C82.2192 74.0697 79.3239 74.4748 75.7585 74.3488C75.6066 74.2498 72.4165 72.0711 72.4165 72.0711C69.5838 70.0635 66.063 67.5697 62.8729 66.3544C62.3099 66.1383 61.3091 65.292 60.7015 64.7969L60.3708 64.5268C58.53 63.0413 55.0272 60.6916 52.2213 58.8011C52.2213 58.8011 50.9524 57.9458 50.7111 57.7747C50.7111 57.6667 50.7111 57.4506 50.7111 57.4506C50.7915 57.3606 52.5608 56.2983 52.5608 56.2983C55.0361 54.8399 56.1799 54.1286 56.4212 53.7595C56.3675 53.8225 56.7518 53.5615 56.7518 53.5615C56.7786 53.5525 62.8818 50.0684 62.8818 50.0684C68.7706 46.8094 75.4368 43.1093 78.9397 39.4632L79.1095 38.905L79.1899 38.4099C79.4222 37.6266 79.4312 37.0324 79.2435 36.3392C79.1899 36.1412 79.0112 35.9071 78.7699 35.8711C76.0355 35.592 72.5058 37.2485 69.2978 40.2824C68.574 40.9666 67.9664 41.2997 67.323 41.6508L66.8315 41.9299C63.2929 43.9555 55.322 48.9431 51.14 51.6349C51.417 47.1155 52.2481 40.6785 53.2668 35.3219L53.1506 34.6827L52.7217 33.8725L52.4 33.2963L52.3106 33.2693C51.4796 32.8462 50.8005 33.0172 50.3001 33.1433L49.469 33.4494L48.352 33.8545C48.1286 33.8995 47.9767 34.0345 47.8963 34.2506C45.9036 39.1031 44.2415 47.0885 43.8483 53.4714C39.8629 50.9237 36.1813 49.0871 34.3762 48.1958L34.3226 48.1688L34.1082 48.1238C33.4558 48.0428 32.6695 47.5566 31.9099 47.0885C31.8295 47.0435 30.3908 46.0982 30.3908 46.0982L28.0764 44.6037L27.4688 44.4597C26.4769 44.6308 24.5646 45.9271 24.0016 46.8094C23.9302 46.9264 23.8944 47.0525 23.8944 47.1785C23.8944 47.3676 23.948 47.5476 24.0016 47.7367L24.0999 48.2138L24.2072 48.5019C25.3152 49.6453 28.1211 51.5539 30.8644 53.0393L34.0456 54.7408L38.9157 57.4236L39.7467 58.0898L40.3186 58.4229C40.3186 58.4229 40.3812 58.459 40.4259 58.486C39.1302 59.3592 31.5614 64.4458 31.5614 64.4458L26.9058 67.5607C26.468 67.8668 24.6272 68.6951 24.2161 68.8571C23.2063 69.2712 22.4379 69.9104 22.1251 70.5946L22 70.8647L22.1251 71.0448L22.4825 71.3149L22.9561 71.63L23.4744 71.9811L23.957 72.0621C24.7791 72.0891 25.9854 71.621 28.2551 70.6217C30.3372 69.6944 35.9936 66.2553 38.4153 64.7879L39.4429 64.1667C39.8718 64.2027 40.3365 63.8426 40.7565 63.5185C41.239 63.1314 42.2935 62.4742 42.9369 62.1861C42.9547 62.1861 43.3211 61.97 43.6696 61.781C43.6696 61.889 43.6696 62.0601 43.6696 62.0601C43.7768 69.5143 44.1968 74.934 45.01 79.1112V79.1833L45.0994 79.3543C45.4925 79.9395 45.9483 81.713 46.3504 83.2705L47.2708 86.3854L47.5299 86.6735C48.0571 87.0336 49.6567 87.6548 50.729 87.5288L50.9971 87.4928L51.1668 87.1147C51.2562 86.6465 51.2919 86.1874 51.2919 85.6832C51.2919 85.1161 51.2473 84.4859 51.2026 83.7206L51.1311 82.5953C50.7915 77.3917 50.452 69.8744 50.452 64.8779V64.4818C51.3366 65.031 55.1701 67.4707 55.1701 67.4707C61.7023 71.738 71.5765 78.193 77.5367 79.8945C77.8495 79.9845 78.1712 79.9125 78.4035 79.6964C78.4035 79.6874 79.3239 79.1022 79.3239 79.1022L79.4937 79.0302C79.8333 78.8682 80.0656 78.283 80.1014 77.6528C85.1323 77.4007 92.138 75.4471 95.8911 70.6937C97.3387 68.8481 98 66.5974 98 64.6708C98 63.0864 97.5621 61.7179 96.7758 60.9707" fill="#F8B500"/>
</svg>
