<svg width="120" height="120" viewBox="0 0 120 120" fill="none" xmlns="http://www.w3.org/2000/svg">
<rect width="120" height="120" fill="#406FA0"/>
<g clip-path="url(#clip0_1214_48920)">
<path d="M70.2524 89.1197L45.1064 72.7483C45.1064 72.7483 41.9526 70.9358 41.2306 67.5595C40.2164 62.8156 43.56 58.75 43.56 58.75L76.1959 80.0049C78.7129 81.6451 79.3999 85.0018 77.7816 87.534C76.1196 90.1361 72.7039 90.7075 70.2524 89.1219" fill="white"/>
<path d="M46.43 55.2383C46.43 55.2383 42.5781 52.9133 42.5781 47.5325C42.5781 42.1517 46.4278 39.8746 46.4278 39.8746L60.1753 30.8798C62.6945 29.2418 66.0643 29.9572 67.7023 32.4763C69.3403 34.9955 68.6249 38.3653 66.1057 40.0033L54.5197 47.5478L74.2608 60.4054C74.2608 60.4054 77.8139 62.4425 78.514 65.8778C79.4911 70.6718 76.1911 74.624 76.1911 74.624L46.43 55.2383Z" fill="white"/>
<path d="M72.3093 41.9141C71.0181 41.9141 70.0999 42.3219 69.2034 42.9043L62.4922 47.2752L69.2034 51.6462C70.1086 52.2285 71.0574 52.6364 72.3093 52.6364C75.2713 52.6364 77.6705 50.235 77.6705 47.2752C77.6705 44.3155 75.2713 41.9141 72.3093 41.9141Z" fill="white"/>
<path d="M46.3612 89.9879C47.6524 89.9879 48.5706 89.5801 49.467 88.9977L56.1783 84.6268L49.467 80.2558C48.5619 79.6735 47.6131 79.2656 46.3612 79.2656C43.3992 79.2656 41 81.667 41 84.6268C41 87.5865 43.3992 89.9879 46.3612 89.9879Z" fill="white"/>
</g>
<defs>
<clipPath id="clip0_1214_48920">
<rect width="37.6982" height="60" fill="white" transform="translate(41 30)"/>
</clipPath>
</defs>
</svg>
