<svg width="120" height="120" viewBox="0 0 120 120" fill="none" xmlns="http://www.w3.org/2000/svg">
<rect width="120" height="120" fill="#002C6A"/>
<path d="M88 32H32V88H88V32Z" fill="white"/>
<path d="M32 32L45.9959 46.0041L60 32H32Z" fill="white"/>
<path d="M32 32V60L45.9959 46.0041L32 32Z" fill="white"/>
<path d="M60 59.9963L46.0041 45.9922L32 59.9963H60Z" fill="white"/>
<path d="M59.9959 60V32L46 45.9959L59.9959 60Z" fill="white"/>
<path d="M60 32V60L73.9959 46.0041L60 32Z" fill="white"/>
<path d="M88 59.9963L74.0041 45.9922L60 59.9963H88Z" fill="white"/>
<path d="M32 60L45.9959 74.0041L60 60H32Z" fill="white"/>
<path d="M32 60V88L45.9959 74.0041L32 60Z" fill="white"/>
<path d="M60 87.9963L46.0041 73.9922L32 87.9963H60Z" fill="white"/>
<path d="M59.9959 88V60L46 73.9959L59.9959 88Z" fill="white"/>
<path d="M60 60L73.9959 74.0041L88 60H60Z" fill="white"/>
<path d="M60 60V88L73.9959 74.0041L60 60Z" fill="white"/>
<path d="M88 87.9963L74.0041 73.9922L60 87.9963H88Z" fill="white"/>
<path d="M87.9959 88V60L74 73.9959L87.9959 88Z" fill="white"/>
<path d="M60 32L73.9959 46.0041L88 32H60Z" fill="white"/>
<path d="M87.9959 60V32L74 45.9959L87.9959 60Z" fill="white"/>
<path d="M87.9964 67.0013L70.0659 49.9297L42.8594 77.2017L52.7817 87.124L70.0659 70.1096L87.9964 87.9338V67.0013Z" fill="#002C6A"/>
</svg>
