<svg width="120" height="120" viewBox="0 0 120 120" fill="none" xmlns="http://www.w3.org/2000/svg">
<rect width="120" height="120" fill="#F9F9F9"/>
<g clip-path="url(#clip0_1214_48939)">
<path d="M77.1922 58.4519C71.3662 54.499 63.9225 56.1166 60.0182 62.0521C56.7464 67.0146 51.8205 67.6349 49.9109 67.6349C43.6957 67.6349 39.4387 63.2562 38.1737 58.7316C38.1737 58.7316 38.1494 58.6465 38.1372 58.5978C38.1251 58.5492 38.1129 58.5005 38.1007 58.4519C37.6021 56.5666 37.4804 55.6666 37.4804 53.6476C37.4804 42.8226 48.5851 30.7692 64.5915 30.7692C80.5978 30.7692 90.3525 43.2361 92.7607 50.169C92.7242 50.0473 92.6877 49.9257 92.6391 49.8041C87.9929 36.2546 75.1367 26.5 59.9939 26.5C40.9469 26.5 25.5 41.9469 25.5 60.9939C25.5 78.022 37.7845 92.6053 54.8247 92.6053C68.4106 92.6053 77.5449 84.9791 81.7411 74.4826C84.0399 68.7417 82.4101 61.9913 77.1922 58.4397V58.4519Z" fill="#003964"/>
<path d="M92.9836 50.8465C90.9645 44.084 81.5261 30.7656 64.5954 30.7656C48.6012 30.7656 37.4844 42.819 37.4844 53.644C37.4844 55.6509 37.606 56.5509 38.1047 58.4483C37.8979 57.6213 37.7884 56.7942 37.7884 55.9914C37.7884 44.7164 49.0756 36.8957 60.679 36.8957C76.3934 36.8957 89.1279 49.6303 89.1279 65.3447C89.1279 77.6657 82.037 88.3204 71.7472 93.441C85.0169 88.6366 94.5039 75.9264 94.5039 61.0025C94.5039 57.4632 94.0296 54.3495 92.9836 50.8465Z" fill="#ED193A"/>
</g>
<defs>
<clipPath id="clip0_1214_48939">
<rect width="69" height="66.9445" fill="white" transform="translate(25.5 26.5)"/>
</clipPath>
</defs>
</svg>
