<svg width="120" height="120" viewBox="0 0 120 120" fill="none" xmlns="http://www.w3.org/2000/svg">
<rect width="120" height="120" fill="#1C489E"/>
<g clip-path="url(#clip0_1214_48913)">
<path d="M42.4985 25.8548C40.6704 26.8306 39.3157 28.5105 38.6528 30.5815L26.3912 69.8657C25.7448 71.9285 25.9095 74.1478 26.8112 76.0912C27.7294 78.047 29.3269 79.5004 31.2497 80.1798L71.448 94.5742C73.3955 95.266 75.4624 95.1054 77.3112 94.1213C79.1269 93.162 80.5104 91.4738 81.1403 89.3945L93.4143 50.1351C94.736 45.8489 92.5579 41.2168 88.564 39.8004L48.3493 25.4183C46.4018 24.7431 44.3307 24.8831 42.4944 25.8548H42.4985Z" fill="white"/>
<path d="M53.2042 30.169C60.2408 32.9442 65.3629 40.9402 64.8647 49.665C64.6794 53.0495 63.6953 56.1499 62.1307 58.855C59.9444 56.261 57.2186 54.1653 54.0565 52.8683L52.2654 52.1189V70.3261L54.0647 69.585C57.231 68.2715 59.9567 66.1922 62.1307 63.5777C64.0906 66.9416 65.1488 70.9561 64.9017 75.2217C64.6382 79.9691 62.7854 84.2347 59.9444 87.4668L59.9691 87.4421C59.9608 87.4669 59.9444 87.4669 59.9444 87.4751L32.0531 77.5316C29.422 76.6216 27.9604 73.5871 28.8291 70.7831L41.1237 31.4825C41.9884 28.695 44.7758 27.1551 47.3986 28.098L53.2042 30.1732V30.169Z" fill="#0099DA"/>
<path d="M46.005 71.4449H43.2422V51.0391H46.005V71.4449Z" fill="white"/>
<path d="M60.5339 61.2182C58.9775 59.2625 57.0917 57.632 54.9219 56.4297V66.015C57.0917 64.8168 58.994 63.1863 60.5339 61.2141V61.2182Z" fill="#E43D30"/>
<path d="M87.6645 42.421L62.0625 33.2969C65.4964 37.3155 67.5963 42.631 67.5963 48.4654C67.621 53.0892 66.2664 57.5155 63.9236 61.217C66.2746 64.8938 67.6375 69.3159 67.6457 73.9151C67.6622 79.4406 65.8011 84.5174 62.7048 88.4495L72.3107 91.867C74.9335 92.7934 77.721 91.2741 78.5856 88.466L90.8926 49.1859C91.749 46.382 90.2873 43.3475 87.6686 42.421H87.6645ZM80.8626 71.387L77.4204 71.3952L70.3138 61.1882L77.5234 50.9894L81.0108 50.977L73.7724 61.2129L80.8626 71.3829V71.387Z" fill="#0056A2"/>
</g>
<defs>
<clipPath id="clip0_1214_48913">
<rect width="67.8013" height="70" fill="white" transform="translate(26 25)"/>
</clipPath>
</defs>
</svg>
