<svg width="120" height="120" viewBox="0 0 120 120" fill="none" xmlns="http://www.w3.org/2000/svg">
<rect width="120" height="120" fill="#35B459"/>
<path d="M60.4986 52.2935L47.7891 28L60.4986 34.4161L73.2148 28L60.4986 52.2935Z" fill="#FCC800"/>
<path d="M77.2525 47.0215L85.9307 43.3172V30.5547L70.3779 37.1965L61.7607 53.6301C68.1997 54.2557 73.2178 59.7242 73.2178 66.3561C73.2178 73.4327 67.5264 79.1451 60.5016 79.1451C53.4769 79.1451 47.7789 73.4327 47.7789 66.3561C47.7789 59.7259 52.8119 54.2557 59.2343 53.6301L50.6271 37.1965L35.0743 30.5547V43.3188L43.7508 47.0231C38.396 51.7198 35 58.6405 35 66.3544C35 80.5209 46.4142 91.9989 60.5016 91.9989C74.5891 91.9989 86 80.5209 86 66.3544C86 58.6405 82.6122 51.7198 77.2508 47.0231L77.2525 47.0215Z" fill="#FCC800"/>
</svg>
