<svg width="120" height="120" viewBox="0 0 120 120" fill="none" xmlns="http://www.w3.org/2000/svg">
<rect width="120" height="120" fill="#E31837"/>
<g clip-path="url(#clip0_1214_48928)">
<path d="M59.8776 81.3706C72.5093 70.5424 90.2539 60.0149 99.9984 56.225C98.4946 55.2625 96.1487 53.8789 93.5021 52.375C80.9305 56.5258 66.2536 65.7298 53.1406 76.137C55.3662 77.8214 57.7121 79.5659 59.8776 81.3706Z" fill="white"/>
<path d="M54.1081 51.9586C52.2434 51.0563 50.1982 50.2141 48.6343 49.4922C43.8824 51.8383 37.6868 55.3876 29.8672 60.9822C31.5514 61.8845 33.356 62.9673 35.2808 64.0502C41.2959 59.5985 47.3712 55.3876 54.1081 51.9586Z" fill="white"/>
<path d="M65.3529 46.7868C63.0672 45.5235 55.1272 42.5758 49.6534 41.3125C48.0293 41.9141 45.7436 42.8164 44.1797 43.4781C46.1647 44.0196 53.5633 46.0047 59.8791 49.1931C61.5032 48.411 63.789 47.4485 65.3529 46.7868Z" fill="white"/>
<path d="M38.4664 46C31.4287 49.2485 24.0301 53.7001 20 56.2868C21.4436 56.9486 22.8872 57.49 24.8722 58.4525C33.7746 52.4368 40.7521 48.7672 43.5191 47.5641C41.5341 46.8422 39.6694 46.3609 38.4664 46Z" fill="white"/>
<path d="M70.6467 44.918C72.2708 44.3766 74.1355 43.8954 75.7595 43.4141C71.0678 41.4289 65.1729 39.3235 59.8796 38C59.0375 38.2406 56.5112 38.9024 54.7668 39.4438C56.5713 39.9852 62.5263 41.3688 70.6467 44.918ZM40.9922 67.537C42.917 68.68 44.9621 70.2441 46.9471 71.5676C60.1202 61.3409 73.1129 53.4603 87.3687 49.0087C85.3837 47.986 83.6393 47.0837 81.4137 46.0009C72.8723 48.1665 58.2556 54.0017 40.9922 67.537Z" fill="white"/>
</g>
<defs>
<clipPath id="clip0_1214_48928">
<rect width="80" height="80" fill="white" transform="translate(20 20)"/>
</clipPath>
</defs>
</svg>
