<svg width="120" height="120" viewBox="0 0 120 120" fill="none" xmlns="http://www.w3.org/2000/svg">
<rect width="120" height="120" fill="#002063"/>
<path d="M72.8546 74.953C72.8546 84.2498 69.8785 87.9508 64.4098 89.4897C64.2572 89.5278 64.2572 89.6932 64.4225 89.7313C65.6562 90.0493 67.0933 90.2019 68.7085 90.2019C76.9116 90.2019 83.0036 84.5805 83.0036 74.953V42.7891H72.8419V74.9402L72.8546 74.953Z" fill="white"/>
<path d="M53.0607 57.7466C44.0055 52.0362 43.2169 50.9298 43.2169 48.933C43.2169 47.0635 45.2645 44.8887 51.4073 43.07C51.6236 43.0064 51.649 42.8157 51.3819 42.8029C42.0596 42.2942 35.4844 47.0635 35.4844 52.4178C35.4844 56.3095 36.9088 58.7386 46.2184 64.6016C55.3499 70.3502 56.3419 71.444 56.3419 73.5551C56.3419 76.1369 53.3914 78.6932 47.9353 80.3084C47.7064 80.372 47.681 80.5755 47.9608 80.5882C58.1097 81.1351 64.3925 76.0352 64.3925 70.6936C64.3925 67.0308 62.9553 63.9785 53.0607 57.7339" fill="white"/>
<path d="M42.9996 71.9112C41.2573 69.978 38.7009 68.5663 35.2289 68.0703C35.1653 68.0703 35.1017 68.0703 35.0636 68.1085C35.0254 68.1466 35 68.1975 35 68.2611C35.1272 71.7713 36.2718 74.4548 38.0142 76.4006C39.7565 78.3465 42.3129 79.7582 45.7849 80.2415C45.8612 80.2415 45.9121 80.2415 45.9502 80.2033C45.9884 80.1652 46.0011 80.1143 46.0011 80.038C45.8739 76.5405 44.742 73.8443 42.9869 71.9112" fill="#32A238"/>
<path d="M61.1481 46.9472C59.4057 45.014 56.8494 43.5896 53.3774 43.1063C53.3138 43.0936 53.2502 43.1063 53.212 43.1445C53.1739 43.1826 53.1484 43.2335 53.1484 43.2971C53.2756 46.7946 54.4202 49.4908 56.1626 51.4239C57.9177 53.3571 60.4613 54.7815 63.9333 55.2648C63.9969 55.2648 64.0605 55.2648 64.0987 55.2266C64.1368 55.2012 64.1623 55.1376 64.1623 55.074C64.0351 51.5765 62.9032 48.8803 61.1481 46.9472Z" fill="#32A238"/>
<path d="M79.2318 27.8329C77.0316 25.391 73.8267 23.6105 69.4517 23C69.3626 23 69.2991 23 69.2482 23.0509C69.1973 23.089 69.1719 23.1653 69.1719 23.2544C69.3372 27.6548 70.7616 31.0378 72.9619 33.4797C75.1621 35.9215 78.367 37.702 82.7293 38.3125C82.8056 38.3125 82.8819 38.3125 82.9328 38.2616C82.9837 38.2235 83.0091 38.1472 82.9964 38.0709C82.8438 33.6704 81.4066 30.2874 79.2191 27.8456" fill="#32A238"/>
</svg>
