<svg width="120" height="120" viewBox="0 0 120 120" fill="none" xmlns="http://www.w3.org/2000/svg">
<g clip-path="url(#clip0_1214_48915)">
<rect width="120" height="120" fill="#13347B"/>
<path d="M36.0108 41.9297C34.5581 44.8009 36.0386 50.7271 37.8665 53.581L63.0336 93.0014H44.65C41.7482 93.0014 38.9056 91.3473 37.6649 89.4367L23.9415 67.9198C22.6522 65.912 22.7183 62.7287 23.9485 60.7938L36.0108 41.9297Z" fill="url(#paint0_radial_1214_48915)"/>
<path d="M46.6291 61.3486C45.9619 62.3924 45.3503 64.8787 46.365 66.8934L37.8648 53.581C36.0368 50.7306 34.5564 44.8009 36.009 41.9297L37.5207 39.5648C38.8865 37.4079 41.4268 36 44.6274 36H62.7121L46.6291 61.3486Z" fill="url(#paint1_radial_1214_48915)"/>
<path d="M83.9916 78.0682C85.4407 75.1936 83.9638 69.2673 82.1358 66.4169L56.9688 27H75.3558C78.2576 27 81.1002 28.6506 82.3374 30.5613L96.0608 52.0781C97.3501 54.0859 97.2841 57.2657 96.0504 59.2042L83.9916 78.0682Z" fill="url(#paint2_radial_1214_48915)"/>
<path d="M73.3721 58.6464C74.0428 57.6026 74.6509 55.1197 73.6362 53.1016L82.1364 66.4174C83.9644 69.2678 85.4413 75.194 83.9922 78.0687L82.4805 80.4302C81.1182 82.5905 78.5744 84.0019 75.3738 84.0019H57.2891L73.3721 58.6498V58.6464Z" fill="url(#paint3_radial_1214_48915)"/>
</g>
<defs>
<radialGradient id="paint0_radial_1214_48915" cx="0" cy="0" r="1" gradientUnits="userSpaceOnUse" gradientTransform="translate(23.5855 56.925) rotate(-90) scale(48.7099 53.4642)">
<stop stop-color="#C7DFF4"/>
<stop offset="0.07" stop-color="#BFDBF2"/>
<stop offset="0.17" stop-color="#A9D0EE"/>
<stop offset="0.25" stop-color="#92C5EB"/>
<stop offset="0.36" stop-color="#7FB4E0"/>
<stop offset="0.58" stop-color="#4F89C3"/>
<stop offset="0.7" stop-color="#3471B3"/>
<stop offset="0.82" stop-color="#215EA0"/>
<stop offset="1" stop-color="#003C7F"/>
</radialGradient>
<radialGradient id="paint1_radial_1214_48915" cx="0" cy="0" r="1" gradientUnits="userSpaceOnUse" gradientTransform="translate(64.8488 35.8866) scale(34.3259 34.2518)">
<stop stop-color="#C7DFF4"/>
<stop offset="0.07" stop-color="#BFDBF2"/>
<stop offset="0.17" stop-color="#A9D0EE"/>
<stop offset="0.25" stop-color="#92C5EB"/>
<stop offset="0.36" stop-color="#7FB4E0"/>
<stop offset="0.58" stop-color="#4F89C3"/>
<stop offset="0.7" stop-color="#3471B3"/>
<stop offset="0.82" stop-color="#215EA0"/>
<stop offset="1" stop-color="#003C7F"/>
</radialGradient>
<radialGradient id="paint2_radial_1214_48915" cx="0" cy="0" r="1" gradientUnits="userSpaceOnUse" gradientTransform="translate(96.4189 62.8013) rotate(90) scale(48.707 53.4611)">
<stop stop-color="#C7DFF4"/>
<stop offset="0.07" stop-color="#BFDBF2"/>
<stop offset="0.17" stop-color="#A9D0EE"/>
<stop offset="0.25" stop-color="#92C5EB"/>
<stop offset="0.36" stop-color="#7FB4E0"/>
<stop offset="0.58" stop-color="#4F89C3"/>
<stop offset="0.7" stop-color="#3471B3"/>
<stop offset="0.82" stop-color="#215EA0"/>
<stop offset="1" stop-color="#003C7F"/>
</radialGradient>
<radialGradient id="paint3_radial_1214_48915" cx="0" cy="0" r="1" gradientUnits="userSpaceOnUse" gradientTransform="translate(56.8625 84.0478) rotate(180) scale(34.3321 34.2581)">
<stop stop-color="#C7DFF4"/>
<stop offset="0.07" stop-color="#BFDBF2"/>
<stop offset="0.17" stop-color="#A9D0EE"/>
<stop offset="0.25" stop-color="#92C5EB"/>
<stop offset="0.36" stop-color="#7FB4E0"/>
<stop offset="0.58" stop-color="#4F89C3"/>
<stop offset="0.7" stop-color="#3471B3"/>
<stop offset="0.82" stop-color="#215EA0"/>
<stop offset="1" stop-color="#003C7F"/>
</radialGradient>
<clipPath id="clip0_1214_48915">
<rect width="120" height="120" fill="white"/>
</clipPath>
</defs>
</svg>
