<svg width="120" height="120" viewBox="0 0 120 120" fill="none" xmlns="http://www.w3.org/2000/svg">
<rect width="120" height="120" fill="#066BAF"/>
<path d="M27 73.7798C27.6493 72.4661 28.3179 71.161 28.9416 69.8346C29.9605 67.6623 30.9516 65.4772 31.9726 63.2536C32.2375 64.8983 32.3763 66.5046 32.7629 68.0489C34.1897 73.7285 38.6134 77.0649 44.4532 77.2358C51.3183 77.4387 56.2011 74.0638 59.7939 68.679C61.6201 65.9407 62.8932 62.8114 64.2645 59.789C66.7743 54.2525 69.1709 48.6648 71.6123 43.0984C72.3642 41.3832 72.785 39.668 71.4051 37.9335C73.9811 37.9335 76.4268 37.8118 78.8512 37.9784C80.372 38.0831 80.8548 39.4779 80.1242 41.2187C78.7807 44.4141 77.3859 47.5904 76.0167 50.7751C75.2542 52.548 74.5002 54.3251 73.8316 55.8887C76.5571 54.6584 79.3425 53.3105 82.2004 52.1422C84.1228 51.3561 86.1947 51.2023 88.2752 51.3561C90.8021 51.5441 92.3058 52.8663 92.7992 55.3568C92.8462 55.5918 92.9316 55.8182 93 56.0489V57.9713C92.7458 59.2144 92.6006 60.4896 92.2182 61.6922C90.5265 67.0129 88.7771 72.3166 87.0235 77.6203C86.466 79.3056 85.7269 80.9738 87.6408 82.5629C85.6159 82.5629 83.9114 82.5907 82.2047 82.5565C78.7209 82.4882 77.544 80.7281 78.8213 77.4878C79.9854 74.5359 81.2115 71.6074 82.3756 68.6534C83.4436 65.9428 84.4261 63.1981 84.3022 60.2226C84.2168 58.2062 83.1702 57.4416 81.2072 57.8645C78.4219 58.4647 76.2175 60.0966 74.293 62.0596C69.7583 66.684 66.5671 72.1585 64.3606 78.2354C63.786 79.8203 63.6387 81.245 65.2236 82.5117C63.0085 82.5117 60.9815 82.6356 58.9758 82.4796C56.5109 82.2874 55.5967 80.8136 56.2033 78.4084C56.2246 78.3251 56.1947 78.2269 56.1883 78.1393C56.12 78.1393 56.073 78.1244 56.0495 78.1414C55.7996 78.338 55.5497 78.5366 55.3062 78.7438C53.215 80.5167 50.8505 81.7555 48.1613 82.3365C47.0911 82.5672 46.0125 82.7552 44.9381 82.9624H40.6661C40.4995 82.9047 40.3393 82.8129 40.1684 82.7958C37.1161 82.4903 34.3542 81.3647 32.0303 79.423C30.2253 77.9129 28.6682 76.0994 27 74.4205C27 74.207 27 73.9934 27 73.7798Z" fill="white"/>
<path d="M64.0254 45.7321C63.2287 42.5559 60.9432 41.6246 58.3415 41.2188C54.8791 40.6805 51.6815 41.2743 49.1034 43.861C46.5252 46.4455 46.6748 49.5406 49.5028 51.8773C51.1176 53.2102 52.82 54.4363 54.4647 55.7328C58.2433 58.7125 59.7193 63.7748 57.9336 67.8054C57.0834 69.7278 55.6716 71.238 53.9905 72.4769C52.8521 73.3163 51.6644 74.0853 50.3465 74.7602C50.4491 74.5829 50.5366 74.3907 50.6584 74.2284C53.2835 70.7211 53.149 67.0664 49.9663 64.0098C47.9564 62.0788 45.6516 60.4427 43.4174 58.7574C40.0553 56.2198 38.2846 52.9154 38.5687 48.6883C38.7673 45.7492 40.3138 43.421 42.4476 41.4815C45.7242 38.5082 49.6673 37.2138 54.0098 37.0279C57.6986 36.8699 61.2956 37.374 64.741 38.7602C65.2942 38.9824 65.856 39.243 66.3173 39.6082C66.5331 39.7791 66.6847 40.3238 66.5737 40.5651C65.8047 42.2355 64.9567 43.8717 64.0276 45.7321H64.0254Z" fill="white"/>
</svg>
