<svg width="120" height="120" viewBox="0 0 120 120" fill="none" xmlns="http://www.w3.org/2000/svg">
<rect width="120" height="120" fill="#3863A6"/>
<path d="M47.0422 70.4696L46.9192 70.5913C44.9202 72.5924 42.6136 73.6628 40.2455 73.6628C35.2879 73.6628 31.6834 69.983 31.6834 64.8982C31.6834 59.8134 35.2879 56.1519 40.2455 56.1519C42.6136 56.1519 44.9202 57.2224 46.9192 59.2295L47.0422 59.3633L50.2284 55.5436L50.1423 55.4402C47.4851 52.3444 44.3051 50.8359 40.3931 50.8359C36.4811 50.8359 32.8767 52.1436 30.2933 54.4975C27.4885 57.0521 26 60.6467 26 64.9043C26 69.1619 27.4885 72.7748 30.2995 75.3294C32.8829 77.6954 36.4688 78.997 40.3993 78.997C44.3297 78.997 47.4913 77.4886 50.1485 74.3866L50.2346 74.2954L47.0484 70.4757L47.0422 70.4696Z" fill="white"/>
<path d="M59.0874 51.2734H53.4531V78.4796H59.0874V51.2734Z" fill="white"/>
<path d="M81.1559 72.5619C79.655 73.4682 78.2526 73.9244 76.9979 73.9244C75.1772 73.9244 74.353 72.9755 74.353 70.8589V56.4256H80.0918V51.3103H74.353V42.8438L68.8295 45.7693V51.3164H64.0625V56.4316H68.8295V71.7895C68.8295 75.968 71.3329 78.8267 75.0726 78.8997C77.6129 78.9484 79.1445 78.2002 80.0733 77.6528L80.1287 77.6163L81.488 72.3734L81.1559 72.568V72.5619Z" fill="white"/>
<path d="M91.4685 51.2734H85.8281V78.4796H91.4685V51.2734Z" fill="white"/>
<path d="M94.7479 46.5077C89.5995 39.3002 81.0559 35 72.3586 35C63.6612 35 55.1114 39.3002 49.9754 46.5077L49.7109 46.8727H56.194L56.2617 46.7997C60.678 42.2988 66.4352 39.9206 72.3586 39.9206C78.2819 39.9206 84.0391 42.2988 88.4555 46.7997L88.5293 46.8727H95L94.7417 46.5077H94.7479Z" fill="#ED1C2E"/>
</svg>
