<svg width="120" height="120" viewBox="0 0 120 120" fill="none" xmlns="http://www.w3.org/2000/svg">
<rect width="120" height="120" fill="#0056A7"/>
<path d="M89.229 65.4849C86.0883 73.2336 80.8344 75.4286 80.8344 75.4286C96.3034 59.8519 86.8549 41.9004 86.8549 41.9004C84.5712 37.8753 87.4777 36.1246 87.4777 36.1246C80.8344 37.7748 82.9104 43.2438 82.9104 43.2438C86.248 51.1459 85.5773 57.567 84.4435 61.5392L82.2557 60.3226L82.2876 60.2697C82.2876 60.2697 87.4777 39.9539 66.3129 32.8294L66.2969 29.0053H61.8308V54.1819L82.5963 65.9451C82.2184 66.7067 81.8192 67.426 81.3986 68.1083L60.5426 56.1019L39.596 68.1083C39.1755 67.426 38.7763 66.712 38.3983 65.9451L59.1639 54.1819V29H54.6978L54.6818 32.8241C33.5223 39.9486 38.7071 60.2645 38.7071 60.2645L38.739 60.3174L36.5512 61.5339C35.4174 57.5617 34.7467 51.1406 38.0843 43.2385C38.0843 43.2385 40.1603 37.7695 33.517 36.1193C33.517 36.1193 36.4235 37.8753 34.1398 41.8951C34.1398 41.8951 24.6913 59.8466 40.1603 75.4233C40.1603 75.4233 34.901 73.2336 31.7657 65.4796C31.7657 65.4796 29.9878 61.6978 25 62.5229C25 62.5229 26.8791 63.3692 27.9863 66.7966C27.9863 66.7966 32.479 80.9928 49.8165 83.1561V91H58.3335V79.4431C58.3335 79.4431 49.3001 79.3743 42.4067 71.8319L44.5466 70.589C44.9458 70.9645 51.5039 76.9942 60.4468 77.1529C60.4468 77.1529 60.4787 77.1529 60.5 77.1529C60.5213 77.1529 60.5319 77.1529 60.5532 77.1529C69.4961 76.9942 76.0542 70.9645 76.4534 70.589L78.5933 71.8319C71.6999 79.3743 62.6665 79.4431 62.6665 79.4431V91H71.1835V83.1561C88.5263 80.9875 93.0137 66.7966 93.0137 66.7966C94.1209 63.3692 96 62.5229 96 62.5229C91.0175 61.6978 89.2343 65.4796 89.2343 65.4796L89.229 65.4849ZM78.1356 57.9901L78.1196 58.0113L66.4034 51.4897L66.3395 37.5632H66.4034C66.4034 37.5632 80.5256 41.382 78.1356 57.9901ZM54.5966 37.5632H54.6605L54.5966 51.4897L42.8804 58.0113L42.8644 57.9901C40.4744 41.3767 54.5966 37.5632 54.5966 37.5632ZM60.5319 61.354L72.2109 68.1401V68.1612L72.1044 68.1031C67.9258 71.3824 63.9387 72.4666 60.4947 72.4666C57.0453 72.4666 53.0583 71.3824 48.8849 68.1031L48.7785 68.1612V68.1401L60.5319 61.354Z" fill="white"/>
</svg>
