<svg width="120" height="120" viewBox="0 0 120 120" fill="none" xmlns="http://www.w3.org/2000/svg">
<rect width="120" height="120" fill="#E72410"/>
<path d="M27.1013 60.1804C26.9726 60.2466 26.9653 60.3679 27.0866 60.4488L38.1954 67.7873L41.3793 52.8125L27.1013 60.1804Z" fill="white"/>
<path d="M92.875 52.8084H90.0661C89.9209 52.8084 89.6948 52.8635 89.5643 52.9297L75.4848 60.1836C75.3542 60.2498 75.3487 60.3711 75.4701 60.4502L86.3932 67.6397C86.5145 67.7188 86.7333 67.785 86.8804 67.785H89.6874C89.8327 67.785 89.8529 67.7188 89.7334 67.6397L78.5841 60.3031L92.9026 52.926C93.0331 52.8598 93.0184 52.8047 92.8732 52.8047L92.875 52.8084Z" fill="white"/>
<path d="M86.8583 52.8047H67.2896L64.1094 67.785H83.6762C83.8214 67.785 83.8416 67.7188 83.7203 67.6397L72.5913 60.3049L86.8895 52.9279C87.0201 52.8617 87.0054 52.8065 86.8601 52.8065L86.8583 52.8047Z" fill="white"/>
<path d="M98.8815 52.8084H96.0726C95.9255 52.8084 95.7012 52.8635 95.5707 52.9297L81.4912 60.1836C81.3625 60.2498 81.357 60.3711 81.4765 60.4502L92.3996 67.6397C92.521 67.7188 92.7416 67.785 92.8868 67.785H95.6957C95.8409 67.785 95.8612 67.7188 95.7398 67.6397L84.5906 60.3031L98.909 52.926C99.0396 52.8598 99.0267 52.8047 98.8796 52.8047L98.8815 52.8084Z" fill="white"/>
<path d="M52.7195 60.2874L52.7174 60.2812L52.7031 60.2874L52.7154 60.2955L52.7195 60.2874Z" fill="white"/>
<path d="M85.9942 43H39.9228C37.351 43 35.5513 44.6177 35.1267 46.6178C34.8932 47.7152 35.3105 48.6914 36.1561 49.3605L52.71 60.2892L52.7228 60.2818V60.2892L86.0254 43.1213C86.1541 43.0551 86.1431 43 85.996 43H85.9942Z" fill="white"/>
<path d="M78.6795 77.4348L52.7172 60.2891L52.7136 60.2946L52.7025 60.2891L31.5015 71.2214C30.3728 71.8869 29.5418 72.8648 29.3084 73.9641C28.8801 75.9605 29.9904 77.5801 32.564 77.5801H78.6354C78.7824 77.5801 78.8008 77.5139 78.6795 77.4348Z" fill="white"/>
</svg>
