<svg width="120" height="120" viewBox="0 0 120 120" fill="none" xmlns="http://www.w3.org/2000/svg">
<rect width="120" height="120" fill="#006C54"/>
<rect x="34" y="30" width="55" height="64" rx="24" fill="white"/>
<path d="M75.0455 48.3746C75.0455 44.0166 71.616 40.241 67.1746 40.0156C67.0622 40.0156 66.5187 40.0156 66.4062 40.0156V75.7054C71.9534 75.7054 76.8258 71.7983 76.8258 66.4073C76.8258 59.382 69.311 57.1092 69.0486 57.1092C69.6296 56.9213 75.0642 54.1601 75.0642 48.3933L75.0455 48.3746Z" fill="#006C54"/>
<path d="M60.6934 22.0188H59.2691C31.3649 22.0188 24 31.8804 24 43.9398V72.2099C24 84.2693 31.3649 94.131 59.2691 94.131H60.6559V33.8716C60.7496 33.8716 63.7293 33.8716 64.6476 33.8716C67.6648 33.8716 76.5664 34.3599 79.696 43.3012C81.5325 48.5607 80.1832 53.5573 78.0281 56.2622C81.4763 59.2113 85.0557 65.2223 81.4388 73.074C78.3842 79.686 71.5253 81.7335 66.4279 81.7711V93.9432C89.6283 92.6658 96 83.3865 96 72.1912V43.9211C96 31.8617 88.6351 22 60.7309 22L60.6934 22.0188ZM56.4206 39.9952C56.2894 39.9952 56.1583 39.9952 56.0083 39.9952C54.2093 39.9952 51.2296 39.9952 48.7933 41.0659C46.076 42.2681 44.4456 44.9166 44.3332 48.3353C44.202 52.1297 47.0505 55.154 48.7371 56.6379C52.785 60.1318 57.8074 64.4709 55.8771 72.7923C55.0338 76.3988 51.7543 80.1556 49.7116 81.6959H41.2598C43.1338 80.3435 48.9995 75.2718 49.8803 71.5149C50.911 67.0255 48.8121 64.9405 44.6705 61.3715C40.3228 57.6147 38.0177 52.9562 38.1676 48.279C38.355 42.4183 41.4472 37.6096 46.4321 35.4306C49.9365 33.8903 53.8157 33.9091 56.1395 33.9279C56.2894 33.9279 56.3082 33.9279 56.4581 33.9279V40.014L56.4206 39.9952Z" fill="#006C54"/>
</svg>
