<svg width="120" height="120" viewBox="0 0 120 120" fill="none" xmlns="http://www.w3.org/2000/svg">
<rect width="120" height="120" fill="#C4161C"/>
<path fill-rule="evenodd" clip-rule="evenodd" d="M58.7532 46.9016V41.6727H41.7804V46.9016V52.1258V57.3548H52.1855V62.5884H41.7804V78.2658H58.7532V73.0369H47.0137V67.8174H57.4519V52.1258H47.0137V46.9016H58.7532ZM26 59.9953C26 41.2089 41.2079 26 60.0071 26C78.8064 26 94 41.2089 94 59.9953C94 78.7816 78.7827 94 60.0071 94C41.2315 94 26 78.7769 26 59.9953ZM31.257 59.9953C31.257 44.1381 44.1273 31.2526 60.0024 31.2526C75.8774 31.2526 88.7288 44.1333 88.7288 59.9953C88.7288 75.8572 75.8632 88.7285 60.0024 88.7285C44.1415 88.7285 31.257 75.8572 31.257 59.9953ZM61.384 73.0511V78.2753H78.3332V73.0511V67.8269V62.5979H67.9139V57.3784H78.3332V41.6916H61.384V46.9205H73.1093V52.1542H62.6616V67.8363H73.1093V73.0605H61.384V73.0511Z" fill="white"/>
</svg>
