<svg width="120" height="120" viewBox="0 0 120 120" fill="none" xmlns="http://www.w3.org/2000/svg">
<rect width="120" height="120" fill="#3147A4"/>
<path d="M83.2662 53.0091L64.8942 34.637C61.0789 30.8217 56.5005 31.0565 54.9157 31.35C40.4763 33.7566 29.5 46.259 29.5 61.4028C29.5 78.2487 43.1177 91.8664 59.9049 91.8664C76.2813 91.8664 89.6642 78.777 90.2512 62.518C90.2512 62.3419 90.1925 61.7549 89.7816 61.5202C89.312 61.2267 88.3142 61.3441 88.3142 61.3441H76.5748C76.5748 61.3441 75.4596 61.3441 75.1074 61.5202C74.8726 61.6376 74.5791 61.8723 74.5791 61.8723L60.2571 76.1357C60.0223 76.3704 59.6701 76.3704 59.4354 76.1357L44.9959 61.6963C44.7612 61.4615 44.7612 61.1093 44.9959 60.8745L59.4354 46.4351C59.6701 46.2003 60.0223 46.2003 60.2571 46.4351L73.4639 59.7006C73.4639 59.7006 74.1682 60.3462 74.8139 60.4636C75.4009 60.6397 76.2813 59.994 76.2813 59.994L83.2662 53.0091Z" fill="white"/>
<path fill-rule="evenodd" clip-rule="evenodd" d="M89.9612 43.558L80.1001 33.7556C69.1238 23.1315 56.4453 30.4686 56.4453 30.4686C56.4453 30.4686 61.8454 27.5925 68.7129 34.8709L84.9719 51.2473L89.7851 46.4928C89.7851 46.4928 90.3721 45.7885 90.4894 45.0841C90.6068 44.4384 89.9612 43.558 89.9612 43.558Z" fill="white"/>
</svg>
