<svg width="120" height="120" viewBox="0 0 120 120" fill="none" xmlns="http://www.w3.org/2000/svg">
<rect width="120" height="120" fill="#FFE400"/>
<path d="M82.8458 71.7882C82.2779 67.7669 80.3787 64.3769 77.2081 61.7057C76.739 61.3104 76.2493 60.9419 75.6975 60.5038C76.1527 60.1691 76.5367 59.9108 76.8931 59.6187C79.1578 57.7743 80.8248 55.521 81.9123 52.8319C82.947 50.2776 83.2068 47.6289 82.8366 44.96C82.3813 41.6868 80.9696 38.791 78.6612 36.3378C76.9965 34.5698 75.0583 33.1769 72.7843 32.2693C70.5931 31.3954 68.3468 31 65.9257 31L39.6062 31.0045C39.4246 31.0045 39.2407 30.9955 39.059 31.0157C38.4129 31.0876 38.0336 31.4875 38.006 32.121C37.9968 32.2985 38.006 32.476 38.006 32.6557C38.006 51.174 38.006 69.6922 38.006 88.2104C38.006 88.4913 37.9899 88.7721 38.0106 89.0484C38.0473 89.5359 38.3899 89.8976 38.8843 89.9785C39.0613 90.0077 39.2476 89.9987 39.4292 89.9987H66.6867C69.4849 89.9987 72.1014 89.3113 74.5133 87.9566C77.9691 86.0156 80.4385 83.2299 81.91 79.5815C82.9309 77.0474 83.216 74.4257 82.8435 71.786L82.8458 71.7882ZM61.8974 73.7854H56.9793V47.2717H61.8422C61.8422 47.2717 61.8215 47.2605 61.8422 47.2605C61.8422 47.265 61.8422 47.2695 61.8422 47.2717H61.8974V73.7854Z" fill="#1E1719"/>
</svg>
