<svg width="120" height="120" viewBox="0 0 120 120" fill="none" xmlns="http://www.w3.org/2000/svg">
<rect width="120" height="120" fill="#120063"/>
<path d="M45.7445 81.1562H42.8606L38.3013 86.4618V81.1562H36V92.7302H38.3013V87.4102L43.0098 92.7302H45.8937L40.7711 86.9432L45.7445 81.1562Z" fill="white"/>
<path d="M51.4166 84.4397C50.4489 84.4397 49.6208 84.8538 48.9419 85.4315V81.1562H46.6406V88.7775C46.6406 91.074 48.1572 92.995 51.017 92.995C53.5831 92.995 55.3933 91.2233 55.3933 88.7342C55.3933 86.3799 53.8382 84.4397 51.4214 84.4397H51.4166ZM51.0122 90.9055C49.823 90.9055 48.8553 89.9571 48.8216 88.7775C48.8216 88.7583 48.8216 88.739 48.8216 88.7149C48.8216 88.4646 48.8649 88.2239 48.9419 88.0024C49.2356 87.1454 50.0541 86.5244 51.0122 86.5244C52.2206 86.5244 53.2027 87.5065 53.2027 88.7149C53.2027 89.9234 52.2206 90.9055 51.0122 90.9055Z" fill="white"/>
<path d="M71.6698 84.4375C70.5577 84.4375 69.6911 84.8467 69.0122 85.4534V84.6879H66.7109V92.728H69.0122V88.2217C69.0122 87.2828 69.7729 86.5222 70.7118 86.5222C71.6506 86.5222 72.4113 87.2828 72.4113 88.2217V92.728H74.727V87.5765C74.727 87.5476 74.727 87.5139 74.727 87.4851C74.727 85.7952 73.326 84.4375 71.665 84.4375H71.6698Z" fill="white"/>
<path d="M60.9011 84.4453C58.3061 84.4453 56.4766 86.217 56.4766 88.7061C56.4766 91.0604 58.0461 93.0006 60.4918 93.0006C61.5895 93.0006 62.6439 92.4132 63.2409 91.6189V92.731H65.3255V88.7061H65.3063C65.3159 88.6772 65.3255 88.6628 65.3255 88.6628C65.3255 86.3663 63.7897 84.4453 60.9011 84.4453ZM60.9492 90.8919C59.7408 90.8919 58.7586 89.9097 58.7586 88.7013C58.7586 87.4929 59.7408 86.5107 60.9492 86.5107C62.1576 86.5107 63.1398 87.4929 63.1398 88.7013C63.1398 89.9097 62.1576 90.8919 60.9492 90.8919Z" fill="white"/>
<path d="M83.8415 92.6214L80.3895 88.635L83.7356 84.6438H81.2609L78.3434 88.0958V81.0859H76.0469V92.6214H78.3434V89.1598L81.3139 92.6214H83.8415Z" fill="white"/>
<path d="M74.1774 35.3469L59.917 46.242L45.6565 35.3469L36.0469 28V39.7473V74.4547H45.6565V47.2001L59.917 58.2589L74.1774 47.2001V74.4547H83.7919V39.7473V28L74.1774 35.3469Z" fill="#BCF100"/>
</svg>
