<svg width="16" height="16" viewBox="0 0 16 16" fill="none" xmlns="http://www.w3.org/2000/svg">
<path d="M8 15C11.866 15 15 11.866 15 8C15 4.13401 11.866 1 8 1C4.13401 1 1 4.13401 1 8C1 11.866 4.13401 15 8 15Z" fill="#102043"/>
<path d="M6 6.19753C6.14046 5.79825 6.41769 5.46156 6.78261 5.2471C7.14752 5.03264 7.57656 4.95425 7.99373 5.0258C8.4109 5.09736 8.78929 5.31425 9.06188 5.63806C9.33446 5.96187 9.48365 6.3717 9.48302 6.79497C9.48302 7.98983 7.69073 8.58726 7.69073 8.58726V9.75571" stroke="white" stroke-linecap="round" stroke-linejoin="round"/>
<path d="M7.74219 11.7363H7.74957" stroke="white" stroke-linecap="round" stroke-linejoin="round"/>
</svg>
