<svg width="16" height="16" viewBox="0 0 16 16" fill="none" xmlns="http://www.w3.org/2000/svg">
<path d="M11.6803 6.23294H14.0083L11.8876 4.11094C11.2049 3.42818 10.3544 2.9372 9.42176 2.68734C8.48909 2.43748 7.50709 2.43755 6.57446 2.68755C5.64183 2.93755 4.79146 3.42866 4.10881 4.11152C3.42617 4.79437 2.93532 5.6449 2.68561 6.5776M1.98828 12.0969V9.76894M1.98828 9.76894H4.31628M1.98828 9.76894L4.10828 11.8909C4.79103 12.5737 5.64148 13.0647 6.57414 13.3145C7.5068 13.5644 8.48881 13.5643 9.42143 13.3143C10.3541 13.0643 11.2044 12.5732 11.8871 11.8904C12.5697 11.2075 13.0606 10.357 13.3103 9.42427M14.0083 3.90494V6.2316" stroke="#70747E" stroke-width="1.5" stroke-linecap="round" stroke-linejoin="round"/>
</svg>
