<svg width="16" height="16" viewBox="0 0 16 16" fill="none" xmlns="http://www.w3.org/2000/svg">
<path d="M14.3333 4.1V11.5667C14.3333 11.991 14.1712 12.398 13.8827 12.698C13.5942 12.9981 13.2029 13.1667 12.7949 13.1667H2.53846C2.13044 13.1667 1.73912 12.9981 1.4506 12.698C1.16209 12.398 1 11.991 1 11.5667V4.1M14.3333 4.1C14.3333 3.67565 14.1712 3.26869 13.8827 2.96863C13.5942 2.66857 13.2029 2.5 12.7949 2.5H2.53846C2.13044 2.5 1.73912 2.66857 1.4506 2.96863C1.16209 3.26869 1 3.67565 1 4.1M14.3333 4.1V4.2728C14.3334 4.54597 14.2661 4.8146 14.1381 5.0531C14.01 5.2916 13.8254 5.49203 13.6017 5.63529L8.4735 8.91707C8.23091 9.07247 7.95159 9.15476 7.66667 9.15476C7.38175 9.15476 7.10242 9.07247 6.85983 8.91707L1.73162 5.636C1.50798 5.49274 1.32333 5.29231 1.19526 5.05381C1.06719 4.81531 0.999971 4.54668 1 4.27351V4.1" stroke="#161616" stroke-width="1.5" stroke-linecap="round" stroke-linejoin="round"/>
<path d="M13.5966 5.63672L8.46844 8.9185C8.22585 9.0739 7.94653 9.15618 7.66161 9.15618C7.37669 9.15618 7.09736 9.0739 6.85477 8.9185L1.72656 5.63743" stroke="#161616" stroke-width="1.5" stroke-linecap="round" stroke-linejoin="round"/>
</svg>
