<svg width="16" height="16" viewBox="0 0 16 16" fill="none" xmlns="http://www.w3.org/2000/svg">
<path d="M14.224 4.26406V11.7307C14.224 12.1551 14.0619 12.562 13.7734 12.8621C13.4848 13.1622 13.0935 13.3307 12.6855 13.3307H2.42909C2.02106 13.3307 1.62975 13.1622 1.34123 12.8621C1.05271 12.562 0.890625 12.1551 0.890625 11.7307V4.26406M14.224 4.26406C14.224 3.83972 14.0619 3.43275 13.7734 3.13269C13.4848 2.83263 13.0935 2.66406 12.6855 2.66406H2.42909C2.02106 2.66406 1.62975 2.83263 1.34123 3.13269C1.05271 3.43275 0.890625 3.83972 0.890625 4.26406M14.224 4.26406V4.43686C14.224 4.71003 14.1568 4.97866 14.0287 5.21716C13.9006 5.45566 13.716 5.65609 13.4923 5.79935L8.36413 9.08113C8.12154 9.23653 7.84221 9.31882 7.55729 9.31882C7.27237 9.31882 6.99305 9.23653 6.75045 9.08113L1.62225 5.80006C1.39861 5.6568 1.21395 5.45637 1.08589 5.21787C0.957817 4.97937 0.890596 4.71074 0.890625 4.43757V4.26406" stroke="#161616" stroke-width="1.5" stroke-linecap="round" stroke-linejoin="round"/>
<path d="M13.4873 5.80469L8.35907 9.08646C8.11647 9.24187 7.83715 9.32415 7.55223 9.32415C7.26731 9.32415 6.98799 9.24187 6.74539 9.08646L1.61719 5.8054" stroke="#161616" stroke-width="1.5" stroke-linecap="round" stroke-linejoin="round"/>
</svg>
