<svg width="24" height="24" viewBox="0 0 24 24" fill="none" xmlns="http://www.w3.org/2000/svg">
<mask id="mask0_2033_178177" style="mask-type:alpha" maskUnits="userSpaceOnUse" x="4" y="2" width="16" height="20">
<path d="M6 22H18C19.1046 22 20 21.1046 20 20V8.40053C20 7.86033 19.7815 7.3431 19.3942 6.96654L14.8679 2.56601C14.4946 2.20306 13.9944 2 13.4737 2H6C4.89543 2 4 2.89543 4 4V20C4 21.1046 4.89543 22 6 22Z" fill="#36A859"/>
</mask>
<g mask="url(#mask0_2033_178177)">
<path d="M6 22H18C19.1046 22 20 21.1046 20 20V8.40053C20 7.86033 19.7815 7.3431 19.3942 6.96654L14.8679 2.56601C14.4946 2.20306 13.9944 2 13.4737 2H6C4.89543 2 4 2.89543 4 4V20C4 21.1046 4.89543 22 6 22Z" fill="#356E3E"/>
<path d="M10.5 11H9.01261L11.1176 13.9945L9 17H10.4748L12 14.7569L13.5378 17H15L12.8571 13.9945L14.9874 11H13.5126L12 13.3315L10.5 11Z" fill="white"/>
</g>
</svg>
