<svg width="24" height="24" viewBox="0 0 24 24" fill="none" xmlns="http://www.w3.org/2000/svg">
<mask id="path-1-outside-1_2299_45379" maskUnits="userSpaceOnUse" x="1.60156" y="1.60156" width="21" height="21" fill="black">
<rect fill="white" x="1.60156" y="1.60156" width="21" height="21"/>
<path fill-rule="evenodd" clip-rule="evenodd" d="M10.6678 3.60156C10.1316 3.60156 9.67645 3.97302 9.59291 4.47887L9.39421 5.67442C9.33667 6.02348 9.09535 6.31467 8.77309 6.48546C8.70127 6.52373 8.62945 6.56386 8.5596 6.60492C8.24427 6.78785 7.85964 6.84478 7.51153 6.72065L6.32247 6.29507C6.07849 6.20761 5.81068 6.20567 5.56677 6.2896C5.32285 6.37352 5.11868 6.53785 4.99062 6.75332L3.74356 8.85045C3.61589 9.06567 3.57241 9.31786 3.62085 9.5622C3.66929 9.80655 3.80651 10.0272 4.00813 10.1851L4.99339 10.9578C5.27993 11.1818 5.42418 11.529 5.42029 11.8818C5.41942 11.9611 5.42008 12.0405 5.42227 12.1198C5.43203 12.4735 5.29356 12.8216 5.01074 13.0456L4.03832 13.8175C3.83908 13.9753 3.70537 14.1962 3.66099 14.4408C3.6166 14.6853 3.66442 14.9377 3.79593 15.153L5.07785 17.2502C5.20961 17.4652 5.41641 17.6292 5.66149 17.713C5.90657 17.7967 6.17404 17.7948 6.41634 17.7075L7.5993 17.2819C7.94534 17.1578 8.33092 17.2147 8.64929 17.3976C8.72031 17.4385 8.79215 17.478 8.86476 17.5161C9.18987 17.6879 9.43602 17.9791 9.49937 18.3281L9.71696 19.5237C9.80891 20.0295 10.2702 20.401 10.8064 20.401H13.3354C13.8716 20.401 14.3268 20.0295 14.4103 19.5227L14.608 18.3281C14.6665 17.9791 14.9079 17.6879 15.2291 17.5171C15.3011 17.4786 15.3723 17.4388 15.4426 17.3976C15.7589 17.2147 16.1436 17.1578 16.4907 17.2819L17.6807 17.7075C17.9246 17.7947 18.1922 17.7965 18.4359 17.7126C18.6796 17.6287 18.8836 17.4645 19.0116 17.2492L20.2597 15.1521C20.5231 14.7078 20.4112 14.1441 19.9951 13.8175L19.0089 13.0447C18.7223 12.8207 18.5781 12.4735 18.582 12.1207C18.5829 12.0414 18.5822 11.9621 18.58 11.8827C18.5702 11.529 18.7087 11.1809 18.9925 10.9569L19.9639 10.1851C20.1632 10.0272 20.2969 9.80633 20.3413 9.56178C20.3856 9.31722 20.3378 9.06483 20.2063 8.84951L18.9254 6.75239C18.7936 6.53709 18.5866 6.37295 18.3413 6.2892C18.096 6.20545 17.8283 6.20753 17.5859 6.29507L16.4029 6.72065C16.0579 6.84478 15.6713 6.78785 15.3539 6.60492C15.2824 6.56386 15.2109 6.52373 15.1385 6.4864C14.8133 6.31467 14.5672 6.02348 14.5029 5.67442L14.2853 4.47887C14.1933 3.97302 13.732 3.60156 13.1958 3.60156H10.6678ZM14.827 14.8284C15.5771 14.0783 15.9986 13.0609 15.9986 12C15.9986 10.9391 15.5771 9.92172 14.827 9.17157C14.0768 8.42143 13.0594 8 11.9986 8C10.9377 8 9.92027 8.42143 9.17013 9.17157C8.41998 9.92172 7.99856 10.9391 7.99856 12C7.99856 13.0609 8.41998 14.0783 9.17013 14.8284C9.92027 15.5786 10.9377 16 11.9986 16C13.0594 16 14.0768 15.5786 14.827 14.8284Z"/>
</mask>
<path fill-rule="evenodd" clip-rule="evenodd" d="M10.6678 3.60156C10.1316 3.60156 9.67645 3.97302 9.59291 4.47887L9.39421 5.67442C9.33667 6.02348 9.09535 6.31467 8.77309 6.48546C8.70127 6.52373 8.62945 6.56386 8.5596 6.60492C8.24427 6.78785 7.85964 6.84478 7.51153 6.72065L6.32247 6.29507C6.07849 6.20761 5.81068 6.20567 5.56677 6.2896C5.32285 6.37352 5.11868 6.53785 4.99062 6.75332L3.74356 8.85045C3.61589 9.06567 3.57241 9.31786 3.62085 9.5622C3.66929 9.80655 3.80651 10.0272 4.00813 10.1851L4.99339 10.9578C5.27993 11.1818 5.42418 11.529 5.42029 11.8818C5.41942 11.9611 5.42008 12.0405 5.42227 12.1198C5.43203 12.4735 5.29356 12.8216 5.01074 13.0456L4.03832 13.8175C3.83908 13.9753 3.70537 14.1962 3.66099 14.4408C3.6166 14.6853 3.66442 14.9377 3.79593 15.153L5.07785 17.2502C5.20961 17.4652 5.41641 17.6292 5.66149 17.713C5.90657 17.7967 6.17404 17.7948 6.41634 17.7075L7.5993 17.2819C7.94534 17.1578 8.33092 17.2147 8.64929 17.3976C8.72031 17.4385 8.79215 17.478 8.86476 17.5161C9.18987 17.6879 9.43602 17.9791 9.49937 18.3281L9.71696 19.5237C9.80891 20.0295 10.2702 20.401 10.8064 20.401H13.3354C13.8716 20.401 14.3268 20.0295 14.4103 19.5227L14.608 18.3281C14.6665 17.9791 14.9079 17.6879 15.2291 17.5171C15.3011 17.4786 15.3723 17.4388 15.4426 17.3976C15.7589 17.2147 16.1436 17.1578 16.4907 17.2819L17.6807 17.7075C17.9246 17.7947 18.1922 17.7965 18.4359 17.7126C18.6796 17.6287 18.8836 17.4645 19.0116 17.2492L20.2597 15.1521C20.5231 14.7078 20.4112 14.1441 19.9951 13.8175L19.0089 13.0447C18.7223 12.8207 18.5781 12.4735 18.582 12.1207C18.5829 12.0414 18.5822 11.9621 18.58 11.8827C18.5702 11.529 18.7087 11.1809 18.9925 10.9569L19.9639 10.1851C20.1632 10.0272 20.2969 9.80633 20.3413 9.56178C20.3856 9.31722 20.3378 9.06483 20.2063 8.84951L18.9254 6.75239C18.7936 6.53709 18.5866 6.37295 18.3413 6.2892C18.096 6.20545 17.8283 6.20753 17.5859 6.29507L16.4029 6.72065C16.0579 6.84478 15.6713 6.78785 15.3539 6.60492C15.2824 6.56386 15.2109 6.52373 15.1385 6.4864C14.8133 6.31467 14.5672 6.02348 14.5029 5.67442L14.2853 4.47887C14.1933 3.97302 13.732 3.60156 13.1958 3.60156H10.6678ZM14.827 14.8284C15.5771 14.0783 15.9986 13.0609 15.9986 12C15.9986 10.9391 15.5771 9.92172 14.827 9.17157C14.0768 8.42143 13.0594 8 11.9986 8C10.9377 8 9.92027 8.42143 9.17013 9.17157C8.41998 9.92172 7.99856 10.9391 7.99856 12C7.99856 13.0609 8.41998 14.0783 9.17013 14.8284C9.92027 15.5786 10.9377 16 11.9986 16C13.0594 16 14.0768 15.5786 14.827 14.8284Z" fill="white"/>
<path d="M9.59291 4.47887L11.5659 4.80677L11.5662 4.80475L9.59291 4.47887ZM9.39421 5.67442L7.42127 5.34652L7.42085 5.3491L9.39421 5.67442ZM8.77309 6.48546L7.83652 4.71831L7.83273 4.72032L8.77309 6.48546ZM8.5596 6.60492L9.56319 8.33494L9.57318 8.32907L8.5596 6.60492ZM7.51153 6.72065L6.83756 8.60368L6.8398 8.60447L7.51153 6.72065ZM6.32247 6.29507L5.64761 8.17777L5.64851 8.17809L6.32247 6.29507ZM5.56677 6.2896L6.21747 8.18078L6.21747 8.18078L5.56677 6.2896ZM4.99062 6.75332L6.70965 7.77554L6.70989 7.77514L4.99062 6.75332ZM3.74356 8.85045L2.02453 7.82822L2.02343 7.83008L3.74356 8.85045ZM3.62085 9.5622L1.65903 9.95111L1.65903 9.95111L3.62085 9.5622ZM4.00813 10.1851L5.24243 8.61138L5.24092 8.61019L4.00813 10.1851ZM4.99339 10.9578L3.75908 12.5315L3.76165 12.5335L4.99339 10.9578ZM5.42029 11.8818L3.42041 11.8597L3.42041 11.86L5.42029 11.8818ZM5.42227 12.1198L3.42302 12.1748L3.42303 12.175L5.42227 12.1198ZM5.01074 13.0456L3.76901 11.4778L3.76735 11.4791L5.01074 13.0456ZM4.03832 13.8175L5.2804 15.385L5.28171 15.384L4.03832 13.8175ZM3.66099 14.4408L5.62884 14.7979L5.62884 14.7979L3.66099 14.4408ZM3.79593 15.153L2.08912 16.1955L2.08949 16.1961L3.79593 15.153ZM5.07785 17.2502L3.37141 18.2933L3.3724 18.2949L5.07785 17.2502ZM5.66149 17.713L6.30812 15.8204H6.30812L5.66149 17.713ZM6.41634 17.7075L5.73929 15.8256L5.7385 15.8258L6.41634 17.7075ZM7.5993 17.2819L6.92401 15.3993L6.92225 15.4L7.5993 17.2819ZM8.64929 17.3976L9.64624 15.6638L9.64567 15.6635L8.64929 17.3976ZM8.86476 17.5161L9.7989 15.7477L9.79541 15.7459L8.86476 17.5161ZM9.49937 18.3281L7.53151 18.6852L7.53169 18.6862L9.49937 18.3281ZM9.71696 19.5237L11.6847 19.166L11.6846 19.1655L9.71696 19.5237ZM14.4103 19.5227L12.4371 19.1961L12.4369 19.1975L14.4103 19.5227ZM14.608 18.3281L12.6356 17.9974L12.6349 18.0015L14.608 18.3281ZM15.2291 17.5171L16.1679 19.2831L16.1723 19.2807L15.2291 17.5171ZM15.4426 17.3976L14.4414 15.6663L14.4329 15.6712L15.4426 17.3976ZM16.4907 17.2819L17.1642 15.3987L17.1641 15.3987L16.4907 17.2819ZM17.6807 17.7075L17.0073 19.5907L17.0073 19.5907L17.6807 17.7075ZM18.4359 17.7126L19.087 19.6036L19.087 19.6036L18.4359 17.7126ZM19.0116 17.2492L17.2929 16.2264L17.2927 16.2268L19.0116 17.2492ZM20.2597 15.1521L21.9783 16.1749L21.9799 16.1722L20.2597 15.1521ZM19.9951 13.8175L21.2301 12.2443L21.2286 12.2432L19.9951 13.8175ZM19.0089 13.0447L20.2424 11.4704L20.2406 11.469L19.0089 13.0447ZM18.582 12.1207L16.5821 12.0979L16.5821 12.0987L18.582 12.1207ZM18.58 11.8827L16.5807 11.9379L16.5808 11.9388L18.58 11.8827ZM18.9925 10.9569L20.2316 12.5268L20.2366 12.5228L18.9925 10.9569ZM19.9639 10.1851L18.7218 8.61751L18.7198 8.61916L19.9639 10.1851ZM20.3413 9.56178L22.3091 9.91892V9.91892L20.3413 9.56178ZM20.2063 8.84951L21.9131 7.80702L21.9131 7.80699L20.2063 8.84951ZM18.9254 6.75239L20.6322 5.70986L20.6312 5.70823L18.9254 6.75239ZM18.3413 6.2892L18.9875 4.39648L18.9875 4.39647L18.3413 6.2892ZM17.5859 6.29507L18.2629 8.17699L18.2652 8.17618L17.5859 6.29507ZM16.4029 6.72065L17.0799 8.6026L17.08 8.60257L16.4029 6.72065ZM15.3539 6.60492L16.3526 4.87211L16.3499 4.87055L15.3539 6.60492ZM15.1385 6.4864L14.2043 8.25484C14.2103 8.25802 14.2164 8.26116 14.2224 8.26428L15.1385 6.4864ZM14.5029 5.67442L12.5352 6.03255L12.536 6.03687L14.5029 5.67442ZM14.2853 4.47887L12.3175 4.83655L12.3176 4.83699L14.2853 4.47887ZM14.827 9.17157L13.4128 10.5858V10.5858L14.827 9.17157ZM9.17013 9.17157L10.5843 10.5858L10.5843 10.5858L9.17013 9.17157ZM9.17013 14.8284L10.5843 13.4142H10.5843L9.17013 14.8284ZM11.5662 4.80475C11.4795 5.32957 11.0431 5.60156 10.6678 5.60156V1.60156C9.22012 1.60156 7.87339 2.61647 7.61964 4.15298L11.5662 4.80475ZM11.3671 6.00232L11.5658 4.80677L7.61998 4.15096L7.42127 5.34652L11.3671 6.00232ZM9.70967 8.25261C10.4728 7.84819 11.1896 7.07902 11.3676 5.99975L7.42085 5.3491C7.48369 4.96794 7.71795 4.78115 7.83652 4.71831L9.70967 8.25261ZM9.57318 8.32907C9.61787 8.30279 9.66523 8.2763 9.71345 8.2506L7.83273 4.72032C7.73731 4.77116 7.64103 4.82493 7.54602 4.88078L9.57318 8.32907ZM6.8398 8.60447C7.81792 8.95325 8.8135 8.7698 9.56317 8.33491L7.55603 4.87494C7.67504 4.8059 7.90136 4.73631 8.18327 4.83684L6.8398 8.60447ZM5.64851 8.17809L6.83756 8.60368L8.1855 4.83763L6.99644 4.41205L5.64851 8.17809ZM6.21747 8.18078C6.02917 8.24557 5.82943 8.24294 5.64761 8.17777L6.99734 4.41237C6.32755 4.17228 5.5922 4.16577 4.91607 4.39841L6.21747 8.18078ZM6.70989 7.77514C6.58836 7.97962 6.40721 8.1155 6.21747 8.18078L4.91607 4.39841C4.2385 4.63154 3.649 5.09609 3.27135 5.7315L6.70989 7.77514ZM5.46259 9.87267L6.70965 7.77554L3.27159 5.73109L2.02453 7.82822L5.46259 9.87267ZM5.58267 9.17329C5.63057 9.41488 5.58622 9.66425 5.46369 9.87081L2.02343 7.83008C1.64556 8.46709 1.51426 9.22083 1.65903 9.95111L5.58267 9.17329ZM5.24092 8.61019C5.40498 8.73862 5.53516 8.93363 5.58267 9.17329L1.65903 9.95111C1.80342 10.6795 2.20804 11.3159 2.77534 11.7599L5.24092 8.61019ZM6.22769 9.38415L5.24243 8.61138L2.77383 11.7588L3.75909 12.5315L6.22769 9.38415ZM7.42017 11.9039C7.43007 11.0068 7.06167 10.0361 6.22512 9.38214L3.76165 12.5335C3.49819 12.3276 3.4183 12.0512 3.42041 11.8597L7.42017 11.9039ZM7.42151 12.0648C7.42003 12.011 7.41958 11.9573 7.42017 11.9036L3.42041 11.86C3.41926 11.9649 3.42014 12.0699 3.42302 12.1748L7.42151 12.0648ZM6.25246 14.6135C7.09557 13.9457 7.4462 12.9592 7.4215 12.0646L3.42303 12.175C3.41786 11.9879 3.49155 11.6975 3.76901 11.4778L6.25246 14.6135ZM5.28171 15.384L6.25413 14.6122L3.76735 11.4791L2.79493 12.251L5.28171 15.384ZM5.62884 14.7979C5.58428 15.0434 5.45261 15.2486 5.2804 15.385L2.79624 12.2499C2.22554 12.7021 1.82646 13.349 1.69313 14.0836L5.62884 14.7979ZM5.50275 14.1105C5.62273 14.307 5.67352 14.5517 5.62884 14.7979L1.69313 14.0836C1.55969 14.8189 1.70612 15.5684 2.08912 16.1955L5.50275 14.1105ZM6.78429 16.2071L5.50237 14.1099L2.08949 16.1961L3.37141 18.2933L6.78429 16.2071ZM6.30812 15.8204C6.49112 15.8829 6.66466 16.0118 6.78331 16.2054L3.3724 18.2949C3.75455 18.9187 4.3417 19.3756 5.01486 19.6056L6.30812 15.8204ZM5.7385 15.8258C5.92625 15.7582 6.12592 15.7581 6.30812 15.8204L5.01486 19.6056C5.68722 19.8353 6.42183 19.8313 7.09417 19.5891L5.7385 15.8258ZM6.92225 15.4L5.73929 15.8256L7.09338 19.5894L8.27634 19.1638L6.92225 15.4ZM9.64567 15.6635C8.90079 15.2355 7.9053 15.0473 6.92401 15.3993L8.27458 19.1644C7.98538 19.2682 7.76104 19.1939 7.65291 19.1318L9.64567 15.6635ZM9.79541 15.7459C9.74513 15.7194 9.69539 15.6921 9.64624 15.6638L7.65234 19.1314C7.74523 19.1848 7.83918 19.2365 7.93411 19.2864L9.79541 15.7459ZM11.4672 17.971C11.2732 16.9016 10.5533 16.1462 9.79889 15.7477L7.93063 19.2846C7.82644 19.2296 7.59888 19.0565 7.53151 18.6852L11.4672 17.971ZM11.6846 19.1655L11.467 17.97L7.53169 18.6862L7.74929 19.8818L11.6846 19.1655ZM10.8064 18.401C11.1752 18.401 11.593 18.6614 11.6847 19.166L7.74921 19.8814C8.02482 21.3976 9.36525 22.401 10.8064 22.401V18.401ZM13.3354 18.401H10.8064V22.401H13.3354V18.401ZM12.4369 19.1975C12.5232 18.674 12.9592 18.401 13.3354 18.401V22.401C14.7841 22.401 16.1303 21.385 16.3837 19.848L12.4369 19.1975ZM12.6349 18.0015L12.4371 19.1961L16.3834 19.8493L16.5812 18.6547L12.6349 18.0015ZM14.2904 15.7511C13.5288 16.1559 12.8156 16.9234 12.6356 17.9974L16.5805 18.6588C16.5175 19.0348 16.2869 19.2198 16.1679 19.2831L14.2904 15.7511ZM14.4329 15.6712C14.3845 15.6995 14.3355 15.7269 14.286 15.7534L16.1723 19.2807C16.2667 19.2302 16.3601 19.178 16.4524 19.124L14.4329 15.6712ZM17.1641 15.3987C16.1846 15.0484 15.1891 15.2339 14.4414 15.6663L16.4439 19.1289C16.3288 19.1955 16.1026 19.2671 15.8173 19.1651L17.1641 15.3987ZM18.3542 15.8243L17.1642 15.3987L15.8172 19.1651L17.0073 19.5907L18.3542 15.8243ZM17.7848 15.8215C17.9729 15.7568 18.1725 15.7593 18.3542 15.8243L17.0073 19.5907C17.6767 19.8301 18.4115 19.8362 19.087 19.6036L17.7848 15.8215ZM17.2927 16.2268C17.4142 16.0226 17.5952 15.8868 17.7848 15.8215L19.087 19.6036C19.764 19.3705 20.353 18.9064 20.7306 18.2716L17.2927 16.2268ZM18.541 14.1293L17.2929 16.2264L20.7303 18.272L21.9783 16.1749L18.541 14.1293ZM18.7601 15.3906C18.4167 15.121 18.2712 14.5842 18.5394 14.132L21.9799 16.1722C22.775 14.8315 22.4056 13.1672 21.2301 12.2443L18.7601 15.3906ZM17.7753 14.619L18.7615 15.3918L21.2286 12.2432L20.2424 11.4704L17.7753 14.619ZM16.5821 12.0987C16.5722 12.9957 16.9406 13.9665 17.7771 14.6204L20.2406 11.469C20.504 11.6749 20.5839 11.9513 20.5818 12.1428L16.5821 12.0987ZM16.5808 11.9388C16.5822 11.9918 16.5827 12.0449 16.5821 12.0979L20.5818 12.1435C20.583 12.0379 20.5821 11.9323 20.5792 11.8267L16.5808 11.9388ZM17.7534 9.38699C16.9072 10.0549 16.556 11.0429 16.5807 11.9379L20.5792 11.8276C20.5844 12.0152 20.5102 12.3069 20.2316 12.5268L17.7534 9.38699ZM18.7198 8.61916L17.7483 9.391L20.2366 12.5228L21.2081 11.751L18.7198 8.61916ZM18.3734 9.20464C18.418 8.95911 18.5496 8.75396 18.7218 8.61751L21.206 11.7526C21.7767 11.3004 22.1758 10.6536 22.3091 9.91892L18.3734 9.20464ZM18.4995 9.89201C18.3795 9.69557 18.3287 9.45083 18.3734 9.20464L22.3091 9.91892C22.4426 9.18361 22.2961 8.43409 21.9131 7.80702L18.4995 9.89201ZM17.2186 7.79491L18.4995 9.89204L21.9131 7.80699L20.6322 5.70986L17.2186 7.79491ZM17.6951 8.18193C17.5119 8.1194 17.3383 7.99044 17.2196 7.79655L20.6312 5.70823C20.2489 5.08373 19.6612 4.6265 18.9875 4.39648L17.6951 8.18193ZM18.2652 8.17618C18.0773 8.24402 17.8774 8.24419 17.6951 8.18193L18.9875 4.39647C18.3146 4.16672 17.5793 4.17104 16.9066 4.41395L18.2652 8.17618ZM17.08 8.60257L18.2629 8.17699L16.9089 4.41315L15.7259 4.83874L17.08 8.60257ZM14.3552 8.33774C15.1007 8.76738 16.0988 8.95551 17.0799 8.6026L15.726 4.83871C16.0169 4.73406 16.2419 4.80833 16.3526 4.87211L14.3552 8.33774ZM14.2224 8.26428C14.2546 8.28088 14.2955 8.30342 14.358 8.3393L16.3499 4.87055C16.2693 4.8243 16.1672 4.76657 16.0545 4.70851L14.2224 8.26428ZM12.536 6.03687C12.7322 7.10174 13.4492 7.85599 14.2043 8.25484L16.0726 4.71795C16.1775 4.77335 16.4022 4.94522 16.4698 5.31198L12.536 6.03687ZM12.3176 4.83699L12.5352 6.03255L16.4705 5.3163L16.253 4.12074L12.3176 4.83699ZM13.1958 5.60156C12.8271 5.60156 12.4092 5.3411 12.3175 4.83655L16.253 4.12119C15.9774 2.60493 14.637 1.60156 13.1958 1.60156V5.60156ZM10.6678 5.60156H13.1958V1.60156H10.6678V5.60156ZM13.9986 12C13.9986 12.5304 13.7878 13.0391 13.4128 13.4142L16.2412 16.2426C17.3664 15.1174 17.9986 13.5913 17.9986 12H13.9986ZM13.4128 10.5858C13.7878 10.9609 13.9986 11.4696 13.9986 12H17.9986C17.9986 10.4087 17.3664 8.88258 16.2412 7.75736L13.4128 10.5858ZM11.9986 10C12.529 10 13.0377 10.2107 13.4128 10.5858L16.2412 7.75736C15.116 6.63214 13.5899 6 11.9986 6V10ZM10.5843 10.5858C10.9594 10.2107 11.4681 10 11.9986 10V6C10.4073 6 8.88113 6.63214 7.75591 7.75736L10.5843 10.5858ZM9.99856 12C9.99856 11.4696 10.2093 10.9609 10.5843 10.5858L7.75591 7.75736C6.6307 8.88258 5.99856 10.4087 5.99856 12H9.99856ZM10.5843 13.4142C10.2093 13.0391 9.99856 12.5304 9.99856 12H5.99856C5.99856 13.5913 6.63069 15.1174 7.75592 16.2426L10.5843 13.4142ZM11.9986 14C11.4681 14 10.9594 13.7893 10.5843 13.4142L7.75591 16.2426C8.88113 17.3679 10.4073 18 11.9986 18V14ZM13.4128 13.4142C13.0377 13.7893 12.529 14 11.9986 14V18C13.5899 18 15.116 17.3679 16.2412 16.2426L13.4128 13.4142Z" fill="#161616" mask="url(#path-1-outside-1_2299_45379)"/>
</svg>
