<svg width="24" height="24" viewBox="0 0 24 24" fill="none" xmlns="http://www.w3.org/2000/svg">
<mask id="mask0_2033_178176" style="mask-type:alpha" maskUnits="userSpaceOnUse" x="4" y="2" width="16" height="20">
<path d="M6 22H18C19.1046 22 20 21.1046 20 20V8.40053C20 7.86033 19.7815 7.3431 19.3942 6.96654L14.8679 2.56601C14.4946 2.20306 13.9944 2 13.4737 2H6C4.89543 2 4 2.89543 4 4V20C4 21.1046 4.89543 22 6 22Z" fill="#36A859"/>
</mask>
<g mask="url(#mask0_2033_178176)">
<path d="M6 22H18C19.1046 22 20 21.1046 20 20V8.40053C20 7.86033 19.7815 7.3431 19.3942 6.96654L14.8679 2.56601C14.4946 2.20306 13.9944 2 13.4737 2H6C4.89543 2 4 2.89543 4 4V20C4 21.1046 4.89543 22 6 22Z" fill="#2763F6"/>
<path fill-rule="evenodd" clip-rule="evenodd" d="M14.137 11.2335C13.9409 10.9222 13.487 10.9222 13.2909 11.2335L10.8066 15.1778L9.76044 13.5923C9.56282 13.2928 9.12339 13.2928 8.92577 13.5923L7.0835 16.3844C6.86415 16.7168 7.10256 17.1597 7.50083 17.1597H10.418C10.4328 17.161 10.4477 17.1617 10.463 17.1617H16.965C17.3585 17.1617 17.5977 16.7281 17.388 16.3952L14.137 11.2335Z" fill="#E3EBFF"/>
<circle cx="8.5" cy="8.5" r="1.5" fill="#E3EBFF"/>
</g>
</svg>
