<svg width="20" height="20" viewBox="0 0 20 20" fill="none" xmlns="http://www.w3.org/2000/svg">
<path fill-rule="evenodd" clip-rule="evenodd" d="M10 19C13.3137 19 16 16.3137 16 13C16 9.68629 13.3137 7 10 7C6.68629 7 4 9.68629 4 13C4 16.3137 6.68629 19 10 19ZM9.99375 15.4016C11.3192 15.4016 12.3938 14.327 12.3938 13.0016C12.3938 11.6761 11.3192 10.6016 9.99375 10.6016C8.66827 10.6016 7.59375 11.6761 7.59375 13.0016C7.59375 14.327 8.66827 15.4016 9.99375 15.4016Z" fill="#161616"/>
<path d="M10 1L13 8H7L10 1Z" fill="#161616"/>
</svg>
