<svg width="218" height="218" viewBox="0 0 218 218" fill="none" xmlns="http://www.w3.org/2000/svg">
<g filter="url(#filter0_f_1095_23268)">
<ellipse cx="108.981" cy="146.881" rx="69.6938" ry="30.2601" transform="rotate(7.30935 108.981 146.881)" fill="#6592FF" fill-opacity="0.5"/>
</g>
<g filter="url(#filter1_b_1095_23268)">
<rect x="90.7188" y="3.13281" width="100" height="110" rx="30" transform="rotate(16 90.7188 3.13281)" fill="#163AF5"/>
<rect x="91.4044" y="4.36971" width="98" height="108" rx="29" transform="rotate(16 91.4044 4.36971)" stroke="url(#paint0_linear_1095_23268)" stroke-width="2" stroke-linecap="round" stroke-linejoin="round"/>
</g>
<g filter="url(#filter2_b_1095_23268)">
<rect x="27" y="48" width="117" height="117" rx="30" fill="#6685FE" fill-opacity="0.3"/>
<rect x="27.75" y="48.75" width="115.5" height="115.5" rx="29.25" stroke="url(#paint1_linear_1095_23268)" stroke-width="1.5" stroke-linecap="round" stroke-linejoin="round"/>
</g>
<g filter="url(#filter3_b_1095_23268)">
<path fill-rule="evenodd" clip-rule="evenodd" d="M106.413 88.0401C108.282 89.6292 108.537 92.4665 106.983 94.3773L82.5901 124.377C81.7886 125.363 80.6141 125.952 79.3614 125.997C78.1087 126.042 76.8966 125.539 76.0295 124.613L65.2226 113.074C63.5416 111.28 63.6015 108.431 65.3563 106.712C67.1112 104.993 69.8965 105.054 71.5774 106.849L78.9751 114.747L100.217 88.6229C101.771 86.712 104.545 86.4511 106.413 88.0401Z" fill="white"/>
</g>
<defs>
<filter id="filter0_f_1095_23268" x="0.742188" y="76.5781" width="216.477" height="140.609" filterUnits="userSpaceOnUse" color-interpolation-filters="sRGB">
<feFlood flood-opacity="0" result="BackgroundImageFix"/>
<feBlend mode="normal" in="SourceGraphic" in2="BackgroundImageFix" result="shape"/>
<feGaussianBlur stdDeviation="19.5" result="effect1_foregroundBlur_1095_23268"/>
</filter>
<filter id="filter1_b_1095_23268" x="52.5" y="-4.76562" width="142.242" height="149.102" filterUnits="userSpaceOnUse" color-interpolation-filters="sRGB">
<feFlood flood-opacity="0" result="BackgroundImageFix"/>
<feGaussianBlur in="BackgroundImageFix" stdDeviation="7.5"/>
<feComposite in2="SourceAlpha" operator="in" result="effect1_backgroundBlur_1095_23268"/>
<feBlend mode="normal" in="SourceGraphic" in2="effect1_backgroundBlur_1095_23268" result="shape"/>
</filter>
<filter id="filter2_b_1095_23268" x="10" y="31" width="151" height="151" filterUnits="userSpaceOnUse" color-interpolation-filters="sRGB">
<feFlood flood-opacity="0" result="BackgroundImageFix"/>
<feGaussianBlur in="BackgroundImageFix" stdDeviation="8.5"/>
<feComposite in2="SourceAlpha" operator="in" result="effect1_backgroundBlur_1095_23268"/>
<feBlend mode="normal" in="SourceGraphic" in2="effect1_backgroundBlur_1095_23268" result="shape"/>
</filter>
<filter id="filter3_b_1095_23268" x="60" y="83" width="52" height="47" filterUnits="userSpaceOnUse" color-interpolation-filters="sRGB">
<feFlood flood-opacity="0" result="BackgroundImageFix"/>
<feGaussianBlur in="BackgroundImageFix" stdDeviation="2"/>
<feComposite in2="SourceAlpha" operator="in" result="effect1_backgroundBlur_1095_23268"/>
<feBlend mode="normal" in="SourceGraphic" in2="effect1_backgroundBlur_1095_23268" result="shape"/>
</filter>
<linearGradient id="paint0_linear_1095_23268" x1="111.231" y1="105.24" x2="191.462" y2="48.8572" gradientUnits="userSpaceOnUse">
<stop stop-color="white" stop-opacity="0.79"/>
<stop offset="1" stop-color="white" stop-opacity="0"/>
</linearGradient>
<linearGradient id="paint1_linear_1095_23268" x1="50.9993" y1="156.605" x2="138.776" y2="88.751" gradientUnits="userSpaceOnUse">
<stop stop-color="white" stop-opacity="0.79"/>
<stop offset="1" stop-color="white" stop-opacity="0"/>
</linearGradient>
</defs>
</svg>
