<svg width="199" height="198" viewBox="0 0 199 198" fill="none" xmlns="http://www.w3.org/2000/svg">
<g filter="url(#filter0_f_3152_333868)">
<ellipse cx="100.5" cy="146" rx="68.5" ry="22" fill="#6592FF" fill-opacity="0.3"/>
</g>
<path fill-rule="evenodd" clip-rule="evenodd" d="M75.7969 101.159L114.352 168.956L125.325 142.969L152.329 146.73L112.551 79.9844L75.7969 101.159Z" fill="#163AF5"/>
<path fill-rule="evenodd" clip-rule="evenodd" d="M115.102 101.159L76.5461 168.956L65.5731 142.969L38.5691 146.73L78.347 79.9844L115.102 101.159Z" fill="#163AF5"/>
<mask id="mask0_3152_333868" style="mask-type:luminance" maskUnits="userSpaceOnUse" x="37" y="86" width="117" height="84">
<path fill-rule="evenodd" clip-rule="evenodd" d="M95.7546 135.581L76.2193 169.522L64.8429 143.658L37.9531 147.796L67.0501 97.7932C72.9111 87.7209 85.5539 84.1 95.7743 89.2566C105.799 84.2948 118.163 87.8569 123.914 97.7398L153.04 147.793L126.15 143.655L114.774 169.519L95.7546 135.581Z" fill="white"/>
</mask>
<g mask="url(#mask0_3152_333868)">
<g filter="url(#filter1_f_3152_333868)">
<path fill-rule="evenodd" clip-rule="evenodd" d="M133.731 114.109C131.678 116.163 130.824 125.134 128.475 126.843C126.136 128.545 121.059 125.836 118.464 127.162C115.895 128.473 115.113 134.179 112.333 135.083C109.598 135.97 105.617 131.822 102.715 132.275C99.8906 132.719 97.3821 137.904 94.4302 137.904C91.4808 137.904 88.9699 132.719 86.145 132.275C83.243 131.819 79.2598 135.97 76.5272 135.083C73.7447 134.179 72.9625 128.473 70.3943 127.159C67.7986 125.834 62.7219 128.545 60.3828 126.84C58.0338 125.131 59.0501 119.462 57 117.409L133.731 114.109Z" stroke="#0B1573" stroke-width="24.3778" style="mix-blend-mode:multiply"/>
</g>
</g>
<g filter="url(#filter2_b_3152_333868)">
<path fill-rule="evenodd" clip-rule="evenodd" d="M152.5 78.4766C152.5 81.4327 147.311 83.9448 146.865 86.7762C146.408 89.6799 150.564 93.6688 149.676 96.4054C148.771 99.1919 143.058 99.9752 141.743 102.547C140.416 105.147 143.13 110.231 141.424 112.573C139.713 114.926 134.037 113.908 131.984 115.961C129.929 118.016 130.946 123.692 128.594 125.403C126.252 127.107 121.168 124.395 118.568 125.722C115.996 127.034 115.213 132.747 112.429 133.653C109.69 134.541 105.703 130.387 102.797 130.841C99.9682 131.285 97.4561 136.477 94.5 136.477C91.5464 136.477 89.0318 131.285 86.2029 130.841C83.2966 130.385 79.3077 134.541 76.5711 133.653C73.7846 132.747 73.0013 127.034 70.4294 125.72C67.83 124.393 62.7459 127.107 60.4035 125.4C58.0511 123.689 59.0689 118.014 57.0158 115.958C54.9602 113.908 49.2874 114.923 47.5736 112.571C45.8698 110.228 48.5815 105.144 47.2543 102.545C45.9422 99.9727 40.2295 99.1894 39.3239 96.4054C38.4358 93.6663 42.5919 89.6799 42.1354 86.7762C41.6913 83.9448 36.5 81.4327 36.5 78.4766C36.5 75.5204 41.6913 73.0083 42.1354 70.1769C42.5919 67.2732 38.4358 63.2843 39.3264 60.5477C40.2295 57.7612 45.9422 56.9779 47.2568 54.4059C48.584 51.8065 45.8698 46.7225 47.5761 44.38C49.2874 42.0276 54.9627 43.0454 57.0183 40.9923C59.0714 38.9368 58.0535 33.264 60.406 31.5502C62.7484 29.8464 67.8325 32.558 70.4319 31.2334C73.0038 29.9187 73.7871 24.206 76.5736 23.3005C79.3102 22.4124 83.2966 26.5684 86.2029 26.1119C89.0318 25.6679 91.5464 20.4766 94.5 20.4766C97.4561 20.4766 99.9682 25.6679 102.8 26.1119C105.703 26.5684 109.692 22.4124 112.429 23.3005C115.215 24.206 115.999 29.9187 118.571 31.2334C121.17 32.5605 126.254 29.8464 128.597 31.5527C130.951 33.264 129.931 38.9393 131.987 40.9948C134.04 43.0479 139.713 42.0301 141.426 44.3825C143.13 46.725 140.419 51.809 141.746 54.4084C143.058 56.9804 148.771 57.7637 149.676 60.5477C150.564 63.2868 146.408 67.2732 146.865 70.1794C147.311 73.0083 152.5 75.5204 152.5 78.4766Z" fill="#6592FF" fill-opacity="0.35"/>
<path d="M150.152 96.5598L150.152 96.56C149.879 97.3986 149.258 98.0474 148.537 98.5809C147.815 99.1149 146.938 99.5717 146.089 100.003C146.004 100.046 145.92 100.089 145.836 100.131C145.062 100.523 144.32 100.898 143.683 101.313C142.974 101.775 142.458 102.248 142.189 102.775C141.915 103.309 141.833 104.011 141.873 104.858C141.909 105.629 142.042 106.463 142.18 107.331C142.193 107.413 142.206 107.495 142.22 107.578C142.368 108.518 142.514 109.494 142.507 110.388C142.5 111.281 142.343 112.16 141.828 112.867M150.152 96.5598L141.424 112.573M150.152 96.5598C150.42 95.7316 150.295 94.85 150.023 94.0021C149.751 93.1532 149.31 92.2723 148.877 91.4257C148.842 91.3573 148.807 91.2892 148.773 91.2212C148.369 90.4329 147.98 89.674 147.704 88.9443C147.404 88.1495 147.264 87.453 147.359 86.8538M150.152 96.5598L149.676 96.4054C150.138 94.9812 149.234 93.2177 148.325 91.4446C147.488 89.8107 146.646 88.1687 146.865 86.7762M141.828 112.867L141.424 112.573M141.828 112.867C141.828 112.867 141.828 112.867 141.828 112.867L141.424 112.573M141.828 112.867C141.312 113.577 140.522 113.998 139.673 114.281C138.824 114.563 137.85 114.726 136.91 114.873C136.823 114.887 136.737 114.9 136.65 114.914C135.786 115.048 134.956 115.178 134.216 115.379C133.399 115.6 132.759 115.893 132.338 116.314C131.916 116.737 131.623 117.376 131.401 118.194C131.199 118.935 131.07 119.766 130.935 120.631C130.921 120.716 130.908 120.802 130.894 120.888C130.747 121.829 130.584 122.803 130.302 123.652C130.019 124.501 129.598 125.291 128.888 125.807L128.594 125.403C129.824 124.508 130.133 122.529 130.441 120.55C130.722 118.746 131.004 116.941 131.984 115.961C132.963 114.982 134.766 114.701 136.57 114.42C138.549 114.112 140.529 113.804 141.424 112.573M47.1695 112.865L47.1693 112.865C46.6548 112.157 46.498 111.278 46.4916 110.385C46.4851 109.491 46.6301 108.515 46.7789 107.576C46.7919 107.494 46.8049 107.412 46.8179 107.33C46.9562 106.462 47.0891 105.627 47.125 104.855C47.1645 104.008 47.0821 103.307 46.809 102.772L46.8089 102.772C46.5401 102.245 46.0241 101.772 45.3159 101.311C44.6788 100.895 43.9361 100.52 43.1618 100.128C43.0784 100.086 42.9945 100.043 42.9104 100C42.0615 99.5697 41.1852 99.1131 40.4634 98.5796C39.742 98.0464 39.121 97.3982 38.8484 96.5601L38.8483 96.5596C38.5796 95.7309 38.705 94.8491 38.9766 94.0011C39.2485 93.152 39.6896 92.2712 40.1227 91.4248C40.1578 91.3562 40.1929 91.2878 40.2278 91.2196C40.6317 90.4317 41.0206 89.6732 41.296 88.9439C41.5961 88.1494 41.7356 87.453 41.6414 86.8538L41.6414 86.8536C41.5507 86.2755 41.2084 85.6708 40.6785 85.0147C40.206 84.4297 39.6226 83.8486 39.0134 83.2419C38.9419 83.1706 38.87 83.099 38.7979 83.0269C38.1239 82.3539 37.4319 81.6465 36.9103 80.9117C36.389 80.1772 36 79.3638 36 78.4766C36 77.5893 36.389 76.7759 36.9103 76.0414C37.4319 75.3066 38.1239 74.5992 38.7979 73.9262C38.87 73.8541 38.9419 73.7825 39.0135 73.7112C39.6227 73.1045 40.206 72.5234 40.6785 71.9384C41.2084 71.2824 41.5507 70.6776 41.6414 70.0995L41.6414 70.0993C41.7356 69.5001 41.5961 68.8036 41.296 68.0088C41.0207 67.2795 40.6321 66.521 40.2284 65.7332C40.1933 65.6648 40.1582 65.5962 40.123 65.5273C39.69 64.6808 39.2492 63.7998 38.9776 62.9508C38.7064 62.1031 38.5815 61.2216 38.8508 60.3936L47.1695 112.865ZM47.1695 112.865C47.6862 113.574 48.476 113.996 49.3251 114.278C50.1751 114.561 51.1488 114.724 52.089 114.872C52.1764 114.885 52.2636 114.899 52.3504 114.912C53.2138 115.047 54.043 115.176 54.7834 115.377C55.6002 115.599 56.2398 115.891 56.662 116.312L47.1695 112.865ZM60.1116 31.1461L60.1119 31.1458C60.8192 30.6314 61.6987 30.4746 62.5916 30.4682C63.4856 30.4618 64.4612 30.6068 65.4008 30.7558C65.4837 30.7689 65.5664 30.7821 65.6487 30.7952C66.5163 30.9335 67.3503 31.0664 68.1216 31.1027C68.9685 31.1425 69.6697 31.0605 70.2046 30.788C70.7316 30.5185 71.2042 30.002 71.6658 29.2936C72.0808 28.6567 72.4564 27.9146 72.8479 27.141C72.8905 27.0567 72.9334 26.9721 72.9764 26.8872C73.4074 26.0381 73.8642 25.1618 74.3981 24.4398C74.9317 23.7184 75.5804 23.0975 76.4191 22.825L76.4193 22.8249C77.2475 22.5561 78.1289 22.6815 78.9766 22.9531C79.8253 23.2251 80.7061 23.6661 81.5524 24.0993C81.6204 24.1341 81.6883 24.1688 81.7559 24.2035C82.5444 24.6077 83.3036 24.9969 84.0337 25.2726C84.8285 25.5727 85.5254 25.7122 86.1253 25.618L86.1253 25.618C86.7029 25.5273 87.3073 25.185 87.9632 24.6551C88.5481 24.1826 89.129 23.5993 89.7358 22.9902C89.8071 22.9186 89.8788 22.8466 89.9509 22.7744C90.6239 22.1004 91.3313 21.4084 92.0659 20.8869C92.8001 20.3657 93.6133 19.9766 94.5 19.9766C95.3873 19.9766 96.2007 20.3656 96.9352 20.8869C97.6699 21.4084 98.3773 22.1004 99.0504 22.7744C99.1224 22.8465 99.194 22.9184 99.2653 22.99C99.8721 23.5992 100.453 24.1825 101.038 24.6551C101.694 25.185 102.299 25.5273 102.877 25.618L102.877 25.618C103.476 25.7122 104.173 25.5727 104.968 25.2726C105.697 24.997 106.456 24.608 107.245 24.2039C107.313 24.1691 107.381 24.1342 107.449 24.0992C108.296 23.6661 109.177 23.2251 110.026 22.9531C110.873 22.6815 111.755 22.5561 112.583 22.8249L112.583 22.825C113.422 23.0975 114.071 23.7184 114.604 24.4398C115.138 25.1618 115.595 26.0381 116.026 26.8872C116.069 26.9721 116.112 27.0567 116.155 27.1409C116.546 27.9146 116.922 28.6567 117.337 29.2936C117.798 30.0022 118.271 30.5187 118.798 30.7882C119.333 31.0612 120.034 31.1434 120.881 31.1038C121.652 31.0676 122.486 30.9347 123.354 30.7964C123.436 30.7833 123.519 30.7701 123.602 30.757C124.541 30.6081 125.517 30.463 126.411 30.4696C127.304 30.4762 128.184 30.6333 128.891 31.1485M60.1116 31.1461L145.61 57.2703C147.402 58.1769 149.201 59.0869 149.676 60.5477C150.138 61.9732 149.234 63.7366 148.325 65.5097C147.488 67.1436 146.646 68.7857 146.865 70.1794M60.1116 31.1461C59.4023 31.6628 58.9806 32.4526 58.6984 33.3018C58.416 34.1518 58.2533 35.1255 58.1059 36.0657C58.0923 36.1524 58.0788 36.2388 58.0654 36.325C57.9308 37.1891 57.8015 38.019 57.6004 38.7599C57.3786 39.5769 57.0863 40.2166 56.6647 40.6388C56.2425 41.0604 55.6027 41.3527 54.7855 41.5745C54.0445 41.7755 53.2144 41.9048 52.3502 42.0395C52.264 42.0529 52.1775 42.0664 52.0907 42.08C51.1504 42.2274 50.1766 42.3901 49.3267 42.6725C48.4777 42.9547 47.6881 43.3763 47.172 44.0857C46.6567 44.793 46.4996 45.6725 46.493 46.5656C46.4864 47.4596 46.6315 48.4353 46.7804 49.3749C46.7936 49.4577 46.8067 49.5402 46.8198 49.6224C46.9581 50.4901 47.0911 51.3242 47.1272 52.0956C47.1669 52.9425 47.0846 53.6437 46.8115 54.1786M60.1116 31.1461L46.8115 54.1786M128.891 31.1485L128.597 31.5527L128.89 31.1482C128.891 31.1483 128.891 31.1484 128.891 31.1485ZM128.891 31.1485C129.601 31.6647 130.023 32.4542 130.305 33.3032C130.588 34.1531 130.75 35.1269 130.898 36.0672C130.911 36.1539 130.925 36.2403 130.938 36.3264C131.073 37.1907 131.202 38.0209 131.403 38.762C131.625 39.5793 131.918 40.2191 132.34 40.6413C132.762 41.0628 133.401 41.3552 134.218 41.577C134.958 41.7781 135.788 41.9074 136.652 42.042C136.738 42.0554 136.825 42.0689 136.911 42.0825C137.851 42.2299 138.825 42.3926 139.675 42.675C140.524 42.9572 141.314 43.3788 141.83 44.0881L141.831 44.0884C142.345 44.7958 142.502 45.6752 142.508 46.5682C142.515 47.4621 142.37 48.4377 142.221 49.3773C142.208 49.4595 142.195 49.5414 142.182 49.623C142.044 50.4913 141.911 51.3261 141.875 52.098C141.835 52.9449 141.918 53.6462 142.191 54.1811L142.191 54.1812C142.46 54.7081 142.976 55.1808 143.684 55.6424C144.321 56.0577 145.064 56.4336 145.838 56.8253C145.922 56.8676 146.006 56.91 146.09 56.9527C146.939 57.3834 147.815 57.84 148.537 58.3735C149.258 58.9067 149.879 59.5549 150.152 60.393L150.152 60.3935C150.42 61.2222 150.295 62.104 150.023 62.952C149.751 63.8012 149.31 64.6821 148.877 65.5286C148.842 65.597 148.807 65.6651 148.773 65.7329C148.369 66.5213 147.98 67.2803 147.704 68.0102C147.404 68.8049 147.264 69.5017 147.359 70.1015M147.359 70.1015L146.865 70.1794M147.359 70.1015C147.359 70.1016 147.359 70.1017 147.359 70.1019L146.865 70.1794M147.359 70.1015C147.45 70.6792 147.792 71.2835 148.322 71.9393C148.795 72.5234 149.377 73.1035 149.985 73.7093C150.058 73.7813 150.13 73.8537 150.203 73.9265C150.877 74.5994 151.569 75.3068 152.09 76.0415C152.611 76.776 153 77.5894 153 78.4766C153 79.3638 152.611 80.1772 152.09 80.9117C151.569 81.6464 150.877 82.3538 150.203 83.0269C150.131 83.0993 150.058 83.1714 149.986 83.243C149.378 83.8494 148.795 84.4301 148.322 85.0148C147.793 85.6707 147.45 86.2755 147.359 86.8538M146.865 70.1794C147.076 71.5179 148.349 72.7855 149.632 74.0628C151.06 75.485 152.5 76.9191 152.5 78.4766C152.5 80.0336 151.06 81.4675 149.633 82.8897C148.35 84.1676 147.076 85.4361 146.865 86.7762M146.865 86.7762L147.359 86.8538M146.865 86.7762L147.359 86.8541C147.359 86.854 147.359 86.8539 147.359 86.8538M46.8115 54.1786C46.542 54.7056 46.0255 55.1782 45.3171 55.6399M46.8115 54.1786L45.3171 55.6399M45.3171 55.6399C44.6804 56.0547 43.9387 56.4302 43.1655 56.8216M45.3171 55.6399L43.1655 56.8216M43.1655 56.8216C43.081 56.8643 42.9961 56.9073 42.9109 56.9505M43.1655 56.8216L42.9109 56.9505M42.9109 56.9505C42.062 57.3814 41.1858 57.8383 40.4642 58.3723M42.9109 56.9505L40.4642 58.3723M40.4642 58.3723C39.7432 58.9058 39.1228 59.5546 38.8509 60.3933L40.4642 58.3723ZM102.874 131.335C102.874 131.335 102.875 131.335 102.875 131.335L102.797 130.841L102.874 131.335ZM70.4294 125.72L70.2018 126.165C70.2019 126.165 70.202 126.165 70.202 126.165L70.4294 125.72ZM60.1091 125.805C60.1092 125.805 60.1093 125.805 60.1093 125.805L60.4035 125.4L60.1091 125.805Z" stroke="url(#paint0_linear_3152_333868)" stroke-linecap="round" stroke-linejoin="round"/>
</g>
<g filter="url(#filter3_b_3152_333868)">
<path fill-rule="evenodd" clip-rule="evenodd" d="M132.5 78.4766C132.5 57.4899 115.486 40.4766 94.4987 40.4766C73.5139 40.4766 56.5 57.4899 56.5 78.4766C56.5 99.4632 73.5139 116.477 94.4987 116.477C115.486 116.477 132.5 99.4632 132.5 78.4766Z" fill="#6592FF" fill-opacity="0.35"/>
<path d="M133 78.4766C133 57.2137 115.762 39.9766 94.4987 39.9766C73.2378 39.9766 56 57.2138 56 78.4766C56 99.7394 73.2378 116.977 94.4987 116.977C115.762 116.977 133 99.7394 133 78.4766Z" stroke="url(#paint1_linear_3152_333868)" stroke-linecap="round" stroke-linejoin="round"/>
</g>
<rect x="88.8594" y="72.8359" width="11.2824" height="11.2861" rx="5.64121" fill="white"/>
<defs>
<filter id="filter0_f_3152_333868" x="2" y="94" width="197" height="104" filterUnits="userSpaceOnUse" color-interpolation-filters="sRGB">
<feFlood flood-opacity="0" result="BackgroundImageFix"/>
<feBlend mode="normal" in="SourceGraphic" in2="BackgroundImageFix" result="shape"/>
<feGaussianBlur stdDeviation="15" result="effect1_foregroundBlur_3152_333868"/>
</filter>
<filter id="filter1_f_3152_333868" x="-31.4368" y="40.3445" width="256.163" height="169.991" filterUnits="userSpaceOnUse" color-interpolation-filters="sRGB">
<feFlood flood-opacity="0" result="BackgroundImageFix"/>
<feBlend mode="normal" in="SourceGraphic" in2="BackgroundImageFix" result="shape"/>
<feGaussianBlur stdDeviation="30.1207" result="effect1_foregroundBlur_3152_333868"/>
</filter>
<filter id="filter2_b_3152_333868" x="11.5" y="-4.52344" width="166" height="166" filterUnits="userSpaceOnUse" color-interpolation-filters="sRGB">
<feFlood flood-opacity="0" result="BackgroundImageFix"/>
<feGaussianBlur in="BackgroundImageFix" stdDeviation="12"/>
<feComposite in2="SourceAlpha" operator="in" result="effect1_backgroundBlur_3152_333868"/>
<feBlend mode="normal" in="SourceGraphic" in2="effect1_backgroundBlur_3152_333868" result="shape"/>
</filter>
<filter id="filter3_b_3152_333868" x="31.5" y="15.4766" width="126" height="126" filterUnits="userSpaceOnUse" color-interpolation-filters="sRGB">
<feFlood flood-opacity="0" result="BackgroundImageFix"/>
<feGaussianBlur in="BackgroundImageFix" stdDeviation="12"/>
<feComposite in2="SourceAlpha" operator="in" result="effect1_backgroundBlur_3152_333868"/>
<feBlend mode="normal" in="SourceGraphic" in2="effect1_backgroundBlur_3152_333868" result="shape"/>
</filter>
<linearGradient id="paint0_linear_3152_333868" x1="54.9653" y1="33.9907" x2="128.961" y2="125.636" gradientUnits="userSpaceOnUse">
<stop stop-color="white" stop-opacity="0.25"/>
<stop offset="1" stop-color="white" stop-opacity="0"/>
</linearGradient>
<linearGradient id="paint1_linear_3152_333868" x1="68.598" y1="49.3307" x2="117.078" y2="109.374" gradientUnits="userSpaceOnUse">
<stop stop-color="white" stop-opacity="0.25"/>
<stop offset="1" stop-color="white" stop-opacity="0"/>
</linearGradient>
</defs>
</svg>
