<svg width="218" height="218" viewBox="0 0 218 218" fill="none" xmlns="http://www.w3.org/2000/svg">
<g filter="url(#filter0_f_3126_803806)">
<ellipse cx="108.981" cy="146.881" rx="69.6938" ry="30.2601" transform="rotate(7.30935 108.981 146.881)" fill="#6592FF" fill-opacity="0.5"/>
</g>
<g filter="url(#filter1_b_3126_803806)">
<rect x="96.3203" y="46" width="100" height="100" rx="50" transform="rotate(16 96.3203 46)" fill="#163AF5"/>
<rect x="97.0059" y="47.2369" width="98" height="98" rx="49" transform="rotate(16 97.0059 47.2369)" stroke="url(#paint0_linear_3126_803806)" stroke-width="2" stroke-linecap="round" stroke-linejoin="round"/>
</g>
<g filter="url(#filter2_b_3126_803806)">
<rect x="33" y="37" width="117" height="117" rx="58.5" fill="#6685FE" fill-opacity="0.3"/>
<rect x="33.75" y="37.75" width="115.5" height="115.5" rx="57.75" stroke="url(#paint1_linear_3126_803806)" stroke-width="1.5" stroke-linecap="round" stroke-linejoin="round"/>
</g>
<path d="M75.0286 100C72.2857 100 70 97.7229 70 95.0028C70 92.2714 72.2857 90 75.0286 90C77.7714 90 80 92.2203 80 94.9404C80 97.7229 77.7714 100 75.0286 100Z" fill="white"/>
<path d="M91.0286 100C88.2857 100 86 97.7229 86 95.0028C86 92.2714 88.2857 90 91.0286 90C93.7714 90 96 92.2203 96 94.9404C96 97.7229 93.7714 100 91.0286 100Z" fill="white"/>
<path d="M107.029 100C104.286 100 102 97.7229 102 95.0028C102 92.2714 104.286 90 107.029 90C109.771 90 112 92.2203 112 94.9404C112 97.7229 109.771 100 107.029 100Z" fill="white"/>
<defs>
<filter id="filter0_f_3126_803806" x="0.742188" y="76.5781" width="216.477" height="140.609" filterUnits="userSpaceOnUse" color-interpolation-filters="sRGB">
<feFlood flood-opacity="0" result="BackgroundImageFix"/>
<feBlend mode="normal" in="SourceGraphic" in2="BackgroundImageFix" result="shape"/>
<feGaussianBlur stdDeviation="19.5" result="effect1_foregroundBlur_3126_803806"/>
</filter>
<filter id="filter1_b_3126_803806" x="65.5859" y="42.8359" width="130.031" height="130.023" filterUnits="userSpaceOnUse" color-interpolation-filters="sRGB">
<feFlood flood-opacity="0" result="BackgroundImageFix"/>
<feGaussianBlur in="BackgroundImageFix" stdDeviation="7.5"/>
<feComposite in2="SourceAlpha" operator="in" result="effect1_backgroundBlur_3126_803806"/>
<feBlend mode="normal" in="SourceGraphic" in2="effect1_backgroundBlur_3126_803806" result="shape"/>
</filter>
<filter id="filter2_b_3126_803806" x="16" y="20" width="151" height="151" filterUnits="userSpaceOnUse" color-interpolation-filters="sRGB">
<feFlood flood-opacity="0" result="BackgroundImageFix"/>
<feGaussianBlur in="BackgroundImageFix" stdDeviation="8.5"/>
<feComposite in2="SourceAlpha" operator="in" result="effect1_backgroundBlur_3126_803806"/>
<feBlend mode="normal" in="SourceGraphic" in2="effect1_backgroundBlur_3126_803806" result="shape"/>
</filter>
<linearGradient id="paint0_linear_3126_803806" x1="116.833" y1="138.825" x2="199.862" y2="61.6604" gradientUnits="userSpaceOnUse">
<stop stop-color="white" stop-opacity="0.79"/>
<stop offset="1" stop-color="white" stop-opacity="0"/>
</linearGradient>
<linearGradient id="paint1_linear_3126_803806" x1="56.9993" y1="145.605" x2="144.776" y2="77.751" gradientUnits="userSpaceOnUse">
<stop stop-color="white" stop-opacity="0.79"/>
<stop offset="1" stop-color="white" stop-opacity="0"/>
</linearGradient>
</defs>
</svg>
