<svg width="36" height="36" viewBox="0 0 36 36" fill="none" xmlns="http://www.w3.org/2000/svg">
<path d="M6.5 23H27L24.5 33H3L6.5 23Z" fill="#D6FF5D"/>
<path d="M6.85372 10.0001C6.09687 10.0001 5.37102 10.2981 4.83584 10.8286C4.30067 11.3591 4.00001 12.0786 4.00001 12.8288V32.2172C3.9989 32.4112 4.07044 32.5986 4.20079 32.7432C4.33114 32.8879 4.511 32.9794 4.70554 33.0001H4.78978C4.97086 32.9994 5.14627 32.9375 5.28701 32.8246C5.42775 32.7116 5.52539 32.5544 5.56376 32.379M14 8H20.0714M30 18V6C30 4.89543 29.1046 4 28 4H12C10.8954 4 9.99999 4.89543 9.99999 6V18M32.4214 18.8772C32.1717 18.6031 31.854 18.3819 31.492 18.2299C31.1312 18.0785 30.7358 18 30.3352 18.0001L9.63767 18.0001L9.63154 18.0001C9.02965 17.9999 8.44546 18.1775 7.97478 18.504C7.50276 18.8314 7.17305 19.289 7.04002 19.8013L4.02042 32.2086C3.99473 32.3016 3.99326 32.3984 4.01611 32.492C4.03897 32.5855 4.08557 32.6734 4.15251 32.7493C4.21945 32.8252 4.30503 32.8871 4.40301 32.9305C4.50098 32.9738 4.60886 32.9976 4.71876 33.0001H27.8723C28.4764 33.0003 29.0627 32.8217 29.5346 32.4936C30.0065 32.1654 30.3361 31.7073 30.4689 31.1946L32.9279 20.8495C33.0211 20.5089 33.024 20.1542 32.9362 19.8125C32.8484 19.4708 32.6724 19.1509 32.4214 18.8772Z" stroke="#161616" stroke-width="2"/>
</svg>
