<svg width="41" height="37" viewBox="0 0 41 37" fill="none" xmlns="http://www.w3.org/2000/svg">
<circle cx="18.5" cy="17.5" r="7.5" fill="#D6FF5D"/>
<path fill-rule="evenodd" clip-rule="evenodd" d="M6 11C6 8.23858 8.23858 6 11 6H26C28.7614 6 31 8.23858 31 11V24H29V11C29 9.34315 27.6569 8 26 8H11C9.34315 8 8 9.34315 8 11V26C8 28.2091 9.79086 30 12 30H18.5H30H33V32H30H18.5H12C8.68629 32 6 29.3137 6 26V11Z" fill="#161616"/>
<path fill-rule="evenodd" clip-rule="evenodd" d="M5 1C2.79086 1 1 2.79086 1 5V23C1 24.6569 2.34315 26 4 26V24C3.44772 24 3 23.5523 3 23V5C3 3.89543 3.89543 3 5 3H21C22.1046 3 23 3.89543 23 5H25C25 2.79086 23.2091 1 21 1H5ZM13.9003 12C13.6516 12 13.4348 12.1018 13.2594 12.2782C13.0994 12.439 13 12.6388 13 12.8705C13 13.013 13.0126 13.1475 13.0459 13.2649L13.0479 13.272L15.0561 19.2077L15.0576 19.2119C15.1363 19.4333 15.2769 19.6177 15.4669 19.7646C15.6669 19.9193 15.897 20 16.1483 20C16.4068 20 16.6437 19.9222 16.8472 19.7649L16.8577 19.7559C17.0383 19.6022 17.1776 19.421 17.2669 19.2116L17.2723 19.1988L18.5 15.3538L19.7234 19.1855L19.7244 19.1886C19.8014 19.4207 19.941 19.6142 20.1356 19.7648L20.1441 19.7709C20.3516 19.9199 20.5837 20 20.8344 20C21.0929 20 21.3297 19.922 21.5331 19.7646C21.7231 19.6177 21.8637 19.4333 21.9424 19.212L23.952 13.272L23.9541 13.2649C23.9874 13.1475 24 13.013 24 12.8705C24 12.6333 23.8902 12.4342 23.7234 12.2779C23.5575 12.0994 23.3451 12 23.0997 12C22.8984 12 22.7038 12.038 22.5406 12.1411C22.3717 12.2478 22.2633 12.4074 22.211 12.5966L20.8323 17.1596L19.4745 12.7336C19.4114 12.5138 19.289 12.3297 19.1059 12.1958C18.9271 12.0651 18.7218 12 18.5 12C18.2722 12 18.0646 12.0747 17.8873 12.2182C17.7127 12.348 17.5904 12.522 17.5263 12.7311L16.1534 17.1597L14.7892 12.5971C14.7369 12.4076 14.6284 12.2479 14.4594 12.1411C14.2962 12.038 14.1016 12 13.9003 12Z" fill="#161616"/>
<path d="M12.5 15H14" stroke="#161616" stroke-width="2" stroke-linecap="round"/>
<path d="M23 15H24.5" stroke="#161616" stroke-width="2" stroke-linecap="round"/>
<path d="M30.125 34.3516L33.5 30.9766L30.125 27.6016" stroke="#161616" stroke-width="2" stroke-linecap="square" stroke-linejoin="round"/>
</svg>
