<svg width="36" height="36" viewBox="0 0 36 36" fill="none" xmlns="http://www.w3.org/2000/svg">
<circle cx="14.5" cy="20.5" r="8.5" fill="#D6FF5D"/>
<path fill-rule="evenodd" clip-rule="evenodd" d="M17.5 5C10.5964 5 5 10.5964 5 17.5C5 24.4036 10.5964 30 17.5 30H31.5V32H17.5C9.49187 32 3 25.5081 3 17.5C3 9.49187 9.49187 3 17.5 3C25.5081 3 32 9.49187 32 17.5C32 20.0293 31.3516 22.4101 30.2111 24.4822L28.459 23.5178C29.441 21.7336 30 19.6836 30 17.5C30 10.5964 24.4036 5 17.5 5Z" fill="#161616"/>
<path d="M28.125 34.4062L31.5 31.0312L28.125 27.6562" stroke="#161616" stroke-width="2" stroke-linecap="square" stroke-linejoin="round"/>
<path d="M22.3576 13.7719C22.433 13.4851 22.6531 13.3416 23.0178 13.3416C23.1939 13.3416 23.3448 13.4133 23.4706 13.5568C23.6089 13.6872 23.6781 13.8306 23.6781 13.9871C23.6781 14.1305 23.6655 14.2479 23.6403 14.3392L21.4521 21.009C21.3892 21.1915 21.276 21.348 21.1126 21.4784C20.9491 21.6088 20.7604 21.674 20.5466 21.674C20.3454 21.674 20.1568 21.6088 19.9807 21.4784C19.8172 21.348 19.704 21.185 19.6412 20.9894L18 15.6888L16.3588 20.9894C16.2834 21.172 16.1639 21.335 16.0004 21.4784C15.8369 21.6088 15.6483 21.674 15.4345 21.674C15.2333 21.674 15.0509 21.6088 14.8874 21.4784C14.724 21.348 14.6108 21.1915 14.5479 21.009L12.3597 14.3392C12.3345 14.2479 12.3219 14.1305 12.3219 13.9871C12.3219 13.8306 12.3848 13.6872 12.5106 13.5568C12.6489 13.4133 12.8061 13.3416 12.9822 13.3416C13.3469 13.3416 13.567 13.4851 13.6424 13.7719L15.4345 19.9528L17.2454 13.9284C17.2957 13.7589 17.3901 13.622 17.5284 13.5177C17.6667 13.4003 17.8239 13.3416 18 13.3416C18.1761 13.3416 18.3333 13.3938 18.4716 13.4981C18.6099 13.6024 18.7043 13.7459 18.7546 13.9284L20.5466 19.9528L22.3576 13.7719Z" fill="#161616"/>
<path fill-rule="evenodd" clip-rule="evenodd" d="M12.9822 13.6754C12.9014 13.6754 12.8235 13.7044 12.7382 13.7928C12.6612 13.8727 12.6439 13.9348 12.6439 13.9871C12.6439 14.1082 12.6544 14.1898 12.6674 14.2407L14.8518 20.8988C14.8919 21.014 14.9647 21.1189 15.0837 21.2138C15.1925 21.3005 15.3062 21.3402 15.4345 21.3402C15.5774 21.3402 15.6948 21.2991 15.7984 21.2183C15.9206 21.1098 16.0042 20.9938 16.0573 20.8712L18 14.5967L19.9471 20.8855C19.9885 21.0131 20.0609 21.1199 20.1725 21.2102C20.2967 21.3009 20.4193 21.3402 20.5466 21.3402C20.6922 21.3402 20.8112 21.2976 20.9163 21.2138C21.0353 21.1189 21.108 21.014 21.1482 20.8989L23.3326 14.2407C23.3456 14.1898 23.3561 14.1082 23.3561 13.9871C23.3561 13.9464 23.3425 13.8872 23.254 13.8038L23.2426 13.7931L23.2323 13.7813C23.1633 13.7026 23.097 13.6754 23.0178 13.6754C22.8727 13.6754 22.7925 13.7045 22.7506 13.7318C22.7161 13.7543 22.687 13.788 22.6682 13.8598L22.6657 13.869L20.549 21.0932L18.4449 14.0201C18.4129 13.9039 18.3582 13.8254 18.2822 13.7681C18.2006 13.7065 18.1102 13.6754 18 13.6754C17.8995 13.6754 17.814 13.7067 17.7323 13.776L17.7252 13.782L17.7178 13.7876C17.6358 13.8495 17.583 13.9261 17.5531 14.0266L17.5528 14.0277L15.4289 21.0931L13.3317 13.8598C13.3129 13.7881 13.2839 13.7543 13.2494 13.7318C13.2075 13.7045 13.1273 13.6754 12.9822 13.6754ZM12.2829 13.3207C12.4743 13.1223 12.7109 13.0078 12.9822 13.0078C13.2018 13.0078 13.414 13.0505 13.5921 13.1666C13.7764 13.2867 13.8948 13.4664 13.9518 13.6796L15.4401 18.8125L16.9377 13.8302C17.0077 13.5951 17.1411 13.3994 17.3316 13.2533C17.525 13.0919 17.7515 13.0078 18 13.0078C18.242 13.0078 18.4659 13.081 18.661 13.2281C18.8607 13.3788 18.9943 13.5859 19.0631 13.8331L20.5443 18.8123L22.0483 13.679C22.1054 13.4661 22.2237 13.2866 22.4079 13.1666C22.586 13.0505 22.7982 13.0078 23.0178 13.0078C23.2855 13.0078 23.5173 13.1197 23.6983 13.3204C23.8802 13.4963 24 13.7203 24 13.9871C24 14.1474 23.9863 14.2987 23.9499 14.4309L23.9477 14.4388L21.7553 21.1213C21.6695 21.3703 21.5161 21.5777 21.3088 21.743C21.0869 21.92 20.8286 22.0078 20.5466 22.0078C20.2732 22.0078 20.0199 21.9177 19.7936 21.75L19.7843 21.7432C19.572 21.5738 19.4197 21.3561 19.3357 21.095L19.3346 21.0915L18 16.7809L16.6607 21.1064L16.6547 21.1209C16.5574 21.3565 16.4055 21.5603 16.2084 21.7332L16.1969 21.7433C15.975 21.9203 15.7165 22.0078 15.4345 22.0078C15.1604 22.0078 14.9094 21.9171 14.6912 21.743C14.4839 21.5777 14.3305 21.3703 14.2447 21.1212L14.2431 21.1165L12.0523 14.4388L12.0501 14.4309C12.0137 14.2987 12 14.1474 12 13.9871C12 13.7264 12.1084 13.5017 12.2829 13.3207Z" fill="#161616"/>
<path d="M11 17.0078L13 17.0078" stroke="#161616" stroke-width="2" stroke-linecap="round"/>
<path d="M23 17.0078H25" stroke="#161616" stroke-width="2" stroke-linecap="round"/>
</svg>
