<svg width="36" height="36" viewBox="0 0 36 36" fill="none" xmlns="http://www.w3.org/2000/svg">
<path d="M25.5 26H4L3 32.0881L4 33.4607L28.5 33.4999L25.5 26Z" fill="#D6FF5D"/>
<path d="M32.4055 29.1935C33.1038 31.1473 31.6554 33.2031 29.5805 33.2031L5.24814 33.2031C3.26749 33.2031 1.83043 31.3177 2.35546 29.4079L4.27157 22.438C4.39091 22.004 4.7856 21.7031 5.2358 21.7031L29.7285 21.7031L32.4055 29.1935Z" stroke="#161616" stroke-width="2"/>
<path fill-rule="evenodd" clip-rule="evenodd" d="M9 4H26C27.6569 4 29 5.34315 29 7V20H28.9609V22H29H31V20V7C31 4.23858 28.7614 2 26 2H9C6.23858 2 4 4.23858 4 7V18.4502H6V7C6 5.34315 7.34315 4 9 4Z" fill="#161616"/>
<path d="M9 10H16.5" stroke="#161616" stroke-width="2"/>
<path d="M9 15H23" stroke="#161616" stroke-width="2"/>
</svg>
