<svg width="120" height="120" viewBox="0 0 120 120" fill="none" xmlns="http://www.w3.org/2000/svg">
<g clip-path="url(#clip0_1891_88151)">
<g filter="url(#filter0_f_1891_88151)">
<ellipse cx="59.4696" cy="88.6925" rx="40.4696" ry="12.9503" fill="#6592FF" fill-opacity="0.3"/>
</g>
<path d="M60.1878 84.4967C3.86893 84.4967 33.5539 23.7109 60.1878 23.7109C86.2755 23.7109 116.843 84.4967 60.1878 84.4967Z" fill="#163AF5"/>
<path d="M61.0069 13.8594C37.9018 13.8594 50.0802 35.2165 61.0069 35.2165C71.7096 35.2165 84.2501 13.8594 61.0069 13.8594Z" fill="#2E4FFF"/>
<g filter="url(#filter1_b_1891_88151)">
<circle cx="77" cy="67" r="19" fill="#BCE4F1" fill-opacity="0.5"/>
</g>
<path d="M75.125 62.75C75.125 64.0617 74.0617 65.125 72.75 65.125C71.4383 65.125 70.375 64.0617 70.375 62.75C70.375 61.4383 71.4383 60.375 72.75 60.375C74.0617 60.375 75.125 61.4383 75.125 62.75Z" stroke="white" stroke-width="2" stroke-linecap="round" stroke-linejoin="round"/>
<path d="M84.625 72.25C84.625 73.5617 83.5617 74.625 82.25 74.625C80.9383 74.625 79.875 73.5617 79.875 72.25C79.875 70.9383 80.9383 69.875 82.25 69.875C83.5617 69.875 84.625 70.9383 84.625 72.25Z" stroke="white" stroke-width="2" stroke-linecap="round" stroke-linejoin="round"/>
<path d="M71.1719 73.8307L83.8385 61.1641" stroke="white" stroke-width="2" stroke-linecap="round" stroke-linejoin="round"/>
</g>
<defs>
<filter id="filter0_f_1891_88151" x="-11" y="45.7422" width="140.938" height="85.8984" filterUnits="userSpaceOnUse" color-interpolation-filters="sRGB">
<feFlood flood-opacity="0" result="BackgroundImageFix"/>
<feBlend mode="normal" in="SourceGraphic" in2="BackgroundImageFix" result="shape"/>
<feGaussianBlur stdDeviation="15" result="effect1_foregroundBlur_1891_88151"/>
</filter>
<filter id="filter1_b_1891_88151" x="50" y="40" width="54" height="54" filterUnits="userSpaceOnUse" color-interpolation-filters="sRGB">
<feFlood flood-opacity="0" result="BackgroundImageFix"/>
<feGaussianBlur in="BackgroundImageFix" stdDeviation="4"/>
<feComposite in2="SourceAlpha" operator="in" result="effect1_backgroundBlur_1891_88151"/>
<feBlend mode="normal" in="SourceGraphic" in2="effect1_backgroundBlur_1891_88151" result="shape"/>
</filter>
<clipPath id="clip0_1891_88151">
<rect width="120" height="120" fill="white"/>
</clipPath>
</defs>
</svg>
