<svg width="120" height="120" viewBox="0 0 120 120" fill="none" xmlns="http://www.w3.org/2000/svg">
<g clip-path="url(#clip0_1961_86800)">
<g filter="url(#filter0_f_1961_86800)">
<ellipse cx="63.4696" cy="88.6925" rx="40.4696" ry="12.9503" fill="#6592FF" fill-opacity="0.3"/>
</g>
<path fill-rule="evenodd" clip-rule="evenodd" d="M48.8906 63.9592L71.6691 104.001L78.1519 88.6525L94.1058 90.8738L70.6052 51.4531L48.8906 63.9592Z" fill="#163AF5"/>
<path fill-rule="evenodd" clip-rule="evenodd" d="M72.1094 63.9592L49.3309 104.001L42.8481 88.6525L26.8942 90.8738L50.3948 51.4531L72.1094 63.9592Z" fill="#163AF5"/>
<mask id="mask0_1961_86800" style="mask-type:luminance" maskUnits="userSpaceOnUse" x="26" y="55" width="69" height="50">
<path fill-rule="evenodd" clip-rule="evenodd" d="M60.6554 84.6533L49.5138 104.004L42.7927 88.729L26.9062 91.173L44.0975 61.6394C47.4868 55.8167 54.7129 53.6445 60.6789 56.411C66.5259 53.7648 73.581 55.9029 76.9028 61.6097L94.1113 91.173L78.2249 88.729L71.5037 104.004L60.6554 84.6533Z" fill="white"/>
</mask>
<g mask="url(#mask0_1961_86800)">
<g filter="url(#filter1_f_1961_86800)">
<path fill-rule="evenodd" clip-rule="evenodd" d="M83.1136 71.6172C81.9009 72.8299 81.3964 78.1281 80.0086 79.1377C78.6267 80.1429 75.6274 78.5431 74.0938 79.3261C72.5765 80.1002 72.1144 83.4704 70.472 84.0046C68.8561 84.5285 66.5043 82.0782 64.7898 82.346C63.1209 82.608 61.6389 85.6706 59.8949 85.6706C58.1525 85.6706 56.669 82.608 55.0001 82.346C53.2856 82.0767 50.9323 84.5285 49.3179 84.0046C47.674 83.4704 47.2119 80.1002 45.6946 79.3246C44.161 78.5417 41.1617 80.1429 39.7798 79.1362C38.392 78.1267 38.9925 74.7785 37.7812 73.5659L83.1136 71.6172Z" stroke="#0B1573" stroke-width="24.3778" style="mix-blend-mode:multiply"/>
</g>
</g>
<g filter="url(#filter2_b_1961_86800)">
<path fill-rule="evenodd" clip-rule="evenodd" d="M94.1057 50.2247C94.1057 51.9687 91.0446 53.4507 90.7811 55.121C90.5118 56.8341 92.9637 59.1873 92.4397 60.8018C91.9055 62.4457 88.5353 62.9078 87.7597 64.4251C86.9768 65.9586 88.578 68.9579 87.5714 70.3398C86.5618 71.7277 83.2137 71.1272 82.0025 72.3384C80.7898 73.5511 81.3902 76.8992 80.0024 77.9088C78.6205 78.9139 75.6212 77.3142 74.0877 78.0971C72.5704 78.8713 72.1083 82.2414 70.4659 82.7757C68.8499 83.2996 66.4982 80.8492 64.7836 81.1171C63.1147 81.379 61.6327 84.4416 59.8888 84.4416C58.1463 84.4416 56.6628 81.379 54.9939 81.1171C53.2794 80.8477 50.9262 83.2996 49.3117 82.7757C47.6678 82.2414 47.2057 78.8713 45.6884 78.0957C44.1549 77.3127 41.1556 78.9139 39.7737 77.9073C38.3858 76.8977 38.9863 73.5496 37.7751 72.3369C36.5624 71.1272 33.2158 71.7262 32.2047 70.3384C31.1996 68.9565 32.7993 65.9571 32.0164 64.4236C31.2422 62.9063 27.8721 62.4442 27.3378 60.8018C26.8139 59.1859 29.2658 56.8341 28.9964 55.121C28.7345 53.4507 25.6719 51.9687 25.6719 50.2247C25.6719 48.4808 28.7345 46.9988 28.9964 45.3284C29.2658 43.6153 26.8139 41.2621 27.3393 39.6476C27.8721 38.0038 31.2422 37.5417 32.0178 36.0243C32.8008 34.4908 31.1996 31.4915 32.2062 30.1096C33.2158 28.7218 36.5639 29.3222 37.7766 28.111C38.9878 26.8984 38.3873 23.5517 39.7751 22.5407C41.157 21.5355 44.1564 23.1352 45.6899 22.3538C47.2072 21.5782 47.6693 18.208 49.3132 17.6738C50.9276 17.1498 53.2794 19.6017 54.9939 19.3324C56.6628 19.0704 58.1463 16.0078 59.8888 16.0078C61.6327 16.0078 63.1147 19.0704 64.7851 19.3324C66.4982 19.6017 68.8514 17.1498 70.4659 17.6738C72.1097 18.208 72.5718 21.5782 74.0892 22.3538C75.6227 23.1367 78.622 21.5355 80.0039 22.5421C81.3932 23.5517 80.7913 26.8998 82.0039 28.1125C83.2151 29.3237 86.5618 28.7233 87.5728 30.1111C88.578 31.493 86.9783 34.4923 87.7612 36.0258C88.5353 37.5431 91.9055 38.0052 92.4397 39.6476C92.9637 41.2636 90.5118 43.6153 90.7811 45.3299C91.0446 46.9988 94.1057 48.4808 94.1057 50.2247Z" fill="#6592FF" fill-opacity="0.35"/>
<path d="M91.2751 45.2523C91.3206 45.5399 91.4959 45.8622 91.8006 46.2392C92.0717 46.5746 92.407 46.9086 92.7673 47.2676C92.8097 47.3098 92.8525 47.3524 92.8955 47.3953C93.2919 47.7912 93.7121 48.2199 94.0311 48.6695C94.3499 49.1188 94.6057 49.6406 94.6057 50.2247C94.6057 50.8089 94.3499 51.3306 94.0311 51.7799C93.7121 52.2295 93.292 52.6583 92.8955 53.0542C92.8528 53.097 92.8103 53.1393 92.7681 53.1813C92.4075 53.5406 92.0719 53.875 91.8007 54.2108C91.496 54.5879 91.3206 54.9107 91.2751 55.1987C91.2277 55.5002 91.2957 55.8712 91.4681 56.3277C91.6264 56.7469 91.8507 57.1845 92.0905 57.6524C92.1106 57.6916 92.1308 57.731 92.151 57.7707C92.4056 58.2682 92.6736 58.8022 92.8399 59.3214C93.0059 59.8395 93.093 60.4085 92.9153 60.9561L92.9152 60.9563C92.7355 61.5093 92.3307 61.9238 91.8895 62.2501C91.4478 62.5767 90.9159 62.8533 90.4165 63.1068C90.3666 63.1321 90.317 63.1572 90.2678 63.1821C89.8092 63.4142 89.3818 63.6306 89.016 63.8689C88.6087 64.1343 88.3396 64.3892 88.205 64.6527C88.068 64.921 88.0182 65.2921 88.041 65.7785C88.0618 66.2215 88.1384 66.7022 88.2204 67.217C88.228 67.2647 88.2356 67.3127 88.2433 67.361C88.3308 67.9134 88.4194 68.5052 88.4154 69.052C88.4113 69.5978 88.3159 70.1668 87.9757 70.634C87.635 71.1023 87.1224 71.3693 86.6033 71.5418C86.0835 71.7145 85.4928 71.8126 84.94 71.8993C84.8892 71.9073 84.8387 71.9151 84.7886 71.923C84.2762 72.0028 83.798 72.0774 83.3726 72.1929C82.9031 72.3203 82.5671 72.4809 82.356 72.692C82.1445 72.9035 81.9837 73.2399 81.856 73.7095C81.7403 74.1354 81.6656 74.6141 81.5856 75.127C81.5778 75.1768 81.57 75.2269 81.5621 75.2773C81.4753 75.8301 81.3772 76.4209 81.2044 76.9407C81.0318 77.4598 80.7649 77.9724 80.2966 78.3131L80.2966 78.3131C79.8293 78.653 79.2603 78.7482 78.7145 78.7522C78.1678 78.7561 77.5761 78.6676 77.0237 78.5801C76.9757 78.5725 76.928 78.5649 76.8805 78.5574C76.3655 78.4754 75.8845 78.3989 75.4412 78.3782C74.9546 78.3555 74.5835 78.4054 74.3151 78.5425L74.3149 78.5425C74.0516 78.6769 73.7969 78.9456 73.5315 79.3527C73.293 79.7186 73.0764 80.1464 72.8442 80.6053C72.8195 80.6541 72.7946 80.7032 72.7696 80.7526C72.5162 81.2519 72.2398 81.7837 71.9134 82.2253C71.5873 82.6664 71.1732 83.0714 70.6205 83.2511L70.6201 83.2513C70.0722 83.4289 69.5032 83.3419 68.985 83.1761C68.4657 83.0099 67.9316 82.742 67.434 82.4875C67.394 82.4671 67.3541 82.4466 67.3145 82.4264C66.847 82.1869 66.4098 81.9629 65.9909 81.8046C65.5343 81.6322 65.1629 81.5639 64.8608 81.6111C64.5734 81.6563 64.2512 81.8313 63.8743 82.1359C63.5387 82.4071 63.2045 82.7427 62.8454 83.1033C62.8033 83.1455 62.761 83.188 62.7182 83.2309C62.3223 83.6274 61.8936 84.0476 61.4441 84.3667C60.9948 84.6856 60.473 84.9416 59.8888 84.9416C59.3048 84.9416 58.7832 84.6856 58.3341 84.3667C57.8846 84.0476 57.4559 83.6274 57.06 83.2309C57.0174 83.1883 56.9752 83.1459 56.9334 83.104C56.5739 82.7431 56.2394 82.4073 55.9036 82.136C55.5264 81.8312 55.2039 81.6561 54.9163 81.611C54.6143 81.5636 54.243 81.6317 53.7864 81.8041C53.3669 81.9624 52.929 82.1867 52.4609 82.4266C52.4218 82.4466 52.3825 82.4668 52.343 82.487C51.8454 82.7415 51.3113 83.0095 50.7921 83.1758C50.274 83.3418 49.705 83.429 49.1574 83.2513L49.1572 83.2512C48.6042 83.0715 48.1897 82.6666 47.8634 82.2254C47.5368 81.7837 47.2602 81.2519 47.0067 80.7525C46.9814 80.7025 46.9563 80.6529 46.9313 80.6037C46.6993 80.1452 46.4829 79.7177 46.2446 79.352C45.9792 78.9446 45.7243 78.6756 45.4608 78.5409C45.1925 78.4039 44.8214 78.3542 44.335 78.377C43.892 78.3977 43.4113 78.4743 42.8965 78.5563C42.8488 78.5639 42.8008 78.5716 42.7525 78.5792C42.2001 78.6668 41.6083 78.7553 41.0615 78.7513C40.5157 78.7473 39.9467 78.6518 39.4795 78.3116C39.0112 77.9709 38.7442 77.4583 38.5717 76.9392C38.399 76.4194 38.3009 75.8286 38.2142 75.2757C38.2062 75.2249 38.1983 75.1744 38.1905 75.1242C38.1106 74.6117 38.0361 74.1334 37.9206 73.7079C37.7932 73.2381 37.6325 72.9017 37.4213 72.6903C37.2098 72.4796 36.8736 72.3193 36.4044 72.192C35.9792 72.0767 35.5015 72.0022 34.9895 71.9223C34.9389 71.9144 34.888 71.9064 34.8368 71.8984C34.2839 71.8116 33.6933 71.7134 33.1733 71.5405C32.6542 71.3679 32.1416 71.1009 31.8006 70.6328L31.8004 70.6325C31.4605 70.1653 31.3653 69.5962 31.3614 69.0505C31.3574 68.5037 31.4459 67.912 31.5334 67.3597C31.541 67.3117 31.5485 67.264 31.5561 67.2165C31.6381 66.7015 31.7146 66.2204 31.7353 65.7771C31.758 65.2906 31.7081 64.9194 31.571 64.651L31.571 64.6509C31.4366 64.3876 31.1679 64.1328 30.7608 63.8674C30.3949 63.6289 29.9671 63.4124 29.5082 63.1801C29.4594 63.1554 29.4103 63.1306 29.3609 63.1055C28.8616 62.8522 28.3298 62.5757 27.8882 62.2493C27.4471 61.9233 27.0421 61.5091 26.8624 60.9564L26.8622 60.956C26.6846 60.4081 26.7717 59.839 26.9377 59.3208C27.104 58.8015 27.372 58.2675 27.6266 57.7701C27.6469 57.7302 27.6672 57.6906 27.6874 57.6512C27.9271 57.1836 28.1513 56.7463 28.3095 56.3274C28.4818 55.8711 28.5499 55.5002 28.5025 55.1987L28.5025 55.1985C28.4573 54.9106 28.2822 54.588 27.9775 54.2107C27.7062 53.8748 27.3703 53.5402 27.0094 53.1807C26.9675 53.1389 26.9252 53.0968 26.8826 53.0543C26.4861 52.6583 26.0659 52.2296 25.7468 51.78C25.4279 51.3307 25.1719 50.8089 25.1719 50.2247C25.1719 49.6405 25.4279 49.1187 25.7468 48.6694C26.0659 48.2199 26.4861 47.7911 26.8826 47.3952C26.9252 47.3527 26.9675 47.3105 27.0094 47.2688C27.3703 46.9092 27.7061 46.5747 27.9775 46.2387C28.2822 45.8615 28.4573 45.5388 28.5025 45.2509L28.5025 45.2507C28.5499 44.9492 28.4818 44.5782 28.3095 44.1217C28.1513 43.7029 27.9273 43.2656 27.6878 42.7981C27.6675 42.7585 27.6471 42.7187 27.6267 42.6787C27.3722 42.1812 27.1043 41.6471 26.9382 41.1278C26.7725 40.6097 26.6856 40.0408 26.8638 39.4932L91.2751 45.2523ZM91.2751 45.2523C91.2276 44.9503 91.2958 44.579 91.4681 44.1225C91.6264 43.7033 91.8507 43.2657 92.0905 42.7977C92.1106 42.7585 92.1308 42.7191 92.151 42.6795C92.4056 42.182 92.6736 41.6479 92.8399 41.1286C93.0059 40.6104 93.093 40.0413 92.9154 39.4934L92.9152 39.493C92.7354 38.9403 92.3305 38.5262 91.8894 38.2001C91.4478 37.8737 90.9159 37.5973 90.4167 37.3439C90.3673 37.3189 90.3182 37.294 90.2694 37.2693C89.8105 37.0371 89.3827 36.8205 89.0167 36.582C88.6096 36.3166 88.3409 36.0619 88.2066 35.7986L88.2065 35.7984C88.0695 35.53 88.0196 35.1589 88.0423 34.6723C88.0629 34.229 88.1395 33.748 88.2215 33.233C88.229 33.1855 88.2366 33.1378 88.2442 33.0898C88.3317 32.5374 88.4202 31.9457 88.4162 31.399C88.4123 30.8532 88.317 30.2842 87.9772 29.817L87.977 29.8166C87.6359 29.3485 87.1233 29.0816 86.6042 28.9091C86.0843 28.7364 85.4936 28.6383 84.9409 28.5516C84.8902 28.5436 84.8398 28.5358 84.7898 28.528C84.2773 28.4481 83.7992 28.3735 83.3739 28.2581C82.9045 28.1306 82.5686 27.97 82.3575 27.759C82.146 27.5475 81.9853 27.2112 81.8577 26.7415C81.7422 26.3159 81.6676 25.8376 81.5877 25.325C81.5799 25.2749 81.5721 25.2245 81.5641 25.1737C81.4774 24.6208 81.3793 24.03 81.2064 23.5101C81.0338 22.991 80.7666 22.4783 80.2978 22.1377C79.8307 21.7976 79.2618 21.7022 78.7161 21.6981C78.1692 21.6941 77.5775 21.7827 77.0251 21.8702C76.9768 21.8779 76.9287 21.8855 76.881 21.8932C76.3662 21.9752 75.8856 22.0517 75.4426 22.0725C74.956 22.0953 74.5849 22.0455 74.3165 21.9084C74.0532 21.7737 73.7983 21.5047 73.533 21.0975C73.2947 20.7317 73.0783 20.3043 72.8462 19.8457C72.8213 19.7965 72.7962 19.7469 72.7708 19.697C72.5174 19.1976 72.2408 18.6657 71.9141 18.224C71.5878 17.7828 71.1734 17.378 70.6204 17.1983L70.6202 17.1982C70.0725 17.0205 69.5036 17.1076 68.9855 17.2736C68.4663 17.4399 67.9322 17.7079 67.4347 17.9625C67.395 17.9828 67.3555 18.003 67.3163 18.0231C66.8484 18.2629 66.4109 18.4871 65.9918 18.6454C65.5353 18.8178 65.1643 18.8858 64.8628 18.8384L64.8626 18.8384C64.5747 18.7933 64.252 18.6181 63.8748 18.3134C63.5389 18.0421 63.2043 17.7063 62.8448 17.3454C62.803 17.3034 62.7609 17.2611 62.7183 17.2185C62.3224 16.8221 61.8936 16.4018 61.4441 16.0827C60.9948 15.7638 60.473 15.5078 59.8888 15.5078C59.3048 15.5078 58.7832 15.7639 58.3341 16.0827C57.8846 16.4018 57.4559 16.822 57.06 17.2185C57.0174 17.2612 56.9752 17.3035 56.9334 17.3455C56.5739 17.7063 56.2394 18.0421 55.9036 18.3135C55.5264 18.6182 55.2039 18.7933 54.9164 18.8384L54.9163 18.8384C54.6144 18.8859 54.2431 18.8177 53.7866 18.6454C53.3673 18.4871 52.9296 18.2627 52.4616 18.0228C52.4226 18.0028 52.3833 17.9827 52.3438 17.9625C51.8464 17.708 51.3124 17.4399 50.7934 17.2736C50.2754 17.1076 49.7065 17.0205 49.1588 17.1982L49.1586 17.1983C48.6056 17.378 48.1912 17.7828 47.8649 18.224C47.5382 18.6657 47.2616 19.1976 47.0082 19.697C46.9829 19.7469 46.9577 19.7965 46.9328 19.8458C46.7007 20.3043 46.4844 20.7317 46.246 21.0975C45.9806 21.5048 45.7258 21.7738 45.4624 21.9085C45.194 22.0451 44.8229 22.0947 44.3366 22.0718C43.8936 22.051 43.4129 21.9744 42.8983 21.8925C42.8505 21.8848 42.8023 21.8772 42.7539 21.8695C42.2015 21.7819 41.6098 21.6934 41.0631 21.6973C40.5173 21.7012 39.9482 21.7965 39.481 22.1363L39.4807 22.1365C39.0126 22.4776 38.7457 22.9903 38.5732 23.5094C38.4004 24.0293 38.3023 24.62 38.2157 25.1728C38.2077 25.2236 38.1998 25.274 38.192 25.3242C38.1121 25.8366 38.0376 26.3148 37.9221 26.7403C37.7947 27.2097 37.6341 27.546 37.423 27.7575C37.2115 27.9686 36.8752 28.1292 36.4056 28.2566C35.9801 28.372 35.5018 28.4466 34.9893 28.5265C34.9391 28.5343 34.8886 28.5422 34.8378 28.5501C34.2849 28.6368 33.6941 28.7349 33.1743 28.9077C32.6553 29.0801 32.1428 29.347 31.8021 29.8152C31.4617 30.2824 31.3662 30.8516 31.3622 31.3974C31.3582 31.9443 31.4467 32.536 31.5343 33.0884C31.542 33.1367 31.5496 33.1848 31.5572 33.2325C31.6392 33.7472 31.7158 34.2279 31.7365 34.6709C31.7593 35.1574 31.7096 35.5284 31.5726 35.7968C31.4379 36.0602 31.1689 36.3151 30.7615 36.5805C30.3959 36.8188 29.9687 37.035 29.5105 37.267C29.4611 37.2921 29.4113 37.3173 29.3612 37.3427C28.8619 37.5961 28.3301 37.8727 27.8886 38.1994C27.4477 38.5257 27.0432 38.94 26.8638 39.4929L91.2751 45.2523ZM87.5728 30.1111C88.0976 30.8325 87.9124 31.9946 87.7269 33.1589C87.5571 34.225 87.387 35.2928 87.7612 36.0258C88.1291 36.7469 89.0835 37.2297 90.041 37.7142C91.0982 38.249 92.1594 38.7858 92.4397 39.6476C92.7124 40.4886 92.1791 41.5289 91.6428 42.575C91.1486 43.5389 90.652 44.5076 90.7811 45.3299L87.5728 30.1111Z" stroke="url(#paint0_linear_1961_86800)" stroke-linecap="round" stroke-linejoin="round"/>
</g>
<g filter="url(#filter3_b_1961_86800)">
<path fill-rule="evenodd" clip-rule="evenodd" d="M81.8871 50.8342C81.8871 38.3484 71.7649 28.2266 59.2787 28.2266C46.7941 28.2266 36.6719 38.3484 36.6719 50.8342C36.6719 63.3199 46.7941 73.4418 59.2787 73.4418C71.7649 73.4418 81.8871 63.3199 81.8871 50.8342Z" fill="#6592FF" fill-opacity="0.35"/>
<path d="M82.3871 50.8342C82.3871 38.0723 72.041 27.7266 59.2787 27.7266C46.5179 27.7266 36.1719 38.0723 36.1719 50.8342C36.1719 63.596 46.5179 73.9418 59.2787 73.9418C72.041 73.9418 82.3871 63.5961 82.3871 50.8342Z" stroke="url(#paint1_linear_1961_86800)" stroke-linecap="round" stroke-linejoin="round"/>
</g>
<rect x="55.9453" y="47.5" width="6.66563" height="6.66563" rx="3.33282" fill="white"/>
</g>
<defs>
<filter id="filter0_f_1961_86800" x="-7" y="45.7422" width="140.938" height="85.8984" filterUnits="userSpaceOnUse" color-interpolation-filters="sRGB">
<feFlood flood-opacity="0" result="BackgroundImageFix"/>
<feBlend mode="normal" in="SourceGraphic" in2="BackgroundImageFix" result="shape"/>
<feGaussianBlur stdDeviation="15" result="effect1_foregroundBlur_1961_86800"/>
</filter>
<filter id="filter1_f_1961_86800" x="-50.6633" y="-2.14772" width="224.78" height="160.249" filterUnits="userSpaceOnUse" color-interpolation-filters="sRGB">
<feFlood flood-opacity="0" result="BackgroundImageFix"/>
<feBlend mode="normal" in="SourceGraphic" in2="BackgroundImageFix" result="shape"/>
<feGaussianBlur stdDeviation="30.1207" result="effect1_foregroundBlur_1961_86800"/>
</filter>
<filter id="filter2_b_1961_86800" x="0.671875" y="-8.99219" width="118.438" height="118.438" filterUnits="userSpaceOnUse" color-interpolation-filters="sRGB">
<feFlood flood-opacity="0" result="BackgroundImageFix"/>
<feGaussianBlur in="BackgroundImageFix" stdDeviation="12"/>
<feComposite in2="SourceAlpha" operator="in" result="effect1_backgroundBlur_1961_86800"/>
<feBlend mode="normal" in="SourceGraphic" in2="effect1_backgroundBlur_1961_86800" result="shape"/>
</filter>
<filter id="filter3_b_1961_86800" x="11.6719" y="3.22656" width="95.2188" height="95.2188" filterUnits="userSpaceOnUse" color-interpolation-filters="sRGB">
<feFlood flood-opacity="0" result="BackgroundImageFix"/>
<feGaussianBlur in="BackgroundImageFix" stdDeviation="12"/>
<feComposite in2="SourceAlpha" operator="in" result="effect1_backgroundBlur_1961_86800"/>
<feBlend mode="normal" in="SourceGraphic" in2="effect1_backgroundBlur_1961_86800" result="shape"/>
</filter>
<linearGradient id="paint0_linear_1961_86800" x1="36.5654" y1="23.9804" x2="80.2189" y2="78.0463" gradientUnits="userSpaceOnUse">
<stop stop-color="white" stop-opacity="0.25"/>
<stop offset="1" stop-color="white" stop-opacity="0"/>
</linearGradient>
<linearGradient id="paint1_linear_1961_86800" x1="43.8694" y1="33.4942" x2="72.7119" y2="69.2163" gradientUnits="userSpaceOnUse">
<stop stop-color="white" stop-opacity="0.25"/>
<stop offset="1" stop-color="white" stop-opacity="0"/>
</linearGradient>
<clipPath id="clip0_1961_86800">
<rect width="120" height="120" fill="white"/>
</clipPath>
</defs>
</svg>
