<svg width="120" height="120" viewBox="0 0 120 120" fill="none" xmlns="http://www.w3.org/2000/svg">
<g clip-path="url(#clip0_1891_88231)">
<g filter="url(#filter0_f_1891_88231)">
<ellipse cx="64.4697" cy="88.6925" rx="40.4696" ry="12.9503" fill="#6592FF" fill-opacity="0.3"/>
</g>
<path d="M36 27C36 24.7909 37.7909 23 40 23H85C87.2091 23 89 24.7909 89 27V59H36V27Z" fill="url(#paint0_linear_1891_88231)"/>
<path d="M35.875 59H89.125L95.505 73.3776C96.6787 76.0225 94.7425 79 91.8489 79H33.1511C30.2575 79 28.3213 76.0225 29.495 73.3776L35.875 59Z" fill="#163AF7"/>
<path opacity="0.2" d="M46 44H70" stroke="white" stroke-width="2" stroke-linecap="round"/>
<path opacity="0.2" d="M46 35H58" stroke="white" stroke-width="2" stroke-linecap="round"/>
<g filter="url(#filter1_b_1891_88231)">
<circle cx="82.5748" cy="68.5748" r="16.2857" fill="#BCE4F1" fill-opacity="0.5"/>
</g>
<path d="M74.8047 63.3906L78.6955 74.4945L82.5774 64.501L86.4593 74.4945L90.3501 63.3906" stroke="white" stroke-width="2" stroke-linecap="round" stroke-linejoin="round"/>
<path fill-rule="evenodd" clip-rule="evenodd" d="M72.6875 67.7109C72.6875 67.1587 73.1352 66.7109 73.6875 66.7109H91.4537C92.006 66.7109 92.4537 67.1587 92.4537 67.7109C92.4537 68.2632 92.006 68.7109 91.4537 68.7109H73.6875C73.1352 68.7109 72.6875 68.2632 72.6875 67.7109Z" fill="white"/>
</g>
<defs>
<filter id="filter0_f_1891_88231" x="-6" y="45.7422" width="140.938" height="85.8984" filterUnits="userSpaceOnUse" color-interpolation-filters="sRGB">
<feFlood flood-opacity="0" result="BackgroundImageFix"/>
<feBlend mode="normal" in="SourceGraphic" in2="BackgroundImageFix" result="shape"/>
<feGaussianBlur stdDeviation="15" result="effect1_foregroundBlur_1891_88231"/>
</filter>
<filter id="filter1_b_1891_88231" x="58.2891" y="44.2891" width="48.5703" height="48.5703" filterUnits="userSpaceOnUse" color-interpolation-filters="sRGB">
<feFlood flood-opacity="0" result="BackgroundImageFix"/>
<feGaussianBlur in="BackgroundImageFix" stdDeviation="4"/>
<feComposite in2="SourceAlpha" operator="in" result="effect1_backgroundBlur_1891_88231"/>
<feBlend mode="normal" in="SourceGraphic" in2="effect1_backgroundBlur_1891_88231" result="shape"/>
</filter>
<linearGradient id="paint0_linear_1891_88231" x1="36" y1="42.4595" x2="89" y2="42.4595" gradientUnits="userSpaceOnUse">
<stop stop-color="#163AF5"/>
<stop offset="1" stop-color="#2D4FFE"/>
</linearGradient>
<clipPath id="clip0_1891_88231">
<rect width="120" height="120" fill="white"/>
</clipPath>
</defs>
</svg>
