<svg width="120" height="120" viewBox="0 0 120 120" fill="none" xmlns="http://www.w3.org/2000/svg">
<g clip-path="url(#clip0_1537_40534)">
<g filter="url(#filter0_f_1537_40534)">
<ellipse cx="60.4696" cy="78.6925" rx="40.4696" ry="12.9503" fill="#6592FF" fill-opacity="0.3"/>
</g>
<path d="M58.6339 11.6738L34.7229 18.0808C26.0498 20.4047 22.3607 26.8361 24.6923 35.5378L32.5892 65.0093C34.959 73.8536 41.339 77.4647 50.0121 75.1407L73.9231 68.7338C82.736 66.3724 86.313 60.0933 83.9432 51.249L76.0463 21.7775C73.7147 13.0759 67.4468 9.31243 58.6339 11.6738Z" fill="#163AF5"/>
<g filter="url(#filter1_f_1537_40534)">
<rect x="42.2734" y="64.8594" width="38.1447" height="32.3014" transform="rotate(-105 42.2734 64.8594)" fill="#163AF5"/>
</g>
<g filter="url(#filter2_b_1537_40534)">
<path d="M81.1255 26.9297H56.3711C47.392 26.9297 42.1641 32.1872 42.1641 41.1958V71.7069C42.1641 80.8632 47.392 86.0025 56.3711 86.0025H81.1255C90.2493 86.0025 95.3296 80.8632 95.3296 71.7069V41.1958C95.3296 32.1872 90.2493 26.9297 81.1255 26.9297Z" fill="#6592FF" fill-opacity="0.35"/>
</g>
<circle cx="68.7063" cy="56.3235" r="3.26881" fill="white"/>
<circle cx="80.9641" cy="56.3235" r="3.26881" fill="white"/>
<circle cx="56.4485" cy="56.3235" r="3.26881" fill="white"/>
</g>
<defs>
<filter id="filter0_f_1537_40534" x="-10" y="35.7422" width="140.938" height="85.8984" filterUnits="userSpaceOnUse" color-interpolation-filters="sRGB">
<feFlood flood-opacity="0" result="BackgroundImageFix"/>
<feBlend mode="normal" in="SourceGraphic" in2="BackgroundImageFix" result="shape"/>
<feGaussianBlur stdDeviation="15" result="effect1_foregroundBlur_1537_40534"/>
</filter>
<filter id="filter1_f_1537_40534" x="5.39844" y="-7.34375" width="95.0781" height="99.2031" filterUnits="userSpaceOnUse" color-interpolation-filters="sRGB">
<feFlood flood-opacity="0" result="BackgroundImageFix"/>
<feBlend mode="normal" in="SourceGraphic" in2="BackgroundImageFix" result="shape"/>
<feGaussianBlur stdDeviation="13.5" result="effect1_foregroundBlur_1537_40534"/>
</filter>
<filter id="filter2_b_1537_40534" x="18.1641" y="2.92969" width="101.164" height="107.07" filterUnits="userSpaceOnUse" color-interpolation-filters="sRGB">
<feFlood flood-opacity="0" result="BackgroundImageFix"/>
<feGaussianBlur in="BackgroundImageFix" stdDeviation="12"/>
<feComposite in2="SourceAlpha" operator="in" result="effect1_backgroundBlur_1537_40534"/>
<feBlend mode="normal" in="SourceGraphic" in2="effect1_backgroundBlur_1537_40534" result="shape"/>
</filter>
<clipPath id="clip0_1537_40534">
<rect width="120" height="120" fill="white"/>
</clipPath>
</defs>
</svg>
