<svg width="120" height="120" viewBox="0 0 120 120" fill="none" xmlns="http://www.w3.org/2000/svg">
<g clip-path="url(#clip0_1537_40533)">
<g clip-path="url(#clip1_1537_40533)">
<g filter="url(#filter0_f_1537_40533)">
<ellipse cx="60.4551" cy="89.4433" rx="26.9295" ry="8.61744" transform="rotate(3.93087 60.4551 89.4433)" fill="#6592FF" fill-opacity="0.3"/>
</g>
<g filter="url(#filter1_b_1537_40533)">
<mask id="path-2-outside-1_1537_40533" maskUnits="userSpaceOnUse" x="50.0234" y="79" width="20" height="15" fill="black">
<rect fill="white" x="50.0234" y="79" width="20" height="15"/>
<path d="M51.0234 80V83.9268C51.0234 86.1585 51.9691 88.2988 53.6523 89.8769C55.3356 91.4549 57.6186 92.3415 59.999 92.3415C62.3795 92.3415 64.6625 91.4549 66.3458 89.8769C68.029 88.2988 68.9747 86.1585 68.9747 83.9268V80"/>
</mask>
<path d="M51.0234 80V83.9268C51.0234 86.1585 51.9691 88.2988 53.6523 89.8769C55.3356 91.4549 57.6186 92.3415 59.999 92.3415C62.3795 92.3415 64.6625 91.4549 66.3458 89.8769C68.029 88.2988 68.9747 86.1585 68.9747 83.9268V80" fill="#6592FF" fill-opacity="0.35"/>
<path d="M51.0234 79.5C50.7473 79.5 50.5234 79.7239 50.5234 80C50.5234 80.2761 50.7473 80.5 51.0234 80.5V79.5ZM68.9747 80.5C69.2508 80.5 69.4747 80.2761 69.4747 80C69.4747 79.7239 69.2508 79.5 68.9747 79.5V80.5ZM68.9747 79.5H51.0234V80.5H68.9747V79.5ZM52.0234 80C52.0234 79.4477 51.5757 79 51.0234 79C50.4712 79 50.0234 79.4477 50.0234 80H52.0234ZM59.999 92.3415V93.3415V92.3415ZM69.9747 80C69.9747 79.4477 69.5269 79 68.9747 79C68.4224 79 67.9747 79.4477 67.9747 80H69.9747ZM50.0234 80V83.9268H52.0234V80H50.0234ZM50.0234 83.9268C50.0234 86.4453 51.0912 88.8465 52.9684 90.6064L54.3363 89.1473C52.847 87.7511 52.0234 85.8717 52.0234 83.9268H50.0234ZM52.9684 90.6064C54.8434 92.3642 57.3734 93.3415 59.999 93.3415V91.3415C57.8637 91.3415 55.8278 90.5456 54.3363 89.1473L52.9684 90.6064ZM59.999 93.3415C62.6247 93.3415 65.1547 92.3642 67.0297 90.6064L65.6618 89.1473C64.1703 90.5456 62.1344 91.3415 59.999 91.3415V93.3415ZM67.0297 90.6064C68.9069 88.8465 69.9747 86.4453 69.9747 83.9268H67.9747C67.9747 85.8717 67.1511 87.7511 65.6618 89.1473L67.0297 90.6064ZM69.9747 83.9268V80H67.9747V83.9268H69.9747Z" fill="url(#paint0_linear_1537_40533)" mask="url(#path-2-outside-1_1537_40533)"/>
</g>
<path d="M52.3359 34.1667C52.3359 32.1333 53.1437 30.1833 54.5815 28.7455C56.0192 27.3077 57.9693 26.5 60.0026 26.5C62.0359 26.5 63.986 27.3077 65.4238 28.7455C66.8615 30.1833 67.6693 32.1333 67.6693 34.1667C72.0715 36.2483 75.8243 39.4886 78.5255 43.5403C81.2266 47.592 82.7743 52.3024 83.0026 57.1667V68.6667C83.2911 71.0499 84.1351 73.3321 85.4667 75.3295C86.825 77.3669 85.9815 81.0584 83.5759 81.5159C68.1114 84.4576 51.8938 84.4576 36.4293 81.5159C34.0237 81.0584 33.1802 77.3669 34.5385 75.3295C35.8701 73.3321 36.7141 71.0499 37.0026 68.6667V57.1667C37.2309 52.3024 38.7786 47.592 41.4797 43.5403C44.1809 39.4886 47.9337 36.2483 52.3359 34.1667Z" fill="#163AF5"/>
<g filter="url(#filter2_b_1537_40533)">
<circle cx="83" cy="44" r="14" fill="#6592FF" fill-opacity="0.35"/>
<circle cx="83" cy="44" r="14.5" stroke="url(#paint1_linear_1537_40533)" stroke-linecap="round" stroke-linejoin="round"/>
</g>
<path d="M87.7969 38.6875H85.1406V45.3281H85.0469L80.5 38.6875H78.2031V50H80.8594V43.3594H80.9375L85.5312 50H87.7969V38.6875Z" fill="white"/>
</g>
</g>
<defs>
<filter id="filter0_f_1537_40533" x="3.58594" y="50.6484" width="113.742" height="77.5859" filterUnits="userSpaceOnUse" color-interpolation-filters="sRGB">
<feFlood flood-opacity="0" result="BackgroundImageFix"/>
<feBlend mode="normal" in="SourceGraphic" in2="BackgroundImageFix" result="shape"/>
<feGaussianBlur stdDeviation="15" result="effect1_foregroundBlur_1537_40533"/>
</filter>
<filter id="filter1_b_1537_40533" x="26.0234" y="55" width="67.9531" height="62.3438" filterUnits="userSpaceOnUse" color-interpolation-filters="sRGB">
<feFlood flood-opacity="0" result="BackgroundImageFix"/>
<feGaussianBlur in="BackgroundImageFix" stdDeviation="12"/>
<feComposite in2="SourceAlpha" operator="in" result="effect1_backgroundBlur_1537_40533"/>
<feBlend mode="normal" in="SourceGraphic" in2="effect1_backgroundBlur_1537_40533" result="shape"/>
</filter>
<filter id="filter2_b_1537_40533" x="59" y="20" width="48" height="48" filterUnits="userSpaceOnUse" color-interpolation-filters="sRGB">
<feFlood flood-opacity="0" result="BackgroundImageFix"/>
<feGaussianBlur in="BackgroundImageFix" stdDeviation="4.5"/>
<feComposite in2="SourceAlpha" operator="in" result="effect1_backgroundBlur_1537_40533"/>
<feBlend mode="normal" in="SourceGraphic" in2="effect1_backgroundBlur_1537_40533" result="shape"/>
</filter>
<linearGradient id="paint0_linear_1537_40533" x1="53.881" y1="81.4378" x2="60.7157" y2="93.7506" gradientUnits="userSpaceOnUse">
<stop stop-color="white" stop-opacity="0.25"/>
<stop offset="1" stop-color="white" stop-opacity="0"/>
</linearGradient>
<linearGradient id="paint1_linear_1537_40533" x1="73.4571" y1="33.262" x2="91.3182" y2="55.3833" gradientUnits="userSpaceOnUse">
<stop stop-color="white" stop-opacity="0.25"/>
<stop offset="1" stop-color="white" stop-opacity="0"/>
</linearGradient>
<clipPath id="clip0_1537_40533">
<rect width="120" height="120" fill="white"/>
</clipPath>
<clipPath id="clip1_1537_40533">
<rect width="120" height="120" fill="white"/>
</clipPath>
</defs>
</svg>
