<svg width="120" height="120" viewBox="0 0 120 120" fill="none" xmlns="http://www.w3.org/2000/svg">
<g clip-path="url(#clip0_2757_212959)">
<g filter="url(#filter0_f_2757_212959)">
<ellipse cx="60" cy="89" rx="40" ry="13" fill="#6592FF" fill-opacity="0.3"/>
</g>
<path d="M99.174 51.3475L79.674 45.3605C78.909 45.1256 78.091 45.1256 77.326 45.3605L57.826 51.3475C56.1464 51.8632 55 53.4145 55 55.1714V71.0604C55 81.7302 60.6671 91.5971 69.8834 96.9735L76.4845 100.824C77.7299 101.551 79.2701 101.551 80.5155 100.824L87.1166 96.9735C96.3329 91.5971 102 81.7302 102 71.0604V55.1714C102 53.4144 100.854 51.8632 99.174 51.3475Z" fill="#163AF5"/>
<g filter="url(#filter1_b_2757_212959)">
<path d="M89.3855 31.0346L60.9429 20.5328C60.0141 20.1898 58.9911 20.2035 58.0719 20.5713L29.5144 31.9942C27.9958 32.6017 27 34.0725 27 35.7081V62.788C27 73.4477 32.6566 83.3069 41.8591 88.6869L57.4812 97.8198C58.7283 98.5489 60.2717 98.5489 61.5188 97.8198L77.1409 88.6869C86.3434 83.3069 92 73.4477 92 62.788V34.787C92 33.1122 90.9566 31.6148 89.3855 31.0346Z" fill="#6592FF" fill-opacity="0.35"/>
</g>
<circle cx="58.5266" cy="57.2688" r="3.26881" fill="white"/>
<circle cx="70.7844" cy="57.2688" r="3.26881" fill="white"/>
<circle cx="46.2688" cy="57.2688" r="3.26881" fill="white"/>
</g>
<defs>
<filter id="filter0_f_2757_212959" x="-10" y="46" width="140" height="86" filterUnits="userSpaceOnUse" color-interpolation-filters="sRGB">
<feFlood flood-opacity="0" result="BackgroundImageFix"/>
<feBlend mode="normal" in="SourceGraphic" in2="BackgroundImageFix" result="shape"/>
<feGaussianBlur stdDeviation="15" result="effect1_foregroundBlur_2757_212959"/>
</filter>
<filter id="filter1_b_2757_212959" x="3" y="-3.71094" width="113" height="126.078" filterUnits="userSpaceOnUse" color-interpolation-filters="sRGB">
<feFlood flood-opacity="0" result="BackgroundImageFix"/>
<feGaussianBlur in="BackgroundImageFix" stdDeviation="12"/>
<feComposite in2="SourceAlpha" operator="in" result="effect1_backgroundBlur_2757_212959"/>
<feBlend mode="normal" in="SourceGraphic" in2="effect1_backgroundBlur_2757_212959" result="shape"/>
</filter>
<clipPath id="clip0_2757_212959">
<rect width="120" height="120" fill="white"/>
</clipPath>
</defs>
</svg>
