<svg width="144" height="130" viewBox="0 0 144 130" fill="none" xmlns="http://www.w3.org/2000/svg">
<g filter="url(#filter0_f_1095_23267)">
<ellipse cx="73.4867" cy="86.6941" rx="40.4696" ry="12.9503" transform="rotate(3.93087 73.4867 86.6941)" fill="#6592FF" fill-opacity="0.3"/>
</g>
<path d="M56.598 33.9456L56.7453 34.0978H56.9572H82.8519C86.5258 34.0978 89.5 36.8454 89.5 40.6116V73.8349C89.5 77.6175 86.5091 80.3487 83.2093 80.3487H24.7907C23.6269 80.3487 22.6403 80.402 21.8399 80.4452C21.4693 80.4652 21.1385 80.483 20.8486 80.4924C20.3773 80.5077 20.0166 80.5013 19.7317 80.4588C19.4511 80.4169 19.276 80.3444 19.1533 80.2502C18.9116 80.0646 18.7092 79.6648 18.6037 78.5996C18.5006 77.5599 18.5 76.0508 18.5 73.8349V31.0138C18.5 27.5656 21.1672 24.5 24.7907 24.5H43.8512C46.1532 24.5 48.3568 25.4337 49.958 27.0875L56.598 33.9456Z" fill="url(#paint0_linear_1095_23267)" stroke="url(#paint1_linear_1095_23267)"/>
<path d="M34 35V45" stroke="white" stroke-width="3" stroke-linecap="round"/>
<path d="M29 40H39" stroke="white" stroke-width="3" stroke-linecap="round"/>
<g filter="url(#filter1_b_1095_23267)">
<path d="M91.2081 77.8333C89.7963 80.7857 85.9136 83 82.7369 83H21.6736C18.8499 83 17.085 79.6786 18.4969 77.0952L29.4389 57.1667C31.2037 54.5833 35.0864 52 38.2631 52H99.3264C102.15 52 103.915 55.3214 102.503 57.9048L91.2081 77.8333Z" fill="url(#paint2_linear_1095_23267)" fill-opacity="0.5"/>
<path d="M90.7732 77.5868L90.7646 77.6019L90.7571 77.6176C90.1042 78.9829 88.8616 80.2081 87.3779 81.0946C85.8947 81.9807 84.2176 82.5 82.7369 82.5H21.6736C19.2859 82.5 17.6783 79.636 18.9355 77.3353C18.9356 77.3352 18.9356 77.3351 18.9357 77.335L29.8653 57.429C30.7019 56.2122 32.051 54.9751 33.5819 54.0415C35.1249 53.1004 36.7988 52.5 38.2631 52.5H99.3264C101.713 52.5 103.32 55.3616 102.066 57.6618C102.065 57.6629 102.065 57.6639 102.064 57.665L90.7732 77.5868Z" stroke="url(#paint3_linear_1095_23267)" stroke-opacity="0.8"/>
</g>
<defs>
<filter id="filter0_f_1095_23267" x="3.10156" y="43.4766" width="140.766" height="86.4375" filterUnits="userSpaceOnUse" color-interpolation-filters="sRGB">
<feFlood flood-opacity="0" result="BackgroundImageFix"/>
<feBlend mode="normal" in="SourceGraphic" in2="BackgroundImageFix" result="shape"/>
<feGaussianBlur stdDeviation="15" result="effect1_foregroundBlur_1095_23267"/>
</filter>
<filter id="filter1_b_1095_23267" x="11" y="45" width="99" height="45" filterUnits="userSpaceOnUse" color-interpolation-filters="sRGB">
<feFlood flood-opacity="0" result="BackgroundImageFix"/>
<feGaussianBlur in="BackgroundImageFix" stdDeviation="3.5"/>
<feComposite in2="SourceAlpha" operator="in" result="effect1_backgroundBlur_1095_23267"/>
<feBlend mode="normal" in="SourceGraphic" in2="effect1_backgroundBlur_1095_23267" result="shape"/>
</filter>
<linearGradient id="paint0_linear_1095_23267" x1="91.9602" y1="86.959" x2="10.6305" y2="42.7592" gradientUnits="userSpaceOnUse">
<stop stop-color="#6A95FF"/>
<stop offset="0.5" stop-color="#2A50F7"/>
<stop offset="1" stop-color="#163AF5"/>
</linearGradient>
<linearGradient id="paint1_linear_1095_23267" x1="14.3426" y1="34.1218" x2="97.665" y2="40.524" gradientUnits="userSpaceOnUse">
<stop stop-color="white" stop-opacity="0.8"/>
<stop offset="1" stop-color="white" stop-opacity="0"/>
</linearGradient>
<linearGradient id="paint2_linear_1095_23267" x1="47.7812" y1="59.9193" x2="112.275" y2="70.0073" gradientUnits="userSpaceOnUse">
<stop stop-color="#C4C9F9"/>
<stop offset="1" stop-color="#C4C9F9" stop-opacity="0.2"/>
</linearGradient>
<linearGradient id="paint3_linear_1095_23267" x1="45.3334" y1="86.3307" x2="138.427" y2="36.0591" gradientUnits="userSpaceOnUse">
<stop stop-color="white" stop-opacity="0.8"/>
<stop offset="0.533618" stop-color="white" stop-opacity="0"/>
</linearGradient>
</defs>
</svg>
