<svg width="120" height="120" viewBox="0 0 120 120" fill="none" xmlns="http://www.w3.org/2000/svg">
<rect width="120" height="120" fill="#D71920"/>
<path d="M95.1697 52.3808H97.2311C97.3654 52.3808 97.4766 52.2696 97.4766 52.1352V48.2487C97.4766 48.1144 97.3654 48.0078 97.2311 48.0078H94.3359C90.9867 48.0078 89.2125 49.0779 88.198 51.3524L81.9026 66.7735C81.5228 67.6953 80.9715 68.1308 79.8876 68.1308V48.2487C79.8876 48.1144 79.7764 48.0078 79.642 48.0078H75.019C74.88 48.0078 74.7734 48.1144 74.7734 48.2487V72.0822C74.7734 72.3138 74.968 72.513 75.1996 72.513H80.3925C83.7417 72.513 85.2704 71.4429 86.2802 69.1684L92.4968 53.9372C92.9925 52.8579 93.7105 52.3854 95.1697 52.3854V52.3808Z" fill="white"/>
<path d="M38.6221 60.2572C40.4843 59.4836 42.0176 57.7511 42.0176 54.8744C42.0176 50.5988 38.3488 48 33.9249 48H20.2409C20.1065 48 20 48.1065 20 48.2409V52.1274C20 52.2618 20.1065 52.3729 20.2409 52.3729H32.9706C35.0274 52.3729 36.4124 53.6283 36.4124 55.1755C36.4124 56.7227 35.0227 57.9735 32.9706 57.9735H25.4106V55.0875C25.4106 54.9485 25.304 54.842 25.1651 54.842H20.2409C20.1065 54.842 20 54.9485 20 55.0875V72.2596C20 72.394 20.1065 72.5005 20.2409 72.5005H33.721C38.761 72.5005 42.3696 70.1519 42.3696 65.3574C42.3696 63.0042 40.9799 61.054 38.6221 60.2526V60.2572ZM33.2346 68.2388H25.4106V62.49H33.2346C35.3424 62.49 36.7691 63.7778 36.7691 65.3621C36.7691 66.9463 35.3424 68.2388 33.2346 68.2388Z" fill="white"/>
<path d="M99.9626 72.2217L92.0274 62.0768C92.0042 62.0444 91.9718 62.049 91.9579 62.0814L89.8224 67.3067C89.8085 67.3392 89.8085 67.3762 89.827 67.404L93.2967 72.0503C93.5422 72.3792 93.8201 72.5042 94.2324 72.5042H99.819C99.9858 72.5042 100.051 72.3467 99.9534 72.2217H99.9626Z" fill="white"/>
<path d="M51.0654 54.8438H46.433C46.2987 54.8438 46.1875 54.9503 46.1875 55.0893V72.2614C46.1875 72.3957 46.294 72.5023 46.433 72.5023H51.0654C51.1951 72.5023 51.3063 72.3957 51.3063 72.2614V55.0893C51.3063 54.9503 51.1951 54.8438 51.0654 54.8438Z" fill="white"/>
<path d="M70.1136 48.0078H65.4859C65.3516 48.0078 65.245 48.1144 65.245 48.2487V68.1354C64.1564 68.1354 63.6098 67.6953 63.2299 66.7781L56.9299 51.357C55.9154 49.0825 54.1413 48.0124 50.7967 48.0124H46.433C46.2987 48.0124 46.1875 48.119 46.1875 48.2533V52.1399C46.1875 52.2742 46.294 52.3854 46.433 52.3854H49.9582C51.4174 52.3854 52.1354 52.8579 52.6357 53.9372L58.8477 69.1684C59.8622 71.4429 61.3909 72.513 64.7401 72.513H69.9283C70.1646 72.513 70.3591 72.3184 70.3591 72.0822V48.2487C70.3591 48.1144 70.2526 48.0078 70.1136 48.0078Z" fill="white"/>
</svg>
