<svg width="120" height="120" viewBox="0 0 120 120" fill="none" xmlns="http://www.w3.org/2000/svg">
<rect width="120" height="120" fill="#F9F9F9"/>
<path d="M49.3551 51.3043C47.3701 49.4731 44.9502 47.9688 42.0365 46.9452C40.5747 46.4286 38.1581 45.6797 36.1012 45.6797C34.3353 45.6797 32.8278 46.2389 32.4419 48.0048C31.7094 51.3665 32.0495 80.2451 32.3143 83.5872C32.4975 86.0431 33.5308 87.4754 36.4118 87.4198C56.4938 87.096 61.762 62.7596 49.3583 51.3043H49.3551Z" fill="url(#paint0_linear_1214_49008)"/>
<path d="M72.3611 28.1112C70.5592 26.45 68.3421 25.0831 65.7194 24.1576C64.3852 23.6835 62.1975 23 60.3269 23C58.7115 23 57.3446 23.5232 56.9914 25.1223C56.3276 28.1636 56.6448 54.3868 56.8737 57.4281C57.047 59.6518 57.979 60.95 60.5951 60.9108C78.8327 60.6066 83.6234 38.507 72.3611 28.1112Z" fill="url(#paint1_linear_1214_49008)"/>
<path d="M80.4168 52.4818C78.1538 50.3954 75.3644 48.6721 72.0681 47.5144C70.384 46.916 67.6305 46.0625 65.2924 46.0625C63.2649 46.0625 61.5382 46.7034 61.0968 48.7179C60.2531 52.5505 60.6618 85.4906 60.9529 89.3134C61.1785 92.1225 62.3394 93.7412 65.6194 93.6921C88.5398 93.3259 94.5634 65.5526 80.4135 52.4818H80.4168Z" fill="url(#paint2_linear_1214_49008)"/>
<defs>
<linearGradient id="paint0_linear_1214_49008" x1="53.5331" y1="69.846" x2="28.6191" y2="69.6068" gradientUnits="userSpaceOnUse">
<stop offset="0.1" stop-color="#F4791F"/>
<stop offset="0.27" stop-color="#F1731F"/>
<stop offset="0.49" stop-color="#E86222"/>
<stop offset="0.74" stop-color="#DB4725"/>
<stop offset="1" stop-color="#C9242B"/>
</linearGradient>
<linearGradient id="paint1_linear_1214_49008" x1="60.7193" y1="42.2782" x2="83.016" y2="42.4922" gradientUnits="userSpaceOnUse">
<stop stop-color="#13B1E7"/>
<stop offset="1" stop-color="#0060AF"/>
</linearGradient>
<linearGradient id="paint2_linear_1214_49008" x1="61.2441" y1="64.3832" x2="93.9607" y2="64.6973" gradientUnits="userSpaceOnUse">
<stop stop-color="#8DC63F"/>
<stop offset="0.14" stop-color="#87C340"/>
<stop offset="0.32" stop-color="#76BE42"/>
<stop offset="0.52" stop-color="#5BB447"/>
<stop offset="0.74" stop-color="#35A74E"/>
<stop offset="0.97" stop-color="#069756"/>
<stop offset="1" stop-color="#009558"/>
</linearGradient>
</defs>
</svg>
