<svg width="120" height="120" viewBox="0 0 120 120" fill="none" xmlns="http://www.w3.org/2000/svg">
<rect width="120" height="120" fill="#E1002C"/>
<path d="M46.7102 56.5705C43.932 55.2668 41.6454 54.2126 41.6454 52.0897C41.6454 50.4655 42.949 49.283 45.5135 49.283C46.4538 49.283 47.2303 49.3827 48.0281 49.5395C48.4413 49.6107 48.8901 49.6748 49.2605 49.6748C51.4973 49.6748 52.7653 48.3427 53.6059 45.7996L53.9549 44.7524C53.5988 44.6099 49.9372 43 45.1573 43C37.5635 43 33.5458 47.8797 33.5529 52.9446C33.5529 55.4948 34.3508 57.3469 35.6045 58.8073C37.2216 60.6808 39.5154 61.9132 41.6596 62.9603C44.7869 64.499 47.6149 65.6317 47.6149 67.9112C47.6149 69.9343 45.5277 71.0884 42.7281 71.0884C38.9099 71.0884 35.5689 68.8943 35.1415 68.6307L32 74.5219C32.5556 74.8354 36.5947 77.407 43.2624 77.407C50.3504 77.407 55.7145 73.3252 55.7145 67.0635C55.7145 60.8019 50.7351 58.5223 46.7102 56.5705Z" fill="white"/>
<path d="M74.4404 59.4649L87.3057 43.6719H78.1447L67.8867 57.3065H67.73V43.6719H60.1719V77.1243H60.6207C63.8833 77.1243 67.7728 75.6141 67.7728 70.1503V62.4639H67.9295L78.3869 76.7112H87.9967L74.4333 59.4578L74.4404 59.4649Z" fill="white"/>
</svg>
