<svg width="120" height="120" viewBox="0 0 120 120" fill="none" xmlns="http://www.w3.org/2000/svg">
<rect width="120" height="120" fill="#102C52"/>
<path d="M89.686 47.4504C86.3358 44.0729 80.832 44.6579 77.5615 48.1153C73.3339 52.5566 70.0369 54.2321 66.1018 54.0725C60.6245 53.8332 57.9124 49.6046 55.1206 44.259C52.1958 38.6741 47.7023 35.5625 42.0921 35.5625C33.2912 35.5625 28 42.6899 28 50.6684C28 62.902 36.6148 70.2422 42.5707 73.3006C47.5162 75.8803 53.0201 76.9707 57.939 77.0771C57.6465 80.0025 56.7957 83.8588 55.8385 86.5981H65.9156C64.9319 83.8588 64.0544 79.6834 63.762 76.758C78.5187 74.8431 85.5382 68.1412 89.367 61.7585C91.0952 58.966 91.9993 56.0406 91.9993 53.4343C91.9993 51.1471 91.2548 49.0727 89.6594 47.5036M42.1452 55.1629C39.2737 55.3491 36.8541 53.1949 36.668 50.3493C36.5084 47.5036 38.6355 45.0569 41.5071 44.8707C44.3521 44.6845 46.7717 46.8653 46.9578 49.711C47.1439 52.5566 44.9902 55.0034 42.1452 55.1895" fill="#62A744"/>
</svg>
