<svg width="120" height="120" viewBox="0 0 120 120" fill="none" xmlns="http://www.w3.org/2000/svg">
<rect width="120" height="120" fill="#231815"/>
<g clip-path="url(#clip0_1214_49013)">
<path d="M71.8748 50C66.2167 50 61.6172 54.6042 61.6172 60.2576C61.6172 65.911 66.2167 70.5152 71.8748 70.5152C77.5329 70.5152 82.1324 65.911 82.1324 60.2576C82.1324 54.6042 77.5282 50 71.8748 50ZM71.8748 67.4895C68.0715 67.4895 64.9802 64.2482 64.9802 60.2576C64.9802 56.267 68.0715 53.0258 71.8748 53.0258C75.6781 53.0258 78.7694 56.267 78.7694 60.2576C78.7694 64.2482 75.6781 67.4895 71.8748 67.4895Z" fill="white"/>
<path d="M29.1382 51.0625H20V51.3763C21.3255 52.6456 21.4801 53.9899 21.4801 56.299V69.751C21.4801 69.9103 21.6112 70.0367 21.7705 70.0367H29.1382C36.4637 70.0367 39.7986 65.2311 39.7986 60.5379C39.7986 55.8447 36.4637 51.0625 29.1382 51.0625ZM28.2482 67.7744H25.007V53.3295H28.2482C33.6066 53.3295 36.0562 56.0602 36.0562 60.5098C36.0562 64.9595 33.6066 67.7744 28.2482 67.7744Z" fill="white"/>
<path d="M89.4102 67.7651V51.0625H84.3984V51.3763C85.724 52.6456 85.8785 53.9899 85.8785 56.299V69.751C85.8785 69.9103 86.0097 70.0367 86.1689 70.0367H100V67.7651H89.4055H89.4102Z" fill="white"/>
<path d="M51.6913 50.864V50.8359H51.6773H47.2042V51.1451C48.0613 51.5947 48.6093 52.6954 48.1082 53.9273L40.5625 70.035H43.162C43.2744 70.035 43.3775 69.9694 43.4243 69.8711L45.2276 66.0209H54.881L56.6843 69.8711C56.7311 69.9741 56.8342 70.035 56.9466 70.035H60.6702L51.6913 50.864ZM46.2862 63.7587L50.052 55.7165L53.8178 63.7587H46.2815H46.2862Z" fill="white"/>
</g>
<defs>
<clipPath id="clip0_1214_49013">
<rect width="80" height="80" fill="white" transform="translate(20 20)"/>
</clipPath>
</defs>
</svg>
