<svg width="120" height="120" viewBox="0 0 120 120" fill="none" xmlns="http://www.w3.org/2000/svg">
<rect width="120" height="120" fill="#E7310E"/>
<g clip-path="url(#clip0_1214_49010)">
<path d="M37.1735 54.6953C35.2177 54.6953 33.8207 55.3348 32.6845 56.9677C31.9581 55.5397 30.468 54.6953 28.4005 54.6953C26.8234 54.6953 24.9608 55.5087 24.2282 56.7939V55.1299H20V69.6212H24.4331V61.2828C24.4331 59.9728 25.2775 58.7745 26.8234 58.7745C28.3694 58.7745 29.1579 59.8548 29.1579 61.2207V69.6212H33.5351V61.2518C33.5351 59.9666 34.3795 58.7745 35.9565 58.7745C37.5336 58.7745 38.26 59.8548 38.26 61.2207V69.6212H42.544V60.2335C42.544 56.2972 39.9177 54.6953 37.1797 54.6953H37.1735Z" fill="white"/>
<path d="M64.4543 57.0829V55.1272H60.1641V69.6184H64.5971V63.2917C64.5971 60.4046 66.199 59.3553 67.9809 59.3553C68.4217 59.3553 68.8874 59.3864 69.3841 59.5044V55.1272C69.0923 55.0403 68.6515 54.9844 68.2168 54.9844C67.0496 54.9844 65.2118 55.45 64.4543 57.0829Z" fill="white"/>
<path d="M75.3315 55.125H70.8984V69.6163H75.3315V55.125Z" fill="white"/>
<path d="M83.3555 50.903H79.3881V52.7657C79.3881 54.1068 78.6616 55.125 77.1405 55.125H76.4141V59.0055H78.9783V65.2205C78.9783 68.1075 80.8161 69.8832 83.8149 69.8832C85.2119 69.8832 85.9445 69.5604 86.1184 69.4735V65.7979C85.8576 65.8538 85.4168 65.9407 84.9511 65.9407C83.9888 65.9407 83.3493 65.6178 83.3493 64.4257V58.9993H86.1805V55.1188H83.3493V50.8906L83.3555 50.903Z" fill="white"/>
<path d="M73.0828 47C71.543 47 70.2578 48.2852 70.2578 49.856C70.2578 51.4269 71.543 52.7121 73.0828 52.7121C74.6226 52.7121 75.9699 51.4269 75.9699 49.856C75.9699 48.2852 74.6847 47 73.0828 47Z" fill="white"/>
<path d="M51.2983 54.6094C47.4923 54.6094 43.9844 57.6144 43.9844 62.3331C43.9844 67.0518 47.5793 70.1499 51.6212 70.1499C54.9429 70.1499 57.1532 68.4487 58.0907 66.2819L54.4213 64.8911C53.9432 65.779 53.074 66.3502 51.677 66.3502C49.9386 66.3502 48.4299 65.1705 48.3429 63.519H58.5439C58.575 63.432 58.6309 62.7553 58.6309 62.1344C58.6309 57.4157 55.8307 54.6156 51.2859 54.6156L51.2983 54.6094ZM48.4361 60.6257C48.523 59.5329 49.4667 58.1484 51.3542 58.1484C53.4776 58.1484 54.2413 59.5019 54.3033 60.6257H48.4361Z" fill="white"/>
<path d="M93.264 65.742L99.8888 58.7695V55.125H88.0176V58.9186V59.0055H94.1457L87.8438 65.711V69.6163H100.001V65.7979V65.742H93.264Z" fill="white"/>
</g>
<defs>
<clipPath id="clip0_1214_49010">
<rect width="80" height="80" fill="white" transform="translate(20 20)"/>
</clipPath>
</defs>
</svg>
