<svg width="120" height="120" viewBox="0 0 120 120" fill="none" xmlns="http://www.w3.org/2000/svg">
<rect width="120" height="120" fill="#0D2D4F"/>
<mask id="mask0_1214_48993" style="mask-type:luminance" maskUnits="userSpaceOnUse" x="85" y="45" width="15" height="16">
<path d="M100.003 45C97.9038 53.6829 90.3937 58.4235 85.9784 60.9466L85.7812 60.6904C87.5947 59.212 93.8038 54.6192 95.7947 47.0007L99.9932 45H100.003Z" fill="white"/>
</mask>
<g mask="url(#mask0_1214_48993)">
<mask id="mask1_1214_48993" style="mask-type:luminance" maskUnits="userSpaceOnUse" x="-1145" y="-1222" width="1543" height="2330">
<path d="M397.547 -1221.14H-1144.48V1107.17H397.547V-1221.14Z" fill="white"/>
</mask>
<g mask="url(#mask1_1214_48993)">
<path d="M104.01 40.9844H81.7656V64.9634H104.01V40.9844Z" fill="#EF8200"/>
</g>
</g>
<mask id="mask2_1214_48993" style="mask-type:luminance" maskUnits="userSpaceOnUse" x="37" y="45" width="6" height="14">
<path d="M38.9976 45.2891C38.8793 46.0775 37.2827 57.2934 37.125 58.3381H40.7125C40.8308 57.5496 42.4274 46.3338 42.5851 45.2891H38.9976Z" fill="white"/>
</mask>
<g mask="url(#mask2_1214_48993)">
<mask id="mask3_1214_48993" style="mask-type:luminance" maskUnits="userSpaceOnUse" x="-1097" y="-1238" width="1543" height="2329">
<path d="M445.688 -1237.53H-1096.34V1090.78H445.688V-1237.53Z" fill="white"/>
</mask>
<g mask="url(#mask3_1214_48993)">
<path d="M46.6019 41.2812H33.1094V62.3627H46.6019V41.2812Z" fill="#FEFEFE"/>
</g>
</g>
<mask id="mask4_1214_48993" style="mask-type:luminance" maskUnits="userSpaceOnUse" x="66" y="45" width="11" height="14">
<path d="M68.3726 45.2891C68.2543 46.0775 66.6577 57.2934 66.5 58.3381H74.9168C75.0055 57.7664 75.2125 56.2487 75.3209 55.5193H70.2255L70.5704 53.1047H75.1928C75.2716 52.5429 75.4687 51.1828 75.5673 50.4732H70.9449L71.2899 48.098H76.2473C76.3262 47.5263 76.5529 46.0085 76.6514 45.2891H68.3824H68.3726Z" fill="white"/>
</mask>
<g mask="url(#mask4_1214_48993)">
<mask id="mask5_1214_48993" style="mask-type:luminance" maskUnits="userSpaceOnUse" x="-1097" y="-1238" width="1543" height="2329">
<path d="M445.688 -1237.53H-1096.34V1090.78H445.688V-1237.53Z" fill="white"/>
</mask>
<g mask="url(#mask5_1214_48993)">
<path d="M80.6584 41.2812H62.4844V62.3627H80.6584V41.2812Z" fill="#FEFEFE"/>
</g>
</g>
<mask id="mask6_1214_48993" style="mask-type:luminance" maskUnits="userSpaceOnUse" x="20" y="45" width="17" height="14">
<path d="M28.3971 52.7675C28.3971 52.7675 31.4031 45.8882 31.6298 45.2969H36.1536C36.1536 46.2135 35.5524 57.4293 35.5524 58.3459H32.3098L32.842 49.2096C32.842 49.2096 29.1856 57.7644 28.9392 58.3459H26.3668L25.2137 49.2096C25.125 49.6235 23.9127 55.7341 23.2425 58.3459H20C20.3351 57.1829 22.8089 45.9671 23.006 45.2969H27.3524L28.3774 52.7675H28.3971Z" fill="white"/>
</mask>
<g mask="url(#mask6_1214_48993)">
<mask id="mask7_1214_48993" style="mask-type:luminance" maskUnits="userSpaceOnUse" x="-1097" y="-1238" width="1543" height="2329">
<path d="M445.688 -1237.54H-1096.34V1090.77H445.688V-1237.54Z" fill="white"/>
</mask>
<g mask="url(#mask7_1214_48993)">
<path d="M40.1741 41.2734H16.0078V62.3549H40.1741V41.2734Z" fill="#FEFEFE"/>
</g>
</g>
<mask id="mask8_1214_48993" style="mask-type:luminance" maskUnits="userSpaceOnUse" x="53" y="45" width="13" height="14">
<path d="M62.0613 55.6967C62.0613 55.6967 62.288 57.8256 62.3767 58.3381H65.8163C65.6291 57.2638 63.7466 46.048 63.6086 45.2891H59.2524C58.9961 45.8311 54.0288 57.0568 53.4375 58.3381H56.9363C57.1236 57.9044 58.0007 55.7066 58.0007 55.7066H62.0514L62.0613 55.6967ZM58.9863 52.9963L61.0461 48.1472L61.7163 52.9963H58.9863Z" fill="white"/>
</mask>
<g mask="url(#mask8_1214_48993)">
<mask id="mask9_1214_48993" style="mask-type:luminance" maskUnits="userSpaceOnUse" x="-1097" y="-1238" width="1543" height="2329">
<path d="M445.703 -1237.53H-1096.33V1090.78H445.703V-1237.53Z" fill="white"/>
</mask>
<g mask="url(#mask9_1214_48993)">
<path d="M69.8311 41.2812H49.4297V62.3627H69.8311V41.2812Z" fill="#FEFEFE"/>
</g>
</g>
<mask id="mask10_1214_48993" style="mask-type:luminance" maskUnits="userSpaceOnUse" x="42" y="45" width="12" height="14">
<path d="M48.3966 47.7411C48.9387 47.7411 49.5497 47.8002 49.9341 48.2339C50.2002 48.5493 50.2988 48.9829 50.2199 49.5447C50.2199 49.5447 50.1115 50.5401 49.4512 50.8555C49.4512 50.8555 48.9978 51.1512 48.2488 51.1709H47.1055L46.9873 52.0086L49.6877 58.3459H53.1767L50.5452 52.8464C52.1418 52.5507 53.3836 52.0776 53.699 49.594C53.7384 49.2786 53.768 48.9928 53.768 48.707C53.768 47.7904 53.5315 47.0512 53.0485 46.4993C52.1911 45.5038 50.7029 45.2969 49.6089 45.2969H44.6909C44.5726 46.0853 42.976 57.3012 42.8281 58.3459H46.0904C46.2086 57.6166 47.6082 47.7411 47.6082 47.7411H48.4065H48.3966Z" fill="white"/>
</mask>
<g mask="url(#mask10_1214_48993)">
<mask id="mask11_1214_48993" style="mask-type:luminance" maskUnits="userSpaceOnUse" x="-1097" y="-1238" width="1543" height="2329">
<path d="M445.688 -1237.54H-1096.34V1090.77H445.688V-1237.54Z" fill="white"/>
</mask>
<g mask="url(#mask11_1214_48993)">
<path d="M57.7791 41.2734H38.7969V62.3549H57.7791V41.2734Z" fill="#FEFEFE"/>
</g>
</g>
<mask id="mask12_1214_48993" style="mask-type:luminance" maskUnits="userSpaceOnUse" x="69" y="66" width="2" height="1">
<path d="M69.8906 66.8832C69.9596 66.8733 70.0188 66.8536 70.0878 66.8438C70.0188 66.8536 69.9498 66.8733 69.8906 66.8832Z" fill="white"/>
</mask>
<g mask="url(#mask12_1214_48993)">
<mask id="mask13_1214_48993" style="mask-type:luminance" maskUnits="userSpaceOnUse" x="-1145" y="-1222" width="1543" height="2330">
<path d="M397.547 -1221.14H-1144.48V1107.17H397.547V-1221.14Z" fill="white"/>
</mask>
<g mask="url(#mask13_1214_48993)">
<path d="M74.1046 62.8203H65.875V70.8922H74.1046V62.8203Z" fill="#FEFEFE"/>
</g>
</g>
<mask id="mask14_1214_48993" style="mask-type:luminance" maskUnits="userSpaceOnUse" x="70" y="66" width="2" height="1">
<path d="M71.3435 66.5312C71.0675 66.5904 70.7916 66.6692 70.5156 66.7284C70.8014 66.6692 71.0675 66.6002 71.3435 66.5312Z" fill="white"/>
</mask>
<g mask="url(#mask14_1214_48993)">
<mask id="mask15_1214_48993" style="mask-type:luminance" maskUnits="userSpaceOnUse" x="-1145" y="-1222" width="1543" height="2330">
<path d="M397.547 -1221.14H-1144.48V1107.17H397.547V-1221.14Z" fill="white"/>
</mask>
<g mask="url(#mask15_1214_48993)">
<path d="M75.3525 62.5234H66.4922V70.753H75.3525V62.5234Z" fill="#FEFEFE"/>
</g>
</g>
<mask id="mask16_1214_48993" style="mask-type:luminance" maskUnits="userSpaceOnUse" x="71" y="66" width="2" height="1">
<path d="M72.1803 66.3203C72.0226 66.3597 71.855 66.409 71.6875 66.4484C71.855 66.3992 72.0127 66.3597 72.1803 66.3203Z" fill="white"/>
</mask>
<g mask="url(#mask16_1214_48993)">
<mask id="mask17_1214_48993" style="mask-type:luminance" maskUnits="userSpaceOnUse" x="-1145" y="-1222" width="1543" height="2330">
<path d="M397.539 -1221.14H-1144.49V1107.17H397.539V-1221.14Z" fill="white"/>
</mask>
<g mask="url(#mask17_1214_48993)">
<path d="M76.1971 62.3047H67.6719V70.4653H76.1971V62.3047Z" fill="#FEFEFE"/>
</g>
</g>
<mask id="mask18_1214_48993" style="mask-type:luminance" maskUnits="userSpaceOnUse" x="65" y="67" width="1" height="1">
<path d="M65.1923 67.8047C65.1923 67.8047 65.1332 67.8244 65.0938 67.8244C65.1233 67.8244 65.1627 67.8244 65.1923 67.8047Z" fill="white"/>
</mask>
<g mask="url(#mask18_1214_48993)">
<mask id="mask19_1214_48993" style="mask-type:luminance" maskUnits="userSpaceOnUse" x="-1145" y="-1222" width="1543" height="2330">
<path d="M397.547 -1221.14H-1144.48V1107.17H397.547V-1221.14Z" fill="white"/>
</mask>
<g mask="url(#mask19_1214_48993)">
<path d="M69.2169 63.7969H61.0859V71.849H69.2169V63.7969Z" fill="#FEFEFE"/>
</g>
</g>
<mask id="mask20_1214_48993" style="mask-type:luminance" maskUnits="userSpaceOnUse" x="63" y="67" width="2" height="2">
<path d="M64.1502 67.9844C64.0812 67.9844 64.0221 68.0041 63.9531 68.0139C64.0221 68.0041 64.0812 67.9942 64.1502 67.9844Z" fill="white"/>
</mask>
<g mask="url(#mask20_1214_48993)">
<mask id="mask21_1214_48993" style="mask-type:luminance" maskUnits="userSpaceOnUse" x="-1145" y="-1222" width="1543" height="2330">
<path d="M397.539 -1221.14H-1144.49V1107.17H397.539V-1221.14Z" fill="white"/>
</mask>
<g mask="url(#mask21_1214_48993)">
<path d="M68.1691 63.9688H59.9297V72.0308H68.1691V63.9688Z" fill="#FEFEFE"/>
</g>
</g>
<mask id="mask22_1214_48993" style="mask-type:luminance" maskUnits="userSpaceOnUse" x="75" y="64" width="2" height="2">
<path d="M76.9615 64.9297C76.5969 65.0578 76.2125 65.1662 75.8281 65.2943C76.2224 65.1761 76.5969 65.0578 76.9615 64.9297Z" fill="white"/>
</mask>
<g mask="url(#mask22_1214_48993)">
<mask id="mask23_1214_48993" style="mask-type:luminance" maskUnits="userSpaceOnUse" x="-1145" y="-1222" width="1543" height="2330">
<path d="M397.547 -1221.14H-1144.48V1107.17H397.547V-1221.14Z" fill="white"/>
</mask>
<g mask="url(#mask23_1214_48993)">
<path d="M80.9705 60.9141H71.8047V69.3112H80.9705V60.9141Z" fill="#FEFEFE"/>
</g>
</g>
<mask id="mask24_1214_48993" style="mask-type:luminance" maskUnits="userSpaceOnUse" x="75" y="65" width="1" height="1">
<path d="M75.6256 65.3516C75.4581 65.391 75.3004 65.4501 75.1328 65.4994C75.3004 65.4501 75.4581 65.4008 75.6256 65.3516Z" fill="white"/>
</mask>
<g mask="url(#mask24_1214_48993)">
<mask id="mask25_1214_48993" style="mask-type:luminance" maskUnits="userSpaceOnUse" x="-1145" y="-1222" width="1543" height="2330">
<path d="M397.547 -1221.14H-1144.48V1107.17H397.547V-1221.14Z" fill="white"/>
</mask>
<g mask="url(#mask25_1214_48993)">
<path d="M79.6502 61.3438H71.125V69.524H79.6502V61.3438Z" fill="#FEFEFE"/>
</g>
</g>
<mask id="mask26_1214_48993" style="mask-type:luminance" maskUnits="userSpaceOnUse" x="73" y="65" width="2" height="2">
<path d="M74.9312 65.5625C74.399 65.7202 73.8471 65.8779 73.2656 66.0356C73.8373 65.8779 74.3892 65.7202 74.9312 65.5625Z" fill="white"/>
</mask>
<g mask="url(#mask26_1214_48993)">
<mask id="mask27_1214_48993" style="mask-type:luminance" maskUnits="userSpaceOnUse" x="-1145" y="-1222" width="1543" height="2330">
<path d="M397.539 -1221.14H-1144.49V1107.17H397.539V-1221.14Z" fill="white"/>
</mask>
<g mask="url(#mask27_1214_48993)">
<path d="M78.9382 61.5469H69.25V70.0524H78.9382V61.5469Z" fill="#FEFEFE"/>
</g>
</g>
<mask id="mask28_1214_48993" style="mask-type:luminance" maskUnits="userSpaceOnUse" x="72" y="66" width="2" height="1">
<path d="M73.0084 66.1094C72.8409 66.1488 72.6832 66.1981 72.5156 66.2375C72.6832 66.1882 72.8507 66.1488 73.0084 66.1094Z" fill="white"/>
</mask>
<g mask="url(#mask28_1214_48993)">
<mask id="mask29_1214_48993" style="mask-type:luminance" maskUnits="userSpaceOnUse" x="-1145" y="-1222" width="1543" height="2330">
<path d="M397.547 -1221.14H-1144.48V1107.17H397.547V-1221.14Z" fill="white"/>
</mask>
<g mask="url(#mask29_1214_48993)">
<path d="M77.0174 62.0859H68.4922V70.2465H77.0174V62.0859Z" fill="#FEFEFE"/>
</g>
</g>
<mask id="mask30_1214_48993" style="mask-type:luminance" maskUnits="userSpaceOnUse" x="75" y="61" width="9" height="4">
<path d="M75.6195 61.6875C75.5308 62.2296 75.2844 63.9543 75.1562 64.7921C77.6892 64.0824 80.7543 63.0673 83.5829 61.6875H75.6096H75.6195Z" fill="white"/>
</mask>
<g mask="url(#mask30_1214_48993)">
<mask id="mask31_1214_48993" style="mask-type:luminance" maskUnits="userSpaceOnUse" x="-1145" y="-1222" width="1543" height="2330">
<path d="M397.539 -1221.14H-1144.49V1107.17H397.539V-1221.14Z" fill="white"/>
</mask>
<g mask="url(#mask31_1214_48993)">
<path d="M87.5997 57.6719H71.1406V68.8089H87.5997V57.6719Z" fill="#FEFEFE"/>
</g>
</g>
<mask id="mask32_1214_48993" style="mask-type:luminance" maskUnits="userSpaceOnUse" x="45" y="61" width="9" height="7">
<path d="M52.0108 67.4773C51.6954 67.2309 51.3308 67.0141 50.907 66.817C50.8971 66.817 49.9608 66.3439 49.9608 66.3439L49.9411 66.3341C49.6356 66.1567 48.926 65.7427 48.926 65.043C48.926 64.698 49.0639 64.4122 49.3005 64.2052C49.5961 63.9588 50.0495 63.8701 50.5423 63.9588C51.1632 64.0574 51.863 64.4516 52.6416 65.1218C53.0062 64.4122 53.7159 63.0521 53.9721 62.5593C53.0851 61.8201 52.2178 61.4358 50.9267 61.1992C49.33 60.9627 47.8024 61.2978 46.7183 62.1158C45.8115 62.8156 45.2498 63.8307 45.0921 65.0627C45.0724 65.2795 45.0625 65.4766 45.0625 65.6737C45.0625 66.2552 45.1611 66.7579 45.368 67.2014C45.4469 67.2014 45.5257 67.2112 45.5947 67.2211C47.2209 67.3393 49.4582 67.4379 52.0207 67.4675" fill="white"/>
</mask>
<g mask="url(#mask32_1214_48993)">
<mask id="mask33_1214_48993" style="mask-type:luminance" maskUnits="userSpaceOnUse" x="-1145" y="-1222" width="1543" height="2330">
<path d="M397.547 -1221.14H-1144.48V1107.17H397.547V-1221.14Z" fill="white"/>
</mask>
<g mask="url(#mask33_1214_48993)">
<path d="M57.9733 57.1094H41.0312V71.4889H57.9733V57.1094Z" fill="#FEFEFE"/>
</g>
</g>
<mask id="mask34_1214_48993" style="mask-type:luminance" maskUnits="userSpaceOnUse" x="65" y="61" width="10" height="6">
<path d="M68.9826 64.5062H73.94C74.0189 63.9248 74.2357 62.4168 74.3441 61.6875H66.0653C66.016 62.0226 65.7006 64.2401 65.3359 66.7731C66.4792 66.6252 67.6126 66.4577 68.7165 66.2606L68.9727 64.5062H68.9826Z" fill="white"/>
</mask>
<g mask="url(#mask34_1214_48993)">
<mask id="mask35_1214_48993" style="mask-type:luminance" maskUnits="userSpaceOnUse" x="-1145" y="-1222" width="1543" height="2330">
<path d="M397.547 -1221.14H-1144.48V1107.17H397.547V-1221.14Z" fill="white"/>
</mask>
<g mask="url(#mask35_1214_48993)">
<path d="M78.3589 57.6719H61.3281V70.7899H78.3589V57.6719Z" fill="#FEFEFE"/>
</g>
</g>
<mask id="mask36_1214_48993" style="mask-type:luminance" maskUnits="userSpaceOnUse" x="30" y="61" width="55" height="15">
<path d="M76.9504 64.9243C76.5858 65.0524 76.2014 65.1608 75.817 65.2889C75.7579 65.3086 75.6987 65.3284 75.6297 65.3481C75.4721 65.3973 75.3045 65.4466 75.137 65.4959C75.068 65.5156 74.999 65.5353 74.93 65.555C74.3879 65.7127 73.8459 65.8704 73.2742 66.0281C73.1757 66.0478 73.0968 66.0774 72.9983 66.0971C72.8406 66.1365 72.673 66.1858 72.5055 66.2252C72.3971 66.2548 72.2985 66.2844 72.1901 66.3139C72.0324 66.3534 71.8648 66.3928 71.6973 66.4421C71.579 66.4716 71.4608 66.5012 71.3326 66.5308C71.0567 66.5998 70.7906 66.6589 70.5048 66.7279C70.3668 66.7574 70.2189 66.7969 70.081 66.8264C70.012 66.8363 69.9528 66.856 69.8838 66.8659C68.4153 67.201 66.8483 67.5163 65.1826 67.8022C65.1531 67.8022 65.1235 67.812 65.0841 67.812C64.7786 67.8711 64.4632 67.9204 64.1478 67.9697C64.0788 67.9697 64.0197 67.9796 63.9507 67.9993C63.6254 68.0584 63.3002 68.1077 62.9651 68.157C62.9454 68.157 62.9257 68.157 62.906 68.157C61.1221 68.4231 59.2495 68.6399 57.2783 68.8173H57.2488C56.9531 68.8469 56.6476 68.8666 56.342 68.8961C56.3125 68.8961 56.2829 68.8961 56.2533 68.8961C55.9478 68.9159 55.6324 68.9454 55.317 68.9553C55.2973 68.9553 55.2776 68.9553 55.2579 68.9553C54.9327 68.975 54.6074 68.9947 54.2822 69.0144C54.2625 69.0144 54.2526 69.0144 54.2329 69.0144C53.8978 69.0341 53.5726 69.0538 53.2276 69.0637H53.198C51.5423 69.1425 49.8274 69.1918 48.0632 69.1918H47.9449C47.5507 69.1918 47.1466 69.1918 46.7327 69.1918C46.6637 69.1918 46.5848 69.1918 46.5158 69.1918C45.0769 69.1721 43.6183 69.1228 42.1202 69.044H42.1005C39.8336 68.9257 37.4978 68.7385 35.0832 68.4625L37.8625 65.8507C37.8625 65.8507 39.4788 66.3336 41.7062 66.7377C41.2824 64.2147 40.9079 61.9971 40.8488 61.6719H36.4925C36.2462 62.2139 31.269 73.4396 30.6875 74.7209H34.1764C34.3637 74.2872 35.5365 71.4784 35.5365 71.4784H39.1832C39.1832 71.4784 39.538 74.2084 39.6168 74.7209H43.0565C42.9875 74.2971 42.6524 72.3358 42.268 70.0394C44.7221 70.1774 47.1762 70.1971 49.4726 70.1675C49.5908 70.3646 49.65 70.5716 49.65 70.7884C49.65 70.8673 49.65 70.9461 49.6303 71.0348C49.581 71.3305 49.4233 71.5671 49.1868 71.7346C48.7137 72.0697 48.0336 72.0007 47.5606 71.912C46.4469 71.7247 45.5697 70.8771 44.8502 70.1774C44.3969 70.9067 43.4606 72.4442 43.1649 72.937C44.4757 74.1295 45.8949 74.8687 47.393 75.0757C48.9108 75.3024 50.4187 74.9574 51.5324 74.1394C52.5081 73.4199 53.1192 72.3654 53.3065 71.1038C53.3656 70.7392 53.3952 70.3942 53.3755 70.069C55.8394 69.9704 57.8697 69.8127 59.1903 69.7043C59.6141 70.0197 59.8408 70.3844 59.8408 70.8082C59.8408 70.887 59.8408 70.9659 59.8211 71.0546C59.7718 71.3502 59.6141 71.5868 59.3776 71.7543C58.9045 72.0894 58.2245 72.0204 57.7613 71.9317C56.6476 71.7445 55.7605 70.8969 55.0509 70.1971C54.6074 70.9264 53.6711 72.4639 53.3656 72.9567C54.6764 74.1493 56.0956 74.8884 57.5937 75.0954C59.1115 75.3221 60.6096 74.9771 61.7233 74.1591C62.699 73.4396 63.3199 72.3851 63.5072 71.1235C63.6254 70.4139 63.5959 69.7832 63.4283 69.2115C63.9901 69.1327 64.5223 69.0538 65.0249 68.9651C64.6406 71.705 64.2661 74.2675 64.2069 74.7406H72.6237C72.7026 74.169 72.9194 72.6512 73.0278 71.9219H67.9324L68.2773 69.5072H72.8997C72.9785 69.0046 73.1362 67.8613 73.2447 67.1221C73.8754 66.925 74.1908 66.8067 74.1908 66.8067C74.1908 66.8067 75.748 66.3336 77.7783 65.5945C77.4826 67.6346 76.5956 73.8832 76.4675 74.7505H80.1043C80.2127 73.9817 81.5136 64.944 81.5136 64.944H84.155C84.224 64.3822 84.4802 62.5885 84.5985 61.7803C83.2285 62.5392 80.6463 63.7317 76.9603 64.944" fill="white"/>
</mask>
<g mask="url(#mask36_1214_48993)">
<mask id="mask37_1214_48993" style="mask-type:luminance" maskUnits="userSpaceOnUse" x="-1145" y="-1222" width="1543" height="2330">
<path d="M397.547 -1221.14H-1144.48V1107.17H397.547V-1221.14Z" fill="white"/>
</mask>
<g mask="url(#mask37_1214_48993)">
<path d="M88.832 58.0938H26.8984V79.6089H88.832V58.0938Z" fill="#FEFEFE"/>
</g>
</g>
<mask id="mask38_1214_48993" style="mask-type:luminance" maskUnits="userSpaceOnUse" x="55" y="61" width="10" height="7">
<path d="M61.0945 66.8228L60.1483 66.3497H60.1385V66.3398C59.8329 66.1624 59.1135 65.7485 59.1135 65.0487C59.1135 64.7038 59.2514 64.4081 59.488 64.211C59.7836 63.9646 60.237 63.8759 60.7199 63.9646C61.3409 64.0632 62.0505 64.4672 62.8291 65.1374C63.1937 64.4278 63.9034 63.0677 64.1596 62.5749C63.2627 61.8358 62.4053 61.4514 61.1142 61.2148C59.5175 60.9783 57.9899 61.3134 56.9156 62.1314C56.0089 62.8312 55.4373 63.8463 55.2894 65.0882C55.2697 65.2951 55.25 65.5021 55.25 65.6992C55.25 66.3793 55.3978 66.9706 55.6837 67.4634C57.6154 67.4141 59.6654 67.3254 61.7252 67.1579C61.538 67.0494 61.3409 66.9312 61.1142 66.8425" fill="white"/>
</mask>
<g mask="url(#mask38_1214_48993)">
<mask id="mask39_1214_48993" style="mask-type:luminance" maskUnits="userSpaceOnUse" x="-1145" y="-1222" width="1543" height="2330">
<path d="M397.539 -1221.14H-1144.49V1107.17H397.539V-1221.14Z" fill="white"/>
</mask>
<g mask="url(#mask39_1214_48993)">
<path d="M68.1608 57.1094H51.2188V71.4594H68.1608V57.1094Z" fill="#FEFEFE"/>
</g>
</g>
</svg>
