<svg width="120" height="120" viewBox="0 0 120 120" fill="none" xmlns="http://www.w3.org/2000/svg">
<rect width="120" height="120" fill="#134198"/>
<path d="M26.1909 60.0094L59.6045 37.3925L93.4136 60.0094L59.8624 82.3679L26.1909 60.0094ZM59.6045 33L20 60.0094L59.8624 87.0188L100 60.0094L59.6045 33Z" fill="white"/>
<path d="M60.2085 77.6958C59.8989 77.5063 54.2583 73.9234 53.5533 73.4928C54.3271 72.9933 73.5017 60.2293 73.5017 60.2293C73.5017 60.2293 63.4071 53.2702 62.7364 52.8051C63.3555 52.3573 68.5146 48.671 68.8241 48.4471C69.168 48.671 85.1956 59.7297 85.9006 60.212C85.1784 60.7116 60.518 77.4546 60.2085 77.6786M50.0623 63.3987L45.5911 60.1259L49.8043 57.1287L54.2755 60.4876L50.0623 63.416V63.3987ZM68.8241 47.6892L68.6349 47.827L61.653 52.8223C61.653 52.8223 62.5472 53.4425 63.8198 54.321L59.5206 57.2837L54.7914 53.8386L65.9006 46.0872L59.8817 41.9531L33.3125 60.0398L49.9935 71.5808L69.7355 58.3689C71.1113 59.3163 72.1947 60.0742 72.4011 60.212C71.6788 60.7116 52.4183 73.4928 52.4183 73.4928L60.2257 78.4193L87.0012 60.2293L68.8241 47.6892Z" fill="white"/>
</svg>
