<svg width="120" height="120" viewBox="0 0 120 120" fill="none" xmlns="http://www.w3.org/2000/svg">
<rect width="120" height="120" fill="#0054A6"/>
<g clip-path="url(#clip0_1214_48994)">
<path d="M80.7674 57.9453H62.6875V60.5105H80.7674V57.9453Z" fill="white"/>
<path d="M76.7906 67.0613C76.7906 65.4658 74.5268 64.1678 71.7298 64.1678C68.9328 64.1678 66.669 65.462 66.669 67.0613C66.669 68.6607 68.9367 69.9511 71.7298 69.9511C74.5229 69.9511 76.7906 68.6569 76.7906 67.0613ZM71.7298 72.4274C67.2407 72.4274 63.6016 70.0244 63.6016 67.0613C63.6016 64.0982 67.2407 61.6953 71.7298 61.6953C76.2189 61.6953 79.8581 64.0982 79.8581 67.0613C79.8581 70.0244 76.2189 72.4274 71.7298 72.4274Z" fill="white"/>
<path d="M91.3516 58.9157L91.7456 48.8906H94.6469L94.2529 58.9157H91.3516Z" fill="white"/>
<path d="M93.5597 48.8906H83.4844V51.3785H93.5597V48.8906Z" fill="white"/>
<path d="M96.2892 56.8125H82.6172V59.3004H96.2892V56.8125Z" fill="white"/>
<path d="M91.3817 58.4609H88.4766V65.2448H91.3817V58.4609Z" fill="white"/>
<path d="M100.003 48.2734H97.1016V67.3926H100.003V48.2734Z" fill="white"/>
<path d="M98.6869 61.25H93.0234V63.4366H98.6869V61.25Z" fill="white"/>
<path d="M87.2529 62.4453H84.3516V71.663H87.2529V62.4453Z" fill="white"/>
<path d="M99.9968 69.1797H85.3203V71.6637H99.9968V69.1797Z" fill="white"/>
<path d="M35.3203 48V60.6289H38.3607V55.9196H41.0611V53.3351H38.4225V48H35.3203Z" fill="white"/>
<path d="M35.4372 64.1868H26.8145V69.4755H35.4372V64.1868ZM23.8359 61.6641H38.4158V71.9982H23.8359V61.6641Z" fill="white"/>
<path d="M59.4337 48V60.6289H56.3895V54.8263H52.4297V52.2457H56.3316V48H59.4337Z" fill="white"/>
<path d="M56.9496 66.654C56.9496 64.7494 54.6664 63.208 51.8501 63.208C49.0338 63.208 46.7506 64.7494 46.7506 66.654C46.7506 68.5585 49.0338 70.1 51.8501 70.1C54.6664 70.1 56.9496 68.5547 56.9496 66.654ZM51.8501 72.8235C47.3224 72.8235 43.6484 70.0613 43.6484 66.654C43.6484 63.2466 47.3224 60.4844 51.8501 60.4844C56.3778 60.4844 60.0517 63.2466 60.0517 66.654C60.0517 70.0613 56.3778 72.8235 51.8501 72.8235Z" fill="white"/>
<path d="M27.9969 48.4531C27.9969 48.4531 27.5913 55.2833 33.1273 58.1151L31.5395 60.3133C31.5395 60.3133 27.4831 57.6399 26.5636 54.7116C25.6442 57.6399 21.5917 60.3133 21.5917 60.3133L20 58.1151C25.536 55.2833 25.1304 48.4531 25.1304 48.4531H28.0008H27.9969Z" fill="white"/>
<path d="M47.1846 54.7116C46.2652 57.6399 42.5526 60.0892 42.5526 60.0892L40.9609 57.8871C46.157 55.2833 45.7513 48.4531 45.7513 48.4531H48.6217C48.6217 48.4531 48.2161 55.2833 53.4121 57.8871L51.8205 60.0892C51.8205 60.0892 48.1079 57.6399 47.1885 54.7116" fill="white"/>
<path d="M63.9443 48.7656V51.3501H69.9709C69.9709 51.3501 69.2833 54.0389 63.8516 54.9082L64.4001 57.3768C64.4001 57.3768 70.6393 56.2487 71.806 53.2663C72.9688 56.2487 79.2118 57.3768 79.2118 57.3768L79.7604 54.9082C74.3287 54.0389 73.6449 51.3501 73.6449 51.3501H79.6715V48.7656H63.9404H63.9443Z" fill="white"/>
</g>
<defs>
<clipPath id="clip0_1214_48994">
<rect width="80" height="80" fill="white" transform="translate(20 20)"/>
</clipPath>
</defs>
</svg>
