<svg width="120" height="120" viewBox="0 0 120 120" fill="none" xmlns="http://www.w3.org/2000/svg">
<rect width="120" height="120" fill="#004712"/>
<path d="M88.6794 64.3597L84.655 61.7248C82.0411 63.5713 78.4316 63.7581 75.5896 61.8908C75.5896 61.8908 63.3503 53.9032 62.23 53.1563C60.8816 52.2642 59.2013 52.202 57.77 53.1356C56.3386 54.0692 44.3689 61.8908 44.3689 61.8908C41.5269 63.7581 37.9381 63.5713 35.3036 61.7248L31.2998 64.3597C27.9392 66.5589 26.985 71.061 29.1839 74.4428C31.3828 77.8038 35.8844 78.7582 39.2658 76.559L57.9359 64.3597C59.4088 63.4469 60.612 63.4469 62.0641 64.3597L80.7342 76.559C84.0949 78.7582 88.6172 77.8246 90.8161 74.4428C93.015 71.0818 92.0608 66.5797 88.7002 64.3597H88.6794Z" fill="white"/>
<path d="M58.6229 41.7458C59.0378 41.4968 59.5149 41.3516 60.0335 41.3516C60.5521 41.3516 61.0293 41.4968 61.4234 41.7458C62.191 42.2022 70.3228 47.5964 70.3228 47.5964C73.0196 49.3599 76.484 49.0072 78.7866 46.9533L83.4127 49.9823C86.2754 51.8496 87.0845 55.6878 85.1967 58.5509C83.3297 61.414 79.492 62.2231 76.6292 60.3351C76.6292 60.3351 63.3734 51.6836 62.0872 50.9574C60.8011 50.2106 59.2867 50.1898 57.9591 50.9574C56.8803 51.6006 43.3549 60.3351 43.3549 60.3351C40.5129 62.0364 36.6544 61.3932 34.7874 58.5509C32.9203 55.6878 33.7294 51.8496 36.5714 49.9823L41.1974 46.9533C43.4793 49.0072 46.9437 49.3599 49.6405 47.5964C49.6405 47.5964 57.8139 42.2437 58.6229 41.7665V41.7458Z" fill="white"/>
<path d="M61.5856 39.5675L71.3563 45.9991C73.7004 47.5344 76.8329 46.8705 78.368 44.5261C79.9031 42.1817 79.2393 39.0488 76.8951 37.5136L61.5234 27.4512C60.5484 26.8496 59.4489 26.8496 58.4946 27.4512L43.0814 37.5343C40.7373 39.0696 40.0734 42.2024 41.6085 44.5468C43.1436 46.8912 46.2761 47.5551 48.6202 46.0199L58.5361 39.5675C58.9925 39.2563 59.4904 39.0488 60.0712 39.0488C60.6521 39.0488 61.15 39.2563 61.6063 39.5675H61.5856Z" fill="white"/>
<path d="M70.4854 84.6886L62.478 71.5973C61.8349 70.5184 60.9222 69.9582 59.9679 69.9375C59.0344 69.9582 58.1009 70.5184 57.4578 71.5973L49.4504 84.6886C48.4132 86.2862 48.6621 88.8588 51.5249 88.8588H68.3902C71.253 88.8588 71.5019 86.3069 70.4647 84.6886H70.4854Z" fill="white"/>
</svg>
