<svg width="120" height="120" viewBox="0 0 120 120" fill="none" xmlns="http://www.w3.org/2000/svg">
<rect width="120" height="120" fill="#164BF9"/>
<path fill-rule="evenodd" clip-rule="evenodd" d="M27.5 60C27.5 42.0495 42.0495 27.5 60 27.5C77.9505 27.5 92.5 42.0495 92.5 60C92.5 77.9505 77.9505 92.5 60 92.5C42.0495 92.5 27.5 77.9505 27.5 60ZM38.7306 75.0386C40.175 78.0523 42.4172 81.0199 46.1727 83.3934C50.4601 86.105 56.7927 87.0932 60.6795 86.545H60.6894C61.9205 86.3742 62.1601 85.1399 60.9356 84.7886C60.1576 84.5654 58.9725 84.1912 57.9811 83.7611C56.7369 83.2194 55.6109 82.6187 55.1119 82.1263C54.7836 81.8013 54.7343 81.4303 54.997 81.0528C56.4841 78.9124 56.9043 78.0621 57.3212 77.0576C57.9372 75.5747 57.7018 75.0225 57.0403 74.9557C56.7495 74.9256 56.3757 74.9899 55.9555 75.1105C54.4618 75.5373 53.2832 75.9739 52.364 76.3153C51.3025 76.7127 50.575 76.9814 50.0917 76.9326C49.9934 76.9223 49.9053 76.8989 49.8265 76.8606C49.353 76.6286 49.2548 75.8335 49.0911 74.5081C49.0858 74.4645 49.0803 74.4203 49.0747 74.3755C48.9533 73.3808 48.7399 72.2417 48.474 71.1354C48.1919 69.9987 47.8051 69.555 47.3891 69.5144C46.9906 69.4734 46.5652 69.8031 46.1792 70.2486C45.4427 71.1433 44.9537 72.1979 44.5847 72.9937C44.4635 73.2551 44.3553 73.4885 44.2554 73.6792C44.058 74.0561 43.8306 74.204 43.5633 74.1777C43.5384 74.1751 43.5131 74.171 43.4874 74.1654C42.8111 74.021 41.9149 72.9705 40.9366 71.723C40.4673 71.1232 40.0835 70.5691 39.7533 70.0924C39.0787 69.1186 38.6279 68.4679 38.1298 68.4106C38.1238 68.4099 38.1179 68.4092 38.112 68.4087C36.8462 68.2812 37.0712 70.7083 37.9897 73.2675C38.0872 73.5391 38.1925 73.8121 38.3046 74.0838C38.4375 74.4056 38.58 74.7255 38.7306 75.0386ZM70.5313 85.071C73.6106 83.6561 76.1449 81.5288 77.3563 79.5591H77.356C77.3561 79.559 77.3561 79.5589 77.3562 79.5587H77.3532C78.485 77.7153 79.3147 74.9308 78.4481 71.8881C78.3971 71.7091 78.3402 71.5292 78.2772 71.3485C77.3953 68.8195 75.3071 66.1426 71.2337 63.6994C67.4719 61.4437 64.5191 59.7704 62.0928 58.3955C58.834 56.5488 56.5251 55.2404 54.4815 53.782C50.0646 50.6331 48.4252 48.0832 47.8032 46.0832C47.5927 45.4061 47.4987 44.7921 47.453 44.2391C47.1313 40.326 50.0891 36.8068 53.1028 35.149C53.3313 35.0125 53.7103 34.7011 53.5778 34.277C53.5732 34.2624 53.5681 34.2476 53.5623 34.2327C53.3883 33.7863 52.8499 33.8716 52.6431 33.9143C45.91 35.3456 39.3575 41.2777 40.3784 49.1992C40.4384 49.6646 40.5334 50.1778 40.6857 50.7343C40.7257 50.8807 40.7697 51.0301 40.8181 51.1824C41.824 54.3502 44.716 58.7769 53.1126 63.7194C55.0371 64.8537 56.8169 65.8374 58.8139 66.9411C60.4754 67.8594 62.2873 68.8608 64.4581 70.1013C67.8955 72.0668 70.3471 74.3324 71.2893 76.8043C71.3447 76.9497 71.3949 77.0958 71.4398 77.2426C72.0677 79.2979 71.6512 81.4892 69.8976 83.764C69.5952 84.1217 69.338 84.4954 69.4383 84.8247C69.4393 84.828 69.4403 84.8313 69.4414 84.8346C69.5662 85.2121 70.0652 85.2778 70.5313 85.071ZM73.335 41.3976C73.3301 41.5384 73.3592 41.6893 73.4301 41.8394C73.847 42.7126 75.252 43.1657 77.1561 43.6909C79.1726 44.2472 79.994 45.5982 79.9419 47.0513C79.9086 48.0001 79.5027 48.9927 78.8138 49.836V49.8332C76.6865 52.4363 74.5626 51.4646 72.9278 47.8043C71.9068 45.5194 70.5641 44.9712 69.6154 45.5687C68.9843 45.9674 68.8912 46.706 69.1772 47.6309C69.3598 48.2213 69.6969 48.8876 70.1471 49.5898C70.2782 49.7936 70.3765 50.0036 70.4452 50.2159C70.6162 50.7437 70.6048 51.2854 70.4631 51.7793C70.332 52.2366 70.0894 52.6534 69.7762 52.981C68.9489 53.8411 67.5996 54.1858 66.1257 53.8608C64.0707 53.4081 62.046 51.1562 62.17 46.5177C62.1721 46.4371 62.1749 46.3559 62.1783 46.2739C62.2297 45.05 62.428 43.665 62.8101 42.1086C62.9355 41.5973 62.9996 41.1344 63.0152 40.7125C63.0829 38.8476 62.1999 37.7836 61.4515 36.8818C61.3458 36.7545 61.2428 36.6304 61.1456 36.5077C60.82 36.0985 60.6922 35.8013 60.701 35.5767C60.7045 35.4739 60.7365 35.3862 60.7912 35.3098C60.975 35.0505 61.4116 35.0308 62.1831 35.1917C62.5878 35.2774 63.0715 35.4118 63.5843 35.5543C64.3483 35.7666 65.177 35.9969 65.9058 36.1109C66.7134 36.2356 67.6293 36.2717 68.5944 36.2356C71.2043 36.1371 73.1346 36.5409 75.1043 37.5159C77.1667 38.536 78.0874 40.0103 78.054 40.9387C78.0344 41.5178 77.6444 41.8854 76.9294 41.7997C76.4192 41.7372 75.7912 41.4166 75.2126 41.1212C75.0616 41.0442 74.9139 40.9688 74.7726 40.9002C74.313 40.6769 73.9158 40.6047 73.6269 40.8181C73.4548 40.9425 73.3442 41.1548 73.335 41.3976Z" fill="white"/>
</svg>
