<svg width="120" height="120" viewBox="0 0 120 120" fill="none" xmlns="http://www.w3.org/2000/svg">
<rect width="120" height="120" fill="#F9F9F9"/>
<path d="M43.7779 44.7057C42.7441 47.2246 38.4409 48.9813 36.1665 51.2547C30.8942 56.525 32.3027 66.2645 37.7301 68.1375C42.7311 69.8426 38.0015 60.7747 42.7311 56.835C47.7321 52.9986 60.6546 59.7026 50.3037 68.4475C47.8743 70.2301 47.5125 70.8243 45.9359 72.4002C37.4588 80.8739 51.2083 90.4714 61.2749 89.2442C70.1914 88.1592 72.6338 82.3077 73.8743 73.9761C74.9986 66.3808 73.4866 63.7328 74.6626 58.2171C78.4489 47.7671 90.6865 56.6671 92.4052 61.7306C92.4439 61.1493 92.4956 60.581 92.4956 59.9868C92.4956 42.0577 77.9449 27.5 59.9827 27.5C49.6964 27.5 40.5472 32.2923 34.6029 39.7455C41.4647 35.4699 45.923 39.5518 43.7779 44.6928V44.7057Z" fill="url(#paint0_radial_1214_49009)"/>
<path d="M74.6671 58.2171C73.4782 63.7327 75.0031 66.3937 73.8788 73.9761C72.6512 82.3206 70.1959 88.1591 61.2794 89.2442C51.2128 90.4713 37.4633 80.8738 45.9404 72.4002C47.517 70.8243 47.8788 70.2301 50.3082 68.4475C60.6591 59.7025 47.7366 52.9985 42.7356 56.8349C38.006 60.7747 42.7356 69.8426 37.7346 68.1375C32.3072 66.2645 30.8986 56.5249 36.171 51.2547C38.4454 48.9683 42.7615 47.2116 43.7823 44.7057C45.9145 39.5517 41.4692 35.4699 34.6074 39.7584C30.162 45.3128 27.5 52.3397 27.5 59.9996C27.5 77.9416 42.0507 92.4993 60.0001 92.4993C77.9494 92.4993 91.518 78.8717 92.4226 61.7435C90.691 56.667 78.4663 47.78 74.68 58.23L74.6671 58.2171ZM73.4007 48.3354C76.515 50.5701 80.2367 50.7251 81.7357 48.6325C83.2476 46.5528 81.9295 43.0393 78.8281 40.8176C75.7267 38.5571 71.9792 38.415 70.4802 40.4947C68.9812 42.5743 70.2864 46.0878 73.3878 48.3354H73.4007Z" fill="url(#paint1_radial_1214_49009)"/>
<defs>
<radialGradient id="paint0_radial_1214_49009" cx="0" cy="0" r="1" gradientUnits="userSpaceOnUse" gradientTransform="translate(79.2718 56.4971) scale(43.0749 43.0573)">
<stop stop-color="#EF402F"/>
<stop offset="0.17" stop-color="#E6392C"/>
<stop offset="0.45" stop-color="#CD2827"/>
<stop offset="0.6" stop-color="#BE1E24"/>
<stop offset="1" stop-color="#7A1113"/>
</radialGradient>
<radialGradient id="paint1_radial_1214_49009" cx="0" cy="0" r="1" gradientUnits="userSpaceOnUse" gradientTransform="translate(70.9583 44.1502) scale(42.1273 42.1101)">
<stop stop-color="#E6E7E8"/>
<stop offset="1" stop-color="#8A9297"/>
</radialGradient>
</defs>
</svg>
