<svg width="120" height="120" viewBox="0 0 120 120" fill="none" xmlns="http://www.w3.org/2000/svg">
<rect width="120" height="120" fill="url(#paint0_linear_1214_48991)"/>
<path d="M28 60.9126C28 60.423 28.3818 60.0034 28.8676 60.0034L45.4913 59.8984C45.9771 59.8984 46.3936 60.2831 46.3936 60.8077C46.3936 60.9126 46.3936 61.0525 46.3242 61.1574L38.1338 81.6513C37.995 81.966 37.6827 82.2108 37.3356 82.2108C37.0927 82.2108 36.8844 82.1059 36.7109 81.966C36.7109 81.966 36.7109 81.966 36.7109 81.9311C31.5399 76.4054 28.2776 69.0612 28 60.9826V60.9126Z" fill="white"/>
<path d="M45.6232 87.6621L55.4794 62.9366C55.4794 62.9366 55.4794 62.9366 55.4794 62.9016C56.1735 61.083 57.9087 59.7891 59.9563 59.7891C61.8651 59.7891 63.5309 60.8732 64.3291 62.5169L74.7059 87.4522C74.7059 87.4522 74.7753 87.697 74.7753 87.802C74.7753 88.1167 74.6018 88.4315 74.3241 88.5714C74.3241 88.5714 74.3241 88.5714 74.2894 88.5714C70.0554 90.7396 65.2314 91.9637 60.1645 91.9986C55.0629 91.9986 50.2736 90.8795 45.9702 88.7462C45.6926 88.6063 45.4844 88.2916 45.4844 87.9419C45.4844 87.802 45.4844 87.732 45.5538 87.5921L45.6232 87.6621Z" fill="white"/>
<path d="M73.6397 60.9811C73.6397 60.9811 73.5703 60.7363 73.5703 60.6314C73.5703 60.1418 73.9521 59.7221 74.4726 59.7221L91.0963 59.6172C91.5821 59.6172 91.9986 60.0019 91.9986 60.4915C91.8251 68.6051 88.6669 76.0192 83.6 81.6148C83.4265 81.7547 83.2183 81.8946 82.9406 81.8946C82.5589 81.8946 82.2465 81.6848 82.1077 81.3351L73.6397 60.9461V60.9811Z" fill="white"/>
<path d="M89.3938 50.3823L69.9243 50.5222H69.8549C69.5079 50.5222 69.2302 50.2774 69.1261 49.9627L67.5644 46.1857C65.4127 40.625 64.4062 35.2743 64.4062 30.4131V28.9093C64.4062 28.4197 64.788 28 65.2739 28H65.378H65.4127C77.0041 29.9934 86.4785 38.2119 90.2267 49.1933C90.2267 49.1933 90.2614 49.4031 90.2614 49.4731C90.2614 49.9627 89.8796 50.3823 89.359 50.3823H89.3938Z" fill="white"/>
<path d="M52.2985 46.2909L50.8062 50.1029C50.7021 50.3827 50.4592 50.5925 50.1468 50.6625H50.0774H50.008L30.5039 50.8024C29.9833 50.8024 29.6016 50.4177 29.6016 49.8931C29.6016 49.7882 29.6016 49.6833 29.6363 49.6133C33.2456 38.632 42.6159 30.2036 54.1726 28.0703H54.2767C54.7626 28.0703 55.179 28.455 55.179 28.9446V30.4484C55.2485 35.3446 54.3114 40.6604 52.2638 46.2909H52.2985Z" fill="white"/>
<defs>
<linearGradient id="paint0_linear_1214_48991" x1="60" y1="120" x2="60" y2="-7.32485e-07" gradientUnits="userSpaceOnUse">
<stop stop-color="#01ADEE"/>
<stop offset="1" stop-color="#0250A5"/>
</linearGradient>
</defs>
</svg>
