<svg width="120" height="120" viewBox="0 0 120 120" fill="none" xmlns="http://www.w3.org/2000/svg">
<rect width="120" height="120" fill="#005D95"/>
<path d="M79.4362 64.0025C79.4904 63.3716 79.52 62.7309 79.52 62.0803C79.52 50.0593 69.7761 40.3203 57.76 40.3203C45.7439 40.3203 36 50.0593 36 62.0803C36 74.1013 45.7439 83.8403 57.76 83.8403C64.872 83.8403 71.1856 80.4297 75.1581 75.1511L69.9042 69.3254C67.5089 73.5936 63.0583 76.4621 57.8241 76.4621C49.9432 76.4621 43.5556 69.9711 43.5556 61.967C43.5556 53.9628 49.9432 47.4718 57.8241 47.4718C64.1081 47.4718 69.2585 51.602 71.0871 57.3291H55.5125C55.5125 57.3291 51.7865 57.3291 51.7865 61.4051C51.7865 62.9576 52.0428 63.9976 52.0428 63.9976H71.6736H79.4411L79.4362 64.0025Z" fill="white"/>
<path d="M89.7556 36.4766C84.0997 36.4766 79.5156 41.0607 79.5156 46.7166C79.5156 52.3725 84.0997 56.9566 89.7556 56.9566C95.4115 56.9566 99.9956 52.3725 99.9956 46.7166C99.9956 41.0607 95.4115 36.4766 89.7556 36.4766ZM89.7556 51.7135C86.9965 51.7135 84.7587 49.4757 84.7587 46.7166C84.7587 43.9574 86.9965 41.7197 89.7556 41.7197C92.5148 41.7197 94.7525 43.9574 94.7525 46.7166C94.7525 49.4757 92.5148 51.7135 89.7556 51.7135Z" fill="#F39800"/>
</svg>
