<svg width="120" height="120" viewBox="0 0 120 120" fill="none" xmlns="http://www.w3.org/2000/svg">
<rect width="120" height="120" fill="#FFCD00"/>
<path fill-rule="evenodd" clip-rule="evenodd" d="M32.2203 48C25.4752 48 20 52.3222 20 57.6526C20 61.0781 22.2669 64.0858 25.6701 65.8013L24.5172 70.1013C24.4726 70.235 24.5116 70.3742 24.6063 70.4689C24.6731 70.5357 24.7622 70.5691 24.8569 70.5691C24.9293 70.5691 25.0018 70.5413 25.0686 70.4912L30.0202 67.1492C30.7387 67.2495 31.474 67.3108 32.2203 67.3108C38.9654 67.3108 44.4406 62.9885 44.4406 57.6582C44.4406 52.3278 38.971 48.0056 32.2203 48.0056V48Z" fill="#1E1E1E"/>
<path d="M54.7361 65.6707V71.9034H50.2969V48.9221H53.4272L53.973 50.3814C54.9143 49.4401 56.3458 48.4375 58.6573 48.4375C63.0073 48.4375 65.0738 51.6903 65.0403 56.9483C65.0403 62.4513 61.8488 65.977 57.2871 65.977C56.407 65.977 55.7386 65.9158 54.7361 65.6707ZM54.7361 52.626V62.5683C54.9811 62.5961 55.5883 62.6574 56.1675 62.6574C59.3312 62.6574 60.5455 60.4406 60.5455 56.9427C60.5455 53.8737 59.7267 52.0189 57.2035 52.0189C56.3848 52.0189 55.4713 52.264 54.7416 52.626H54.7361Z" fill="#1E1E1E"/>
<path d="M74.7079 55.3943H77.2311V54.8484C77.2311 53.0271 76.1951 52.1749 74.4016 52.1749C73.0314 52.1749 71.2713 52.5703 69.8399 53.2722L68.6256 50.2923C70.2075 49.195 72.6359 48.4375 74.7971 48.4375C79.0524 48.4375 81.3639 50.6877 81.3639 54.9765V65.5259H78.2337L77.7769 64.1279C75.9834 65.4368 74.3403 65.9826 72.8532 65.9826C69.6004 65.9826 67.7734 64.0387 67.7734 60.7525C67.7734 57.2546 70.2075 55.3998 74.7024 55.3998L74.7079 55.3943ZM77.2311 61.2594V58.2182H75.1925C72.9144 58.2182 71.7559 59.037 71.7559 60.6801C71.7559 61.9277 72.3964 62.5349 73.6998 62.5349C74.914 62.5349 76.468 61.9277 77.2255 61.2594H77.2311Z" fill="#1E1E1E"/>
<path d="M94.8017 63.8101C93.2533 67.9429 91.3985 70.9562 88.6916 72.6272L85.9568 70.104C87.5386 68.7338 88.6637 67.3971 89.6329 65.6036L83.7344 49.5233L88.1402 48.337L91.911 61.3816L95.6484 48.2812L99.9984 49.4955L94.8017 63.8156V63.8101Z" fill="#1E1E1E"/>
</svg>
