<svg width="120" height="120" viewBox="0 0 120 120" fill="none" xmlns="http://www.w3.org/2000/svg">
<rect width="120" height="120" fill="#005CB9"/>
<path d="M48.0239 57.0866C49.4423 57.9331 51.3052 58.3652 53.5552 58.3652H57.6207V54.7617H54.4393C53.3255 54.7617 52.4015 54.6368 51.6823 54.3821C50.9382 54.1199 50.2614 53.6679 49.6621 53.0361C48.6457 51.9673 48.1288 50.6687 48.1288 49.1804C48.1288 47.6021 48.6657 46.2536 49.727 45.1723C50.2889 44.6005 50.9332 44.1809 51.6424 43.9287C52.3366 43.6815 53.2006 43.5566 54.2095 43.5566H57.6182V39.9531H53.7525C52.5589 39.9531 51.4776 40.058 50.5436 40.2703C48.9803 40.6099 47.6193 41.3366 46.4906 42.4304C45.7115 43.187 45.0772 44.086 44.6052 45.0974C43.9734 46.4284 43.6562 47.8169 43.6562 49.2228C43.6562 50.2966 43.8485 51.3629 44.2231 52.3918C44.9573 54.422 46.2384 56.0028 48.0239 57.0841V57.0866Z" fill="white"/>
<path d="M65.9675 39.9531L71.2516 54.7617H64.7538L66.839 47.4523H63.0932L59.4922 58.3627H76.346L69.8432 39.9531H65.9675Z" fill="white"/>
<path d="M56.5686 62.9791C56.0217 62.4997 55.3824 62.1576 54.6657 61.9553C53.9166 61.7455 52.9127 61.6406 51.6841 61.6406H44.3697V65.2441H51.1571C52.0861 65.2441 52.7529 65.3765 53.1924 65.6437C53.552 65.8634 53.9815 66.3054 53.9815 67.1695C53.9815 67.8163 53.7168 68.3532 53.2174 68.7203C52.8128 69.0099 52.146 69.1398 51.1122 69.1398H44.3672V80.0527H48.6399V72.7408H52.1111C53.512 72.7408 54.6483 72.5435 55.4948 72.1514C56.3164 71.7669 57.0181 71.1201 57.5775 70.2261C58.1569 69.3096 58.4515 68.3007 58.4515 67.2269C58.4515 66.4328 58.2817 65.6412 57.9496 64.882C57.615 64.1254 57.1505 63.4886 56.5661 62.9816L56.5686 62.9791Z" fill="white"/>
<path d="M74.5443 61.6406H61.2891V65.2441H74.5443V61.6406Z" fill="white"/>
<path d="M61.2891 80.0457H74.5443V76.4422H65.5618V72.7338H74.5443V69.1328H61.2891V80.0457Z" fill="white"/>
<path d="M36.4176 42.9453L29.5552 44.8956C28.8785 46.2491 28.2966 47.6526 27.8047 49.101L31.2633 55.3041C32.005 50.7441 33.813 46.5388 36.4176 42.9453Z" fill="white"/>
<path d="M26.5419 53.9922C26.1898 55.945 26 57.9503 26 60.003C26 62.0557 26.1873 64.0185 26.5319 65.9539L29.8682 59.9631L26.5419 53.9922Z" fill="white"/>
<path d="M88.744 55.3584L92.2101 49.1453C91.7207 47.6995 91.1388 46.2935 90.4696 44.9375L83.6172 42.9922C86.2143 46.5907 88.0098 50.7985 88.744 55.3584Z" fill="white"/>
<path d="M31.2474 64.6406L27.7812 70.8537C28.2707 72.2996 28.8501 73.708 29.5243 75.0615L36.3742 77.0094C33.7771 73.4109 31.9791 69.2031 31.2474 64.6406Z" fill="white"/>
<path d="M77.0541 36.4123L75.1037 29.5474C73.7502 28.8732 72.3443 28.2888 70.8984 27.7969L64.6953 31.258C69.2552 31.9997 73.4631 33.8052 77.0541 36.4123Z" fill="white"/>
<path d="M55.3609 31.2527L49.1478 27.7891C47.6995 28.2785 46.2935 28.8604 44.9375 29.5296L42.9922 36.382C46.5882 33.7849 50.7985 31.9869 55.3584 31.2527H55.3609Z" fill="white"/>
<path d="M87.8841 40.5891C85.5941 37.3052 82.7398 34.4484 79.4609 32.1484L81.3289 38.7261L87.8841 40.5891Z" fill="white"/>
<path d="M32.1094 79.4141C34.4018 82.6979 37.2562 85.5547 40.5325 87.8547L38.6646 81.277L32.1094 79.4141Z" fill="white"/>
<path d="M40.5891 32.1094C37.3027 34.4018 34.4484 37.2562 32.1484 40.535L38.7261 38.6671L40.5891 32.1094Z" fill="white"/>
<path d="M66.0086 26.5444C64.0558 26.1923 62.0505 26 59.9978 26C57.945 26 55.9822 26.1898 54.0469 26.5294L60.0377 29.8707L66.0061 26.5419L66.0086 26.5444Z" fill="white"/>
<path d="M79.4141 87.8866C82.6954 85.5941 85.5547 82.7398 87.8522 79.4609L81.277 81.3289L79.4141 87.8866Z" fill="white"/>
<path d="M83.5859 77.0594L90.4508 75.1116C91.1226 73.7581 91.7094 72.3546 92.1989 70.9062L88.7402 64.7031C87.9985 69.2631 86.1905 73.4684 83.5859 77.0594Z" fill="white"/>
<path d="M42.9453 83.5859L44.8931 90.4508C46.2466 91.1226 47.6501 91.7094 49.0985 92.2014L55.3041 88.7427C50.7441 88.001 46.5363 86.193 42.9478 83.5884L42.9453 83.5859Z" fill="white"/>
<path d="M64.6328 88.7465L70.8459 92.2126C72.2943 91.7232 73.7002 91.1413 75.0537 90.4696L77.0016 83.6172C73.4056 86.2143 69.1952 88.0123 64.6328 88.744V88.7465Z" fill="white"/>
<path d="M93.4566 66.0139C93.8062 64.0636 94.001 62.0558 94.001 60.0031C94.001 57.9504 93.8087 55.9875 93.4691 54.0547L90.1328 60.043L93.4591 66.0139H93.4566Z" fill="white"/>
<path d="M53.9844 93.4538C55.9372 93.8059 57.945 93.9982 59.9952 93.9982C62.0454 93.9982 64.0107 93.8084 65.9436 93.4663L59.9527 90.125L53.9844 93.4538Z" fill="white"/>
</svg>
