<svg width="120" height="120" viewBox="0 0 120 120" fill="none" xmlns="http://www.w3.org/2000/svg">
<rect width="120" height="120" fill="#008E90"/>
<path d="M69.8709 66.4763C69.7244 65.5824 69.4753 64.7326 69.1236 63.9266C67.9953 61.5089 66.4421 59.4721 64.0829 58.0947C60.4343 55.97 56.0237 55.9846 52.419 58.1679C50.7925 59.1497 49.4444 60.5711 48.5799 62.2855C48.2868 62.857 48.0523 63.4724 47.8472 64.0878C46.8947 67.1064 46.924 71.18 48.6385 73.9348C49.1953 74.8433 50.0012 75.6052 50.9976 75.9862C51.994 76.3672 53.1663 76.3232 54.0455 75.7518C55.1884 75.0191 55.3936 73.5977 55.1884 72.3376C54.9247 70.7404 54.7195 69.1578 55.3057 67.5753C55.4962 67.0771 55.7599 66.5935 56.1555 66.2125C56.39 65.9927 56.6684 65.8022 56.9615 65.6557C57.5769 65.348 58.2949 65.2161 58.969 65.3333C60.1705 65.5238 61.1376 66.447 61.6798 67.546C62.2073 68.6303 62.3538 69.8612 62.4125 71.0774C62.6616 76.3379 61.4014 81.8035 60.0679 86.8589C59.9361 87.3864 59.7895 87.8992 59.643 88.4121C59.5258 88.8077 59.3206 89.3206 59.5844 89.7162C59.7016 89.8774 59.8628 89.9946 60.0533 90.0679C60.8299 90.3903 61.4747 89.9067 61.9875 89.3792C65.0793 86.2727 67.0575 82.2724 68.4056 78.1402C68.9185 76.6016 69.3434 75.0337 69.6365 73.4366C70.0321 71.2532 70.2666 68.7622 69.8709 66.4616" fill="white"/>
<path d="M91.9853 42.1257C91.9853 41.3345 91.282 40.8216 90.5347 40.8362C89.7727 40.8655 89.0694 41.2612 88.366 41.5249C74.7825 46.6829 59.4699 47.6646 45.1538 45.6132C42.7067 45.2615 40.2303 44.7633 37.7539 44.3823C36.2154 44.1479 34.6914 43.7962 33.1382 43.679C31.8194 43.5764 30.1636 43.5324 29.0939 44.4556C27.6872 45.6718 27.7751 47.987 28.581 49.5109C29.5482 51.3426 31.2333 52.72 32.977 53.7603C34.6768 54.7714 36.7136 55.8558 38.7357 55.7239C44.2013 55.3722 49.667 54.8447 55.1033 54.1413C64.3788 52.9398 74.0938 51.7968 82.8125 48.2068C85.6552 47.0345 88.4686 45.5692 90.9157 43.6643C91.3553 43.3273 92 42.7705 92 42.1257" fill="white"/>
<path d="M53.0225 37.4803C53.0225 40.4256 55.4109 42.814 58.3709 42.814C61.3308 42.814 63.7046 40.4256 63.7046 37.4803C63.7046 37.0407 63.6021 36.6011 63.4116 36.2055C62.9573 35.2384 62.4445 34.7548 62.4884 33.5972C62.547 32.0293 60.5395 32 59.4552 32C58.2683 32 57.0228 32.1612 55.9531 32.7034C55.1032 33.1283 54.3706 33.7877 53.8577 34.5936C53.3302 35.4142 53.0371 36.3813 53.0078 37.3631C53.0078 37.407 53.0078 37.451 53.0078 37.4803" fill="white"/>
</svg>
