<svg width="120" height="120" viewBox="0 0 120 120" fill="none" xmlns="http://www.w3.org/2000/svg">
<rect width="120" height="120" fill="#004182"/>
<path d="M30.6395 45.0145H20L20.116 45.3189C20.5943 46.464 20.5653 48.5658 20.5363 50.4067C20.5363 50.8415 20.5218 74.976 20.5218 74.976H20.7392C20.7392 74.976 25.5806 75.1499 30.1321 75.1499C39.6409 75.1499 46.0333 68.6996 46.0333 59.1183C46.0333 50.5371 40.0033 45 30.6539 45L30.6395 45.0145ZM25.0733 47.6961C25.6821 47.6526 27.5665 47.5077 28.9145 47.5077C37.0463 47.5077 40.8295 51.4503 40.8295 59.9155C40.8295 68.3807 37.4667 72.9177 30.538 72.9177C25.4647 72.9177 25.0588 72.6712 25.0588 69.6707V47.7106L25.0733 47.6961Z" fill="white"/>
<path d="M74.6059 75.0629C74.4464 73.2945 74.3739 72.1059 74.3739 71.0768V60.5823H69.3151L69.4746 60.9012C69.4746 60.9012 69.9819 61.9158 69.9819 64.1191C69.9819 64.1916 69.9964 71.4102 69.7935 73.1206C68.5759 73.4395 66.9379 73.541 65.8798 73.541C57.8495 73.541 53.7763 68.9315 53.7763 59.8575C53.7763 52.9288 58.3568 47.7541 64.9231 47.2757C68.373 47.0293 71.6923 47.9715 73.7941 49.7834L74.1565 50.1023V45.8552L73.9826 45.8262C71.8953 45.4204 69.4601 45 67.0539 45C55.5013 45 48.6016 51.0735 48.6016 61.2636C48.6016 72.1059 57.0232 75.9761 64.9086 75.9761C68.257 75.9761 71.7068 75.7297 74.3884 75.2804L74.5914 75.2514V75.0485L74.6059 75.0629Z" fill="white"/>
<path d="M92.6481 58.524C95.5327 57.7557 98.3158 55.2046 98.3158 51.4793C98.3158 47.4207 94.6485 45 88.517 45H79.4141L79.4721 45.2754C79.4721 45.2754 79.7475 46.4785 79.7475 49.2471V75.2369H79.9794C79.9794 75.2369 83.5597 75.1644 87.9517 75.1644C95.6051 75.1644 99.9972 71.845 99.9972 66.047C99.9972 62.4667 97.0257 59.4662 92.6771 58.524H92.6481ZM84.2844 59.988H86.6327C92.0683 59.988 94.8079 62.1188 94.8079 66.3224C94.8079 70.7579 92.4452 72.9032 87.5748 72.9032C85.2121 72.9032 84.2989 72.048 84.2989 69.8592V59.988H84.2844ZM84.2989 47.3627H87.2704C91.9523 47.3627 93.9527 48.7832 93.9527 52.1026C93.9527 55.8859 91.503 57.6398 86.2268 57.6398H84.2844V47.3627H84.2989Z" fill="white"/>
</svg>
