<svg width="120" height="120" viewBox="0 0 120 120" fill="none" xmlns="http://www.w3.org/2000/svg">
<rect width="120" height="120" fill="#182D70"/>
<path d="M83.9875 30.6274C83.9052 31.3823 83.8391 32.1391 83.7369 32.8911C83.1188 37.4391 80.9441 40.9106 77.488 43.5037C75.6165 44.9076 73.5169 45.8281 71.4735 46.8624C60.2083 52.5633 48.9376 58.2505 37.6679 63.9416C37.5213 64.0161 37.3702 64.0789 37.143 64.1838C37.0969 63.4534 37.039 62.7779 37.0154 62.1014C36.8987 58.7201 37.4299 55.5015 39.0869 52.5731C40.6969 49.7271 42.991 47.6879 45.7241 46.2595C50.0354 44.0066 54.3902 41.8517 58.7286 39.6596C66.9549 35.5018 75.1821 31.348 83.4083 27.1912C83.5151 27.1373 83.6138 27.0637 83.716 27C83.7459 27 83.7767 27 83.8065 27C83.8672 27.7519 83.9269 28.5029 83.9875 29.2549V30.6274Z" fill="white"/>
<path d="M42.5386 91.9991C42.5332 91.3158 42.5187 90.6325 42.525 89.9501C42.5549 86.4855 43.5223 83.4071 45.7558 80.864C47.0608 79.3787 48.6182 78.2729 50.3223 77.4062C53.5368 75.7719 56.7576 74.1533 59.9766 72.5298C60.0816 72.4769 60.1938 72.4435 60.3088 72.3984C61.0138 78.1238 59.4708 83.4836 54.0563 86.7796C51.9884 88.0384 49.783 89.0325 47.6372 90.1394C46.5639 90.6933 45.4834 91.2285 44.4083 91.7766C44.2915 91.8364 44.1866 91.9246 44.0761 92.0001H42.5377L42.5386 91.9991Z" fill="white"/>
<path d="M39.9497 78.9444C39.9099 77.8366 39.8276 76.8278 39.8466 75.8219C39.9108 72.4465 40.766 69.3583 42.7859 66.7181C44.3362 64.6917 46.29 63.2417 48.4692 62.1388C55.9814 58.3349 63.4991 54.5457 71.0159 50.7517C71.1344 50.6919 71.2602 50.6468 71.4412 50.5703C71.4792 50.9831 71.5218 51.3487 71.5444 51.7164C71.7942 55.7065 71.1245 59.4251 68.7498 62.6221C67.1263 64.8074 65.024 66.3015 62.7009 67.472C55.3054 71.2014 47.9126 74.9356 40.519 78.667C40.3705 78.7424 40.2194 78.812 39.9497 78.9434V78.9444Z" fill="white"/>
</svg>
