<svg width="120" height="120" viewBox="0 0 120 120" fill="none" xmlns="http://www.w3.org/2000/svg">
<rect width="120" height="120" fill="#632D00"/>
<path d="M55.6833 67.375C56.3373 67.375 57.5051 67.939 59.0934 69.6781C67.3149 78.6555 76.5174 85.7528 84.2719 90.03C85.393 90.6411 86.0002 91.1111 86.0002 91.6751C86.0002 92.0981 85.9535 92.5682 84.9726 92.5682C83.2442 92.5682 73.4344 90.6411 70.8651 89.419C68.2959 88.197 62.6903 83.6378 56.0103 72.0752C55.2629 70.7592 54.4688 69.6311 54.4688 68.5971C54.4688 67.563 55.403 67.375 55.6833 67.375Z" fill="#659AD2"/>
<path d="M77.7756 34.3323C77.7756 34.3323 79.4106 37.5755 63.6215 39.7846C65.3498 34.8964 66.471 31.6532 66.471 31.6532C67.4987 28.7391 65.2097 27 63.5747 27C61.9398 27 60.7719 28.2691 60.0712 29.8671L55.3999 40.6776C49.2337 41.1007 44.6558 40.8656 42.6005 40.6776C39.7509 40.3956 39.0035 41.9937 39.0035 43.5918C39.0035 46.4119 43.9551 49.326 47.1316 48.997C49.1403 48.809 50.3082 48.715 51.9431 48.574L34.5191 88.7138C33.8651 90.2179 33.3045 92.615 36.2942 92.615C39.2838 92.615 46.0572 89.8419 47.1784 86.6457C47.6455 85.2827 51.149 75.4122 55.0262 64.3197C56.9415 63.9437 63.9952 62.8627 65.9571 62.8627C67.8257 62.8627 68.7599 63.7087 68.7599 64.6957C68.7599 66.9988 63.2477 73.6261 52.5504 81.8045C51.3826 82.6976 52.3635 83.4026 52.9708 83.4026C54.6058 83.4026 61.9865 78.3264 65.6301 75.5532C69.6475 72.4981 76.6078 64.6017 76.6078 59.0085C76.6078 56.7994 75.6268 54.7783 71.2824 54.7783C66.9381 54.7783 59.5574 55.7183 57.9224 55.9533C58.9501 52.9922 59.9778 50.0781 60.9588 47.3519C69.2271 46.1769 74.132 45.4719 77.0282 44.8608C81.0455 44.0148 84.222 41.7117 84.222 39.3146C84.222 34.2383 77.7756 34.2853 77.7756 34.2853V34.3323Z" fill="white"/>
</svg>
