<svg width="120" height="120" viewBox="0 0 120 120" fill="none" xmlns="http://www.w3.org/2000/svg">
<rect width="120" height="120" fill="#F37321"/>
<path d="M51.0988 60.6099C50.2178 52.5931 58.6153 46.1535 69.8628 46.2406C81.1103 46.3276 90.9437 52.8977 91.8248 60.9036C92.7059 68.9205 84.3083 75.3492 73.0608 75.2621C61.8133 75.1751 51.9799 68.605 51.0988 60.5991M93.9242 63.09C92.9125 53.1479 81.5889 45.0005 68.6445 44.8917C55.6892 44.7829 46.0299 52.7563 47.0415 62.6984C48.0531 72.6406 59.3767 80.788 72.3211 80.8968C85.2656 81.0055 94.9358 73.0322 93.9242 63.09Z" fill="white"/>
<path d="M74.3791 81.1048C68.0047 87.7728 57.7689 88.3276 51.5251 82.3448C45.2813 76.3621 45.3792 66.1154 51.7644 59.4583C58.1387 52.8011 68.3746 52.2464 74.6184 58.2182C80.8621 64.2009 80.7534 74.4477 74.3791 81.1048ZM50.7528 59.2407C43.3451 66.9856 43.2255 78.8966 50.4809 85.8474C57.7362 92.7983 69.6364 92.1565 77.0441 84.4116C84.4626 76.6667 84.5823 64.7557 77.316 57.8049C70.0606 50.854 58.1605 51.4958 50.7419 59.2407" fill="white"/>
<path d="M51.4407 34.3103C64.7006 29.3392 77.819 34.3647 80.7342 45.5361C83.6494 56.7183 75.2628 69.8041 62.0029 74.7643C48.743 79.7354 35.6246 74.7099 32.7094 63.5386C29.7833 52.3672 38.1808 39.2814 51.4407 34.3103ZM39.1272 38.5852C25.367 49.4738 21.8644 65.2573 31.2953 73.8288C40.7371 82.4113 59.5337 80.5295 73.3048 69.6301C87.065 58.7415 90.5676 42.9581 81.1258 34.3756C71.684 25.804 52.8766 27.6858 39.1163 38.5744" fill="white"/>
</svg>
